<?xml version="1.0" encoding="utf-8"?>
<!-- Generator: Adobe Illustrator 18.0.0, SVG Export Plug-In . SVG Version: 6.00 Build 0)  -->
<!DOCTYPE svg PUBLIC "-//W3C//DTD SVG 1.1//EN" "http://www.w3.org/Graphics/SVG/1.1/DTD/svg11.dtd">
<svg version="1.1" id="Layer_1" xmlns="http://www.w3.org/2000/svg" xmlns:xlink="http://www.w3.org/1999/xlink" x="0px" y="0px"
	 viewBox="233 449.9 192 45" enable-background="new 233 449.9 192 45" xml:space="preserve">
<g>
	<path fill="#898D86" d="M253,454.1c-7.5,0.6-13.4,3.5-13.4,6.7c0,1.3,1,2.3,2.7,2.8c1,0.3,0.9,1.3,0.1,1.2c-3.1-0.4-5-1.9-5.1-4
		c-0.2-3.7,6-7.8,14.2-9.4c8.2-1.6,20.7,0.5,19.7,8.7c-0.5,3.9-6.5,8.1-9.5,9.4c1,0.7,1.9,1.4,2.7,2.3c6.2,0.3,14,3.3,16.2,5.5
		c0,0-2.1,2.1-3.8,0.3c-2.1-2.4-8-3.2-11-3.5c2.2,5.4-3.1,13.2-9.5,16.5c-12.3,6.5-21.8,2-20.5-5.3c1.6-8.6,16.5-13.4,25.5-13.5
		c-0.6-0.6-1.2-1-2-1.4c-3.9,1.5-7.9,2.1-10.3,1.7c-1.4-0.2-2.2-1.2-2-2.3c0.1-0.7,0.6-1,0.8-1.2c1.5-1.2,5-1.8,8.7-1.2
		c0.7,0.1,1.2,0.3,1.7,0.5c4.5-2,7.4-5.8,7.4-8.7c-0.1-4.8-8.1-5-8.1-5S255.4,453.9,253,454.1z M255.1,469.6
		c-2.6-0.4-4.9-0.3-5.8,0.7l0,0C250.8,470.4,252.8,470.4,255.1,469.6z M263.1,475.8c0.1-0.6,0.1-1.2-0.2-1.7
		c-9.4-0.7-21.9,5.9-22.7,10.7c-0.4,2.1,1.5,2.7,2.7,2.9C251.1,489,262.1,481.7,263.1,475.8z"/>
	<path fill="#898D86" d="M241.3,473.8c1.3-3,6.9-12.9,8.7-15.9c0.7-1.2,1.3-2,2.8-1.7c1.3,0.3,1,1.8,0.3,2.7
		c-2.2,2.7-4.8,6.6-6.7,9.5c-1,1.5-3.6,6.1-4.1,6.4C241.5,475.1,241,474.6,241.3,473.8z"/>
	<path fill="#898D86" d="M386.2,476.2c0,0-0.2,0-0.5-0.1c-0.2,0-0.4,0-0.6,0s-0.5,0-0.7,0c-0.3,0-0.6,0-0.9,0.1
		c-0.3,0-0.6,0.1-0.9,0.1c-0.3,0.1-0.7,0.1-1,0.1c-0.4,0.1-0.7,0.1-1,0.2c-1.4,0.3-2.7,0.7-3.7,1s-1.7,0.5-1.7,0.5
		c-0.7,0.2-1.4-0.2-1.6-0.9c-0.2-0.7,0.2-1.4,0.9-1.6c0.1,0,0.1-0.1,0.2-0.1l0,0c0,0,0.7-0.1,1.8-0.3c1.1-0.2,2.5-0.4,4-0.5
		c0.4-0.1,0.8-0.1,1.1-0.1c0.4,0,0.7,0,1.1,0c0.4,0,0.7,0,1,0.1c0.3,0,0.6,0.1,0.9,0.1c0.3,0,0.6,0.1,0.8,0.1
		c0.3,0.1,0.4,0.1,0.6,0.1c0.3,0.1,0.5,0.1,0.5,0.1c0.3,0.1,0.5,0.4,0.5,0.7C386.7,476,386.4,476.2,386.2,476.2z"/>
	<path fill="#898D86" d="M384.9,490.4c-1.7,0-3.3-1.3-3.3-3.4c0-1.6,1.5-4.2,3.2-6.8c1-1.5,2-3.7,3.1-3.7c1.6-0.1,2.2,0.8,2.2,2.1
		c0,0.6-0.6,1.1-1.8,3c-1.4,2-3.9,5.5-3.1,6.4c0.5,0.5,5,0.4,6.5-4.5c0.5-1.6,1.1,0.2,2.1-0.8l0.1-0.1c0.2-0.2,0.5-0.3,0.7-0.3
		c0.5,0,0.5,0.3,0.5,0.8c0,0.4-0.3,0.7-0.6,0.9l-1.6-0.1C391.7,485.3,391.1,490.4,384.9,490.4z"/>
	<path fill="#898D86" d="M376,490.4c-2.3,0-3.6-1.5-3.6-3.5c0-1.6,1.6-4.3,3.1-6.9c1-1.8,1.7-3,2.2-3.9c0.5-0.9,0.9-1,1.6-1
		c1.6,0,1.6,0.7,1.7,2c0.1,0.6-0.7,1.2-2.3,4.1c-1.2,2.2-4.3,6.8-2.1,6.8c2.8,0,5.8-3.5,6.7-5.3c0,0,0.3-0.6,0.7-0.7
		c0.5-0.2,0.3-0.3,0.5,0.2c0.2,0.4,0,0.8-0.2,1.1l-0.7-0.6C383.1,484.2,381.9,490.4,376,490.4z"/>
	<path fill="#898D86" d="M368.7,479.8c-0.7,0.2-1.2,0.9-3.3,3.2c-3.1,3.2-5.7,6.3-6.5,5.4c-1.4-1.7,5.6-9.8,10.1-9.7
		c0.1,0,0.2,0.1,0.2,0.1c1.2,1.6,2,0.5,2,0.1c-0.1-1.5-2.5-2.8-4.8-2.8c-5.1,0.2-11.7,7.4-11.6,10.9c0.1,1.8,1.4,3.7,3.9,3.5
		c2.3-0.3,3.6-2,6.2-4.7c0,0.1,0,0.2,0,0.3c-0.2,2.6,0.7,4.4,2.8,4.5c6,0.1,9.8-9.2,9.8-9.2c0.3-0.3,0.5-0.6,0.5-1
		c-0.1-0.5-0.4-0.7-0.8-0.7c0.4-0.5-1-0.9-2.8,2.4c-1.5,2.7-4.4,6.8-5.8,6.2c-0.9-0.4-0.5-2.4,0.5-4.1c0.7-1.2,1.7-2.1,1.7-2.5
		C370.7,480.6,369.7,479.6,368.7,479.8z"/>
	<path fill="#898D86" d="M378.4,481.8c1.2-1.8,4.7-7.9,4.7-7.9c0.9-1.5,0.8-2.1,0.4-3.1c-0.3-0.8-1.2-1.2-2-1.1
		c-0.4,0.1-1,1.6-2.3,3.8l-0.4,0.7l-1.6,2.8c-1.4,2.5-3.1,5-4.1,7.5"/>
	<path fill="#898D86" d="M391.2,470.7c-0.5,1-0.4,2.5,0.7,3.1c1,0.5,2.4-0.4,3-1.4c0.5-1,0.1-2.2-0.9-2.6
		C392.8,469.2,391.7,469.7,391.2,470.7z"/>
	<path fill="#898D86" d="M355.3,484.8c-1.2,2.4-4.1,4.1-6.3,3.8c-1.3-0.2-1.6-1.2-1.2-3c1.9-0.9,7.4-3.8,8.1-6.9
		c0.4-1.9-0.7-2.8-2.7-3.3c-4.3-0.8-10.7,4.7-10.4,10.7c0.2,3,3.1,4.5,6.2,4c2.9-0.4,4.8-1.9,6.5-3.3c1.8-1.5,1.8-3.1,1.8-3.1
		S356.4,482.5,355.3,484.8z M348.5,482.7c0.9-2.2,2.7-3.8,4-4.4c1.7-0.9,1.4,0.7,1,1.2c-1.2,1.6-4.2,3.7-5.2,4.1
		C348.3,483.5,348.4,482.9,348.5,482.7z"/>
	<path fill="#898D86" d="M401,480.1c0,0,0.1,0.1,0.3,0.2c0.1,0.1,0.2,0.2,0.3,0.3s0.3,0.2,0.4,0.3s0.3,0.2,0.5,0.3
		c0.1,0.1,0.2,0.1,0.3,0.2c0.1,0.1,0.2,0.1,0.3,0.2c0.1,0.1,0.2,0.1,0.3,0.2c0.1,0.1,0.2,0.1,0.3,0.2c0.2,0.1,0.4,0.2,0.6,0.3
		c0.2,0.1,0.4,0.2,0.6,0.2c0.1,0.1,0.2,0.1,0.3,0.1c0.1,0,0.2,0.1,0.3,0.1s0.2,0.1,0.3,0.1c0.1,0,0.1,0.1,0.2,0.1
		c0.1,0.1,0.1,0.1,0.2,0.1c0.1,0.1,0.2,0.1,0.3,0.2c0.1,0.1,0.2,0.1,0.3,0.2c0.2,0.1,0.3,0.2,0.5,0.3c0.2,0.1,0.3,0.1,0.4,0.2
		c0.2,0.1,0.3,0.2,0.3,0.2l0,0c0.1,0.1,0.1,0.1,0.1,0.2c0,0.1-0.1,0.1-0.1,0.1c0,0-0.1,0.1-0.4,0.1c-0.1,0.1-0.3,0.1-0.4,0.1
		c-0.2,0.1-0.4,0.1-0.6,0.1c-0.1,0-0.2,0.1-0.3,0.1s-0.2,0-0.4,0.1c-0.1,0-0.1,0-0.2,0c-0.1,0-0.1,0-0.2,0c-0.1-0.1-0.3-0.1-0.4-0.2
		c-0.1-0.1-0.3-0.1-0.4-0.2c-0.1-0.1-0.3-0.1-0.4-0.2c-0.3-0.1-0.5-0.3-0.7-0.4c-0.2-0.2-0.5-0.3-0.7-0.5c-0.2-0.2-0.4-0.3-0.6-0.5
		c-0.2-0.2-0.4-0.4-0.5-0.5c-0.2-0.2-0.3-0.4-0.4-0.5c-0.1-0.2-0.2-0.3-0.3-0.5c-0.1-0.2-0.2-0.3-0.2-0.4s-0.1-0.2-0.1-0.3
		c0-0.1-0.1-0.1-0.1-0.1c-0.1-0.1,0-0.2,0.1-0.2C400.9,480,400.9,480,401,480.1z"/>
	<path fill="#898D86" d="M401.9,475.4L401.9,475.4c-0.2,0-0.4,0-0.6,0c-0.3,0.1-0.6,0.1-0.8,0.2c-0.3,0.1-0.7,0.4-1.1,0.8
		c-0.3,0.3-0.5,0.7-0.7,1.1c-0.3,0.8-0.2,1.7,0.3,2.5c0.4,0.7,1.3-0.2,0.9-0.9c-0.2-0.3-0.3-0.7-0.3-1.1c0-0.7,0.4-1.3,0.9-1.3
		c0.3,0,0.7,0.4,0.7,1.2c0,3.3-5.9,10.1-6.9,10.7c-0.2-1.2,0.6-2.6,1.2-3.8c1.1-2.1,2-3.9,2-5c0-1.6-1.2-3-2.6-3
		c-0.8,0-1.3,0.4-1.3,1.2c0,0.7-2.7,8-2.7,9.5c0,1.3,1.1,3,2.6,3c3.8,0,10.7-5.2,11.4-11.6C405.2,476.2,402.7,475.4,401.9,475.4z"/>
	<path fill="#898D86" d="M278.9,480c-0.7,0.1-1.6,0.7-3.8,3c-3.2,3.2-6.1,5.9-6.4,5.5c-1.2-1.9,6-9.9,10.5-9.6
		c0.1,0,0.2,0.1,0.2,0.1c1.2,1.7,2,0.6,2,0.1c0-1.5-2.6-3.4-4.9-3.4c-4.7,0-12,6.9-12,11.2c0,1.9,0.7,3.7,3.5,3.7
		c2.2,0,4.1-1.7,6.7-4.6c0,0.1,0,0.2,0,0.3c0,1.9,0.8,4.2,3,4.2c3.9,0.1,9.2-7.8,9.2-7.8c0.3-0.3,0.6-0.6,0.6-1
		c0-0.5-0.2-0.6-0.6-0.6c0,0-6.1,6.8-8.5,6.8c-1,0-0.4-1.9,0.7-3.5c0.8-1.2,1.8-2.1,1.8-2.5C281,480.8,280,479.8,278.9,480z"/>
	<path fill="#898D86" d="M294.9,484.8l-0.1,0.1c-1.2,1.2-2.3,1.5-4.3,1.9c0,0.1-0.1,0.6-0.1,0.7c-0.4,2.1-2.7,3.4-5.5,3.3
		c-2.8-0.1-5-2.4-5-4.2c0-0.6,0.4-1.3,1.4-1.3c0.1,0,0.5,0.1,0.5,0.1c0.4,0.1,1.1,0.2,1.5,0.2c0.8,0.1,1.9,0.3,3.1,0.4
		c0.3-0.7,0.3-2-0.1-2.9c-0.3-0.8-0.6-1.4-0.8-1.8c-0.2-0.5-0.3-0.9-0.3-1.5c0-2.2,2.7-4.5,4.2-4.5c1.2,0,2.2,1.3,2.2,2.3
		c0,0.6-0.5,1.1-1.4,1.8c-0.7,0.5-1.5,1.6-1.5,2.1c0,0.9,0.3,1.5,0.7,2.2c0.3,0.5,0.6,1,0.8,1.7c0.1,0.1,0.1,0.2,0.1,0.3
		c1.8-0.4,2.7-0.7,3.8-1.7v-0.4l0,0C294.2,483.2,295.1,484.6,294.9,484.8z M286.1,486.9c-1.4,0-2.9-0.1-3.4-0.1
		c-0.1,0-0.2,0.1-0.2,0.2c0,0.2,0.5,1.2,1.7,1.1C284.7,488.1,285.6,488.1,286.1,486.9z"/>
	<path fill="#898D86" d="M333.2,481.2c1.5-1.8,3-3.6,3.9-5.2c0.9-1.6,0.7,1.4,0.7,1.4L333.2,481.2z"/>
	<path fill="#898D86" d="M421.7,487.1c-0.3-0.2-0.8-0.1-1.2,0.2c-0.6,0.4-2.6,1.7-5.6,1.8c-2.4,0.1-5.3-1.1-5.5-4
		c-0.2-3.1,1.5-5.8,3.3-6.8c1.3-0.7,1.1,0.4,0.9,0.9c-0.5,1.1-1.3,2.2-2.3,2.8l0,0c-1,0.6-0.7,2.5,0.3,2.1c0.8-0.4,1.3-0.8,2-1.4
		c1.2-1.1,2.1-2.6,2.3-3.9c0.2-0.7,0.1-1.3-0.4-1.9c-0.5-0.7-1.3-1.1-2.5-1.3c-0.1,0-0.2,0-0.3-0.1c-1.5-0.1-3.7,0.9-5.3,2.5
		c-1.8,1.7-2.7,3.8-2.7,5.9c0.1,4.8,3.3,7.2,8.8,7.1l0,0c4.3-0.1,7.4-1.7,8.3-3.2C422.1,487.6,422,487.3,421.7,487.1z"/>
	<g>
		<path fill="#898D86" d="M311.5,488.7c-3,0.9-6,1.2-8.9,0.7c-3.9-0.6-5.8-2.6-6-4.4c4.3-1.6,6.1-3.7,6.4-6c0.2-1.6-1.5-3.4-3.4-3.5
			c-3.3-0.2-8.5,4-7.2,9.4c1,4.4,5.8,6.6,11.1,6.8c3.5,0.2,6.8-0.5,9.8-1.7C312.7,489.6,312.1,489.2,311.5,488.7z M296.7,482.7
			c0.5-1.9,1.9-3.5,3-4.2c1.4-0.9,1.6,0.3,1.5,0.8c-0.3,1.5-3.4,3.5-4.6,4C296.6,483.3,296.6,482.9,296.7,482.7z"/>
		<path fill="#898D86" d="M318.2,486.8c0.4,0.3,1,0.1,1.6-0.2c3-2,5.6-4.5,7.7-6.9l-1.3-0.5c-2.3,2.4-4.9,4.6-7.6,6.3
			C317.9,486,317.8,486.5,318.2,486.8z"/>
	</g>
	<path fill="#898D86" d="M336.6,490.4c-1.9,0.1-3.5-1.1-3.5-3.1c0-2.1,1.9-4.8,2.8-6.3c0.3-0.5,0.9-1.4,1.1-1.8
		c0.1-0.3,0-0.4-0.2-0.5c-1.5,2-3.1,4-4.4,5.3c-0.2,0.3-0.6,0.3-0.9,0.3c-0.5,0-0.7,0.1-0.7-0.5c0-0.4,0.3-0.6,0.5-0.9
		c0.1-0.1,0.6-0.7,0.6-0.7c1-1.1,1.8-3.1,3-4.6c-1.8-0.9-2.3-2.1-2.3-3c-0.1-1.9,2.6-4.4,4.6-4.3c1,0,2.8,0.7,2.8,2.1
		c0.1,1.3-0.7,2.5-1.8,4.1c1.5,1,4.4,1,4.8,3.5c0.2,1.3-1.1,2.8-2.2,4.2c-0.9,1.1-2.2,2.9-1.6,3.2c0.4,0.2,5.9-2.3,8.9-3.8l0.9,0.2
		l-0.3,1.5C345.4,487,339.1,490.3,336.6,490.4z M337.4,473.3c-1-0.6-2.7,1.1-1,2.2C336.7,474.8,337.2,473.8,337.4,473.3z"/>
	<g>
		<path fill="#898D86" d="M329.4,475.4c-1,1.3-2,2.5-3.2,3.8l1.3,0.4c1-1.1,1.9-2.2,2.7-3.2C331.1,475.3,330.8,473.8,329.4,475.4z"
			/>
		<path fill="#898D86" d="M335.8,479.1c-0.1,0-0.2,0-0.3-0.1l-1.3,0.4l0.4-1.6c-4.1,5.1-10.2,10.8-15.9,10.8c-1.4,0-2.7-0.5-3.5-1
			c-0.5-0.4-1.2-0.9-1.6-1.6c-3.6-6.6,3.6-22.2,14.9-27.7c1.6-0.8,4.8-1.5,6.3,0.8c1.3,2,0.7,5.6-1.4,9.9c0.2,0.5,1,0.4,1.8-0.4
			c0.5-0.4,0.9-1.1,1.3-1.8c1.6-3.6,2.1-6.9,1.1-9.9c-2.8-8.3-18.5-4.6-27.8,11c-4.9,8.1-5.1,19.4,1.6,22.9c3.6,1.8,6.9,1.3,8.2,1.1
			c8.5-1.1,14.8-9.9,16.8-13.1l-0.7,0.2C335.9,479,335.9,479,335.8,479.1z"/>
	</g>
</g>
</svg>
