<?xml version="1.0" encoding="utf-8"?>
<!-- Generator: Adobe Illustrator 18.0.0, SVG Export Plug-In . SVG Version: 6.00 Build 0)  -->
<!DOCTYPE svg PUBLIC "-//W3C//DTD SVG 1.1//EN" "http://www.w3.org/Graphics/SVG/1.1/DTD/svg11.dtd">
<svg version="1.1" id="Layer_1" xmlns="http://www.w3.org/2000/svg" xmlns:xlink="http://www.w3.org/1999/xlink" x="0px" y="0px"
	 viewBox="0 0 378 89.5" enable-background="new 0 0 378 89.5" xml:space="preserve">
<g>
	<path fill="#898D86" d="M38.5,10.1C23.8,11.2,12.1,17,12.2,23.2c0,2.5,2,4.5,5.3,5.5c1.9,0.6,1.7,2.6,0.1,2.4
		c-6-0.7-9.9-3.7-10.1-7.8C7.1,16,19.2,7.9,35.4,4.8s40.7,1,38.7,17c-1,7.6-12.7,15.9-18.6,18.5c2,1.3,3.8,2.8,5.3,4.5
		c12.2,0.5,27.5,6.4,31.9,10.8c0,0-4.2,4.2-7.4,0.5c-4.1-4.7-15.8-6.3-21.7-6.8c4.3,10.7-6,25.9-18.6,32.5
		C20.9,94.6,2.1,85.8,4.7,71.4c3.1-16.9,32.5-26.3,50.2-26.6c-1.1-1.1-2.4-2-3.9-2.7c-7.6,2.9-15.5,4.2-20.2,3.4
		c-2.7-0.4-4.3-2.3-3.9-4.5c0.2-1.3,1.2-2,1.5-2.3c3-2.4,9.9-3.5,17-2.4c1.3,0.2,2.3,0.5,3.4,0.9c8.8-3.9,14.6-11.3,14.6-17.1
		c-0.1-9.4-15.9-9.9-15.9-9.9S43.1,9.7,38.5,10.1z M42.6,40.7c-5.2-0.8-9.6-0.6-11.4,1.4h0C34,42.2,38.1,42.1,42.6,40.7z M58.2,52.8
		c0.2-1.2,0.1-2.3-0.3-3.4c-18.5-1.3-43.1,11.5-44.7,21c-0.7,4.1,3,5.3,5.3,5.7C34.7,78.7,56.3,64.3,58.2,52.8z"/>
	<path fill="#898D86" d="M15.4,48.8C17.9,43,29,23.4,32.5,17.6c1.4-2.3,2.5-4,5.5-3.3c2.6,0.6,2,3.6,0.6,5.4
		c-4.3,5.3-9.4,12.9-13.1,18.6c-1.9,2.9-7,12-8,12.5C15.9,51.5,14.9,50.5,15.4,48.8z"/>
	<path fill="#898D86" d="M300.1,53.6c0,0-0.4,0-1-0.1c-0.3,0-0.7,0-1.1,0c-0.4,0-0.9,0-1.4,0c-0.5,0-1.1,0-1.7,0.1
		c-0.6,0-1.2,0.1-1.8,0.1c-0.6,0.1-1.3,0.2-1.9,0.2c-0.7,0.1-1.3,0.2-2,0.4c-2.7,0.5-5.3,1.3-7.3,1.9c-2,0.6-3.4,1-3.4,1
		c-1.4,0.4-2.8-0.4-3.2-1.7c-0.4-1.4,0.4-2.8,1.7-3.2c0.1,0,0.2-0.1,0.3-0.1l0,0c0,0,1.4-0.2,3.5-0.6c2.1-0.3,5-0.8,7.9-1
		c0.7-0.1,1.5-0.1,2.2-0.1c0.7,0,1.4,0,2.1,0c0.7,0,1.4,0,2,0.1c0.6,0,1.2,0.1,1.8,0.2c0.5,0,1.1,0.1,1.5,0.2
		c0.5,0.1,0.8,0.1,1.1,0.2c0.6,0.1,1,0.2,1,0.2c0.6,0.1,1,0.7,0.9,1.3C301.1,53.2,300.6,53.6,300.1,53.6z"/>
	<path fill="#898D86" d="M297.7,81.5c-3.4,0-6.4-2.6-6.4-6.6c0-3.2,3-8.2,6.2-13.3c1.9-3,3.9-7.2,6-7.3c3.2-0.2,4.4,1.6,4.4,4.2
		c0,1.1-1.1,2.2-3.6,5.9c-2.8,4-7.7,10.8-6,12.5c0.9,0.9,9.8,0.7,12.8-8.9c1-3.1,2.1,0.4,4.2-1.6l0.2-0.2c0.3-0.3,0.9-0.6,1.4-0.6
		c1,0,1,0.6,1,1.6c0,0.8-0.6,1.3-1.2,1.8l-3.2-0.2C310.9,71.4,309.8,81.5,297.7,81.5z"/>
	<path fill="#898D86" d="M280.2,81.4c-4.6,0-7-2.9-7-6.9c0-3.2,3.1-8.4,6-13.6c2-3.6,3.4-5.9,4.4-7.7c1-1.7,1.8-2,3.2-2
		c3.2,0,3.2,1.3,3.4,3.9c0.1,1.1-1.3,2.4-4.5,8c-2.4,4.3-8.4,13.4-4.2,13.4c5.6,0,11.3-6.9,13.2-10.5c0,0,0.6-1.2,1.3-1.4
		c0.9-0.3,0.5-0.6,0.9,0.3c0.3,0.7,0,1.5-0.4,2.2l-1.3-1.1C294,69.3,291.8,81.4,280.2,81.4z"/>
	<path fill="#898D86" d="M265.7,60.6c-1.3,0.3-2.3,1.8-6.5,6.2c-6,6.3-11.2,12.4-12.7,10.6c-2.7-3.4,11.1-19.3,19.8-19.1
		c0.2,0,0.3,0.2,0.4,0.2c2.4,3.1,3.9,1,3.9,0.1c-0.1-2.9-5-5.6-9.4-5.5c-10.1,0.3-22.9,14.6-22.7,21.5c0.1,3.6,2.7,7.3,7.7,6.8
		c4.6-0.5,7.1-4,12.2-9.2c0,0.2,0,0.3,0,0.5c-0.3,5.2,1.3,8.7,5.5,8.8c11.7,0.1,19.2-18,19.2-18c0.5-0.6,1-1.2,0.9-2
		c-0.1-0.9-0.7-1.3-1.6-1.3c0.7-1-1.9-1.7-5.5,4.7c-3,5.3-8.7,13.4-11.4,12.1c-1.8-0.8-1-4.8,0.9-8c1.4-2.3,3.4-4.2,3.4-5
		C269.8,62.2,267.8,60.2,265.7,60.6z"/>
	<path fill="#898D86" d="M284.8,64.6c2.3-3.6,9.2-15.5,9.2-15.5c1.7-2.9,1.6-4.1,0.8-6c-0.6-1.5-2.3-2.4-4-2.1
		c-0.7,0.1-2,3.1-4.5,7.4l-0.8,1.4l-3.1,5.6c-2.8,4.9-6,9.8-8,14.7"/>
	<path fill="#898D86" d="M310,42.7c-0.9,2-0.7,5,1.3,6c1.9,0.9,4.8-0.7,5.8-2.7c0.9-2,0.1-4.3-1.8-5.2
		C313.2,39.9,310.9,40.8,310,42.7z"/>
	<path fill="#898D86" d="M239.5,70.4c-2.3,4.8-8,8.1-12.3,7.5c-2.6-0.3-3.1-2.4-2.3-5.8c3.7-1.7,14.6-7.4,15.9-13.5
		c0.8-3.7-1.3-5.6-5.4-6.4c-8.4-1.5-21,9.2-20.4,21c0.3,5.9,6.1,8.9,12.2,7.9c5.7-0.8,9.4-3.7,12.8-6.5c3.6-3,3.6-6,3.6-6
		S241.6,66,239.5,70.4z M226,66.4c1.7-4.4,5.3-7.4,7.8-8.7c3.3-1.7,2.8,1.3,2,2.4c-2.4,3.2-8.3,7.3-10.3,8.1
		C225.6,67.9,225.9,66.8,226,66.4z"/>
	<path fill="#898D86" d="M329.2,61.2c0,0,0.2,0.2,0.5,0.4c0.2,0.1,0.4,0.3,0.6,0.5c0.2,0.2,0.5,0.4,0.8,0.6c0.3,0.2,0.6,0.4,0.9,0.6
		c0.2,0.1,0.3,0.2,0.5,0.3c0.2,0.1,0.4,0.2,0.5,0.3c0.2,0.1,0.4,0.2,0.6,0.3c0.2,0.1,0.4,0.2,0.6,0.3c0.4,0.2,0.8,0.4,1.2,0.5
		c0.4,0.1,0.8,0.3,1.2,0.4c0.2,0.1,0.4,0.1,0.6,0.2c0.2,0,0.4,0.1,0.6,0.1c0.2,0,0.4,0.1,0.6,0.1c0.1,0,0.2,0.1,0.3,0.1
		c0.1,0.1,0.2,0.1,0.3,0.2c0.2,0.1,0.3,0.2,0.5,0.3c0.2,0.1,0.3,0.2,0.5,0.3c0.3,0.2,0.6,0.4,0.9,0.5c0.3,0.1,0.5,0.2,0.7,0.3
		c0.4,0.2,0.6,0.3,0.6,0.3l0,0c0.1,0.1,0.2,0.2,0.1,0.3c0,0.1-0.1,0.1-0.2,0.1c0,0-0.2,0.1-0.7,0.2c-0.2,0.1-0.5,0.1-0.8,0.2
		c-0.3,0.1-0.7,0.1-1.1,0.2c-0.2,0-0.4,0.1-0.6,0.1c-0.2,0-0.4,0-0.7,0.1c-0.1,0-0.2,0-0.4,0c-0.1,0-0.2,0-0.4,0
		c-0.2-0.1-0.5-0.2-0.7-0.3c-0.2-0.1-0.5-0.2-0.7-0.3c-0.2-0.1-0.5-0.2-0.7-0.3c-0.5-0.2-0.9-0.5-1.4-0.8c-0.4-0.3-0.9-0.6-1.3-0.9
		c-0.4-0.3-0.8-0.6-1.1-1c-0.4-0.3-0.7-0.7-1-1c-0.3-0.3-0.5-0.7-0.8-1c-0.2-0.3-0.4-0.6-0.6-0.9c-0.2-0.3-0.3-0.5-0.4-0.7
		c-0.1-0.2-0.2-0.4-0.2-0.5c0-0.1-0.1-0.2-0.1-0.2c-0.1-0.1,0-0.3,0.1-0.3C329,61.1,329.1,61.1,329.2,61.2z"/>
	<path fill="#898D86" d="M331,52C331,52,331,52,331,52c-0.4,0-0.8,0-1.2,0c-0.5,0.1-1.1,0.2-1.6,0.4c-0.5,0.2-1.3,0.7-2.1,1.5
		c-0.6,0.6-1,1.4-1.3,2.2c-0.6,1.6-0.3,3.4,0.6,4.9c0.8,1.3,2.6-0.3,1.8-1.8c-0.3-0.6-0.6-1.4-0.6-2.2c0-1.4,0.8-2.5,1.7-2.5
		c0.6,0,1.3,0.8,1.3,2.4c0,6.4-11.5,19.8-13.6,21.1c-0.4-2.4,1.1-5.1,2.3-7.4c2.1-4.1,4-7.7,4-9.9c0-3.2-2.3-5.9-5.1-5.9
		c-1.6,0-2.6,0.8-2.6,2.3c0,1.3-5.4,15.8-5.4,18.6c0,2.6,2.1,5.8,5.1,5.8c7.5,0,21.1-10.2,22.5-22.8C337.5,53.6,332.6,52,331,52z"/>
	<path fill="#898D86" d="M89.4,61c-1.3,0.2-3.2,1.4-7.5,5.8c-6.3,6.3-12,11.5-12.5,10.8C67,73.9,81.2,58.2,90.1,58.7
		c0.2,0,0.4,0.2,0.4,0.2c2.4,3.3,3.9,1.1,3.9,0.2c0-2.9-5.1-6.7-9.6-6.7c-9.2,0-23.6,13.5-23.6,22.1c0,3.7,1.3,7.2,6.9,7.2
		c4.3,0,8.1-3.3,13.1-9.1c0,0.2,0,0.4,0,0.5c0,3.7,1.5,8.3,5.8,8.3c7.7,0.1,18.1-15.3,18.1-15.3c0.6-0.5,1.2-1.1,1.2-1.9
		c0-0.9-0.3-1.1-1.2-1.2c0,0-12,13.4-16.7,13.4c-2,0-0.7-3.7,1.3-6.9c1.5-2.3,3.6-4.2,3.6-5C93.5,62.6,91.5,60.6,89.4,61z"/>
	<path fill="#898D86" d="M120.7,70.5l-0.2,0.2c-2.4,2.4-4.5,2.9-8.5,3.7c0,0.1-0.2,1.2-0.2,1.3c-0.8,4.1-5.4,6.7-10.8,6.5
		c-5.6-0.2-9.8-4.8-9.8-8.2c0-1.2,0.8-2.6,2.7-2.6c0.1,0,1,0.1,1,0.1c0.7,0.1,2.1,0.3,3,0.4c1.5,0.2,3.7,0.5,6,0.7
		c0.5-1.4,0.6-3.9-0.2-5.7c-0.5-1.5-1.1-2.7-1.5-3.6c-0.3-0.9-0.5-1.8-0.5-3c0-4.4,5.3-8.8,8.2-8.8c2.3,0,4.4,2.6,4.4,4.6
		c0,1.2-1,2.2-2.7,3.5c-1.3,1-3,3.1-3,4.1c0,1.8,0.6,3,1.4,4.3c0.5,0.9,1.1,2,1.5,3.3c0.1,0.2,0.1,0.3,0.1,0.6
		c3.5-0.7,5.4-1.3,7.5-3.4l0-0.7l0,0C119.4,67.4,121.2,70,120.7,70.5z M103.4,74.7c-2.8,0-5.7-0.2-6.6-0.1c-0.2,0-0.4,0.2-0.3,0.4
		c0,0.4,0.9,2.3,3.4,2.1C100.8,76.9,102.5,76.9,103.4,74.7z"/>
	<path fill="#898D86" d="M196.1,63.5c3-3.5,5.8-7,7.6-10.2c1.8-3.2,1.3,2.8,1.3,2.8L196.1,63.5z"/>
	<path fill="#898D86" d="M370,75c-0.6-0.4-1.6-0.1-2.4,0.4c-1.1,0.7-5.2,3.3-11,3.5c-4.8,0.2-10.5-2.1-10.8-7.8
		c-0.3-6,2.9-11.3,6.5-13.4c2.5-1.4,2.1,0.8,1.8,1.7c-0.9,2.2-2.6,4.3-4.6,5.6c0,0,0,0,0,0c-2,1.2-1.3,5,0.6,4.1
		c1.5-0.7,2.5-1.5,3.9-2.8c2.3-2.2,4.1-5.1,4.6-7.6c0.3-1.4,0.1-2.6-0.7-3.7c-0.9-1.3-2.6-2.2-4.9-2.6c-0.2,0-0.4,0-0.6-0.1
		c-3-0.2-7.3,1.8-10.5,5c-3.5,3.4-5.4,7.5-5.3,11.6c0.2,9.4,6.5,14.1,17.3,14h0c8.5-0.1,14.6-3.4,16.4-6.3
		C370.7,76,370.5,75.4,370,75z"/>
	<g>
		<path fill="#898D86" d="M153.4,78.2c-5.9,1.8-11.8,2.3-17.5,1.4c-7.6-1.2-11.3-5.2-11.8-8.7c8.4-3.1,12-7.2,12.6-11.8
			c0.4-3.1-2.9-6.7-6.6-6.9c-6.5-0.4-16.8,7.8-14.2,18.4c2,8.6,11.4,12.9,21.9,13.4c6.8,0.3,13.3-1,19.3-3.3
			C155.7,80,154.5,79.1,153.4,78.2z M124.2,66.4c0.9-3.8,3.7-6.8,5.8-8.2c2.7-1.8,3.2,0.5,3,1.6c-0.5,3-6.6,6.8-9,7.9
			C124.1,67.5,124.1,66.7,124.2,66.4z"/>
		<path fill="#898D86" d="M166.6,74.4c0.7,0.5,2,0.2,3.1-0.4c5.9-4,11-8.8,15.2-13.6l-2.6-0.9c-4.5,4.8-9.6,9-14.9,12.3
			C166,72.9,165.8,73.9,166.6,74.4z"/>
	</g>
	<path fill="#898D86" d="M202.6,81.4c-3.7,0.1-6.9-2.1-6.9-6.1c0-4.2,3.7-9.4,5.5-12.3c0.6-1,1.8-2.7,2.1-3.6c0.2-0.6,0-0.7-0.3-0.9
		c-2.9,4-6,7.8-8.7,10.5c-0.4,0.5-1.1,0.6-1.8,0.6c-1,0-1.3,0.1-1.3-0.9c0-0.7,0.5-1.2,0.9-1.7c0.1-0.1,1.2-1.3,1.2-1.3
		c2-2.1,3.5-6,5.9-9c-3.6-1.8-4.5-4.2-4.6-5.9c-0.2-3.8,5.2-8.6,9.1-8.5c1.9,0,5.5,1.4,5.5,4.1c0.1,2.6-1.4,4.9-3.6,8
		c2.9,2,8.7,2,9.4,6.9c0.4,2.6-2.2,5.5-4.4,8.3c-1.7,2.2-4.4,5.7-3.1,6.2c0.8,0.3,11.5-4.6,17.4-7.5l1.7,0.3l-0.6,2.9
		C219.9,74.8,207.7,81.2,202.6,81.4z M204.2,47.8c-2-1.1-5.3,2.2-2,4.3C202.8,50.9,203.9,48.8,204.2,47.8z"/>
	<g>
		<path fill="#898D86" d="M188.5,52.1c-1.9,2.5-4,5-6.3,7.5l2.6,0.8c1.9-2.2,3.7-4.3,5.3-6.3C191.8,51.8,191.2,48.8,188.5,52.1z"/>
		<path fill="#898D86" d="M201.2,59.2c-0.2,0-0.3,0-0.5-0.1l-2.5,0.7l0.8-3.1c-8.1,10-20,21.2-31.2,21.2c-2.8,0-5.3-0.9-6.9-1.9
			c-1-0.7-2.3-1.8-3.1-3.2c-7-12.9,7.1-43.6,29.2-54.5c3.1-1.5,9.5-3,12.3,1.5c2.5,4,1.4,11.1-2.7,19.4c0.3,1,1.9,0.8,3.6-0.7
			c0.9-0.8,1.8-2.1,2.6-3.6c3.2-7,4.2-13.5,2.2-19.4c-5.6-16.4-36.3-9.1-54.6,21.6c-9.6,16-10.1,38.1,3.1,45
			c7,3.6,13.5,2.5,16.2,2.2c16.7-2.2,29-19.4,33.1-25.7l-1.4,0.4C201.3,59,201.3,59.1,201.2,59.2z"/>
	</g>
</g>
</svg>
