<?xml version="1.0" encoding="utf-8"?>
<!-- Generator: Adobe Illustrator 18.0.0, SVG Export Plug-In . SVG Version: 6.00 Build 0)  -->
<!DOCTYPE svg PUBLIC "-//W3C//DTD SVG 1.1//EN" "http://www.w3.org/Graphics/SVG/1.1/DTD/svg11.dtd">
<svg version="1.1" id="Layer_1" xmlns="http://www.w3.org/2000/svg" xmlns:xlink="http://www.w3.org/1999/xlink" x="0px" y="0px"
	 viewBox="0 0 170.9 42.5" enable-background="new 0 0 170.9 42.5" xml:space="preserve">
<g>
	<path fill="#FAF7E6" d="M17.5,4.8c-6.7,0.5-12.1,3.2-12,6c0,1.1,0.9,2.1,2.4,2.5c0.9,0.3,0.8,1.2,0,1.1c-2.7-0.3-4.5-1.7-4.6-3.5
		C3.1,7.5,8.7,3.8,16.1,2.4s18.6,0.5,17.7,7.8c-0.4,3.5-5.8,7.3-8.5,8.5c0.9,0.6,1.7,1.3,2.4,2.1c5.6,0.2,12.6,2.9,14.6,4.9
		c0,0-1.9,1.9-3.4,0.2c-1.9-2.1-7.2-2.9-9.9-3.1c2,4.9-2.8,11.8-8.5,14.8c-11,5.8-19.6,1.8-18.4-4.8c1.4-7.7,14.8-12,22.9-12.1
		c-0.5-0.5-1.1-0.9-1.8-1.2c-3.5,1.3-7.1,1.9-9.2,1.6c-1.2-0.2-2-1-1.8-2.1c0.1-0.6,0.5-0.9,0.7-1.1c1.4-1.1,4.5-1.6,7.8-1.1
		c0.6,0.1,1.1,0.2,1.5,0.4c4-1.8,6.7-5.2,6.7-7.8c0-4.3-7.3-4.5-7.3-4.5S19.6,4.7,17.5,4.8z M19.3,18.7c-2.4-0.4-4.4-0.2-5.2,0.7
		l0,0C15.4,19.5,17.3,19.3,19.3,18.7z M26.5,24.4c0.1-0.6,0.1-1.1-0.1-1.6C17.9,22.2,6.6,28.1,6,32.4c-0.3,1.9,1.4,2.4,2.4,2.6
		C15.8,36.2,25.6,29.6,26.5,24.4z"/>
	<path fill="#FAF7E6" d="M6.9,22.5c1.2-2.6,6.2-11.6,7.8-14.2c0.6-1.1,1.1-1.8,2.5-1.5c1.2,0.3,0.9,1.7,0.3,2.4
		c-2,2.4-4.3,5.9-6,8.5c-0.9,1.3-3.2,5.5-3.7,5.7C7.2,23.7,6.7,23.3,6.9,22.5z"/>
	<path fill="#FAF7E6" d="M137,24.7c0,0-0.2,0-0.4,0c-0.1,0-0.3,0-0.5,0c-0.2,0-0.4,0-0.6,0c-0.2,0-0.5,0-0.8,0c-0.3,0-0.5,0-0.8,0.1
		c-0.3,0-0.6,0.1-0.9,0.1c-0.3,0-0.6,0.1-0.9,0.2c-1.2,0.2-2.4,0.6-3.4,0.9c-0.9,0.3-1.5,0.5-1.5,0.5c-0.6,0.2-1.3-0.2-1.5-0.8
		c-0.2-0.6,0.2-1.3,0.8-1.5c0,0,0.1,0,0.1,0l0,0c0,0,0.6-0.1,1.6-0.3c1-0.2,2.3-0.4,3.6-0.5c0.3,0,0.7,0,1,0c0.3,0,0.7,0,1,0
		c0.3,0,0.6,0,0.9,0c0.3,0,0.6,0,0.8,0.1c0.2,0,0.5,0.1,0.7,0.1c0.2,0,0.4,0.1,0.5,0.1c0.3,0.1,0.4,0.1,0.4,0.1
		c0.3,0.1,0.5,0.3,0.4,0.6C137.5,24.5,137.3,24.7,137,24.7z"/>
	<path fill="#FAF7E6" d="M135.9,37.5c-1.6,0-2.9-1.2-2.9-3c0-1.5,1.4-3.8,2.8-6.1c0.9-1.4,1.8-3.3,2.8-3.3c1.4-0.1,2,0.7,2,1.9
		c0,0.5-0.5,1-1.7,2.7c-1.3,1.8-3.5,4.9-2.7,5.7c0.4,0.4,4.5,0.3,5.9-4.1c0.4-1.4,1,0.2,1.9-0.7l0.1-0.1c0.2-0.2,0.4-0.3,0.6-0.3
		c0.4,0,0.4,0.3,0.4,0.7c0,0.4-0.3,0.6-0.6,0.8l-1.5-0.1C141.9,32.9,141.4,37.5,135.9,37.5z"/>
	<path fill="#FAF7E6" d="M127.9,37.4c-2.1,0-3.2-1.3-3.2-3.1c0-1.5,1.4-3.8,2.8-6.2c0.9-1.6,1.6-2.7,2-3.5c0.5-0.8,0.8-0.9,1.5-0.9
		c1.4,0,1.5,0.6,1.5,1.8c0,0.5-0.6,1.1-2,3.6c-1.1,1.9-3.8,6.1-1.9,6.1c2.6,0,5.1-3.1,6-4.8c0,0,0.3-0.5,0.6-0.7
		c0.4-0.1,0.3-0.3,0.4,0.1c0.1,0.3,0,0.7-0.2,1l-0.6-0.5C134.2,31.9,133.2,37.4,127.9,37.4z"/>
	<path fill="#FAF7E6" d="M121.3,27.9c-0.6,0.1-1,0.8-3,2.8c-2.7,2.9-5.1,5.7-5.8,4.8c-1.2-1.6,5.1-8.8,9.1-8.7
		c0.1,0,0.2,0.1,0.2,0.1c1.1,1.4,1.8,0.5,1.8,0c0-1.3-2.3-2.6-4.3-2.5c-4.6,0.1-10.5,6.7-10.4,9.8c0,1.7,1.3,3.3,3.5,3.1
		c2.1-0.2,3.2-1.8,5.6-4.2c0,0.1,0,0.2,0,0.2c-0.1,2.4,0.6,4,2.5,4c5.4,0,8.8-8.2,8.8-8.2c0.2-0.3,0.4-0.6,0.4-0.9
		c-0.1-0.4-0.3-0.6-0.7-0.6c0.3-0.4-0.9-0.8-2.5,2.2c-1.4,2.4-4,6.1-5.2,5.5c-0.8-0.4-0.5-2.2,0.4-3.7c0.6-1.1,1.6-1.9,1.6-2.3
		C123.2,28.6,122.2,27.7,121.3,27.9z"/>
	<path fill="#FAF7E6" d="M130,29.7c1.1-1.6,4.2-7.1,4.2-7.1c0.8-1.3,0.7-1.9,0.3-2.7c-0.3-0.7-1.1-1.1-1.8-1
		c-0.3,0.1-0.9,1.4-2.1,3.4l-0.4,0.6l-1.4,2.6c-1.3,2.3-2.7,4.5-3.7,6.7"/>
	<path fill="#FAF7E6" d="M141.5,19.7c-0.4,0.9-0.3,2.3,0.6,2.7s2.2-0.3,2.6-1.2c0.4-0.9,0-2-0.8-2.4S142,18.8,141.5,19.7z"/>
	<path fill="#FAF7E6" d="M109.3,32.4c-1.1,2.2-3.7,3.7-5.6,3.4c-1.2-0.2-1.4-1.1-1.1-2.6c1.7-0.8,6.7-3.4,7.3-6.1
		c0.4-1.7-0.6-2.6-2.5-2.9c-3.8-0.7-9.6,4.2-9.3,9.6c0.1,2.7,2.8,4,5.6,3.6c2.6-0.4,4.3-1.7,5.8-3c1.6-1.4,1.6-2.7,1.6-2.7
		S110.3,30.4,109.3,32.4z M103.2,30.6c0.8-2,2.4-3.4,3.5-4c1.5-0.8,1.3,0.6,0.9,1.1c-1.1,1.5-3.8,3.3-4.7,3.7
		C103,31.2,103.1,30.7,103.2,30.6z"/>
	<path fill="#FAF7E6" d="M150.3,28.2c0,0,0.1,0.1,0.2,0.2c0.1,0.1,0.2,0.1,0.3,0.2c0.1,0.1,0.2,0.2,0.4,0.3c0.1,0.1,0.3,0.2,0.4,0.3
		c0.1,0.1,0.2,0.1,0.2,0.1c0.1,0.1,0.2,0.1,0.2,0.1c0.1,0,0.2,0.1,0.3,0.1c0.1,0,0.2,0.1,0.3,0.1c0.2,0.1,0.4,0.2,0.6,0.2
		c0.2,0.1,0.4,0.1,0.6,0.2c0.1,0,0.2,0.1,0.3,0.1c0.1,0,0.2,0,0.3,0.1c0.1,0,0.2,0,0.3,0.1c0,0,0.1,0,0.1,0.1c0,0,0.1,0.1,0.1,0.1
		c0.1,0.1,0.2,0.1,0.2,0.2c0.1,0,0.2,0.1,0.2,0.1c0.1,0.1,0.3,0.2,0.4,0.2c0.1,0.1,0.2,0.1,0.3,0.2c0.2,0.1,0.3,0.1,0.3,0.1l0,0
		c0.1,0,0.1,0.1,0.1,0.2c0,0,0,0.1-0.1,0.1c0,0-0.1,0-0.3,0.1c-0.1,0-0.2,0.1-0.4,0.1c-0.1,0-0.3,0.1-0.5,0.1c-0.1,0-0.2,0-0.3,0
		c-0.1,0-0.2,0-0.3,0c-0.1,0-0.1,0-0.2,0c-0.1,0-0.1,0-0.2,0c-0.1,0-0.2-0.1-0.3-0.1c-0.1,0-0.2-0.1-0.3-0.1
		c-0.1-0.1-0.2-0.1-0.3-0.2c-0.2-0.1-0.4-0.2-0.6-0.3c-0.2-0.1-0.4-0.3-0.6-0.4c-0.2-0.1-0.4-0.3-0.5-0.4c-0.2-0.1-0.3-0.3-0.4-0.5
		c-0.1-0.2-0.2-0.3-0.3-0.4c-0.1-0.1-0.2-0.3-0.3-0.4c-0.1-0.1-0.1-0.2-0.2-0.3c0-0.1-0.1-0.2-0.1-0.2c0,0,0-0.1,0-0.1
		c0-0.1,0-0.1,0.1-0.2C150.2,28.1,150.3,28.1,150.3,28.2z"/>
	<path fill="#FAF7E6" d="M151.1,23.9C151.1,23.9,151.1,23.9,151.1,23.9c-0.2,0-0.4,0.1-0.5,0.1c-0.2,0-0.5,0.1-0.7,0.2
		c-0.2,0.1-0.6,0.3-1,0.7c-0.3,0.3-0.5,0.6-0.6,1c-0.3,0.7-0.1,1.6,0.3,2.2c0.4,0.6,1.2-0.1,0.8-0.8c-0.2-0.3-0.3-0.6-0.3-1
		c0-0.6,0.3-1.1,0.8-1.1c0.3,0,0.6,0.3,0.6,1.1c0,2.9-5.2,9.1-6.2,9.6c-0.2-1.1,0.5-2.3,1-3.4c0.9-1.9,1.8-3.5,1.8-4.5
		c0-1.4-1-2.7-2.3-2.7c-0.8,0-1.2,0.4-1.2,1c0,0.6-2.5,7.2-2.5,8.5c0,1.2,1,2.6,2.3,2.6c3.4,0,9.6-4.7,10.3-10.5
		C154.1,24.7,151.9,23.9,151.1,23.9z"/>
	<path fill="#FAF7E6" d="M40.8,28.1c-0.6,0.1-1.5,0.6-3.4,2.6c-2.9,2.9-5.5,5.3-5.7,4.9C30.5,34,37,26.8,41.1,27
		c0.1,0,0.2,0.1,0.2,0.1c1.1,1.5,1.8,0.5,1.8,0.1c0-1.3-2.3-3.1-4.4-3.1c-4.2,0-10.8,6.2-10.8,10.1c0,1.7,0.9,3.3,3.5,3.3
		c1.9,0,3.3-1.5,6.3-4.2c0,0.1,0,0.2,0,0.2c0,1.7,0.4,3.8,2.3,3.8c3.5,0,8.1-7,8.1-7c0.3-0.2,0.5-0.5,0.5-0.8c0-0.4-0.2-0.5-0.6-0.5
		c0,0-5.5,6.1-7.6,6.1c-0.9,0-0.3-1.7,0.6-3.2c0.7-1.1,1.7-1.9,1.6-2.3C42.6,28.8,41.7,27.9,40.8,28.1z"/>
	<path fill="#FAF7E6" d="M55,32.4L55,32.4c-1.2,1.2-2.2,1.4-4,1.8c0,0-0.1,0.6-0.1,0.6c-0.4,1.9-2.5,3.1-4.9,3
		c-2.6-0.1-4.5-2.2-4.5-3.7c0-0.6,0.4-1.2,1.2-1.2c0,0,0.5,0,0.5,0c0.3,0,1,0.1,1.4,0.2c0.7,0.1,1.7,0.2,2.7,0.3
		c0.2-0.6,0.3-1.8-0.1-2.6c-0.2-0.7-0.5-1.2-0.7-1.7c-0.1-0.4-0.2-0.8-0.2-1.4c0-2,2.4-4,3.7-4c1,0,2,1.2,2,2.1c0,0.5-0.5,1-1.2,1.6
		c-0.6,0.4-1.4,1.4-1.4,1.9c0,0.8,0.3,1.4,0.6,2c0.2,0.4,0.5,0.9,0.7,1.5c0,0.1,0,0.1,0.1,0.3c1.6-0.3,2.5-0.6,3.4-1.5l0-0.3l0,0
		C54.4,31,55.3,32.2,55,32.4z M47.2,34.3c-1.3,0-2.6-0.1-3-0.1c-0.1,0-0.2,0.1-0.2,0.2c0,0.2,0.4,1.1,1.5,1
		C46,35.4,46.7,35.3,47.2,34.3z"/>
	<path fill="#FAF7E6" d="M89.5,29.2c1.4-1.6,2.7-3.2,3.5-4.7c0.8-1.5,0.6,1.3,0.6,1.3L89.5,29.2z"/>
	<path fill="#FAF7E6" d="M168.9,34.5c-0.3-0.2-0.7,0-1.1,0.2c-0.5,0.3-2.4,1.5-5,1.6c-2.2,0.1-4.8-1-4.9-3.5c-0.1-2.7,1.3-5.2,3-6.1
		c1.2-0.7,1.1,0.4,0.9,0.8c-0.4,1-1,2-2,2.6c0,0,0,0,0,0c-1,0.6-0.7,2.3,0.2,1.9c0.7-0.3,1.1-0.7,1.7-1.3c1.1-1,1.9-2.3,2.1-3.5
		c0.1-0.6,0-1.2-0.3-1.7c-0.4-0.6-1.2-1-2.3-1.2c-0.1,0-0.2,0-0.3,0c-1.4-0.1-3.3,0.8-4.8,2.3c-1.6,1.5-2.5,3.4-2.4,5.3
		c0.1,4.3,3,6.4,7.9,6.4h0c3.9,0,6.7-1.6,7.5-2.9C169.3,34.9,169.2,34.7,168.9,34.5z"/>
	<g>
		<path fill="#FAF7E6" d="M70,36c-2.7,0.8-5.4,1.1-8,0.7c-3.5-0.5-5.1-2.4-5.4-4c3.9-1.4,5.5-3.3,5.8-5.4c0.2-1.4-1.3-3.1-3-3.2
			c-3-0.2-7.7,3.6-6.5,8.4c0.9,3.9,5.2,5.9,10,6.1c3.1,0.1,6.1-0.4,8.8-1.5C71,36.8,70.5,36.4,70,36z M56.7,30.6
			c0.4-1.7,1.7-3.1,2.6-3.7c1.2-0.8,1.5,0.2,1.4,0.8c-0.2,1.3-3,3.1-4.1,3.6C56.6,31.1,56.6,30.7,56.7,30.6z"/>
		<path fill="#FAF7E6" d="M76,34.2c0.3,0.2,0.9,0.1,1.4-0.2c2.7-1.8,5-4,7-6.2l-1.2-0.4c-2.1,2.2-4.4,4.1-6.8,5.6
			C75.7,33.5,75.7,34,76,34.2z"/>
	</g>
	<path fill="#FAF7E6" d="M92.5,37.4c-1.7,0.1-3.2-1-3.2-2.8c0-1.9,1.7-4.3,2.5-5.6c0.3-0.4,0.8-1.2,0.9-1.6c0.1-0.3,0-0.3-0.1-0.4
		c-1.3,1.8-2.8,3.5-4,4.8C88.4,32,88.1,32,87.8,32c-0.5,0-0.6,0-0.6-0.4c0-0.3,0.2-0.6,0.4-0.8c0.1-0.1,0.5-0.6,0.5-0.6
		c0.9-1,1.6-2.7,2.7-4.1c-1.7-0.8-2.1-1.9-2.1-2.7c-0.1-1.7,2.4-3.9,4.1-3.9c0.9,0,2.5,0.6,2.5,1.9c0,1.2-0.6,2.2-1.7,3.7
		c1.3,0.9,4,0.9,4.3,3.1c0.2,1.2-1,2.5-2,3.8c-0.8,1-2,2.6-1.4,2.8c0.4,0.1,5.2-2.1,7.9-3.4l0.8,0.2l-0.3,1.3
		C100.4,34.4,94.8,37.3,92.5,37.4z M93.2,22.1c-0.9-0.5-2.4,1-0.9,2C92.6,23.5,93,22.5,93.2,22.1z"/>
	<g>
		<path fill="#FAF7E6" d="M86,24c-0.9,1.1-1.8,2.3-2.9,3.4l1.2,0.4c0.9-1,1.7-2,2.4-2.9C87.6,23.9,87.3,22.5,86,24z"/>
		<path fill="#FAF7E6" d="M91.8,27.3c-0.1,0-0.1,0-0.2,0l-1.1,0.3l0.4-1.4c-3.7,4.5-9.1,9.7-14.3,9.7c-1.3,0-2.4-0.4-3.1-0.9
			c-0.5-0.3-1.1-0.8-1.4-1.5c-3.2-5.9,3.2-19.9,13.3-24.9c1.4-0.7,4.4-1.4,5.6,0.7c1.1,1.8,0.6,5.1-1.3,8.9c0.1,0.5,0.9,0.4,1.6-0.3
			c0.4-0.4,0.8-0.9,1.2-1.6c1.5-3.2,1.9-6.1,1-8.9C91-0.2,77,3.2,68.6,17.2C64.2,24.5,64,34.6,70,37.7c3.2,1.6,6.2,1.1,7.4,1
			c7.6-1,13.2-8.9,15.1-11.7l-0.7,0.2C91.9,27.2,91.9,27.2,91.8,27.3z"/>
	</g>
</g>
</svg>
