<?xml version="1.0" encoding="UTF-8" standalone="no"?>
<svg width="250px" height="150px" viewBox="0 0 250 150" version="1.1" xmlns="http://www.w3.org/2000/svg" xmlns:xlink="http://www.w3.org/1999/xlink" xmlns:sketch="http://www.bohemiancoding.com/sketch/ns">
    <!-- Generator: Sketch 3.2.2 (9983) - http://www.bohemiancoding.com/sketch -->
    <title>avg</title>
    <desc>Created with Sketch.</desc>
    <defs></defs>
    <g id="Page-1" stroke="none" stroke-width="1" fill="none" fill-rule="evenodd" sketch:type="MSPage">
        <g id="AVG" sketch:type="MSLayerGroup" transform="translate(68.000000, 52.000000)" fill="#888C85">
            <path d="M26.485213,0.83304878 C25.9750556,0.535609756 25.3921759,0.344634146 24.7784444,0.276585366 L14.1114167,0.262317073 L0.52337963,44.6795122 L10.9689352,44.6795122 L13.3764815,36.0076829 L28.3043704,36.0076829 L30.7174259,44.6795122 L41.1651852,44.6795122 L28.3649722,3.05560976 C28.0256019,2.11170732 27.3468611,1.33134146 26.485213,0.83304878 M15.6529074,27.6717073 L20.8106759,9.06914634 L25.8979259,27.6717073 L15.6529074,27.6717073" id="Fill-140" sketch:type="MSShapeGroup"></path>
            <path d="M65.1139352,0.262317073 L55.6710648,35.6059756 L46.2337037,0.262317073 L35.9214722,0.262317073 L48.5112315,44.6806098 L59.4878796,44.6806098 C61.4513796,44.6191463 63.09975,43.3393902 63.7057685,41.5778049 L63.7200926,41.5690244 L75.423963,0.262317073 L65.1139352,0.262317073" id="Fill-141" sketch:type="MSShapeGroup"></path>
            <path d="M116.540667,44.757439 C115.337444,44.757439 114.361204,43.8212195 114.361204,42.6643902 C114.361204,41.5053659 115.337444,40.5713415 116.540667,40.5713415 C117.742787,40.5713415 118.721231,41.5053659 118.721231,42.6643902 C118.721231,43.8212195 117.742787,44.757439 116.540667,44.757439 L116.540667,44.757439 Z M116.540667,41.04 C115.600787,41.04 114.880176,41.7314634 114.880176,42.6643902 C114.880176,43.5929268 115.600787,44.289878 116.540667,44.289878 C117.475037,44.289878 118.202259,43.5929268 118.202259,42.6643902 C118.202259,41.7314634 117.475037,41.04 116.540667,41.04 L116.540667,41.04 Z M116.932926,43.7718293 L116.508713,42.912439 L116.261898,42.912439 L116.261898,43.7718293 L115.744028,43.7718293 L115.744028,41.5470732 L116.689417,41.5470732 C117.161009,41.5470732 117.460713,41.8796341 117.460713,42.2462195 C117.460713,42.5546341 117.255769,42.75 117.034296,42.8367073 L117.520213,43.7718293 L116.932926,43.7718293 L116.932926,43.7718293 Z M116.624407,41.9597561 L116.261898,41.9597561 L116.261898,42.5392683 L116.624407,42.5392683 C116.820537,42.5392683 116.945046,42.4031707 116.945046,42.2462195 C116.945046,42.0881707 116.820537,41.9597561 116.624407,41.9597561 L116.624407,41.9597561 Z" id="Fill-142" sketch:type="MSShapeGroup"></path>
            <path d="M102.050213,25.0167073 L102.050213,35.2141463 L92.4288426,35.2141463 C89.9970556,35.2141463 88.0192315,33.2132927 88.0192315,30.7481707 L88.0192315,14.1969512 C88.0192315,11.7362195 89.9970556,9.73097561 92.4288426,9.73097561 L105.677509,9.73097561 L108.533509,0.256829268 L91.2454537,0.256829268 C83.962213,0.256829268 78.041963,6.26597561 78.041963,13.6547561 L78.041963,31.2903659 C78.041963,38.6791463 83.962213,44.6893902 91.2454537,44.6893902 L111.386204,44.6893902 L111.386204,22.2245122 L98.8768796,22.2245122 L102.050213,25.0167073" id="Fill-143" sketch:type="MSShapeGroup"></path>
        </g>
    </g>
</svg>