<?xml version="1.0" encoding="UTF-8" standalone="no"?>
<svg width="250px" height="150px" viewBox="0 0 250 150" version="1.1" xmlns="http://www.w3.org/2000/svg" xmlns:xlink="http://www.w3.org/1999/xlink" xmlns:sketch="http://www.bohemiancoding.com/sketch/ns">
    <!-- Generator: Sketch 3.2.2 (9983) - http://www.bohemiancoding.com/sketch -->
    <title>bbc</title>
    <desc>Created with Sketch.</desc>
    <defs></defs>
    <g id="Page-1" stroke="none" stroke-width="1" fill="none" fill-rule="evenodd" sketch:type="MSPage">
        <g id="BBC" sketch:type="MSLayerGroup" transform="translate(54.000000, 54.000000)" fill="#888C85">
            <path d="M78.2868182,27.0977368 C78.2868182,31.5928421 72.7273864,31.3264737 72.7273864,31.3264737 L67.1679545,31.3264737 L67.1679545,23.2027895 L72.7273864,23.2027895 C78.4515909,23.1696316 78.2868182,27.0977368 78.2868182,27.0977368 L78.2868182,27.0977368 Z M67.1679545,10.8172105 L71.4037121,10.8172105 C75.8042424,11.0493158 75.6394697,14.3463158 75.6394697,14.3463158 C75.6394697,18.4413158 70.7753788,18.5087368 70.7753788,18.5087368 L67.1679545,18.5087368 L67.1679545,10.8172105 L67.1679545,10.8172105 Z M77.2608333,20.1069474 C77.2608333,20.1069474 81.0670833,18.4755789 81.0330303,14.1462632 C81.0330303,14.1462632 81.6119318,7.05489474 72.2715152,6.18947368 L61.9062121,6.18947368 L61.9062121,35.9221579 L73.7863258,35.9221579 C73.7863258,35.9221579 83.7133333,35.9553158 83.7133333,27.531 C83.7133333,27.531 83.9451136,21.8046316 77.2608333,20.1069474 L77.2608333,20.1069474 Z M50.4391288,0.362526316 L94.070947,0.362526316 L94.070947,41.7336316 L50.4391288,41.7336316 L50.4391288,0.362526316 Z" id="Fill-90" sketch:type="MSShapeGroup"></path>
            <path d="M27.9707197,27.0977368 C27.9707197,31.5928421 22.4112879,31.3264737 22.4112879,31.3264737 L16.8518561,31.3264737 L16.8518561,23.2027895 L22.4112879,23.2027895 C28.1365909,23.1696316 27.9707197,27.0977368 27.9707197,27.0977368 L27.9707197,27.0977368 Z M16.8518561,10.8172105 L21.0876136,10.8172105 C25.4892424,11.0493158 25.3233712,14.3463158 25.3233712,14.3463158 C25.3233712,18.4413158 20.4592803,18.5087368 20.4592803,18.5087368 L16.8518561,18.5087368 L16.8518561,10.8172105 L16.8518561,10.8172105 Z M26.9447348,20.1069474 C26.9447348,20.1069474 30.7498864,18.4755789 30.7169318,14.1462632 C30.7169318,14.1462632 31.2958333,7.05489474 21.9565152,6.18947368 L11.5901136,6.18947368 L11.5901136,35.9221579 L23.4702273,35.9221579 C23.4702273,35.9221579 33.3983333,35.9553158 33.3983333,27.531 C33.3983333,27.531 33.6290152,21.8046316 26.9447348,20.1069474 L26.9447348,20.1069474 Z M0.123030303,0.362526316 L43.7548485,0.362526316 L43.7548485,41.7336316 L0.123030303,41.7336316 L0.123030303,0.362526316 Z" id="Fill-91" sketch:type="MSShapeGroup"></path>
            <path d="M135.484924,8.32042105 L135.484924,13.8146842 C135.484924,13.8146842 130.157273,10.5176842 124.267197,10.4513684 C124.267197,10.4513684 113.28125,10.2358421 112.784735,21.0475263 C112.784735,21.0475263 112.388182,30.9948947 124.135379,31.5607895 C124.135379,31.5607895 129.065379,32.1598421 135.750758,27.8658947 L135.750758,33.558 C135.750758,33.558 126.782727,38.9185263 116.392159,34.7903684 C116.392159,34.7903684 107.655909,31.5784737 107.324167,21.0475263 C107.324167,21.0475263 106.960568,10.2181579 118.608902,6.62273684 C118.608902,6.62273684 121.719811,5.42352632 127.311098,5.95626316 C127.311098,5.95626316 130.653788,6.29005263 135.484924,8.32042105 L135.484924,8.32042105 Z M100.754129,41.7336316 L144.385947,41.7336316 L144.385947,0.362526316 L100.754129,0.362526316 L100.754129,41.7336316 Z" id="Fill-92" sketch:type="MSShapeGroup"></path>
        </g>
    </g>
</svg>