<?xml version="1.0" encoding="UTF-8" standalone="no"?>
<svg width="250px" height="150px" viewBox="0 0 250 150" version="1.1" xmlns="http://www.w3.org/2000/svg" xmlns:xlink="http://www.w3.org/1999/xlink" xmlns:sketch="http://www.bohemiancoding.com/sketch/ns">
    <!-- Generator: Sketch 3.2.2 (9983) - http://www.bohemiancoding.com/sketch -->
    <title>british</title>
    <desc>Created with Sketch.</desc>
    <defs></defs>
    <g id="Page-1" stroke="none" stroke-width="1" fill="none" fill-rule="evenodd" sketch:type="MSPage">
        <g id="Group" sketch:type="MSLayerGroup" transform="translate(51.000000, 53.000000)" fill="#888C85">
            <path d="M54.9798345,29.1040244 L52.4955108,29.1040244 L52.4955108,21.294878 L54.9435108,21.294878 C56.5241439,21.294878 57.249518,22.3737805 57.249518,23.3209756 C57.249518,24.0673171 56.9402158,24.5656098 56.311705,24.9453659 L56.311705,24.9695122 C57.2131942,25.1703659 57.7602518,25.7981707 57.7602518,26.7453659 C57.7602518,27.8582927 56.9523237,29.1040244 54.9798345,29.1040244 M54.7420791,22.5054878 L53.9341511,22.5054878 L53.9341511,24.5414634 L54.6947482,24.5414634 C55.3353669,24.5414634 55.8119784,24.1265854 55.8119784,23.4746341 C55.8119784,22.9170732 55.4300288,22.5054878 54.7420791,22.5054878 M55.0150576,25.7389024 L53.9341511,25.7389024 L53.9341511,27.8956098 L54.8499496,27.8956098 C55.8119784,27.8956098 56.2863885,27.4686585 56.2863885,26.757439 C56.2863885,26.1526829 55.8229856,25.7389024 55.0150576,25.7389024" id="Fill-281" sketch:type="MSShapeGroup"></path>
            <path d="M62.1091942,24.8136585 C61.8714388,24.6720732 61.6226763,24.6369512 61.4553669,24.6369512 C61.0998345,24.6369512 60.7905324,24.7686585 60.3634532,25.1341463 L60.3634532,29.1029268 L58.9369209,29.1029268 L58.9369209,23.4987805 L60.1356043,23.4987805 L60.3029137,24.0914634 C60.8730863,23.5821951 61.3133741,23.3692683 61.8362158,23.3692683 C62.1213022,23.3692683 62.4306043,23.4515854 62.6441439,23.6063415 L62.1091942,24.8136585" id="Fill-282" sketch:type="MSShapeGroup"></path>
            <path d="M64.1884532,22.635 C63.7008345,22.635 63.3089784,22.2541463 63.3089784,21.770122 C63.3089784,21.3069512 63.7008345,20.9162195 64.1884532,20.9162195 C64.6881799,20.9162195 65.080036,21.294878 65.080036,21.770122 C65.080036,22.2442683 64.6881799,22.635 64.1884532,22.635 L64.1884532,22.635 Z M63.4762878,23.4987805 L64.9028201,23.4987805 L64.9028201,29.1040244 L63.4762878,29.1040244 L63.4762878,23.4987805 Z" id="Fill-283" sketch:type="MSShapeGroup"></path>
            <path d="M68.5737194,29.222561 C67.4796043,29.222561 67.0877482,28.665 67.0877482,27.9065854 L67.0877482,24.5656098 L66.0904964,24.5656098 L66.0904964,23.499878 L67.0877482,23.499878 L67.0877482,22.2080488 L68.5142806,21.7810976 L68.5142806,23.499878 L70.2600216,23.499878 L69.8450504,24.5656098 L68.5142806,24.5656098 L68.5142806,27.4335366 C68.5142806,27.872561 68.6804892,28.0734146 69.0481295,28.0734146 C69.4058633,28.0734146 69.7746043,27.9197561 70.0002518,27.8132927 L70.38,28.7363415 C69.8450504,29.079878 69.1328849,29.222561 68.5737194,29.222561" id="Fill-284" sketch:type="MSShapeGroup"></path>
            <path d="M72.2093957,22.635 C71.7228777,22.635 71.3310216,22.2541463 71.3310216,21.770122 C71.3310216,21.3069512 71.7228777,20.9162195 72.2093957,20.9162195 C72.7080216,20.9162195 73.1009784,21.294878 73.1009784,21.770122 C73.1009784,22.2442683 72.7080216,22.635 72.2093957,22.635 L72.2093957,22.635 Z M71.4961295,23.4987805 L72.9226619,23.4987805 L72.9226619,29.1040244 L71.4961295,29.1040244 L71.4961295,23.4987805 Z" id="Fill-285" sketch:type="MSShapeGroup"></path>
            <path d="M76.2380288,29.222561 C75.311223,29.222561 74.6221727,28.9865854 74.1576691,28.7012195 L74.6221727,27.6585366 C75.0371439,27.9428049 75.5731942,28.1568293 76.131259,28.1568293 C76.7135396,28.1568293 77.0943885,27.9428049 77.0943885,27.5630488 C77.0943885,26.5554878 74.503295,26.9352439 74.503295,25.0287805 C74.503295,24.0563415 75.2748993,23.3692683 76.6298849,23.3692683 C77.2363813,23.3692683 77.806554,23.4757317 78.2699568,23.6535366 L78.2699568,24.8378049 C77.794446,24.6490244 77.2837122,24.4712195 76.6783165,24.4712195 C76.1906978,24.4712195 75.8813957,24.6259756 75.8813957,24.957439 C75.8813957,25.8464634 78.5198201,25.550122 78.5198201,27.4807317 C78.5198201,28.7363415 77.4499209,29.222561 76.2380288,29.222561" id="Fill-286" sketch:type="MSShapeGroup"></path>
            <path d="M83.3794964,29.1029268 L83.3794964,25.8332927 C83.3794964,25.2054878 83.2848345,24.6128049 82.5242374,24.6128049 C82.0377194,24.6128049 81.5379928,24.885 81.1571439,25.2054878 L81.1571439,29.1029268 L79.7328129,29.1029268 L79.7328129,20.7142683 L81.1571439,20.7142683 L81.1571439,24.1035366 C81.6799856,23.6765854 82.2985899,23.3692683 83.0228633,23.3692683 C83.8913309,23.3692683 84.8181367,23.7830488 84.8181367,25.4304878 L84.8181367,29.1029268" id="Fill-287" sketch:type="MSShapeGroup"></path>
            <path d="M94.7873525,29.1029268 L94.0146475,27.1492683 L91.2221223,27.1492683 L90.4978489,29.1029268 L89.0603094,29.1029268 L92.1015971,21.2608537 L93.1483813,21.2608537 L96.2964388,29.1029268 L94.7873525,29.1029268 L94.7873525,29.1029268 Z M92.933741,24.1858537 C92.7917482,23.795122 92.6959856,23.4757317 92.6365468,23.2145122 L92.6244388,23.2145122 C92.5782086,23.4878049 92.4714388,23.795122 92.3393525,24.1628049 L91.6624101,25.9759756 L93.5633525,25.9759756 L92.933741,24.1858537 L92.933741,24.1858537 Z" id="Fill-288" sketch:type="MSShapeGroup"></path>
            <path d="M99.6360216,29.222561 C97.8044245,29.222561 96.8666115,27.9065854 96.8666115,26.3315854 C96.8666115,24.6259756 98.1027194,23.3692683 99.7791151,23.3692683 C100.538612,23.3692683 101.061453,23.5580488 101.382863,23.7610976 L101.358647,24.9223171 C100.965691,24.6259756 100.526504,24.4591463 99.944223,24.4591463 C98.9821942,24.4591463 98.2909424,25.217561 98.2909424,26.2602439 C98.2909424,27.2195122 98.8159856,28.0734146 99.9343165,28.0734146 C100.467065,28.0734146 100.871029,27.9065854 101.262885,27.6815854 L101.619518,28.6178049 C101.168223,28.9262195 100.406525,29.222561 99.6360216,29.222561" id="Fill-289" sketch:type="MSShapeGroup"></path>
            <path d="M106.041108,29.1029268 L105.802252,28.6057317 C105.434612,28.9382927 104.922777,29.222561 104.175388,29.222561 C103.139612,29.222561 102.333885,28.5234146 102.333885,27.422561 C102.333885,26.2602439 103.247482,25.632439 104.686122,25.5852439 L105.684475,25.5490244 L105.684475,25.4063415 C105.684475,24.7192683 105.208964,24.4580488 104.579353,24.4580488 C103.995971,24.4580488 103.521561,24.6610976 103.164928,24.875122 L102.701525,23.985 C103.450014,23.4878049 104.151173,23.3692683 104.899662,23.3692683 C106.289871,23.3692683 107.133022,23.9378049 107.133022,25.4063415 L107.133022,27.6234146 C107.133022,28.4290244 107.157237,28.8439024 107.240892,29.1029268 L106.041108,29.1029268 L106.041108,29.1029268 Z M105.684475,26.532439 L104.876547,26.5554878 C104.102741,26.5796341 103.758216,26.8408537 103.758216,27.315 C103.758216,27.7770732 104.080727,28.0964634 104.674014,28.0964634 C105.17264,28.0964634 105.49405,27.9065854 105.684475,27.7408537 L105.684475,26.532439 L105.684475,26.532439 Z" id="Fill-290" sketch:type="MSShapeGroup"></path>
            <path d="M111.447842,29.222561 C109.772547,29.222561 108.393345,28.2391463 108.393345,26.342561 C108.393345,24.6018293 109.687791,23.3692683 111.507281,23.3692683 C111.792367,23.3692683 112.018014,23.3802439 112.219446,23.4164634 L112.219446,20.7153659 L113.645978,20.7153659 L113.645978,28.772561 C113.111029,29.0447561 112.409871,29.222561 111.447842,29.222561 M112.219446,24.5776829 C112.030122,24.5293902 111.862813,24.4942683 111.555712,24.4942683 C110.54305,24.4942683 109.818777,25.1692683 109.818777,26.2723171 C109.818777,27.2908537 110.484712,28.0503659 111.577727,28.0503659 C111.803374,28.0503659 112.053237,28.0130488 112.219446,27.9658537 L112.219446,24.5776829" id="Fill-291" sketch:type="MSShapeGroup"></path>
            <path d="M116.343842,26.675122 C116.366957,27.5037805 117.056007,28.0854878 117.922273,28.0854878 C118.459424,28.0854878 118.898612,27.954878 119.385129,27.692561 L119.730755,28.6057317 C119.100043,29.0447561 118.351554,29.222561 117.685619,29.222561 C115.725237,29.222561 114.893094,27.800122 114.893094,26.2953659 C114.893094,24.695122 115.843014,23.3692683 117.447863,23.3692683 C118.969058,23.3692683 119.96741,24.5173171 119.96741,26.2602439 L119.96741,26.675122 L116.343842,26.675122 L116.343842,26.675122 Z M117.41264,24.435 C116.72359,24.435 116.308619,25.0507317 116.308619,25.667561 L118.494647,25.667561 C118.469331,25.0628049 118.136914,24.435 117.41264,24.435 L117.41264,24.435 Z" id="Fill-292" sketch:type="MSShapeGroup"></path>
            <path d="M128.380209,29.1029268 L128.380209,25.7037805 C128.380209,25.074878 128.262432,24.5787805 127.560173,24.5787805 C127.049439,24.5787805 126.573928,24.849878 126.206288,25.1473171 C126.217295,25.1934146 126.217295,25.2768293 126.217295,25.3481707 L126.217295,29.1029268 L124.790763,29.1029268 L124.790763,25.7257317 C124.790763,25.0979268 124.672986,24.5787805 123.983935,24.5787805 C123.473201,24.5787805 122.997691,24.849878 122.62895,25.1473171 L122.62895,29.1029268 L121.203518,29.1029268 L121.203518,23.4987805 L122.403302,23.4987805 L122.545295,24.1145122 C123.163899,23.6414634 123.805619,23.3692683 124.459446,23.3692683 C125.160604,23.3692683 125.672439,23.6886585 125.932209,24.2110976 C126.586036,23.6535366 127.323518,23.3692683 127.939921,23.3692683 C128.904151,23.3692683 129.793532,23.8302439 129.793532,25.299878 L129.793532,29.1029268 L128.380209,29.1029268" id="Fill-293" sketch:type="MSShapeGroup"></path>
            <path d="M134.345007,29.3169512 C133.490849,31.6042683 132.587158,31.9006098 131.587705,31.9006098 C131.054957,31.9006098 130.626777,31.8062195 130.256935,31.6404878 L130.613568,30.5604878 C130.910763,30.7042683 131.148518,30.7745122 131.51836,30.7745122 C132.075324,30.7745122 132.610273,30.3596341 133.026345,29.0678049 L130.459468,23.4987805 L131.968554,23.4987805 L133.715396,27.4807317 L133.750619,27.4807317 L135.106705,23.4987805 L136.507921,23.4987805 L134.345007,29.3169512" id="Fill-294" sketch:type="MSShapeGroup"></path>
            <path d="M56.0849568,41.9147561 C53.6017338,41.9147561 52.1278705,40.1970732 52.1278705,37.9690244 C52.1278705,35.73 53.7921583,33.9168293 56.3348201,33.9168293 C57.2021871,33.9168293 57.9385683,34.0836585 58.4019712,34.3437805 L58.3898633,35.6828049 C57.736036,35.2909756 57.1064245,35.1252439 56.4052662,35.1252439 C54.5879784,35.1252439 53.6842878,36.4412195 53.6842878,37.9097561 C53.6842878,39.4869512 54.683741,40.707439 56.2269496,40.707439 C57.0117626,40.707439 57.6292662,40.5043902 58.2236547,40.1871951 L58.6397266,41.2276829 C57.8075827,41.7018293 56.9292086,41.9147561 56.0849568,41.9147561" id="Fill-295" sketch:type="MSShapeGroup"></path>
            <path d="M63.9980288,41.1102439 C63.4994029,41.6184146 62.8103525,41.9147561 61.9661007,41.9147561 C61.1823885,41.9147561 60.5153525,41.6667073 60.0299353,41.2167073 C59.4707698,40.6942683 59.1614676,39.9237805 59.1614676,39.0237805 C59.1614676,38.1457317 59.4586619,37.3895122 59.9815036,36.8571951 C60.4812302,36.3589024 61.1581727,36.0614634 61.9782086,36.0614634 C62.8455755,36.0614634 63.5467338,36.3589024 64.0464604,36.8681707 C64.5340791,37.3895122 64.7949496,38.1226829 64.7949496,38.9765854 C64.7949496,39.8304878 64.5208705,40.5878049 63.9980288,41.1102439 M61.9539928,37.1864634 C61.0503022,37.1864634 60.6122158,37.9459756 60.6122158,38.9897561 C60.6122158,40.0796341 61.1229496,40.8128049 61.9892158,40.8128049 C62.8807986,40.8128049 63.3320935,40.0434146 63.3320935,38.9897561 C63.3320935,37.9097561 62.8334676,37.1864634 61.9539928,37.1864634" id="Fill-296" sketch:type="MSShapeGroup"></path>
            <path d="M67.6931439,41.9147561 C66.7663381,41.9147561 66.0772878,41.6787805 65.6149856,41.3934146 L66.0772878,40.3507317 C66.4933597,40.6371951 67.0283094,40.8479268 67.5874748,40.8479268 C68.1697554,40.8479268 68.5495036,40.6371951 68.5495036,40.2563415 C68.5495036,39.2487805 65.9595108,39.627439 65.9595108,37.719878 C65.9595108,36.7496341 66.7311151,36.0614634 68.0861007,36.0614634 C68.6925971,36.0614634 69.2627698,36.1679268 69.7261727,36.3457317 L69.7261727,37.5321951 C69.2506619,37.3423171 68.7399281,37.1634146 68.1334317,37.1634146 C67.6469137,37.1634146 67.3365108,37.3181707 67.3365108,37.6496341 C67.3365108,38.5386585 69.976036,38.2423171 69.976036,40.1740244 C69.976036,41.4296341 68.905036,41.9147561 67.6931439,41.9147561" id="Fill-297" sketch:type="MSShapeGroup"></path>
            <path d="M78.3657194,41.7973171 L78.3657194,38.3970732 C78.3657194,37.7681707 78.245741,37.269878 77.5456835,37.269878 C77.0338489,37.269878 76.5594388,37.5420732 76.1906978,37.8395122 C76.201705,37.8878049 76.201705,37.970122 76.201705,38.0403659 L76.201705,41.7973171 L74.7762734,41.7973171 L74.7762734,38.420122 C74.7762734,37.7923171 74.6573957,37.269878 73.9683453,37.269878 C73.4576115,37.269878 72.9821007,37.5420732 72.6133597,37.8395122 L72.6133597,41.7973171 L71.1868273,41.7973171 L71.1868273,36.1920732 L72.3877122,36.1920732 L72.5308058,36.8089024 C73.1483094,36.3347561 73.7900288,36.062561 74.4438561,36.062561 C75.1450144,36.062561 75.6557482,36.3830488 75.9177194,36.9021951 C76.570446,36.3457317 77.3079281,36.062561 77.9254317,36.062561 C78.8874604,36.062561 79.7790432,36.5235366 79.7790432,37.9942683 L79.7790432,41.7973171 L78.3657194,41.7973171" id="Fill-298" sketch:type="MSShapeGroup"></path>
            <path d="M82.4758058,39.3673171 C82.5000216,40.1981707 83.1890719,40.7776829 84.0575396,40.7776829 C84.5913885,40.7776829 85.0316763,40.6470732 85.5181942,40.3869512 L85.8638201,41.300122 C85.2331079,41.7369512 84.4846187,41.9147561 83.8197842,41.9147561 C81.8572014,41.9147561 81.0261583,40.4945122 81.0261583,38.9897561 C81.0261583,37.3884146 81.9771799,36.0614634 83.5809281,36.0614634 C85.103223,36.0614634 86.1004748,37.2117073 86.1004748,38.9535366 L86.1004748,39.3673171 L82.4758058,39.3673171 L82.4758058,39.3673171 Z M83.545705,37.1293902 C82.8566547,37.1293902 82.4405827,37.7440244 82.4405827,38.3608537 L84.6277122,38.3608537 C84.6023957,37.7571951 84.2699784,37.1293902 83.545705,37.1293902 L83.545705,37.1293902 Z" id="Fill-299" sketch:type="MSShapeGroup"></path>
            <path d="M89.3453957,41.9147561 C88.2512806,41.9147561 87.8594245,41.3582927 87.8594245,40.6009756 L87.8594245,37.26 L86.8610719,37.26 L86.8610719,36.1920732 L87.8594245,36.1920732 L87.8594245,34.902439 L89.2848561,34.4754878 L89.2848561,36.1920732 L91.0316978,36.1920732 L90.6167266,37.26 L89.2848561,37.26 L89.2848561,40.1268293 C89.2848561,40.5647561 89.4510647,40.7667073 89.8209065,40.7667073 C90.1764388,40.7667073 90.5451799,40.6119512 90.7708273,40.5043902 L91.1505755,41.4296341 C90.6167266,41.7731707 89.9034604,41.9147561 89.3453957,41.9147561" id="Fill-300" sketch:type="MSShapeGroup"></path>
            <path d="M92.9810719,35.3282927 C92.4934532,35.3282927 92.1015971,34.947439 92.1015971,34.4623171 C92.1015971,34.0013415 92.4934532,33.6084146 92.9810719,33.6084146 C93.4796978,33.6084146 93.8726547,33.9881707 93.8726547,34.4623171 C93.8726547,34.9353659 93.4796978,35.3282927 92.9810719,35.3282927 L92.9810719,35.3282927 Z M92.266705,36.1920732 L93.6932374,36.1920732 L93.6932374,41.7973171 L92.266705,41.7973171 L92.266705,36.1920732 Z" id="Fill-301" sketch:type="MSShapeGroup"></path>
            <path d="M97.8880791,41.9147561 C96.0586835,41.9147561 95.1208705,40.6009756 95.1208705,39.0237805 C95.1208705,37.3181707 96.3558777,36.0614634 98.0322734,36.0614634 C98.7917698,36.0614634 99.3146115,36.252439 99.6360216,36.4532927 L99.6118058,37.6134146 C99.2188489,37.3181707 98.7796619,37.1535366 98.1973813,37.1535366 C97.2353525,37.1535366 96.5452014,37.9097561 96.5452014,38.952439 C96.5452014,39.9128049 97.0691439,40.7667073 98.1863741,40.7667073 C98.720223,40.7667073 99.1241871,40.6009756 99.5160432,40.374878 L99.873777,41.3110976 C99.4213813,41.6184146 98.6607842,41.9147561 97.8880791,41.9147561" id="Fill-302" sketch:type="MSShapeGroup"></path>
            <path d="M106.562849,41.7973171 L104.281058,41.7973171 L104.281058,33.9881707 L106.657511,33.9881707 C109.497367,33.9881707 110.996547,35.5412195 110.996547,37.827439 C110.996547,40.1619512 109.331158,41.7973171 106.562849,41.7973171 M106.622288,35.1965854 L105.720799,35.1965854 L105.720799,40.5878049 L106.634396,40.5878049 C108.69054,40.5878049 109.462144,39.2970732 109.462144,37.8504878 C109.462144,36.2864634 108.524331,35.1965854 106.622288,35.1965854" id="Fill-303" sketch:type="MSShapeGroup"></path>
            <path d="M113.466561,39.3673171 C113.489676,40.1981707 114.180928,40.7776829 115.048295,40.7776829 C115.582144,40.7776829 116.022432,40.6470732 116.50895,40.3869512 L116.853475,41.300122 C116.223863,41.7369512 115.475374,41.9147561 114.81054,41.9147561 C112.850158,41.9147561 112.018014,40.4945122 112.018014,38.9897561 C112.018014,37.3884146 112.967935,36.0614634 114.572784,36.0614634 C116.093978,36.0614634 117.09123,37.2117073 117.09123,38.9535366 L117.09123,39.3673171 L113.466561,39.3673171 L113.466561,39.3673171 Z M114.53646,37.1293902 C113.848511,37.1293902 113.431338,37.7440244 113.431338,38.3608537 L115.618468,38.3608537 C115.594252,37.7571951 115.260734,37.1293902 114.53646,37.1293902 L114.53646,37.1293902 Z" id="Fill-304" sketch:type="MSShapeGroup"></path>
            <path d="M122.011446,41.7973171 L122.011446,38.502439 C122.011446,37.9229268 121.903576,37.2819512 121.179302,37.2819512 C120.679576,37.2819512 120.193058,37.5420732 119.753871,37.8746341 L119.753871,41.7973171 L118.327338,41.7973171 L118.327338,36.1920732 L119.53923,36.1920732 L119.693331,36.7968293 C120.299827,36.3457317 120.906324,36.062561 121.666921,36.062561 C122.521079,36.062561 123.436878,36.5718293 123.436878,38.0765854 L123.436878,41.7973171 L122.011446,41.7973171" id="Fill-305" sketch:type="MSShapeGroup"></path>
            <path d="M126.930561,41.9147561 C125.837547,41.9147561 125.44459,41.3582927 125.44459,40.6009756 L125.44459,37.26 L124.446237,37.26 L124.446237,36.1920732 L125.44459,36.1920732 L125.44459,34.902439 L126.871122,34.4754878 L126.871122,36.1920732 L128.617964,36.1920732 L128.201892,37.26 L126.871122,37.26 L126.871122,40.1268293 C126.871122,40.5647561 127.03623,40.7667073 127.406072,40.7667073 C127.762705,40.7667073 128.130345,40.6119512 128.357094,40.5043902 L128.736842,41.4296341 C128.201892,41.7731707 127.488626,41.9147561 126.930561,41.9147561" id="Fill-306" sketch:type="MSShapeGroup"></path>
            <path d="M130.567338,35.3282927 C130.079719,35.3282927 129.686763,34.947439 129.686763,34.4623171 C129.686763,34.0013415 130.079719,33.6084146 130.567338,33.6084146 C131.065964,33.6084146 131.45782,33.9881707 131.45782,34.4623171 C131.45782,34.9353659 131.065964,35.3282927 130.567338,35.3282927 L130.567338,35.3282927 Z M129.854072,36.1920732 L131.279504,36.1920732 L131.279504,41.7973171 L129.854072,41.7973171 L129.854072,36.1920732 Z" id="Fill-307" sketch:type="MSShapeGroup"></path>
            <path d="M134.594871,41.9147561 C133.668065,41.9147561 132.979014,41.6787805 132.515612,41.3934146 L132.979014,40.3507317 C133.395086,40.6371951 133.930036,40.8479268 134.488101,40.8479268 C135.070381,40.8479268 135.45123,40.6371951 135.45123,40.2563415 C135.45123,39.2487805 132.860137,39.627439 132.860137,37.719878 C132.860137,36.7496341 133.632842,36.0614634 134.986727,36.0614634 C135.594324,36.0614634 136.163396,36.1679268 136.627899,36.3457317 L136.627899,37.5321951 C136.152388,37.3423171 135.640554,37.1634146 135.035158,37.1634146 C134.54754,37.1634146 134.238237,37.3181707 134.238237,37.6496341 C134.238237,38.5386585 136.876662,38.2423171 136.876662,40.1740244 C136.876662,41.4296341 135.807863,41.9147561 134.594871,41.9147561" id="Fill-308" sketch:type="MSShapeGroup"></path>
            <path d="M140.097367,41.9147561 C139.004353,41.9147561 138.611396,41.3582927 138.611396,40.6009756 L138.611396,37.26 L137.613043,37.26 L137.613043,36.1920732 L138.611396,36.1920732 L138.611396,34.902439 L140.037928,34.4754878 L140.037928,36.1920732 L141.785871,36.1920732 L141.368698,37.26 L140.037928,37.26 L140.037928,40.1268293 C140.037928,40.5647561 140.204137,40.7667073 140.572878,40.7667073 C140.929511,40.7667073 141.297151,40.6119512 141.523899,40.5043902 L141.903647,41.4296341 C141.368698,41.7731707 140.655432,41.9147561 140.097367,41.9147561" id="Fill-309" sketch:type="MSShapeGroup"></path>
            <path d="M146.550885,36.2985366 C146.336245,36.144878 146.026942,36.0614634 145.741856,36.0614634 C145.219014,36.0614634 144.779827,36.2754878 144.208554,36.7858537 L144.042345,36.1920732 L142.84146,36.1920732 L142.84146,41.7973171 L144.267993,41.7973171 L144.267993,37.827439 C144.695072,37.4608537 145.004374,37.3302439 145.362108,37.3302439 C145.527216,37.3302439 145.77818,37.3653659 146.014835,37.5069512 L146.550885,36.2985366" id="Fill-310" sketch:type="MSShapeGroup"></path>
            <path d="M150.625748,42.0102439 C149.770489,44.297561 148.866799,44.5928049 147.868446,44.5928049 C147.333496,44.5928049 146.906417,44.4984146 146.537676,44.3315854 L146.894309,43.2537805 C147.191504,43.3953659 147.429259,43.4678049 147.796899,43.4678049 C148.356065,43.4678049 148.889914,43.0518293 149.307086,41.76 L146.740209,36.1920732 L148.248194,36.1920732 L149.996137,40.1740244 L150.03136,40.1740244 L151.386345,36.1920732 L152.788662,36.1920732 L150.625748,42.0102439" id="Fill-311" sketch:type="MSShapeGroup"></path>
            <path d="M16.5889424,33.462439 L16.5724317,33.462439 C16.5052878,33.8487805 16.3544892,34.2812195 16.1706691,34.8014634 L15.2130432,37.3631707 L17.8998993,37.3631707 L17.0094173,34.8354878 C16.8090863,34.2812195 16.6736978,33.830122 16.5889424,33.462439" id="Fill-312" sketch:type="MSShapeGroup"></path>
            <path d="M7.18989928,37.0273171 L5.66210072,37.0273171 L5.66210072,40.0741463 L6.95434532,40.0741463 C8.31483453,40.0741463 8.98517266,39.4715854 8.98517266,38.4673171 C8.98517266,37.6134146 8.33134532,37.0273171 7.18989928,37.0273171" id="Fill-313" sketch:type="MSShapeGroup"></path>
            <path d="M35.9285827,32.4581707 L34.6517482,32.4581707 L34.6517482,40.0741463 L35.9439928,40.0741463 C38.8487914,40.0741463 39.9396043,38.2489024 39.9396043,36.207439 C39.9396043,33.9969512 38.6132374,32.4581707 35.9285827,32.4581707" id="Fill-314" sketch:type="MSShapeGroup"></path>
            <path d="M8.31483453,33.830122 C8.31483453,33.0442683 7.77658273,32.4581707 6.80354676,32.4581707 L5.66210072,32.4581707 L5.66210072,35.3370732 L6.73640288,35.3370732 C7.64229496,35.3370732 8.31483453,34.7520732 8.31483453,33.830122" id="Fill-315" sketch:type="MSShapeGroup"></path>
            <path d="M0.540453237,44.712439 L45.2274604,44.712439 L45.2274604,0.118536585 L0.540453237,0.118536585 L0.540453237,44.712439 Z M7.13926619,41.7819512 L3.63127338,41.7819512 L3.63127338,30.7503659 L7.08863309,30.7503659 C9.32199281,30.7503659 10.3456619,32.2737805 10.3456619,33.6139024 C10.3456619,34.667561 9.90977698,35.3710976 9.02039568,35.9056098 L9.02039568,35.9396341 C10.2950288,36.225 11.0666331,37.1107317 11.0666331,38.4497561 C11.0666331,40.022561 9.92518705,41.7819512 7.13926619,41.7819512 L7.13926619,41.7819512 Z M19.6280288,41.7819512 L18.5361151,39.0182927 L14.5922374,39.0182927 L13.5674676,41.7819512 L11.5366403,41.7819512 L15.8349496,30.7009756 L17.3121151,30.7009756 L21.7601223,41.7819512 L19.6280288,41.7819512 L19.6280288,41.7819512 Z M27.4838633,41.9487805 C23.9758705,41.9487805 21.8955108,39.5209756 21.8955108,36.3742683 C21.8955108,33.2110976 24.244446,30.6493902 27.8371942,30.6493902 C29.062295,30.6493902 30.1035755,30.8853659 30.7585036,31.2530488 L30.7408921,33.1452439 C29.8184892,32.5920732 28.9280072,32.3582927 27.9373597,32.3582927 C25.3693813,32.3582927 24.0925468,34.2164634 24.0925468,36.2919512 C24.0925468,38.5167073 25.5047698,40.2420732 27.685295,40.2420732 C28.7937194,40.2420732 29.6665899,39.9578049 30.5064388,39.5045122 L31.094223,40.977439 C29.9197554,41.6480488 28.6770432,41.9487805 27.4838633,41.9487805 L27.4838633,41.9487805 Z M35.8438273,41.7819512 L32.6198201,41.7819512 L32.6198201,30.7503659 L35.9781151,30.7503659 C39.9913381,30.7503659 42.1047194,32.9443902 42.1047194,36.1734146 C42.1047194,39.4715854 39.7546835,41.7819512 35.8438273,41.7819512 L35.8438273,41.7819512 Z M38.2742158,16.4063415 C30.8256475,26.9023171 17.830554,30.6768293 9.25594964,24.8432927 C4.45351079,21.5769512 2.05834532,15.9881707 2.1816259,9.86268293 C4.21905755,13.1970732 7.09743885,15.8685366 10.7254101,17.505 C22.0705252,22.6229268 36.5020576,15.7192683 43.3012014,2.07219512 C43.1526043,6.81695122 41.4960216,11.8668293 38.2742158,16.4063415 L38.2742158,16.4063415 Z" id="Fill-316" sketch:type="MSShapeGroup"></path>
            <path d="M145.337892,28.4169512 C144.838165,28.9262195 144.149115,29.222561 143.305964,29.222561 C142.522252,29.222561 141.855216,28.9734146 141.367597,28.5234146 C140.810633,28.0020732 140.501331,27.2315854 140.501331,26.3315854 C140.501331,25.4535366 140.798525,24.695122 141.320266,24.1628049 C141.819993,23.6656098 142.496935,23.3692683 143.315871,23.3692683 C144.185439,23.3692683 144.886597,23.6656098 145.385223,24.1759756 C145.871741,24.695122 146.133712,25.4304878 146.133712,26.2843902 C146.133712,27.1360976 145.860734,27.8945122 145.337892,28.4169512 M143.293856,24.4953659 C142.390165,24.4953659 141.950978,25.2526829 141.950978,26.2953659 C141.950978,27.3863415 142.461712,28.1206098 143.329079,28.1206098 C144.220662,28.1206098 144.671957,27.350122 144.671957,26.2953659 C144.671957,25.217561 144.173331,24.4953659 143.293856,24.4953659" id="Fill-317" sketch:type="MSShapeGroup"></path>
            <path d="M150.590525,22.0060976 C150.364878,21.9106098 150.116115,21.852439 149.87946,21.852439 C149.427065,21.852439 149.212424,22.1246341 149.212424,22.6097561 L149.212424,23.4987805 L150.697295,23.4987805 L150.329655,24.5886585 L149.212424,24.5886585 L149.212424,29.1029268 L147.785892,29.1029268 L147.785892,24.5886585 L146.966957,24.5886585 L146.966957,23.4987805 L147.785892,23.4987805 L147.785892,22.7162195 C147.785892,21.0589024 148.985676,20.7142683 149.77159,20.7142683 C150.068784,20.7142683 150.507971,20.7856098 150.876712,20.9645122 L150.590525,22.0060976" id="Fill-318" sketch:type="MSShapeGroup"></path>
        </g>
    </g>
</svg>