<?xml version="1.0" encoding="UTF-8" standalone="no"?>
<svg width="250px" height="150px" viewBox="0 0 250 150" version="1.1" xmlns="http://www.w3.org/2000/svg" xmlns:xlink="http://www.w3.org/1999/xlink" xmlns:sketch="http://www.bohemiancoding.com/sketch/ns">
    <!-- Generator: Sketch 3.2.2 (9983) - http://www.bohemiancoding.com/sketch -->
    <title>cardiff</title>
    <desc>Created with Sketch.</desc>
    <defs></defs>
    <g id="Page-1" stroke="none" stroke-width="1" fill="none" fill-rule="evenodd" sketch:type="MSPage">
        <g id="Group" sketch:type="MSLayerGroup" transform="translate(52.000000, 46.000000)" fill="#888C85">
            <path d="M102.618277,53.3509038 C102.466175,53.5109423 102.406657,53.6095962 102.254555,53.8682885 C102.056161,53.9669423 101.51719,54.1489038 100.570409,54.1489038 C98.3715401,54.1489038 97.5173431,53.2007308 97.5173431,52.2591346 C97.5173431,50.4373269 99.9035839,50.2553654 100.722511,50.2553654 C101.787226,50.2553654 102.301949,50.4767885 102.606153,50.6127115 C102.314073,51.0073269 102.220387,51.3175385 102.184015,51.4775769 L101.846745,51.4775769 C101.72881,50.901 101.190942,50.7245192 100.793051,50.7245192 C99.5993796,50.7245192 99.4715255,51.7362692 99.4715255,52.1528077 C99.4715255,52.8729808 99.9035839,53.5723269 101.178818,53.5723269 C101.424606,53.5723269 101.76408,53.5482115 102.384613,53.2007308 L102.618277,53.3509038" id="Fill-197" sketch:type="MSShapeGroup"></path>
            <path d="M108.140248,52.1528077 C108.140248,51.6365192 108.104978,50.6291538 106.981847,50.6291538 C105.858715,50.6291538 105.835569,51.7121538 105.835569,52.2065192 C105.835569,52.6833462 105.869737,53.7904615 106.969723,53.7904615 C107.940752,53.7904615 108.140248,52.9266923 108.140248,52.1528077 L108.140248,52.1528077 Z M106.969723,50.2553654 C109.076007,50.2553654 110.093328,51.0369231 110.093328,52.1528077 C110.093328,53.2675962 109.052861,54.16425 106.969723,54.16425 C104.969248,54.16425 103.881387,53.3509038 103.881387,52.2130962 C103.881387,51.1816154 104.735584,50.2553654 106.969723,50.2553654 L106.969723,50.2553654 Z" id="Fill-198" sketch:type="MSShapeGroup"></path>
            <path d="M113.591679,50.9459423 C114.047985,50.4833654 114.632146,50.2794808 115.487445,50.2794808 C116.317394,50.2794808 116.832117,50.4767885 117.147343,50.9678654 C117.592628,50.5294038 118.212058,50.2794808 119.030985,50.2794808 C120.189387,50.2794808 120.891482,50.68725 120.891482,51.5301923 C120.88046,51.9927692 120.88046,52.7830962 120.88046,53.2763654 C120.88046,53.6545385 120.91573,53.8441731 120.927854,54.0655962 C120.587277,54.0338077 120.236781,54.0283269 119.897307,54.0283269 C119.522562,54.0283269 119.136796,54.05025 118.950526,54.0655962 C119.030985,53.5186154 119.067358,52.8433846 119.067358,52.2887308 C119.067358,51.5148462 119.043109,51.0073269 118.212058,51.0073269 C117.498942,51.0073269 117.230007,51.3252115 117.230007,51.9478269 L117.230007,53.3289808 C117.230007,53.5339615 117.265277,53.8529423 117.288423,54.0655962 C116.948949,54.0425769 116.621599,54.0283269 116.282124,54.0283269 C115.988942,54.0283269 115.639547,54.0283269 115.346365,54.0655962 C115.440051,53.59425 115.475321,52.9793077 115.475321,52.4871346 C115.475321,51.3865962 115.369511,51.0073269 114.57373,51.0073269 C113.720635,51.0073269 113.637971,51.5389615 113.637971,51.9335769 L113.637971,53.2917115 C113.637971,53.4890192 113.650095,53.8069038 113.696387,54.0655962 C113.427453,54.0425769 113.076956,54.0283269 112.702212,54.0283269 C112.269051,54.0283269 111.895409,54.05025 111.754328,54.0655962 C111.812745,53.7773077 111.824869,53.4813462 111.824869,53.1853846 L111.824869,51.4534615 C111.824869,51.0752885 111.790701,50.7036923 111.731182,50.3320962 C112.035387,50.3616923 112.374861,50.3693654 112.680168,50.3693654 C113.007518,50.3693654 113.334869,50.3540192 113.650095,50.3320962 L113.591679,50.9459423" id="Fill-199" sketch:type="MSShapeGroup"></path>
            <path d="M125.758752,53.6249423 C126.623971,53.6249423 126.892905,52.99575 126.892905,52.1440385 C126.892905,51.6825577 126.776073,50.787 125.781898,50.787 C124.869285,50.787 124.670891,51.6299423 124.670891,52.2437885 C124.670891,52.7282885 124.764577,53.6249423 125.758752,53.6249423 L125.758752,53.6249423 Z M124.624599,50.8933269 C124.939825,50.5896923 125.360861,50.2794808 126.320869,50.2794808 C128.005015,50.2794808 128.859212,51.1059808 128.859212,52.2130962 C128.859212,53.2456731 128.086577,54.1719231 126.308745,54.1719231 C125.583504,54.1719231 125.162467,54.0425769 124.670891,53.7005769 C124.670891,54.8394808 124.681912,55.4314038 124.776701,56.0222308 C124.471394,55.9915385 124.038234,55.9838654 123.723007,55.9838654 C123.407781,55.9838654 123.044058,56.0003077 122.787248,56.0222308 C122.90408,54.7857692 122.927226,53.7619615 122.927226,52.7206154 C122.927226,51.7044808 122.93935,50.901 122.83354,50.3320962 C123.160891,50.3540192 123.418803,50.3693654 123.804569,50.3693654 C124.097752,50.3693654 124.389832,50.3540192 124.681912,50.3320962 L124.624599,50.8933269 L124.624599,50.8933269 Z" id="Fill-200" sketch:type="MSShapeGroup"></path>
            <path d="M131.794343,53.0176731 C131.794343,53.2456731 131.877007,53.58 132.496438,53.58 C132.823788,53.58 133.070679,53.4572308 133.152241,53.2456731 C133.210657,53.0944038 133.210657,52.8729808 133.210657,52.1528077 C132.09965,52.3040769 131.794343,52.4871346 131.794343,53.0176731 L131.794343,53.0176731 Z M130.707584,51.2583462 C130.672314,51.0983077 130.613898,50.9163462 130.497066,50.7793269 C131.291745,50.3693654 132.110672,50.2794808 132.71908,50.2794808 C133.339613,50.2794808 133.994314,50.3693654 134.473766,50.6423077 C134.871657,50.8714038 134.966445,51.1969615 134.966445,51.5148462 C134.966445,51.8798654 134.906927,52.3873846 134.906927,53.1470192 C134.906927,53.4276346 134.906927,53.6786538 135.304818,53.6786538 C135.433774,53.6786538 135.596898,53.6468654 135.690584,53.5876731 C135.667438,53.6918077 135.667438,53.7904615 135.690584,53.8902115 C135.458022,53.9877692 134.954321,54.1565769 134.438496,54.1565769 C133.643818,54.1565769 133.410153,53.8069038 133.327489,53.6633077 C133.094927,53.8606154 132.695934,54.1861731 131.724905,54.1861731 C130.426526,54.1861731 130.063905,53.6008269 130.063905,53.1612692 C130.063905,52.3742308 130.83654,52.2130962 132.403854,51.9094615 C133.221679,51.7494231 133.233803,51.7198269 133.233803,51.5148462 C133.233803,51.0906346 132.872285,50.8626346 132.181212,50.8626346 C131.396453,50.8626346 130.95227,51.1279038 130.73073,51.2638269 L130.707584,51.2583462 L130.707584,51.2583462 Z" id="Fill-201" sketch:type="MSShapeGroup"></path>
            <path d="M138.873708,50.9229231 C139.21208,50.5513269 139.856861,50.2794808 140.674686,50.2794808 C141.247825,50.2794808 141.973066,50.4154038 142.288292,50.7190385 C142.56935,50.9843077 142.605723,51.2188846 142.605723,51.5301923 L142.605723,53.124 C142.605723,53.4353077 142.627766,53.7531923 142.664139,54.0655962 C142.358832,54.0425769 141.997314,54.0283269 141.657839,54.0283269 C141.224679,54.0283269 140.851036,54.05025 140.68681,54.0655962 C140.780496,53.5723269 140.803642,52.8653077 140.803642,52.3577885 C140.803642,51.4161923 140.756248,50.9919808 139.903153,50.9919808 C139.165788,50.9919808 138.95527,51.37125 138.95527,51.8645192 L138.95527,53.4945 C138.95527,53.6545385 138.978416,53.9055577 139.013686,54.0655962 C138.709482,54.0425769 138.405277,54.0283269 138.101073,54.0283269 C137.784745,54.0283269 137.375832,54.0338077 137.060606,54.0655962 C137.11792,53.6863269 137.142168,53.3136346 137.142168,52.9343654 L137.142168,51.5071731 C137.142168,51.0983077 137.11792,50.7332885 137.048482,50.3320962 C137.211606,50.3463462 137.563204,50.3693654 138.007387,50.3693654 C138.429526,50.3693654 138.791044,50.3463462 138.943146,50.3320962 L138.873708,50.9229231" id="Fill-202" sketch:type="MSShapeGroup"></path>
            <path d="M146.396153,54.1774038 C145.66981,52.8894231 144.898277,51.5148462 144.091474,50.3320962 C144.488263,50.3693654 144.968818,50.3693654 145.213504,50.3693654 C145.413,50.3693654 145.904577,50.3693654 146.290343,50.3320962 C146.769796,51.5016923 147.155562,52.2295385 147.390328,52.6756731 C147.834511,51.9017885 148.302942,51.0752885 148.595022,50.3320962 C148.712956,50.3463462 148.969766,50.3693654 149.273971,50.3693654 C149.413949,50.3693654 149.624467,50.3693654 149.928672,50.3320962 C149.648715,50.6576538 149.460241,50.8714038 148.981891,51.6058269 C148.032905,53.0626154 147.03873,54.5194038 146.267197,56.0222308 C146.068803,56.0003077 145.810891,55.9838654 145.611394,55.9838654 C145.471416,55.9838654 145.19146,56.0003077 144.980942,56.0222308 C145.296168,55.6506346 145.787745,55.0828269 146.396153,54.1774038" id="Fill-203" sketch:type="MSShapeGroup"></path>
            <path d="M4.92348175,50.3759423 C5.08660584,50.616 5.49331387,51.3153462 5.96174453,52.1308846 C5.89230657,52.1308846 5.80743796,52.1352692 5.80743796,52.1352692 L4.92127737,52.1462308 C4.92127737,52.1462308 4.01086861,52.1308846 3.86317518,52.1308846 C4.23681752,51.4731923 4.60164234,50.8790769 4.92348175,50.3759423 L4.92348175,50.3759423 Z M5.75343066,48.8479038 L4.39773723,48.8479038 L4.38340876,48.8731154 C3.98882482,49.6634423 1.44166423,53.637 1.23224818,53.9603654 L1.1859562,54.0316154 L2.91088321,54.0316154 L2.92521168,54.0020192 C3.07180292,53.6490577 3.26468613,53.2500577 3.49283942,52.8115962 C3.55456204,52.8115962 4.91576642,52.79625 4.91576642,52.79625 L6.09070073,52.8105 C6.09070073,52.8105 6.29570803,52.8115962 6.34861314,52.8115962 C6.65832847,53.3750192 6.88868613,53.7926538 6.98788321,54.0042115 L7.00331387,54.0316154 L8.99937956,54.0316154 L5.7809854,48.8479038 L5.75343066,48.8479038 L5.75343066,48.8479038 Z" id="Fill-204" sketch:type="MSShapeGroup"></path>
            <path d="M15.9817518,49.4310577 C17.3859416,49.4365385 17.9072774,49.6437115 17.9072774,50.1906923 C17.9072774,50.3364808 17.8422482,50.4669231 17.7188029,50.5776346 C17.4487664,50.8023462 16.9175109,50.9229231 16.2517883,50.8988077 L16.220927,50.8988077 L15.8351606,51.6299423 L16.2242336,51.6299423 C16.9979708,51.6156923 17.667,51.7834038 18.0108832,52.0870385 C18.1718029,52.2273462 18.2489562,52.3851923 18.2489562,52.5572885 C18.2489562,53.1360577 17.5479635,53.4298269 16.1669197,53.4298269 C15.9321533,53.4298269 15.5574088,53.4298269 15.3215401,53.4177692 C15.2719416,52.6603269 15.2653285,51.6255577 15.2653285,51.3219231 C15.2653285,50.9558077 15.2873723,50.1545192 15.3248467,49.4650385 C15.4736423,49.4464038 15.7414745,49.4277692 15.9817518,49.4310577 L15.9817518,49.4310577 Z M13.3894015,48.9038077 C13.4478175,49.4496923 13.485292,50.8187885 13.485292,51.3219231 C13.485292,51.7746346 13.4775766,53.3158269 13.3805839,53.9822885 L13.369562,54.0370962 L16.7279343,54.0370962 C18.3646861,54.0370962 20.1149635,53.6644038 20.1149635,52.6142885 C20.1149635,51.9544038 19.455854,51.4731923 18.2136861,51.2035385 C19.1229927,51.02925 19.7457299,50.5787308 19.7457299,50.0558654 C19.7457299,49.1997692 18.3701971,48.8731154 17.0883504,48.8544808 C17.086146,48.8544808 13.3860949,48.8522885 13.3860949,48.8522885 L13.3894015,48.9038077 L13.3894015,48.9038077 Z" id="Fill-205" sketch:type="MSShapeGroup"></path>
            <path d="M28.388,48.8522885 L26.7611679,48.8522885 L26.8284015,50.1545192 C26.8581606,50.8045385 26.8879197,51.4720962 26.9496423,52.1111538 C26.8383212,51.9138462 26.7468394,51.8086154 26.2585693,51.2945192 C26.2431387,51.2736923 24.549073,49.3970769 23.9638102,48.8654423 L23.9516861,48.8522885 L22.0504088,48.8522885 L22.0548175,48.9038077 C22.109927,49.4464038 22.1474015,50.8122115 22.1474015,51.3197308 C22.1474015,51.7746346 22.1396861,53.3158269 22.0404891,53.9822885 L22.0360803,54.036 L23.7180219,54.036 L23.7136131,53.9822885 C23.6188248,52.7129423 23.6188248,51.4414038 23.6188248,50.2082308 L23.6188248,50.2005577 C23.6739343,50.3518269 23.7554964,50.4888462 24.0211241,50.7683654 C24.0486788,50.8001538 26.9452336,53.8365 27.0885182,54.0140769 L27.1039489,54.036 L28.4618467,54.036 L28.4541314,53.9822885 C28.3549343,53.3158269 28.3450146,51.7746346 28.3450146,51.3197308 C28.3450146,50.8122115 28.3868978,49.4464038 28.4398029,48.9038077 L28.4486204,48.8522885 L28.388,48.8522885" id="Fill-206" sketch:type="MSShapeGroup"></path>
            <path d="M33.3434453,49.4770962 C34.2836131,49.4650385 34.9482336,49.60425 35.2623577,49.8837692 C35.4056423,50.0131154 35.4816934,50.1687692 35.4816934,50.3562115 C35.4816934,51.1048846 34.3122701,51.2660192 33.3291168,51.2660192 L32.9301241,51.2517692 C32.9301241,51.2517692 32.8331314,51.2440962 32.7714088,51.2386154 C32.7658978,51.0632308 32.7636934,50.8374231 32.7636934,50.5831154 C32.7636934,50.2520769 32.7692044,49.8706154 32.7868394,49.5110769 C32.9080803,49.4957308 33.1252117,49.4814808 33.3434453,49.4770962 L33.3434453,49.4770962 Z M30.8833577,48.9005192 C30.937365,49.4475 30.9770438,50.8133077 30.9770438,51.3197308 C30.9770438,51.7746346 30.9693285,53.3158269 30.8701314,53.9822885 L30.8635182,54.0316154 L32.8728102,54.0316154 L32.8661971,53.9822885 C32.7956569,53.5065577 32.7714088,52.5945577 32.7636934,51.8941154 C32.8474599,51.8974038 33.1285182,51.9072692 33.1285182,51.9072692 L33.4128832,51.9149423 C36.0603431,51.9149423 37.3465985,51.4085192 37.3465985,50.3562115 C37.3465985,49.1537308 35.5445182,48.8731154 34.0312117,48.8522885 L30.8778467,48.849 L30.8833577,48.9005192 L30.8833577,48.9005192 Z" id="Fill-207" sketch:type="MSShapeGroup"></path>
            <path d="M44.1856861,49.4770962 C45.1225474,49.4650385 45.7871679,49.60425 46.1023942,49.8837692 C46.2434745,50.0131154 46.3206277,50.1687692 46.3206277,50.3562115 C46.3206277,51.1048846 45.1478978,51.2660192 44.1636423,51.2660192 L43.7701606,51.2517692 C43.7701606,51.2517692 43.6709635,51.2440962 43.6114453,51.2386154 C43.6037299,51.0632308 43.6015255,50.8374231 43.6015255,50.5809231 C43.6015255,50.2455 43.6114453,49.8706154 43.6279781,49.5110769 C43.7503212,49.4957308 43.9674526,49.4814808 44.1856861,49.4770962 L44.1856861,49.4770962 Z M41.7200876,48.9005192 C41.7796058,49.4475 41.8192847,50.8133077 41.8192847,51.3197308 C41.8192847,51.7746346 41.8115693,53.3158269 41.7123723,53.9822885 L41.7013504,54.0316154 L43.7128467,54.0316154 L43.702927,53.9822885 C43.6378978,53.5065577 43.6114453,52.5945577 43.6015255,51.8941154 C43.685292,51.8974038 43.9674526,51.9072692 43.9674526,51.9072692 L44.2529197,51.9149423 C46.9003796,51.9149423 48.186635,51.4085192 48.186635,50.3562115 C48.186635,49.1537308 46.3823504,48.8731154 44.8723504,48.8522885 L41.7178832,48.849 L41.7200876,48.9005192 L41.7200876,48.9005192 Z" id="Fill-208" sketch:type="MSShapeGroup"></path>
            <path d="M51.9010146,50.3825192 C52.0619343,50.6247692 52.4741533,51.3219231 52.9403796,52.1363654 C52.867635,52.1363654 52.786073,52.1385577 52.786073,52.1385577 L51.9010146,52.1506154 C51.9010146,52.1506154 50.9861971,52.1363654 50.8451168,52.1352692 C51.2176569,51.4786731 51.5890949,50.8834615 51.9010146,50.3825192 L51.9010146,50.3825192 Z M51.4127445,48.8544808 L51.380781,48.8544808 L51.3653504,48.8807885 C50.991708,49.6217885 48.5878321,53.3903654 48.2108832,53.9669423 L48.1656934,54.0370962 L49.8906204,54.0370962 L49.9016423,54.0085962 C50.0526423,53.6567308 50.2433212,53.2544423 50.4714745,52.8159808 C50.5376058,52.8159808 51.8944015,52.8017308 51.8944015,52.8017308 L53.070438,52.8137885 C53.070438,52.8137885 53.2765474,52.8159808 53.326146,52.8159808 C53.6402701,53.3783077 53.8684234,53.8036154 53.9676204,54.0085962 L53.9786423,54.0370962 L55.9758102,54.0370962 L52.7640292,48.8544808 L51.4127445,48.8544808 L51.4127445,48.8544808 Z" id="Fill-209" sketch:type="MSShapeGroup"></path>
            <path d="M57.3083577,48.9038077 C57.3601606,49.4464038 57.4009416,50.8133077 57.4009416,51.3197308 C57.4009416,51.7746346 57.3954307,53.3158269 57.2940292,53.9822885 L57.2841095,54.036 L59.2945036,54.036 L59.2889927,53.9822885 C59.1897956,53.3158269 59.1820803,51.7746346 59.1820803,51.3197308 C59.1820803,50.9558077 59.2041241,50.1534231 59.2371898,49.5110769 C59.406927,49.4957308 59.6328759,49.4814808 59.7816715,49.4770962 C60.7240438,49.4650385 61.387562,49.6053462 61.7027883,49.8837692 C61.8482774,50.0131154 61.9232263,50.1709615 61.9232263,50.3562115 C61.9232263,50.9525192 61.137365,51.2583462 60.4088175,51.2835577 C60.1707445,51.2945192 59.9822701,51.2682115 59.9800657,51.2682115 L59.8444964,51.2484808 L59.9326715,51.3471346 C60.6369708,52.0914231 61.7071971,53.3958462 62.1557883,54.0140769 L62.1756277,54.0370962 L64.3271022,54.0370962 L64.2609708,53.9592692 C64.1860219,53.8759615 62.7785255,52.3906731 62.1767299,51.7592885 C62.1767299,51.7592885 62.1557883,51.7362692 62.1392555,51.7187308 C63.2359343,51.4808654 63.7727007,51.0347308 63.7727007,50.3562115 C63.7727007,49.1559231 61.9662117,48.8731154 60.4562117,48.8522885 L57.3017445,48.849 L57.3083577,48.9038077" id="Fill-210" sketch:type="MSShapeGroup"></path>
            <path d="M67.7152336,48.8479038 L65.789708,48.8479038 L65.7963212,48.9005192 C65.8492263,49.4464038 65.8933139,50.8133077 65.8933139,51.3175385 C65.8933139,51.7735385 65.8833942,53.3114423 65.7864015,53.9811923 L65.7764818,54.0316154 L67.7868759,54.0316154 L67.7769562,53.9811923 C67.6821679,53.3114423 67.671146,51.7735385 67.671146,51.3175385 C67.671146,50.8122115 67.7130292,49.4464038 67.7692409,48.9005192 L67.7714453,48.8479038 L67.7152336,48.8479038" id="Fill-211" sketch:type="MSShapeGroup"></path>
            <path d="M72.7213796,49.4310577 L72.7213796,49.4310577 C74.1266715,49.4365385 74.6447007,49.6437115 74.6447007,50.1906923 C74.6447007,50.3364808 74.5862847,50.4669231 74.4562263,50.5776346 C74.1950073,50.8023462 73.6571387,50.9229231 72.9914161,50.8988077 L72.9594526,50.8988077 L72.5725839,51.6299423 L72.9660657,51.6299423 C73.7375985,51.6156923 74.4044234,51.7834038 74.7505109,52.0870385 C74.9070219,52.2273462 74.9907883,52.3851923 74.9907883,52.5572885 C74.9907883,53.1360577 74.2875912,53.4298269 72.9076496,53.4298269 C72.6739854,53.4298269 72.2970365,53.4298269 72.0589635,53.4177692 C72.0071606,52.6603269 72.0071606,51.6255577 72.0071606,51.3219231 C72.0071606,50.9558077 72.0292044,50.1534231 72.0622701,49.4650385 C72.2154745,49.4464038 72.48,49.4277692 72.7213796,49.4310577 L72.7213796,49.4310577 Z M70.1312336,48.9038077 C70.1852409,49.4475 70.2271241,50.8187885 70.2271241,51.3219231 C70.2271241,51.7746346 70.2183066,53.3158269 70.1158029,53.9822885 L70.1080876,54.0370962 L73.4686642,54.0370962 C75.1054161,54.0370962 76.8567956,53.6644038 76.8567956,52.6142885 C76.8567956,51.9544038 76.1943796,51.4731923 74.9489051,51.2035385 C75.8626204,51.02925 76.4842555,50.5787308 76.4842555,50.0558654 C76.4842555,49.1997692 75.1120292,48.8731154 73.8279781,48.8544808 L70.1257226,48.8522885 L70.1312336,48.9038077 L70.1312336,48.9038077 Z" id="Fill-212" sketch:type="MSShapeGroup"></path>
            <path d="M81.5653504,50.3759423 C81.7240657,50.616 82.1351825,51.3153462 82.6003066,52.1308846 C82.5341752,52.1308846 82.4493066,52.1352692 82.4493066,52.1352692 L81.5620438,52.1462308 C81.5620438,52.1462308 80.6527372,52.1308846 80.5050438,52.1308846 C80.8764818,51.4731923 81.2457153,50.8790769 81.5653504,50.3759423 L81.5653504,50.3759423 Z M82.3952993,48.8479038 L81.0418102,48.8479038 L81.0241752,48.8731154 C80.6306934,49.6634423 78.0857372,53.637 77.8730146,53.9603654 L77.8234161,54.0316154 L79.5527518,54.0316154 L79.5659781,54.0020192 C79.7114672,53.6490577 79.9065547,53.2500577 80.134708,52.8115962 C80.1942263,52.8115962 81.557635,52.79625 81.557635,52.79625 L82.7281606,52.8105 C82.7281606,52.8105 82.9375766,52.8115962 82.9882774,52.8115962 C83.2979927,53.3750192 83.5283504,53.7926538 83.6275474,54.0042115 L83.6440803,54.0316154 L85.6368394,54.0316154 L82.4250584,48.8479038 L82.3952993,48.8479038 L82.3952993,48.8479038 Z" id="Fill-213" sketch:type="MSShapeGroup"></path>
            <path d="M86.6728978,50.1939808 C86.6728978,51.1048846 87.9492336,51.4731923 89.0767737,51.8009423 C89.9541168,52.05525 90.8579124,52.3227115 90.8579124,52.7545962 C90.8579124,52.8828462 90.8138248,52.9913654 90.7146277,53.0724808 C90.5096204,53.2544423 90.0808686,53.3278846 89.4008175,53.3037692 C88.7395036,53.2796538 87.9767883,53.1261923 87.1391241,52.8433846 L86.784219,52.7282885 L86.7864234,52.9288846 L86.7864234,53.8617115 L87.016781,53.8978846 L87.1578613,53.9176154 C87.5777956,53.9910577 88.3823942,54.1258846 89.1914015,54.1258846 C91.3120146,54.1258846 92.5740219,53.5240962 92.5740219,52.5178269 C92.5740219,51.5839038 91.267927,51.2112115 90.1172409,50.8834615 C89.2630438,50.6357308 88.3901095,50.3858077 88.3901095,49.9868077 C88.3901095,49.8706154 88.3901095,49.5253269 89.4779708,49.5253269 C90.2891825,49.5253269 91.0871679,49.7599038 91.5181241,49.8903462 C91.5203285,49.8903462 91.9325474,50.0087308 91.9325474,50.0087308 L91.9292409,49.8158077 L91.9292409,48.8731154 L91.5203285,48.8205 C91.1114161,48.7656923 90.4269562,48.6747115 89.7160438,48.6747115 C87.8974307,48.6747115 86.6728978,49.2841731 86.6728978,50.1939808" id="Fill-214" sketch:type="MSShapeGroup"></path>
            <path d="M1.05920438,0.730038462 L41.3806131,0.730038462 L41.3806131,40.8339231 L1.05920438,40.8339231 L1.05920438,0.730038462 Z M33.7336204,18.39675 C34.5459343,16.7875962 35.531292,10.7434038 35.1157664,9.64615385 C36.6103358,8.66509615 36.6169489,8.28144231 37.0038175,7.61826923 C35.4894088,7.752 34.6506423,7.77063462 33.8195912,8.02275 C31.7474745,6.75121154 27.4610584,5.45884615 23.9605036,5.18809615 C25.0615912,5.64190385 29.4879854,8.03042308 30.0346715,8.77909615 C27.6803942,9.09040385 23.207708,10.4320962 20.9471168,11.6214231 C23.5449781,11.0536154 27.1700803,10.7532692 29.665438,10.6250192 C28.6866934,12.0478269 28.1389051,12.7669038 26.5704891,14.4648462 C29.2675474,12.8535 30.0346715,12.7373077 32.5311314,11.2827115 C33.4701971,12.6638654 33.6983504,15.8624423 33.7336204,18.39675 L33.7336204,18.39675 Z M14.3009124,32.9635385 C12.8636569,32.4373846 11.8320073,31.8213462 10.7000584,30.7668462 C11.0395328,29.8427885 11.4264015,29.1050769 12.0634672,28.1832115 C10.8929416,28.3465385 10.047562,28.4736923 9.04236496,28.6688077 C8.22123358,27.2427115 7.85971533,25.8812885 7.43867883,23.9783654 C7.21493431,25.992 7.13337226,27.4323462 7.42324818,29.0415 C6.50622628,29.2903269 5.85042336,29.5150385 5.09652555,29.8504615 C6.15242336,30.5004808 7.00772263,31.0014231 8.19918978,31.5462115 C8.82964234,32.9010577 9.48875182,33.8251154 10.5556715,34.8609808 C10.3032701,33.9763846 10.2415474,33.2660769 10.3352336,32.3343462 C11.6644745,32.7234808 12.794219,32.9164038 14.3009124,32.9635385 L14.3009124,32.9635385 Z M14.194,14.7849231 C14.1895912,14.7849231 13.3387007,14.6994231 11.9301022,14.7410769 C10.5259124,14.8024615 8.69186861,15.1433654 7.97654745,15.4360385 C9.34767153,15.4996154 11.2302117,15.8547692 11.9488394,16.5694615 C11.946635,16.5694615 9.86239416,18.4471731 7.80791241,22.5402115 C7.80791241,22.5402115 11.545438,19.0467692 13.1733723,18.1764231 C13.1733723,18.1764231 14.0231606,20.9935385 14.6084234,22.3999038 L14.6084234,22.3966154 C14.6084234,22.3966154 15.1286569,19.1366538 15.9982847,17.2545577 C15.9982847,17.2545577 16.238562,17.1120577 17.4388467,16.9958654 C18.642438,16.8906346 20.3309927,16.8193846 23.5714307,17.3860962 C23.5692263,17.3860962 20.605438,15.5094808 16.9230219,15.0074423 C17.0585912,14.5043077 17.5744161,13.4322692 18.0263139,12.8600769 C17.3583869,12.9609231 15.4527007,13.7929038 14.194,14.7849231 L14.194,14.7849231 Z M21.9313723,30.4292308 C21.2755693,31.3017692 20.7222701,31.9945385 19.9981314,32.8002115 C18.7570657,33.1356346 17.7728102,33.2638846 16.5615036,33.2682692 C17.3021752,33.6464423 18.0252117,33.8821154 18.793438,34.0377692 C18.0252117,34.7349231 17.3638978,35.2325769 16.6155109,35.7083077 C17.8720073,35.4101538 19.5396204,34.8730385 20.7696642,34.1539615 C21.4067299,34.1736923 22.0129343,34.1342308 22.4538102,34.0564038 C22.348,33.6749423 22.2730511,33.3998077 22.173854,32.9131154 C23.3388686,32.0164615 24.1864526,31.2085962 25.1431533,30.2374038 C24.1203212,30.9499038 23.2275474,31.4848269 22.0504088,32.0416731 C21.9952993,31.4968846 21.958927,31.0408846 21.9313723,30.4292308 L21.9313723,30.4292308 Z" id="Fill-215" sketch:type="MSShapeGroup"></path>
            <path d="M76.8887591,17.6995962 C77.1687153,18.1698462 77.8873431,19.5170192 78.7007591,21.0976731 C78.5795182,21.0976731 78.4307226,21.1009615 78.4307226,21.1009615 L76.8887591,21.1217885 C76.8887591,21.1217885 75.2949927,21.0976731 75.0425912,21.0921923 C75.6939854,19.8184615 76.3354599,18.6718846 76.8887591,17.6995962 L76.8887591,17.6995962 Z M76.0356642,14.74875 L75.9783504,14.74875 L75.9541022,14.8002692 C75.3005036,16.2252692 71.1044672,23.5179808 70.4486642,24.6360577 L70.3671022,24.7741731 L73.3771825,24.7741731 L73.3992263,24.7149808 C73.6582409,24.0309808 73.9966131,23.2549038 74.3934015,22.4141538 C74.5036204,22.4119615 76.876635,22.3845577 76.876635,22.3845577 L78.9256058,22.4064808 C78.9256058,22.4064808 79.2871241,22.4119615 79.3741971,22.4119615 C79.919781,23.4949615 80.3187737,24.3137885 80.4951241,24.7171731 L80.5171679,24.7741731 L84.0011898,24.7741731 L78.3888394,14.74875 L76.0356642,14.74875 L76.0356642,14.74875 Z" id="Fill-216" sketch:type="MSShapeGroup"></path>
            <path d="M91.0871679,14.8397308 C91.180854,15.8942308 91.2558029,18.53925 91.2558029,19.5126346 C91.2558029,20.3972308 91.2425766,23.3754808 91.0640219,24.6634615 L91.0496934,24.7675962 L94.5590657,24.7675962 L94.5469416,24.6656538 C94.3705912,23.3721923 94.3584672,20.3972308 94.3584672,19.5126346 C94.3584672,18.8154808 94.3970438,17.2545577 94.4576642,16.0104231 C94.7497445,15.9830192 95.1410219,15.9556154 95.4066496,15.9512308 C97.046708,15.9260192 98.2051095,16.1989615 98.7562044,16.7415577 C99.0075036,16.9881923 99.1386642,17.2940192 99.1386642,17.6480769 C99.1386642,18.8067115 97.7686423,19.3898654 96.5000219,19.4457692 C96.0800876,19.4611154 95.7538394,19.4150769 95.7527372,19.4150769 L95.5124599,19.3821923 L95.6667664,19.5641538 C96.895708,21.0110769 98.7639197,23.5300385 99.5519854,24.7303269 L99.5795401,24.7741731 L103.336905,24.7741731 L103.22338,24.6229038 C103.092219,24.4617692 100.633234,21.58875 99.5850511,20.3610577 C99.5850511,20.3610577 99.5519854,20.3215962 99.5222263,20.2865192 C101.431219,19.8261346 102.370285,18.9634615 102.370285,17.6480769 C102.370285,15.3297115 99.2180219,14.7882115 96.5804818,14.7454615 L91.0772482,14.7410769 L91.0871679,14.8397308" id="Fill-217" sketch:type="MSShapeGroup"></path>
            <path d="M133.04092,14.7377885 L129.680343,14.7377885 L129.690263,14.8353462 C129.787255,15.8942308 129.858898,18.53925 129.858898,19.5104423 C129.858898,20.3928462 129.842365,23.37 129.670423,24.6590769 L129.658299,24.7632115 L133.163263,24.7632115 L133.147832,24.6590769 C132.976993,23.37 132.962664,20.3928462 132.962664,19.5104423 C132.962664,18.5370577 133.034307,15.8920385 133.130197,14.8353462 L133.140117,14.7377885 L133.04092,14.7377885" id="Fill-218" sketch:type="MSShapeGroup"></path>
            <path d="M145.581635,16.0838654 C146.435832,16.0838654 148.865058,16.1408654 149.868051,16.1825192 L149.868051,14.7355962 L143.045496,14.7355962 L143.045496,14.7377885 L140.232708,14.7377885 L140.244832,14.8353462 C140.33962,15.8942308 140.411263,18.53925 140.411263,19.5104423 C140.411263,20.3928462 140.396934,23.37 140.224993,24.6590769 L140.212869,24.7632115 L143.717832,24.7632115 L143.702401,24.6590769 C143.571241,23.6703462 143.531562,21.6939808 143.519438,20.4268269 L147.911664,20.5649423 L147.911664,19.0051154 L143.519438,19.0599231 C143.529358,18.2904231 143.531562,17.1076731 143.57565,16.1255192 C144.289869,16.0860577 144.988657,16.0838654 145.581635,16.0838654" id="Fill-219" sketch:type="MSShapeGroup"></path>
            <path d="M114.691664,23.5256538 C114.248584,23.5256538 113.976343,23.5004423 113.777949,23.4850962 C113.696387,22.0557115 113.688672,20.1823846 113.688672,19.5104423 C113.688672,18.3572885 113.790073,15.9983654 113.790073,15.9983654 C113.973036,15.9830192 114.240869,15.9709615 114.617818,15.9709615 C117.698438,15.9709615 119.302124,16.7569038 119.302124,19.6924038 C119.302124,22.7682115 117.724891,23.5256538 114.691664,23.5256538 L114.691664,23.5256538 Z M115.091759,24.7632115 C120.630263,24.7632115 122.609796,22.6005 122.609796,19.7340577 C122.609796,16.9542115 120.57846,14.7925962 115.269212,14.7377885 L110.405248,14.7377885 L110.415168,14.8353462 C110.513263,15.8964231 110.583803,18.5414423 110.583803,19.5104423 C110.583803,20.3950385 110.570577,23.37 110.397533,24.6612692 L110.385409,24.7632115 L115.091759,24.7632115 L115.091759,24.7632115 Z" id="Fill-220" sketch:type="MSShapeGroup"></path>
            <path d="M59.4576277,23.5355192 C56.927,23.5355192 55.0257226,22.2749423 55.0257226,19.8162692 C55.0257226,18.0613269 56.154365,15.9610962 59.4377883,15.9610962 C60.5532044,15.9610962 61.4184234,16.2471923 62.1061898,16.5694615 L62.8744161,14.9603077 L62.8744161,14.8934423 C61.7744307,14.6720192 60.6347664,14.5371923 59.4862847,14.5371923 C54.493365,14.5371923 51.4623431,16.7569038 51.4623431,19.7965385 C51.4623431,22.6651731 54.319219,24.9638077 58.8999197,24.9638077 C60.8893723,24.9638077 62.2252263,24.6568846 63.3185985,24.32475 L63.2888394,22.1916346 C62.2329416,22.9457885 61.0238394,23.5355192 59.4576277,23.5355192" id="Fill-221" sketch:type="MSShapeGroup"></path>
            <path d="M98.0728467,31.3543846 L95.5157664,31.3543846 L95.6248832,33.744 C95.6711752,34.9366154 95.716365,36.1500577 95.8122555,37.3262308 C95.6348029,36.9655962 95.4948248,36.7704808 94.7299051,35.8245 C94.7045547,35.7916154 92.046073,32.3562692 91.1235401,31.3850769 L91.0970876,31.3543846 L88.1156642,31.3543846 L88.1233796,31.44975 C88.2093504,32.4461538 88.271073,34.9497692 88.271073,35.8716346 C88.271073,36.7101923 88.2611533,39.5316923 88.1068467,40.7495192 L88.0936204,40.8481731 L90.7399781,40.8481731 L90.7344672,40.7560962 C90.5790584,38.4300577 90.5790584,36.09525 90.5790584,33.8360769 L90.5790584,33.8305962 C90.6683358,34.1024423 90.7961898,34.3501731 91.2128175,34.8675577 C91.2558029,34.9256538 95.803438,40.4853462 96.036,40.8130962 L96.0602482,40.8481731 L98.1885766,40.8481731 L98.1764526,40.7495192 C98.0188394,39.5305962 98.0089197,36.7101923 98.0089197,35.8716346 C98.0089197,34.9497692 98.0706423,32.4450577 98.1566131,31.44975 L98.1643285,31.3543846 L98.0728467,31.3543846" id="Fill-222" sketch:type="MSShapeGroup"></path>
            <path d="M83.8678248,31.3543846 L81.3107445,31.3543846 L81.4209635,33.744 C81.4661533,34.9366154 81.5102409,36.1500577 81.6072336,37.3262308 C81.4319854,36.9655962 81.2898029,36.7704808 80.5248832,35.8245 C80.4995328,35.7916154 77.8432555,32.3562692 76.9185182,31.3850769 L76.8920657,31.3543846 L73.9106423,31.3543846 L73.9161533,31.44975 C74.0043285,32.4461538 74.0682555,34.9497692 74.0682555,35.8716346 C74.0682555,36.7101923 74.0561314,39.5316923 73.9007226,40.7495192 L73.8885985,40.8481731 L76.533854,40.8481731 L76.5316496,40.7560962 C76.3751387,38.4300577 76.3751387,36.09525 76.3751387,33.8360769 L76.3751387,33.8305962 C76.4644161,34.1024423 76.5911679,34.3501731 77.0077956,34.8675577 C77.0518832,34.9256538 81.5995182,40.4853462 81.8320803,40.8130962 L81.8552263,40.8481731 L83.9835547,40.8481731 L83.9714307,40.7495192 C83.8149197,39.5305962 83.8038978,36.7101923 83.8038978,35.8716346 C83.8038978,34.9497692 83.8678248,32.4450577 83.9515912,31.44975 L83.9615109,31.3543846 L83.8678248,31.3543846" id="Fill-223" sketch:type="MSShapeGroup"></path>
            <path d="M56.2227007,32.4954808 C57.6974307,32.4746538 58.7412044,32.7311538 59.2371898,33.2441538 C59.4620365,33.4831154 59.5766642,33.7692115 59.5766642,34.1090192 C59.5766642,35.4825 57.7415182,35.7707885 56.1940438,35.7707885 L55.5713066,35.75325 C55.5713066,35.75325 55.417,35.7346154 55.3233139,35.7258462 C55.3111898,35.4101538 55.3056788,34.9914231 55.3056788,34.5189808 C55.3056788,33.9139038 55.3167007,33.2244231 55.3453577,32.56125 C55.5371387,32.5316538 55.8832263,32.5053462 56.2227007,32.4954808 L56.2227007,32.4954808 Z M52.3540146,31.4475577 C52.443292,32.4505385 52.5050146,34.9519615 52.5050146,35.8716346 C52.5050146,36.7101923 52.4928905,39.5305962 52.3374818,40.7484231 L52.3253577,40.8448846 L55.4820292,40.8448846 L55.4677007,40.7484231 C55.3607883,39.8791731 55.3211095,38.2108269 55.3078832,36.9261346 C55.4379416,36.9327115 55.8843285,36.9513462 55.8843285,36.9513462 L56.3318175,36.9677885 C60.4881752,36.9677885 62.5128978,36.0360577 62.5128978,34.1090192 C62.5128978,31.9101346 59.6780657,31.4004231 57.3017445,31.3543846 L52.3474015,31.3521923 L52.3540146,31.4475577 L52.3540146,31.4475577 Z" id="Fill-224" sketch:type="MSShapeGroup"></path>
            <path d="M106.586161,34.1561538 C106.836358,34.6022885 107.483343,35.8749231 108.216299,37.3744615 C108.107182,37.3744615 107.973818,37.3755577 107.973818,37.3755577 L106.586161,37.3952885 C106.586161,37.3952885 105.150007,37.3744615 104.925161,37.3689808 C105.510423,36.1621154 106.086869,35.0769231 106.586161,34.1561538 L106.586161,34.1561538 Z M105.817934,31.3631538 L105.765029,31.3631538 L105.742985,31.4124808 C105.155518,32.76075 101.378314,39.6643269 100.788642,40.7221154 L100.717,40.8525577 L103.423978,40.8525577 L103.442715,40.79775 C103.678584,40.1499231 103.980584,39.4155 104.339898,38.6196923 C104.439095,38.6185962 106.572934,38.5922885 106.572934,38.5922885 L108.416898,38.6120192 C108.416898,38.6120192 108.742044,38.6185962 108.821401,38.6185962 C109.311876,39.6424038 109.67119,40.4184808 109.829905,40.7988462 L109.849745,40.8525577 L112.985474,40.8525577 L107.934139,31.3631538 L105.817934,31.3631538 L105.817934,31.3631538 Z" id="Fill-225" sketch:type="MSShapeGroup"></path>
            <path d="M69.2362555,31.3510962 L66.2107445,31.3510962 L66.2206642,31.4464615 C66.306635,32.4461538 66.3716642,34.9519615 66.3716642,35.8694423 C66.3716642,36.7069038 66.3573358,39.5240192 66.2030292,40.7440385 L66.1909051,40.8426923 L69.3475766,40.8426923 L69.3310438,40.7440385 C69.1789416,39.5240192 69.1646131,36.7069038 69.1646131,35.8694423 C69.1646131,34.9497692 69.2296423,32.4450577 69.3156131,31.4464615 L69.3255328,31.3510962 L69.2362555,31.3510962" id="Fill-226" sketch:type="MSShapeGroup"></path>
            <path d="M137.331745,39.4823654 C135.734672,39.5930769 134.100124,39.6226731 131.476912,39.6171923 C131.407474,38.2667308 131.398657,36.5030192 131.398657,35.8694423 C131.398657,34.9497692 131.464788,32.4450577 131.548555,31.4464615 L131.557372,31.3510962 L128.443686,31.3510962 L128.453606,31.4464615 C128.540679,32.4461538 128.604606,34.9519615 128.604606,35.8694423 C128.604606,36.7069038 128.590277,39.5240192 128.434869,40.7440385 L128.426051,40.8405 L128.426051,40.8426923 L131.579416,40.8426923 L131.579416,40.8405 L137.331745,40.8405 L137.331745,39.4823654" id="Fill-227" sketch:type="MSShapeGroup"></path>
            <path d="M149.868051,40.8426923 L149.868051,39.4746923 C147.756255,39.5799231 145.621314,39.5908846 143.487474,39.6171923 C143.435672,38.6416154 143.418036,37.4511923 143.412526,36.6279808 L147.590927,36.7090962 L147.590927,35.2720385 L143.41473,35.3509615 C143.423547,34.6022885 143.434569,33.5379231 143.474248,32.6325 C144.08927,32.61825 144.40119,32.6083846 144.839861,32.6083846 C146.418197,32.6083846 147.995431,32.5809808 149.573766,32.7267692 L149.573766,31.3489038 L143.132569,31.3489038 L143.132569,31.3521923 L140.453146,31.3521923 L140.46527,31.4464615 C140.552343,32.4483462 140.612964,34.9541538 140.612964,35.8694423 C140.612964,36.7090962 140.601942,39.5262115 140.446533,40.7484231 L140.434409,40.8426923 L149.868051,40.8426923" id="Fill-228" sketch:type="MSShapeGroup"></path>
            <path d="M121.557204,39.6818654 C119.277876,39.6818654 117.567277,38.4881538 117.567277,36.1599231 C117.567277,34.4981538 118.585701,32.5097308 121.539569,32.5097308 C122.543664,32.5097308 123.324015,32.7826731 123.941241,33.0863077 L124.632314,31.5626538 L124.632314,31.4990769 C123.64365,31.2897115 122.619715,31.1636538 121.583657,31.1636538 C117.088927,31.1636538 114.362109,33.2638846 114.362109,36.1423846 C114.362109,38.8564615 116.932416,41.0323269 121.055708,41.0323269 C122.847869,41.0323269 124.048153,40.7418462 125.033511,40.4294423 L125.005956,38.4081346 C124.054766,39.1217308 122.969109,39.6818654 121.557204,39.6818654" id="Fill-229" sketch:type="MSShapeGroup"></path>
        </g>
    </g>
</svg>