<?xml version="1.0" encoding="UTF-8" standalone="no"?>
<svg width="250px" height="150px" viewBox="0 0 250 150" version="1.1" xmlns="http://www.w3.org/2000/svg" xmlns:xlink="http://www.w3.org/1999/xlink" xmlns:sketch="http://www.bohemiancoding.com/sketch/ns">
    <!-- Generator: Sketch 3.2.2 (9983) - http://www.bohemiancoding.com/sketch -->
    <title>city</title>
    <desc>Created with Sketch.</desc>
    <defs></defs>
    <g id="Page-1" stroke="none" stroke-width="1" fill="none" fill-rule="evenodd" sketch:type="MSPage">
        <g id="Group-5" sketch:type="MSLayerGroup" transform="translate(74.000000, 5.000000)" fill="#888C85">
            <path d="M33.4441042,141.514558 L71.2872083,141.514558 L72.3902708,139.084047 L33.4441042,139.084047 L33.4441042,141.514558" id="Fill-18" sketch:type="MSShapeGroup"></path>
            <path d="M40.3208542,95.8411938 C39.7599375,95.6287442 39.2023333,95.4790388 38.6690208,95.3887752 C38.1323958,95.2952093 37.5394583,95.2544806 36.9178125,95.2544806 C34.8971875,95.2544806 33.1879375,95.9402636 31.8408542,97.2964186 C30.4937708,98.655876 29.8125,100.378589 29.8125,102.431535 C29.8125,104.309457 30.4573333,105.897876 31.7304375,107.148357 C33.0046458,108.391132 34.6233542,109.022977 36.5313542,109.022977 C37.312,109.022977 38.0065208,108.950326 38.5784792,108.80062 C39.1504375,108.660822 39.8239792,108.391132 40.5715,108.006961 L40.6885417,107.947519 L40.6885417,105.208791 C40.6885417,105.208791 40.7691458,105.115225 40.3959375,105.486186 C40.0249375,105.857147 39.1151042,106.389922 38.5199583,106.612279 C37.9237083,106.836837 37.2302917,106.959023 36.4496458,106.959023 C35.3256042,106.959023 34.3749167,106.501101 33.621875,105.601767 C32.8622083,104.688124 32.47575,103.523504 32.47575,102.129922 C32.47575,100.753953 32.8842917,99.5893333 33.6925417,98.6789922 C34.4875417,97.7763566 35.503375,97.3173333 36.7036042,97.3173333 C37.3153125,97.3173333 37.9159792,97.4175039 38.5011875,97.6068372 C39.0775625,97.7917674 39.610875,98.0691628 40.0790417,98.4192093 L40.4864792,98.7032093 L40.4842708,98.2474884 L40.4842708,95.9094419 L40.3208542,95.8411938" id="Fill-19" sketch:type="MSShapeGroup"></path>
            <path d="M47.8291875,95.5043566 L47.7364375,95.8235814 C47.5774375,96.4025891 47.4615,96.9606822 47.3985625,97.4879535 C47.3323125,98.0350388 47.3025,98.7032093 47.3025,99.488062 L47.3025,104.911581 C47.3025,105.696434 47.3323125,106.364605 47.3985625,106.912791 C47.4615,107.43786 47.5774375,107.998155 47.7364375,108.577163 L47.8291875,108.896388 L44.3179375,108.896388 L44.4106875,108.577163 C44.5707917,107.998155 44.6867292,107.43786 44.7507708,106.912791 C44.8148125,106.364605 44.8468333,105.696434 44.8468333,104.911581 L44.8468333,99.488062 C44.8468333,98.7032093 44.8148125,98.0350388 44.7507708,97.4879535 C44.6867292,96.9606822 44.5707917,96.4025891 44.4106875,95.8235814 L44.3179375,95.5043566 L47.8291875,95.5043566" id="Fill-20" sketch:type="MSShapeGroup"></path>
            <path d="M57.5458542,102.200372 L57.5458542,104.911581 C57.5458542,105.696434 57.5767708,106.364605 57.6419167,106.910589 C57.7059583,107.440062 57.8207917,107.998155 57.9808958,108.577163 L58.07475,108.896388 L54.5535625,108.896388 L54.6474167,108.577163 C54.8064167,107.998155 54.92125,107.440062 54.9863958,106.910589 C55.0515417,106.364605 55.0813542,105.696434 55.0813542,104.911581 L55.0813542,99.4891628 C55.0813542,99.4891628 55.0769375,97.6255504 55.0769375,97.4153023 L54.8671458,97.4153023 C54.1693125,97.4153023 53.4913542,97.475845 53.0585208,97.5694109 C52.6002917,97.6695814 52.1266042,97.8468062 51.6584375,98.0922791 L51.2653542,98.2761085 L51.2653542,95.5043566 L62.34125,95.5043566 L62.2606458,95.6727752 C61.672125,96.9210543 61.672125,96.9210543 61.67875,96.9166512 C61.67875,96.9166512 61.1708333,97.9877054 61.1642083,98.0020155 L61.0394375,98.200155 L60.8340625,98.0922791 C60.3548542,97.8424031 59.8811667,97.6673798 59.4229375,97.5694109 C58.9713333,97.4681395 58.4115208,97.4153023 57.7589583,97.4153023 L57.5458542,97.4153023 L57.5458542,102.200372" id="Fill-21" sketch:type="MSShapeGroup"></path>
            <path d="M70.23825,100.572326 C70.3541875,100.357674 70.4579792,100.16614 70.4579792,100.16614 C71.7531667,97.7532403 72.0557083,97.1841395 72.0954583,97.1169922 C72.2180208,96.8836279 72.3185,96.6392558 72.3792292,96.3816744 C72.4289167,96.1934419 72.4532083,96.0338295 72.4532083,95.928155 L72.4211875,95.5043566 L76.5110208,95.5043566 L76.002,95.9457674 C75.7690208,96.1406047 75.4863542,96.5148682 75.1286042,97.0355349 C74.7664375,97.5628062 74.306,98.3696744 73.7461875,99.4264186 C73.7461875,99.4264186 71.48375,103.682016 71.4605625,103.727147 L71.4605625,104.911581 C71.4605625,105.71955 71.4936875,106.395426 71.5588333,106.942512 C71.6250833,107.471984 71.7388125,108.030078 71.8978125,108.577163 L71.9971875,108.897488 L68.4649583,108.897488 L68.562125,108.577163 C68.7233333,108.030078 68.8370625,107.471984 68.9022083,106.942512 C68.9684583,106.395426 69.0015833,105.71955 69.0015833,104.911581 L69.0015833,103.727147 C68.9783958,103.682016 66.7159583,99.4264186 66.7159583,99.4264186 C66.1550417,98.3696744 65.6968125,97.5628062 65.3335417,97.0355349 C64.9746875,96.5148682 64.693125,96.1406047 64.4601458,95.9457674 L63.9500208,95.5043566 L68.0398542,95.5043566 L68.0067292,95.928155 C68.0067292,96.0338295 68.0332292,96.1934419 68.0829167,96.3816744 C68.1436458,96.6392558 68.2430208,96.8836279 68.3666875,97.1169922 C68.4053333,97.1841395 68.7089792,97.7532403 70.0052708,100.16614 C70.0052708,100.16724 70.1079583,100.357674 70.225,100.572326 L70.23825,100.572326" id="Fill-22" sketch:type="MSShapeGroup"></path>
            <path d="M51.4022708,115.693674 C51.1074583,116.020605 50.7331458,116.183519 50.2914792,116.183519 C49.8023333,116.183519 49.3882708,115.986481 49.0636458,115.60231 C48.7335,115.210434 48.5667708,114.710682 48.5667708,114.114062 C48.5667708,113.615411 48.7169375,113.197116 49.0150625,112.869085 C49.3087708,112.545457 49.6830833,112.383643 50.12475,112.383643 C50.6138958,112.383643 51.0290625,112.578481 51.3536875,112.96045 C51.6838333,113.352326 51.8494583,113.853178 51.8494583,114.450899 C51.8494583,114.947349 51.6992917,115.367845 51.4022708,115.693674 M52.2193542,112.295581 C51.708125,111.755101 51.058875,111.483209 50.2914792,111.483209 C49.4788125,111.483209 48.7909167,111.747395 48.2509792,112.268062 C47.7077292,112.794233 47.4327917,113.456899 47.4327917,114.241752 C47.4327917,115.053023 47.6911667,115.734403 48.1979792,116.26938 C48.7081042,116.80876 49.35625,117.081752 50.12475,117.081752 C50.9385208,117.081752 51.6264167,116.816465 52.1663542,116.294698 C52.7073958,115.771829 52.9834375,115.108062 52.9834375,114.321008 C52.9834375,113.51414 52.7272708,112.83386 52.2193542,112.295581" id="Fill-23" sketch:type="MSShapeGroup"></path>
            <path d="M56.2186458,117.010202 L56.1777917,116.878109 C56.1126458,116.649147 56.0662708,116.420186 56.0375625,116.205535 C56.014375,115.982078 56.0022292,115.703581 56.0022292,115.385457 L56.0022292,114.620419 C56.2252708,114.628124 56.4162917,114.643535 56.5609375,114.67986 C56.6835,114.709581 56.80275,114.751411 56.9142708,114.80755 L57.1516667,114.938543 L57.2013542,114.844977 L57.7688958,113.842171 L56.0022292,113.842171 L56.0022292,112.339612 L56.0883542,112.339612 C56.358875,112.339612 57.0920417,112.361628 57.2753333,112.402357 C57.4630417,112.440884 57.657375,112.516837 57.8450833,112.612605 L57.9334167,112.657736 L57.9875208,112.578481 L58.1962083,112.135969 L58.4612083,111.564667 L54.7843333,111.564667 L54.8185625,111.69676 C54.8903333,111.929023 54.9356042,112.154682 54.9598958,112.372636 C54.9841875,112.59169 55.00075,112.865783 55.00075,113.183907 L55.00075,115.38986 C55.00075,115.709085 54.9886042,115.984279 54.9654167,116.208837 C54.9367083,116.423488 54.8903333,116.65355 54.8251875,116.882512 L54.7843333,117.013504 L56.2186458,117.010202" id="Fill-24" sketch:type="MSShapeGroup"></path>
            <path d="M48.713625,131.709953 C48.6319167,131.124341 48.5932708,130.515612 48.5932708,129.903581 L48.5932708,123.815194 C48.5932708,123.005023 48.6286042,122.326946 48.69375,121.790868 C48.753375,121.281209 48.8637917,120.729721 49.0327292,120.155116 L49.1575,119.719209 L45.6120208,119.719209 L45.7334792,120.155116 C45.9002083,120.722016 46.0150417,121.276806 46.0790833,121.809581 C46.143125,122.352264 46.17625,123.025938 46.17625,123.815194 L46.17625,129.30476 C45.7831667,128.758775 41.8412917,123.24169 41.8412917,123.24169 C41.3819583,122.654977 40.9844583,122.106791 40.6454792,121.593829 C40.3142292,121.094078 39.9708333,120.522775 39.6285417,119.896434 L39.5291667,119.719209 L36.6737917,119.719209 L36.8305833,120.052744 C36.8361042,120.065953 37.4091667,121.317535 37.4698958,121.809581 C37.5328333,122.36107 37.5604375,123.032543 37.5604375,123.815194 L37.5604375,129.256326 C37.5604375,130.056589 37.5328333,130.742372 37.4687917,131.289457 C37.40475,131.810124 37.2910208,132.356109 37.1298125,132.918605 L37.0889583,133.045194 L36.9984167,133.349008 L40.5483125,133.349008 L40.4235417,132.918605 C40.2590208,132.360512 40.1441875,131.80462 40.0845625,131.270744 C40.0271458,130.815023 39.9984375,130.274543 39.9918125,129.648202 C39.9918125,129.648202 40.02825,126.319457 40.0426042,125.232992 C40.4224375,125.728341 44.2704583,130.75338 44.2704583,130.75338 C44.6403542,131.223411 44.9804375,131.706651 45.2785625,132.192093 C45.6473542,132.803023 45.6970417,133.01107 45.7047708,133.060605 L45.732375,133.246636 L45.7445208,133.349008 L49.2392083,133.349008 L48.9874583,132.861364 C48.9278333,132.743581 48.813,132.440868 48.713625,131.709953" id="Fill-25" sketch:type="MSShapeGroup"></path>
            <path d="M30.4507083,130.136946 C29.7098125,130.950419 28.7756875,131.361008 27.6682083,131.361008 C26.4425833,131.361008 25.4079792,130.868961 24.5964167,129.904682 C23.7693958,128.926093 23.3509167,127.675612 23.3509167,126.18186 C23.3509167,124.933581 23.7274375,123.885643 24.4738542,123.066667 C25.2070208,122.254295 26.1455625,121.844806 27.2508333,121.844806 C28.4764583,121.844806 29.5132708,122.33355 30.3281458,123.292326 C31.1529583,124.272016 31.5703333,125.528 31.5703333,127.020651 C31.5703333,128.265628 31.1938125,129.317969 30.4507083,130.136946 M32.4945208,121.629054 C31.2192083,120.277302 29.5916667,119.591519 27.6682083,119.591519 C25.6310208,119.591519 23.9140417,120.257488 22.5603333,121.559705 C21.2,122.876233 20.5121042,124.537302 20.5121042,126.502186 C20.5121042,128.527612 21.1558333,130.232713 22.4289375,131.57786 C23.70425,132.925209 25.327375,133.60769 27.2508333,133.60769 C29.2869167,133.60769 31.0105208,132.945023 32.3620208,131.638403 C33.7168333,130.330682 34.4069375,128.667411 34.4069375,126.699225 C34.4069375,124.679302 33.767625,122.973101 32.4945208,121.629054" id="Fill-26" sketch:type="MSShapeGroup"></path>
            <path d="M96.4588958,131.709953 C96.3771875,131.124341 96.3374375,130.515612 96.3374375,129.903581 L96.3374375,123.815194 C96.3374375,123.005023 96.373875,122.326946 96.4379167,121.790868 C96.4986458,121.281209 96.6090625,120.729721 96.778,120.155116 L96.9016667,119.719209 L93.3572917,119.719209 L93.47875,120.155116 C93.644375,120.722016 93.7581042,121.276806 93.8254583,121.809581 C93.8883958,122.352264 93.9215208,123.025938 93.9215208,123.815194 L93.9215208,129.30476 C93.5284375,128.758775 89.5865625,123.24169 89.5865625,123.24169 C89.126125,122.654977 88.728625,122.106791 88.3896458,121.593829 C88.0583958,121.094078 87.7161042,120.522775 87.3727083,119.896434 L87.2744375,119.719209 L84.4190625,119.719209 L84.5758542,120.052744 C84.581375,120.065953 85.1533333,121.317535 85.2140625,121.809581 C85.277,122.36107 85.3057083,123.032543 85.3057083,123.815194 L85.3057083,129.256326 C85.3057083,130.056589 85.277,130.742372 85.2129583,131.289457 C85.1489167,131.810124 85.0351875,132.356109 84.8739792,132.918605 L84.8342292,133.045194 L84.7436875,133.349008 L88.2935833,133.349008 L88.1688125,132.918605 C88.0042917,132.360512 87.8883542,131.80462 87.827625,131.270744 C87.7713125,130.815023 87.7437083,130.274543 87.7359792,129.648202 C87.7359792,129.648202 87.7724167,126.319457 87.787875,125.232992 C88.1666042,125.728341 92.0135208,130.75338 92.0135208,130.75338 C92.385625,131.223411 92.7257083,131.706651 93.0227292,132.192093 C93.392625,132.803023 93.4423125,133.01107 93.4489375,133.060605 L93.4765417,133.246636 L93.4897917,133.349008 L96.9844792,133.349008 L96.731625,132.861364 C96.672,132.743581 96.5571667,132.440868 96.4588958,131.709953" id="Fill-27" sketch:type="MSShapeGroup"></path>
            <path d="M77.8603125,130.136946 C77.1227292,130.950419 76.1830833,131.363209 75.0711875,131.363209 C73.8510833,131.363209 72.8164792,130.868961 72.0060208,129.904682 C71.1778958,128.927194 70.7605208,127.675612 70.7605208,126.18186 C70.7605208,124.933581 71.1381458,123.887845 71.8790417,123.066667 C72.6210417,122.254295 73.5584792,121.844806 74.6582292,121.844806 C75.8882708,121.844806 76.9239792,122.33355 77.7333333,123.292326 C78.5636667,124.272016 78.9788333,125.528 78.9788333,127.020651 C78.9788333,128.265628 78.6023125,129.313566 77.8603125,130.136946 M75.0711875,119.591519 C73.0461458,119.591519 71.3269583,120.257488 69.966625,121.559705 C68.6107083,122.874031 67.9206042,124.537302 67.9206042,126.502186 C67.9206042,128.533116 68.5654375,130.239318 69.84075,131.578961 C71.1149583,132.925209 72.7380833,133.60769 74.6560208,133.60769 C76.6954167,133.60769 78.4168125,132.945023 79.7760417,131.638403 C81.1308542,130.330682 81.8198542,128.664109 81.8198542,126.699225 C81.8198542,124.677101 81.1750208,122.973101 79.8986042,121.629054 C78.6255,120.277302 77.0001667,119.591519 75.0711875,119.591519" id="Fill-28" sketch:type="MSShapeGroup"></path>
            <path d="M56.0795208,121.787566 C56.6227708,121.749039 57.823,121.763349 58.1432083,121.802977 C59.4141042,121.955984 60.638625,122.705612 61.3364583,123.765659 C62.0442292,124.841116 62.308125,126.134527 62.1325625,127.623876 C61.9525833,129.083504 61.5009792,129.978434 60.6684375,130.503504 C59.3379167,131.342295 57.8638542,131.326884 56.3036667,131.30707 L56.0949792,131.30707 C56.0795208,130.932806 56.0596458,129.903581 56.0596458,127.201178 L56.0795208,121.787566 M53.3257292,131.285054 C53.2627917,131.810124 53.1479583,132.360512 52.9889583,132.916403 L52.860875,133.349008 L56.0817292,133.349008 C57.8903542,133.353411 60.6220625,133.376527 62.3500833,132.293364 C63.845125,131.354403 64.7361875,129.791302 64.9956667,127.641488 C65.0365208,127.270527 65.0630208,126.927085 65.0630208,126.586946 C65.0630208,125.010636 64.6014792,123.592837 63.6949583,122.365473 C62.586375,120.867318 61.0471667,119.991101 59.1314375,119.764341 L58.4777708,119.712605 L56.3566667,119.709302 L52.8553542,119.709302 L52.9889583,120.141907 C53.1601042,120.746233 53.271625,121.284512 53.3257292,121.77876 C53.390875,122.299426 53.4262083,122.976403 53.4262083,123.790977 L53.4262083,129.24862 C53.4262083,130.066496 53.390875,130.750078 53.3257292,131.285054" id="Fill-29" sketch:type="MSShapeGroup"></path>
            <path d="M17.7384375,133.351209 L9.21427083,133.351209 L9.30702083,133.030884 C9.467125,132.452977 9.58195833,131.892682 9.64710417,131.367612 C9.71114583,130.820527 9.74095833,130.150155 9.74095833,129.365302 L9.74095833,123.815194 C9.74095833,123.017132 9.70672917,122.342357 9.64489583,121.808481 C9.58085417,121.284512 9.467125,120.729721 9.3048125,120.155116 L9.17783333,119.719209 L12.951875,119.719209 L12.8237917,120.155116 C12.6614792,120.729721 12.5488542,121.284512 12.4848125,121.808481 C12.421875,122.342357 12.3876458,123.017132 12.3876458,123.815194 L12.3876458,131.228915 L12.3843333,131.228915 L12.9397292,131.228915 C13.7744792,131.239922 14.8135,131.235519 15.840375,130.99555 C18.1955625,130.44076 19.2997292,129.587659 19.2997292,129.587659 L19.1650208,129.906884 C18.3810625,131.828837 18.3810625,131.824434 18.3810625,131.824434 L17.7384375,133.351209" id="Fill-30" sketch:type="MSShapeGroup"></path>
            <path d="M43.784625,85.4047442 C43.784625,85.1350543 43.7106458,84.8598605 43.5626875,84.5758605 C43.413625,84.2929612 43.1972083,84.0485891 42.9134375,83.8460465 C42.7279375,83.7106512 42.5247708,83.6060775 42.30725,83.5378295 C42.0919375,83.4684806 41.8379792,83.4310543 41.5497917,83.4222481 L41.5497917,87.207814 C41.7187292,87.2045116 41.889875,87.1902016 42.062125,87.1659845 C42.2354792,87.1417674 42.3900625,87.1043411 42.5280833,87.0548062 C42.67825,87.0041705 42.8273125,86.9293178 42.9741667,86.8335504 C43.1199167,86.7388837 43.254625,86.6222016 43.3793958,86.4824031 C43.5030625,86.3426047 43.6024375,86.1807907 43.6753125,85.998062 C43.7481875,85.8153333 43.784625,85.6171938 43.784625,85.4047442 M40.591375,86.5066202 L40.591375,84.098124 C40.591375,83.5972713 40.5185,83.1624651 40.3716458,82.7915039 L41.5299167,82.7915039 C41.9020208,82.7915039 42.2200208,82.8091163 42.4850208,82.8443411 C42.7489167,82.8795659 42.9907292,82.9533178 43.2126667,83.0633953 C43.4169375,83.1657674 43.6112708,83.2956589 43.7989792,83.451969 C43.9855833,83.6082791 44.1512083,83.7866047 44.2969583,83.9847442 C44.4438125,84.1839845 44.5575417,84.3986357 44.6403542,84.6297984 C44.7220625,84.8598605 44.7629167,85.0954264 44.7629167,85.3386977 C44.7629167,85.572062 44.7286875,85.7988217 44.6602292,86.0112713 C44.5906667,86.2259225 44.4990208,86.424062 44.3841875,86.6012868 C44.26825,86.781814 44.1390625,86.9414264 43.9944167,87.0834264 C43.850875,87.2232248 43.6985,87.3421085 43.5383958,87.4411783 C43.3661458,87.5523566 43.1585625,87.6415194 42.91675,87.711969 C42.6760417,87.7835194 42.4287083,87.8187442 42.1758542,87.8187442 L40.3716458,87.8121395 C40.5185,87.4411783 40.591375,87.0052713 40.591375,86.5066202" id="Fill-31" sketch:type="MSShapeGroup"></path>
            <path d="M46.0934375,87.8121395 C46.2391875,87.4400775 46.3142708,87.0052713 46.3142708,86.5066202 L46.3142708,84.098124 C46.3142708,83.5972713 46.2391875,83.1624651 46.0934375,82.7915039 L47.4913125,82.7915039 C47.3444583,83.1624651 47.2715833,83.5972713 47.2715833,84.098124 L47.2715833,86.5066202 C47.2715833,87.0052713 47.3444583,87.4400775 47.4913125,87.8121395 L46.0934375,87.8121395" id="Fill-32" sketch:type="MSShapeGroup"></path>
            <path d="M50.5774583,85.1757829 C50.7243125,85.1306512 50.8579167,85.0690078 50.979375,84.9886512 C51.1030417,84.9137984 51.1991042,84.8202326 51.2719792,84.7112558 C51.3470625,84.6022791 51.3812917,84.4822946 51.3812917,84.3491008 C51.3812917,84.2137054 51.3481667,84.0893178 51.2797083,83.9748372 C51.21125,83.8625581 51.1140833,83.7656899 50.992625,83.6842326 C50.8711667,83.6027752 50.7353542,83.5378295 50.5873958,83.4926977 C50.4394375,83.4442636 50.2859583,83.4189457 50.131375,83.4156434 L50.131375,85.278155 C50.2826458,85.2561395 50.4306042,85.2220155 50.5774583,85.1757829 M50.131375,85.9022946 L50.131375,86.5066202 C50.131375,87.0052713 50.2053542,87.4411783 50.3511042,87.8121395 L48.9543333,87.8121395 C49.1011875,87.4411783 49.1740625,87.0052713 49.1740625,86.5066202 L49.1740625,84.098124 C49.1740625,83.5972713 49.1011875,83.1624651 48.9543333,82.7915039 L50.4769792,82.7915039 C50.7397708,82.7915039 50.9837917,82.8322326 51.2090417,82.9103876 C51.4353958,82.9907442 51.6308333,83.0997209 51.79425,83.2384186 C51.9587708,83.3782171 52.08575,83.5378295 52.1740833,83.716155 C52.2635208,83.8955814 52.3076875,84.0827132 52.3076875,84.2764496 C52.3076875,84.6176899 52.2016875,84.9071938 51.9941042,85.1471628 C51.7865208,85.3838295 51.516,85.5632558 51.1825417,85.6843411 C51.297375,85.8527597 51.4365,86.0343876 51.5988125,86.2336279 C51.7600208,86.4328682 51.9355833,86.6387132 52.1243958,86.8478605 C52.3121042,87.0570078 52.4843542,87.2452403 52.6400417,87.4103566 C52.794625,87.5776744 52.9227083,87.7097674 53.0253958,87.8121395 C53.0033125,87.8165426 52.9514167,87.819845 52.8663958,87.8286512 C52.781375,87.8363566 52.701875,87.8429612 52.6267917,87.8495659 C52.5506042,87.8550698 52.4677917,87.8616744 52.3805625,87.8660775 C52.291125,87.8693798 52.2237708,87.8715814 52.1740833,87.8715814 C52.0625625,87.8715814 51.8317917,87.6987597 51.4784583,87.3520155 C51.1262292,87.0041705 50.6945,86.5231318 50.184375,85.9022946 L50.131375,85.9022946" id="Fill-33" sketch:type="MSShapeGroup"></path>
            <path d="M54.0246667,87.8121395 C54.1704167,87.4400775 54.2432917,87.0052713 54.2432917,86.5066202 L54.2432917,84.098124 C54.2432917,83.5972713 54.1704167,83.1624651 54.0246667,82.7915039 L55.4214375,82.7915039 C55.2745833,83.1624651 55.2017083,83.5972713 55.2017083,84.098124 L55.2017083,86.5066202 C55.2017083,87.0052713 55.2745833,87.4400775 55.4214375,87.8121395 L54.0246667,87.8121395" id="Fill-34" sketch:type="MSShapeGroup"></path>
            <path d="M60.5370417,86.4989147 C60.5370417,86.2204186 60.526,85.9793488 60.5039167,85.7757054 C60.4818333,85.572062 60.43325,85.3783256 60.3581667,85.1933953 L61.6743333,85.1933953 C61.5981458,85.3783256 61.5506667,85.572062 61.5274792,85.7757054 C61.5053958,85.9793488 61.4943542,86.2204186 61.4943542,86.4989147 L61.4943542,87.2287287 C61.4943542,87.3586202 61.4965625,87.4400775 61.499875,87.4808062 C61.5053958,87.5193333 61.5219583,87.569969 61.5473542,87.633814 C61.3055417,87.721876 61.0405417,87.7846202 60.7600833,87.8220465 C60.4785208,87.8594729 60.208,87.878186 59.9529375,87.878186 C59.3920208,87.878186 58.9061875,87.8055349 58.4932292,87.6558295 C58.081375,87.5083256 57.7479167,87.3112868 57.4928542,87.0702171 C57.2377917,86.8247442 57.0500833,86.5594574 56.9297292,86.2655504 C56.8104792,85.9749457 56.7519583,85.6810388 56.7519583,85.3849302 C56.7519583,85.0403876 56.8237292,84.7079535 56.9672708,84.3865271 C57.1108125,84.0651008 57.3150833,83.7811008 57.5800833,83.5312248 C57.8439792,83.2813488 58.1553542,83.0832093 58.5131042,82.9412093 C58.8730625,82.795907 59.2639375,82.7243566 59.6857292,82.7243566 C59.7950417,82.7243566 59.9330625,82.7298605 60.0975833,82.741969 C60.261,82.7529767 60.426625,82.7683876 60.5900417,82.7848992 C60.7545625,82.8014109 60.9058333,82.8256279 61.0460625,82.8509457 C61.1840833,82.8773643 61.2945,82.9048837 61.3751042,82.937907 L61.3751042,84.0584961 C61.2646875,83.9704341 61.1355,83.8845736 60.98975,83.8064186 C60.8417917,83.7271628 60.6861042,83.6556124 60.5171667,83.593969 C60.3482292,83.5334264 60.1770833,83.4838915 60.0048333,83.4475659 C59.8314792,83.4123411 59.66475,83.3947287 59.5046458,83.3947287 C58.9547708,83.3947287 58.5219375,83.5653488 58.2039375,83.9054884 C57.8870417,84.2456279 57.7280417,84.695845 57.7280417,85.2517364 C57.7280417,85.4873023 57.7777292,85.7206667 57.8748958,85.9518295 C57.9731667,86.1851938 58.1156042,86.3954419 58.3011042,86.585876 C58.4866042,86.7763101 58.7118542,86.9260155 58.9768542,87.0371938 C59.2396458,87.1450698 59.53225,87.2023101 59.8513542,87.2023101 C60.0324375,87.2023101 60.1737708,87.1935039 60.2709375,87.1758915 C60.3681042,87.1593798 60.4553333,87.1318605 60.5370417,87.0955349 L60.5370417,86.4989147" id="Fill-35" sketch:type="MSShapeGroup"></path>
            <path d="M66.2113542,87.8121395 L63.0711042,87.8121395 C63.2179583,87.4400775 63.2897292,87.0052713 63.2897292,86.5066202 L63.2897292,84.098124 C63.2897292,83.5972713 63.2179583,83.1624651 63.0711042,82.7915039 L66.3107292,82.7915039 L65.89225,83.6677209 C65.7939792,83.5961705 65.6559583,83.540031 65.4759792,83.4982016 C65.296,83.4563721 65.103875,83.4343566 64.9018125,83.4343566 L64.24925,83.4343566 L64.24925,84.9611318 L65.985,84.9611318 L65.5996458,85.7757054 C65.514625,85.723969 65.4031042,85.6810388 65.262875,85.6502171 C65.12375,85.6182946 64.9791042,85.6028837 64.8278333,85.6028837 L64.24925,85.6028837 L64.24925,87.1692868 L64.9537083,87.1692868 C65.243,87.1692868 65.4903333,87.1450698 65.6946042,87.0955349 C65.9021875,87.0482016 66.1627708,86.957938 66.4774583,86.8313488 L66.2113542,87.8121395" id="Fill-36" sketch:type="MSShapeGroup"></path>
            <path d="M95.7323542,84.8829767 C92.5987292,86.7862171 85.9085833,83.5521395 81.5482292,80.9785271 C75.9269167,77.923876 71.3887917,76.2694109 68.5080208,76.2694109 C69.2168958,76.8462171 69.7181875,77.806093 69.3648542,78.9310853 C68.9651458,80.1023101 67.7240625,80.7242481 66.5911875,80.8794574 C65.6548542,79.2525116 63.5525208,78.5381085 62.2253125,77.3382636 C62.2253125,77.3382636 60.42,75.8202946 66.6519167,75.240186 C73.68325,74.594031 82.6225833,81.2592248 88.4581042,83.5312248 C89.4474375,83.9142946 96.440125,87.2287287 97.341125,80.8838605 C97.3709375,80.6703101 97.447125,80.778186 97.4349792,80.8354264 C97.2770833,83.1910853 96.6642708,84.3204806 95.7323542,84.8829767" id="Fill-37" sketch:type="MSShapeGroup"></path>
            <path d="M10.1848333,84.8829767 C13.3195625,86.7862171 20.0086042,83.5521395 24.3678542,80.9785271 C29.9902708,77.923876 34.5272917,76.2694109 37.4102708,76.2694109 C36.7002917,76.8462171 36.1978958,77.806093 36.5534375,78.9310853 C36.9520417,80.1023101 38.193125,80.7242481 39.326,80.8794574 C40.2623333,79.2525116 42.3646667,78.5381085 43.691875,77.3382636 C43.691875,77.3382636 45.4971875,75.8202946 39.2652708,75.240186 C32.2339375,74.594031 23.2957083,81.2592248 17.4590833,83.5312248 C16.46975,83.9142946 9.4770625,87.2287287 8.57716667,80.8838605 C8.54625,80.6703101 8.4700625,80.778186 8.48220833,80.8354264 C8.64010417,83.1910853 9.25402083,84.3204806 10.1848333,84.8829767" id="Fill-38" sketch:type="MSShapeGroup"></path>
            <path d="M40.127625,89.034 C38.17325,88.4946202 37.2821875,87.3465116 36.8802708,86.3470078 C36.8449375,86.291969 36.7897292,86.2952713 36.8129167,86.3646202 C37.2799792,87.9497364 38.3576458,90.1909147 41.3057708,90.1909147 L65.0276875,90.1909147 C67.9769167,90.1909147 69.0567917,87.9497364 69.5216458,86.3646202 C69.5404167,86.2952713 69.4907292,86.291969 69.4598125,86.3470078 C69.0534792,87.3465116 68.1635208,88.4946202 66.203625,89.034 C65.2021458,89.2860775 61.5539792,89.2255349 60.51275,89.2255349 L45.8185,89.2255349 C44.7816875,89.2255349 41.1335208,89.2860775 40.127625,89.034" id="Fill-39" sketch:type="MSShapeGroup"></path>
            <path d="M14.4844583,80.7451628 C14.4425,80.494186 14.329875,80.2465116 14.1476875,80.0076434 C13.9655,79.7676744 13.7258958,79.573938 13.4299792,79.4286357 C13.23675,79.3306667 13.0335833,79.2657209 12.819375,79.2371008 C12.607375,79.2051783 12.3655625,79.2084806 12.0961458,79.245907 L12.6846667,82.7683876 C12.8414583,82.7364651 12.9971458,82.697938 13.1550417,82.6484031 C13.3129375,82.5988682 13.4498542,82.5416279 13.5713125,82.4744806 C13.7027083,82.4018295 13.8296875,82.3115659 13.9511458,82.2003876 C14.0726042,82.0892093 14.1808125,81.9604186 14.2724583,81.8107132 C14.3685208,81.6610078 14.435875,81.4958915 14.4745208,81.3131628 C14.5142708,81.1315349 14.5164792,80.9422016 14.4844583,80.7451628 M11.6842917,82.2609302 L11.3110833,80.0208527 C11.2337917,79.5574264 11.0979792,79.1633488 10.9036458,78.8397209 L11.9802083,78.6624961 C12.3280208,78.604155 12.6250417,78.5722326 12.8767917,78.5634264 C13.1285417,78.5546202 13.3648333,78.5854419 13.587875,78.6547907 C13.79325,78.7186357 13.9953125,78.8077984 14.1929583,78.9255814 C14.3906042,79.0433643 14.5727917,79.182062 14.740625,79.3460775 C14.9084583,79.5078915 15.0475833,79.6895194 15.1591042,79.892062 C15.2717292,80.0902016 15.3457083,80.3048527 15.38325,80.5316124 C15.4207917,80.7506667 15.423,80.9631163 15.3909792,81.1744651 C15.3622708,81.3825116 15.3059583,81.5817519 15.2264583,81.7644806 C15.1480625,81.9494109 15.0531042,82.120031 14.939375,82.2730388 C14.8278542,82.4271473 14.7052917,82.5625426 14.5716875,82.678124 C14.4270417,82.8069147 14.2481667,82.9224961 14.0350625,83.025969 C13.8208542,83.1283411 13.5956042,83.1987907 13.3615208,83.2384186 L11.6831875,83.5103101 C11.7615833,83.1415504 11.7615833,82.7276589 11.6842917,82.2609302" id="Fill-40" sketch:type="MSShapeGroup"></path>
            <path d="M18.9773125,80.7935969 C19.1904167,80.7330543 19.3770208,80.6416899 19.5382292,80.5184031 C19.6994375,80.3973178 19.8275208,80.2509147 19.9235833,80.0769922 C20.0196458,79.9041705 20.0770625,79.7115349 20.0958333,79.4968837 C20.1146042,79.2833333 20.0903125,79.0620775 20.0229583,78.8287132 C19.9545,78.5887442 19.8297292,78.3564806 19.6530625,78.1352248 C19.4763958,77.9106667 19.2754375,77.7433488 19.0512917,77.6288682 C18.8624792,77.5308992 18.6604167,77.4725581 18.4495208,77.453845 C18.2364167,77.4362326 18.03325,77.4527442 17.8400208,77.5088837 C17.6280208,77.5683256 17.4381042,77.6596899 17.271375,77.7840775 C17.1046458,77.9084651 16.9688333,78.0603721 16.8661458,78.2375969 C16.7623542,78.4137209 16.6994167,78.6085581 16.6773333,78.8265116 C16.65525,79.0433643 16.6784375,79.2723256 16.748,79.5144961 C16.8186667,79.7566667 16.9290833,79.9768217 17.0770417,80.1672558 C17.225,80.3576899 17.4027708,80.514 17.6070417,80.6295814 C17.8135208,80.7473643 18.0343542,80.8211163 18.2695417,80.8508372 C18.503625,80.8816589 18.7410208,80.8607442 18.9773125,80.7935969 M20.8543958,78.4269302 C20.968125,78.819907 20.9913125,79.1787597 20.9272708,79.5078915 C20.862125,79.8337209 20.7285208,80.1562481 20.5253542,80.4820775 C20.3674583,80.7308527 20.1554583,80.9411008 19.8915625,81.1150233 C19.6287708,81.287845 19.33175,81.4210388 18.9982917,81.517907 C18.3137083,81.7149457 17.6755,81.6422946 17.0814583,81.3043566 C16.801,81.1469457 16.5613958,80.949907 16.3659583,80.7110388 C16.1705208,80.4765736 16.0214583,80.185969 15.9220833,79.8403256 C15.760875,79.2789302 15.7995208,78.7362481 16.0402292,78.2133798 C16.2025417,77.8578295 16.43,77.5650233 16.7203958,77.336062 C17.0118958,77.1048992 17.3409375,76.9353798 17.7097292,76.8286047 C18.0431875,76.733938 18.3799583,76.7031163 18.7178333,76.7361395 C19.0557083,76.768062 19.3615625,76.856124 19.6320833,76.9948217 C19.934625,77.1555349 20.1907917,77.3536744 20.4005833,77.5870388 C20.6092708,77.8237054 20.7605417,78.1022016 20.8543958,78.4269302" id="Fill-41" sketch:type="MSShapeGroup"></path>
            <path d="M24.731125,78.6404806 L21.9773333,76.7405426 L22.6718542,78.2640155 C22.6828958,78.2849302 22.7005625,78.3190543 22.72375,78.364186 C22.7447292,78.4104186 22.756875,78.4445426 22.770125,78.4665581 C22.9445833,78.8077984 23.1433333,79.0818915 23.3674792,79.2932403 L22.3847708,79.7929922 C22.3582708,79.3934109 22.2500625,78.9883256 22.0579375,78.5755349 L21.0133958,76.2914264 C20.9051875,76.0789767 20.7925625,75.9204651 20.6744167,75.8169922 C20.5584792,75.7124186 20.424875,75.6232558 20.2747083,75.5517054 L21.1635625,75.0970853 L24.0675208,77.096093 L24.15475,73.5769147 L24.9077917,73.1927442 C24.9177292,73.3138295 24.9541667,73.4613333 25.016,73.6363566 C25.075625,73.8124806 25.1529167,73.9897054 25.247875,74.1702326 C25.2578125,74.1944496 25.2754792,74.2230698 25.300875,74.2648992 C25.3163333,74.2924186 25.3317917,74.3221395 25.34725,74.3518605 L26.4657708,76.3299535 C26.6998542,76.7427442 26.9659583,77.0685736 27.2629792,77.3107442 L26.08925,77.9073643 C26.0472917,77.5925426 25.9379792,77.2656124 25.7635208,76.9276744 C25.7458542,76.8924496 25.7292917,76.8649302 25.7105208,76.8352093 C25.6884375,76.7944806 25.671875,76.7636589 25.6619375,76.7405426 L24.8150417,75.240186 L24.731125,78.6404806" id="Fill-42" sketch:type="MSShapeGroup"></path>
            <path d="M28.2401667,76.7999845 C28.2147708,76.4235194 28.0999375,76.023938 27.8967708,75.5968372 L26.9195833,73.5493953 C26.7164167,73.1222946 26.4779167,72.7810543 26.201875,72.5223721 L27.3910625,71.959876 C27.4186667,72.3341395 27.5323958,72.7348217 27.7355625,73.1619225 L28.71275,75.2115659 C28.9159167,75.6375659 29.1555208,75.979907 29.4304583,76.2352868 L28.2401667,76.7999845" id="Fill-43" sketch:type="MSShapeGroup"></path>
            <path d="M31.1949167,74.8152868 C31.289875,74.9947132 31.3991875,75.1587287 31.5272708,75.3095349 L30.48825,75.6650853 C30.5059167,75.2897209 30.4374583,74.8791318 30.2817708,74.4322171 L29.4558542,72.0369302 C29.4238333,71.9389612 29.3730417,71.8486977 29.3078958,71.7672403 C29.2416458,71.6879845 29.1742917,71.6274419 29.103625,71.5900155 L28.60675,71.3027132 L29.752875,70.911938 L33.144875,73.1872403 L32.4867917,71.2773953 C32.4095,71.053938 32.3222708,70.8524961 32.2273125,70.671969 C32.1323542,70.4936434 32.0208333,70.3285271 31.8938542,70.1777209 L32.92625,69.8232713 C32.9185208,70.0214109 32.932875,70.2184496 32.9682083,70.4187907 C33.0046458,70.6169302 33.0609583,70.8282791 33.13825,71.0550388 L33.8968125,73.2554884 C34.059125,73.7244186 34.2203333,74.0843721 34.3815417,74.3320465 L33.5456875,74.6182481 C33.5335417,74.5995349 33.5037292,74.5687132 33.4529375,74.5246822 C33.4010417,74.4795504 33.3414167,74.4289147 33.27075,74.3727752 C33.2000833,74.3155349 33.1283125,74.2571938 33.0532292,74.202155 C32.9781458,74.1449147 32.913,74.0997829 32.8544792,74.0612558 L30.3049583,72.3814729 L30.9343333,74.2087597 C31.0138333,74.4344186 31.0988542,74.6358605 31.1949167,74.8152868" id="Fill-44" sketch:type="MSShapeGroup"></path>
            <path d="M38.047375,73.786062 L35.1147083,74.1889457 C35.2030417,73.8234884 35.2151875,73.4073953 35.1500417,72.9395659 L34.8397708,70.6906822 C34.774625,70.2228527 34.6509583,69.8265736 34.4654583,69.4985426 L37.4930833,69.0835504 L37.2137292,69.9542636 C37.11325,69.9014264 36.9774375,69.8673023 36.8040833,69.8485891 C36.6307292,69.8331783 36.4496458,69.8386822 36.258625,69.864 L35.649125,69.9476589 L35.8456667,71.3742636 L37.4676875,71.151907 L37.2137292,71.9631783 C37.1276042,71.9235504 37.0182917,71.8993333 36.8835833,71.886124 C36.748875,71.8784186 36.6108542,71.8806202 36.4684167,71.9015349 L35.9295833,71.9752868 L36.1305417,73.4371163 L36.7897292,73.3479535 C37.0591458,73.3094264 37.2866042,73.2554884 37.4732083,73.183938 C37.6598125,73.110186 37.8916875,72.9946047 38.1699375,72.8338915 L38.047375,73.786062" id="Fill-45" sketch:type="MSShapeGroup"></path>
            <path d="M73.424875,74.4223101 C73.3829167,74.6215504 73.3619375,74.8196899 73.3619375,75.0156279 L72.3372708,74.6215504 C72.5923333,74.3452558 72.8043333,73.9853023 72.9754792,73.546093 L73.8875208,71.1827287 C73.9272708,71.0858605 73.9471458,70.9845891 73.94825,70.8800155 C73.9515625,70.7754419 73.9361042,70.6873798 73.9085,70.6147287 L73.7108542,70.0753488 L74.8415208,70.5090543 L75.968875,74.4289147 L76.697625,72.542186 C76.78375,72.322031 76.8466875,72.1128837 76.8908542,71.9136434 C76.9350208,71.7155039 76.9537917,71.5184651 76.9537917,71.3214264 L77.9729375,71.7133023 C77.8415417,71.8586047 77.7233958,72.0193178 77.6229167,72.1943411 C77.5202292,72.3693643 77.426375,72.5697054 77.3424583,72.7909612 L76.5021875,74.9616899 C76.3233125,75.4240155 76.2151042,75.8026822 76.1775625,76.0976899 L75.35275,75.7795659 C75.3560625,75.7608527 75.35275,75.7168217 75.3417083,75.6485736 C75.332875,75.5836279 75.3185208,75.5054729 75.3008542,75.4141085 C75.2842917,75.3271473 75.266625,75.2368837 75.2434375,75.1455194 C75.2235625,75.0530543 75.2025833,74.9782016 75.1849167,74.9099535 L74.3159375,71.9917984 L73.6181042,73.7926667 C73.5319792,74.0150233 73.4690417,74.2263721 73.424875,74.4223101" id="Fill-46" sketch:type="MSShapeGroup"></path>
            <path d="M79.9891458,77.2116744 C80.1978333,77.2876279 80.4021042,77.3250543 80.6052708,77.3239535 C80.805125,77.3206512 80.99725,77.2799225 81.1783333,77.1962636 C81.3572083,77.1148062 81.5195208,76.9937209 81.6619583,76.8330078 C81.8055,76.6722946 81.918125,76.4785581 82.0031458,76.2517984 C82.0914792,76.0173333 82.130125,75.7575504 82.1201875,75.4724496 C82.11025,75.1906512 82.0495208,74.9352713 81.9368958,74.711814 C81.8430417,74.5224806 81.7171667,74.3562636 81.5581667,74.2131628 C81.4002708,74.070062 81.2258125,73.9643876 81.0381042,73.8961395 C80.8305208,73.8179845 80.6218333,73.7794574 80.4153542,73.7805581 C80.2066667,73.7805581 80.0079167,73.8212868 79.8191042,73.903845 C79.6313958,73.9831008 79.4624583,74.104186 79.3145,74.266 C79.1676458,74.4267132 79.0495,74.6248527 78.9622708,74.8593178 C78.8728333,75.0970853 78.830875,75.3370543 78.8363958,75.5803256 C78.8408125,75.8213953 78.8916042,76.0514574 78.9865625,76.2672093 C79.082625,76.484062 79.215125,76.6722946 79.3851667,76.8374109 C79.5563125,76.9992248 79.758375,77.1247132 79.9891458,77.2116744 M82.9096667,76.4224186 C82.766125,76.8054884 82.5706875,77.1093023 82.3244583,77.3338605 C82.077125,77.5562171 81.7756875,77.7389457 81.4201458,77.8787442 C81.1441042,77.9833178 80.8481875,78.0273488 80.5346042,78.0108372 C80.2177083,77.9943256 79.8975,77.9249767 79.572875,77.8027907 C78.9070625,77.5551163 78.4355833,77.1192093 78.1606458,76.4950698 C78.0303542,76.2033643 77.9552708,75.9039535 77.9387083,75.5957364 C77.9210417,75.2897209 77.97625,74.9682946 78.102125,74.6325581 C78.3075,74.0854729 78.6630417,73.6715814 79.16875,73.394186 C79.51325,73.2059535 79.871,73.1035814 80.242,73.0903721 C80.6107917,73.0782636 80.977375,73.139907 81.3373333,73.2742016 C81.6630625,73.394186 81.95125,73.5703101 82.2041042,73.795969 C82.4558542,74.0238295 82.6490833,74.2737054 82.7826875,74.5466977 C82.93175,74.853814 83.0189792,75.1675349 83.0476875,75.4790543 C83.0741875,75.7916744 83.0278125,76.1053953 82.9096667,76.4224186" id="Fill-47" sketch:type="MSShapeGroup"></path>
            <path d="M84.316375,77.9315814 C84.0668333,77.595845 83.9089375,77.2964341 83.846,77.0311473 C83.7819583,76.768062 83.8139792,76.5126822 83.9398542,76.2672093 C84.1264583,75.9083566 84.4047083,75.6782946 84.7768125,75.5825271 C85.1500208,75.4845581 85.5541458,75.5484031 85.9891875,75.7707597 C86.1227917,75.8390078 86.2828958,75.9413798 86.4661875,76.0745736 C86.6516875,76.2110698 86.8162083,76.3453643 86.9630625,76.4818605 L86.5666667,77.2502016 C86.5324375,77.1775504 86.4882708,77.0938915 86.4308542,77.0003256 C86.3723333,76.9089612 86.3049792,76.8153953 86.2276875,76.7251318 C86.1492917,76.6326667 86.0675833,76.5501085 85.97925,76.4730543 C85.8909167,76.396 85.8047917,76.3387597 85.7197708,76.2947287 C85.5033542,76.1824496 85.3134375,76.1483256 85.1500208,76.1835504 C84.9866042,76.2231783 84.8695625,76.3112403 84.7977917,76.4532403 C84.7105625,76.6194574 84.6973125,76.7757674 84.7547292,76.9166667 C84.8121458,77.0597674 84.9369167,77.2546047 85.1301458,77.5033798 C85.1930833,77.5826357 85.2416667,77.6486822 85.2758958,77.6982171 C85.3929375,77.8523256 85.4923125,77.9943256 85.5696042,78.119814 C85.6468958,78.2464031 85.7087292,78.3784961 85.7528958,78.5171938 C85.7959583,78.6547907 85.8147292,78.7989922 85.8025833,78.9508992 C85.7926458,79.103907 85.7484792,79.2569147 85.667875,79.412124 C85.4735417,79.7863876 85.1809375,80.0219535 84.7900625,80.1144186 C84.3969792,80.210186 83.9785,80.1430388 83.5324167,79.9140775 C83.3425,79.8150078 83.1481667,79.6994264 82.9505208,79.5618295 C82.7539792,79.4264341 82.6005,79.2844341 82.4922917,79.1402326 L82.8732292,78.4005116 C82.9218125,78.4797674 82.9803333,78.570031 83.051,78.6635969 C83.1227708,78.7593643 83.2011667,78.854031 83.2872917,78.9508992 C83.375625,79.0466667 83.4694792,79.1369302 83.5688542,79.2183876 C83.6704375,79.3020465 83.7720208,79.368093 83.8713958,79.4187287 C84.0767708,79.5244031 84.2611667,79.5497209 84.4256875,79.4957829 C84.5891042,79.4407442 84.7105625,79.3383721 84.7900625,79.1875659 C84.8772917,79.015845 84.8905417,78.8573333 84.8298125,78.7065271 C84.766875,78.5579225 84.6332708,78.3509767 84.4301042,78.080186 C84.3870417,78.0262481 84.3483958,77.9767132 84.316375,77.9315814" id="Fill-48" sketch:type="MSShapeGroup"></path>
            <path d="M69.5117083,38.5711628 C65.6427083,37.6608217 67.1267083,39.8447597 66.05125,39.5343411 C65.8480833,39.7886202 65.9419375,40.122155 65.9419375,40.122155 C65.4936458,39.6323101 65.4494792,39.1336589 65.5002708,38.7847132 C66.1274375,38.7098605 65.2021458,36.9629302 68.7332708,37.7951163 C69.5382083,38.1132403 69.675125,38.3620155 69.7203958,38.6592248 C69.65525,38.6295039 69.5856875,38.6008837 69.5117083,38.5711628 M64.3464167,39.5343411 C64.2216458,39.7577984 64.2415208,40.0759225 64.2415208,40.0759225 C63.9500208,39.5552558 63.871625,39.1127442 63.8672083,38.7626977 C64.0284167,38.7032558 64.2017708,38.5084186 64.2260625,37.9569302 C64.2503542,37.4054419 64.865375,37.5397364 64.865375,37.5397364 C64.865375,37.5397364 64.4491042,38.2827597 64.9614375,39.0808217 C64.812375,39.7390853 64.3464167,39.5343411 64.3464167,39.5343411 M69.6961042,53.4789612 L69.6961042,40.5283411 C70.4336875,40.3357054 70.8135208,40.0263876 71.29825,39.1435659 C71.35125,39.0466977 74.0398958,41.9956744 74.0398958,42.4414884 C74.0398958,42.8851008 73.0748542,43.3892558 73.3442708,45.4543101 C73.3442708,45.518155 73.385125,45.562186 73.4745625,45.5236589 C73.6655833,45.4113798 74.0299583,45.2055349 74.3755625,44.9974884 C74.4661042,44.9402481 74.4881875,44.8631938 74.4837708,44.7729302 C74.4528542,44.0431163 75.6365208,40.2278295 81.0811667,37.3239845 C81.3428542,37.1918915 81.2103542,37.1302481 81.0182292,37.2150078 C78.9953958,38.0416899 75.9258125,40.166186 75.8529375,40.2102171 C75.7425208,40.2762636 75.5404583,40.4314729 75.4145833,40.4226667 C74.5091667,40.3544186 72.6596875,38.5282326 72.2003542,38.0692093 L70.8632083,36.6789302 C70.8632083,36.6789302 70.5595625,36.3597054 70.0019583,36.2221085 C64.6887083,34.8989767 63.9036458,36.2848527 63.4663958,36.7196589 C63.3118125,36.8473488 63.1594375,37.1753798 63.1406667,37.3250853 L57.9897292,37.3250853 C57.7777292,37.4758915 57.7269375,37.5089147 57.6728333,37.5496434 C56.7839792,38.2134109 56.1005,38.5249302 55.5583542,38.6284031 L55.5583542,53.4866667 L69.6961042,53.4866667 L69.6961042,53.4789612" id="Fill-49" sketch:type="MSShapeGroup"></path>
            <path d="M36.1758125,58.9355039 C38.1842917,73.8532093 52.8597708,79.172155 52.8597708,79.172155 C52.8597708,79.172155 67.5341458,73.8532093 69.5415208,58.9355039 L55.5583542,58.9355039 L55.5583542,76.6227597 C54.7103542,77.061969 53.8203958,77.4857674 52.8730208,77.8732403 C51.880375,77.468155 50.9572917,77.027845 50.0728542,76.5600155 L50.0728542,58.9355039 L36.1758125,58.9355039" id="Fill-50" sketch:type="MSShapeGroup"></path>
            <path d="M45.0455833,50.223969 C44.9130833,50.3516589 44.6955625,50.346155 44.5707917,50.2085581 C44.3455417,49.9564806 44.0695,49.8772248 43.7592292,49.8497054 C43.7890417,49.9311628 43.811125,50.0137209 43.811125,50.1028837 C43.811125,50.2547907 43.7515,50.3879845 43.6675833,50.4925581 C43.7205833,50.5773178 43.7515,50.6785891 43.7515,50.7908682 C43.7515,50.9251628 43.705125,51.0440465 43.625625,51.1409147 C43.6742083,51.2168682 43.705125,51.3104341 43.705125,51.4062016 C43.705125,51.536093 43.6576458,51.6516744 43.57925,51.7287287 C43.6300417,51.7991783 43.6576458,51.8872403 43.6576458,51.9797054 C43.6576458,52.2174729 43.4655208,52.407907 43.2391667,52.407907 C43.0061875,52.407907 42.8162708,52.2174729 42.8162708,51.9797054 C42.8162708,51.8872403 42.8416667,51.7991783 42.8880417,51.7287287 C42.8162708,51.6516744 42.771,51.536093 42.771,51.4062016 C42.771,51.3104341 42.7930833,51.2168682 42.8471875,51.1409147 C42.771,51.0440465 42.7157917,50.9251628 42.7157917,50.7908682 C42.7157917,50.6785891 42.7500208,50.5773178 42.8052292,50.4925581 C42.7157917,50.3879845 42.6594792,50.2547907 42.6594792,50.1028837 C42.6594792,50.0115194 42.6837708,49.9179535 42.7191042,49.8408992 C42.2509375,49.8199845 41.7882917,49.7011008 41.3830625,49.2662946 C41.2549792,49.1286977 41.2627083,48.9107442 41.3985208,48.7786512 C41.5332292,48.6443566 41.7474375,48.6542636 41.8755208,48.7907597 C42.1051875,49.0472403 42.38675,49.1253953 42.711375,49.1496124 L42.8471875,41.1976124 L42.8538125,40.7242791 L43.2237083,40.0484031 L43.5891875,40.7242791 L43.5969167,41.1976124 L43.7349375,49.1562171 C44.195375,49.1848372 44.6624375,49.2927132 45.0720833,49.7308217 C45.1924375,49.8706202 45.1858125,50.0951783 45.0455833,50.223969 M40.7801875,39.0808217 C41.293625,38.2849612 40.87625,37.5397364 40.87625,37.5397364 C40.87625,37.5397364 41.4901667,37.4065426 41.5155625,37.9569302 C41.53875,38.5084186 41.7132083,38.7032558 41.8755208,38.7626977 C41.87,39.1149457 41.7905,39.5552558 41.499,40.0759225 C41.499,40.0759225 41.5199792,39.7577984 41.3952083,39.5343411 C41.3963125,39.5343411 40.9303542,39.740186 40.7801875,39.0808217 M39.7996875,40.122155 C39.7996875,40.122155 39.8924375,39.7886202 39.690375,39.5343411 C38.6160208,39.8447597 40.1000208,37.6608217 36.2299167,38.5722636 C36.1559375,38.6008837 36.0874792,38.6295039 36.0212292,38.6592248 C36.0676042,38.3620155 36.2034167,38.1132403 37.0094583,37.7951163 C40.5405833,36.9629302 39.6141875,38.7087597 40.2424583,38.7847132 C40.2921458,39.1336589 40.2479792,39.6323101 39.7996875,40.122155 M59.0938958,33.654 C58.9481458,33.6165736 58.7394583,33.6242791 58.5131042,33.663907 C57.25325,33.8708527 55.0040625,35.0057519 54.1693125,35.5484341 C56.2904167,33.174062 57.7589583,32.8405271 57.7589583,32.8405271 C57.7589583,32.8405271 57.7026458,32.7931938 57.6187292,32.6776124 C57.4685625,32.473969 57.2101875,32.0512713 56.9396667,31.2730233 C55.8399167,32.8988682 52.9447917,33.7200465 50.8711667,34.016155 C50.3753958,34.4300465 49.1122292,35.9403101 48.9896667,37.3239845 L42.6020625,37.3239845 C42.5821875,37.1753798 42.4298125,36.8473488 42.2752292,36.7196589 C41.8379792,36.2848527 41.0540208,34.8989767 35.7396667,36.2221085 C35.1820625,36.3608062 34.8784167,36.6789302 34.8784167,36.6789302 L33.5412708,38.0703101 C33.0830417,38.5282326 31.2324583,40.3544186 30.3259375,40.4226667 C30.2011667,40.4325736 29.998,40.2784651 29.8886875,40.2102171 C29.8158125,40.166186 26.7462292,38.0394884 24.7233958,37.2150078 C24.5301667,37.1302481 24.3976667,37.1918915 24.6615625,37.3217829 C30.1051042,40.2278295 31.289875,44.0453178 31.2578542,44.7751318 C31.2534375,44.8631938 31.2744167,44.9380465 31.3671667,44.9996899 C31.7105625,45.2066357 32.0749375,45.4113798 32.2670625,45.5236589 C32.3576042,45.562186 32.39625,45.518155 32.39625,45.4532093 C32.667875,43.3892558 31.7017292,42.8851008 31.7017292,42.4414884 C31.7017292,41.9956744 34.390375,39.0466977 34.443375,39.1435659 C34.9236875,40.0175814 35.2991042,40.3291008 36.0212292,40.5217364 L36.0212292,53.4811628 L36.0223333,53.4866667 L50.0728542,53.4866667 L50.0728542,39.4176589 C50.2318542,39.4914109 50.4118333,39.554155 50.6194167,39.6036899 C50.8546042,39.6609302 51.0765417,39.681845 51.2830208,39.6752403 C51.3713542,39.6730388 51.456375,39.6653333 51.5380833,39.6543256 C51.5380833,39.6543256 51.6518125,39.6367132 51.6727917,39.6334109 C51.6639583,39.6356124 51.628625,39.6411163 51.5469167,39.6499225 C52.8023542,39.4605891 53.5178542,38.2354264 53.72875,37.6167907 C54.0544792,37.9426202 54.623125,38.3080775 55.5417917,37.9316124 C55.8200417,37.8105271 56.1391458,37.6233953 56.5079375,37.3239845 C56.7552708,37.1203411 57.0246875,36.875969 57.3206042,36.5666512 C58.7383542,35.0927132 59.5753125,34.9375039 60.0302292,35.0706977 C60.2720417,35.1433488 60.4078542,35.2985581 60.4630625,35.3811163 C60.4818333,35.4108372 60.5017083,35.446062 60.5182708,35.4922946 C60.5977708,35.6937364 60.6264792,36.0437829 60.4177917,36.4378605 C60.2908125,36.6679225 60.0865417,36.9155969 59.7387292,37.1566667 C60.0302292,37.1203411 60.4652708,36.939814 60.7424167,36.5930698 C60.8716042,36.4246512 61.0438542,36.1285426 61.0703542,35.8731628 C61.2635833,33.9908372 59.0938958,33.654 59.0938958,33.654" id="Fill-51" sketch:type="MSShapeGroup"></path>
            <path d="M3.83477083,23.4762326 C5.1641875,25.8825271 4.80091667,29.0824806 3.58854167,31.2102791 C3.39420833,31.5383101 3.03866667,31.4348372 3.1766875,31.0649767 C4.13179167,27.3443566 3.69895833,24.5186667 3.4681875,23.4189922 C3.40745833,23.1162791 3.59185417,23.0733488 3.83477083,23.4762326" id="Fill-52" sketch:type="MSShapeGroup"></path>
            <path d="M3.70558333,33.9027752 C5.20614583,35.6464031 5.46341667,39.3207907 4.83514583,41.2713643 C4.72804167,41.5762791 4.3029375,41.5905891 4.35925,41.2691628 C4.50941667,38.0515969 3.65920833,34.824124 3.27827083,33.957814 C3.16122917,33.707938 3.4416875,33.6143721 3.70558333,33.9027752" id="Fill-53" sketch:type="MSShapeGroup"></path>
            <path d="M5.2635625,43.275876 C5.0449375,43.1448837 5.1906875,42.9192248 5.558375,42.9962791 C7.69714583,43.5070388 10.1771042,46.6321395 10.7832917,48.4902481 C10.8705208,48.7819535 10.61325,49.0450388 10.4100833,48.7533333 C8.725125,46.1885271 6.04310417,43.7337984 5.2635625,43.275876" id="Fill-54" sketch:type="MSShapeGroup"></path>
            <path d="M5.72841667,33.9908372 C5.41483333,33.8015039 4.92458333,33.1586512 0.969458333,32.4002171 C0.696729167,32.3550853 0.670229167,32.1349302 0.969458333,32.1250233 C3.52008333,32.0457674 5.1310625,32.6214729 6.16235417,33.4294419 C6.55102083,33.717845 6.47152083,34.4443566 5.72841667,33.9908372" id="Fill-55" sketch:type="MSShapeGroup"></path>
            <path d="M12.1933125,39.539845 C11.7141042,39.6268062 10.7490625,39.7974264 10.2069167,39.9383256 C8.96914583,37.115938 7.85283333,34.5621395 7.28639583,29.2145736 C7.24664583,28.8513178 7.0225,28.914062 7.0225,29.2387907 C7.02691667,34.8109147 7.82964583,37.3603101 8.87639583,40.3445116 C7.35927083,40.8497674 5.66879167,41.5388527 3.27275,42.7651163 C3.10822917,42.8432713 3.1766875,43.0744341 3.38979167,43.0083876 C5.796875,42.2609612 7.67947917,41.8349612 9.31916667,41.4959225 C11.2702292,46.2171473 13.7413542,47.8396899 14.6644375,48.5221705 C15.1591042,48.8876279 15.6924167,49.1165891 16.112,49.3191318 C16.8506875,49.6493643 17.6467917,49.4985581 17.8908125,49.1870388 C18.2032917,48.7225116 17.914,48.2612868 17.2680625,47.8793178 C16.2124792,47.251876 13.2842292,46.0234109 10.8086875,41.2130233 C11.7163125,41.0622171 12.91875,40.9708527 13.47525,40.9345271 C14.197375,40.8849922 14.4480208,40.3885426 14.19075,39.8953953 C13.985375,39.5079225 13.5580625,39.2866667 12.1933125,39.539845" id="Fill-56" sketch:type="MSShapeGroup"></path>
            <path d="M13.0921042,48.7291163 C13.5437083,48.6883876 13.7689583,49.2002481 13.3239792,49.3092248 C13.1119792,49.3752713 12.368875,49.337845 10.3979375,50.8690233 C10.2665417,50.9702946 10.1848333,50.9152558 10.2764792,50.7600465 C11.0604375,49.4578295 12.3169792,48.8546047 13.0921042,48.7291163" id="Fill-57" sketch:type="MSShapeGroup"></path>
            <path d="M2.52302083,45.9760775 C4.0246875,47.5347752 5.02727083,47.3025116 5.74608333,46.7290078 C5.55395833,48.0455349 4.25325,48.0136124 4.25325,48.0136124 C4.25325,48.0136124 4.1505625,48.0114109 4.034625,48.0224186 C5.465625,48.5265736 7.54035417,49.5888217 8.904,51.8090853 C9.13366667,52.192155 9.1723125,52.2273798 9.32027083,52.6016434 C8.92497917,52.2582016 8.37841667,51.9587907 7.62979167,51.8487132 C6.79725,50.0874729 5.035,49.0659535 3.73760417,48.3009147 C4.46083333,49.3400465 4.11964583,49.9036434 4.03904167,50.6708837 C4.05008333,50.2019535 3.32464583,49.4754419 3.32464583,49.4754419 C3.32464583,49.4754419 2.61797917,48.7632403 2.33089583,47.8517984 C1.72029167,45.4565116 0.46375,45.0756434 0.46375,45.0756434 C0.46375,45.0756434 1.02577083,44.4074729 2.52302083,45.9760775" id="Fill-58" sketch:type="MSShapeGroup"></path>
            <path d="M3.4416875,18.9003101 C3.19435417,18.3664341 2.88629167,18.5700775 3.03866667,18.9729612 C6.69125,28.3746822 14.4005417,36.7350698 14.4005417,36.7350698 C15.9408542,38.589876 18.61625,40.9433333 15.6802708,41.640124 C14.8256458,41.8371628 12.8602292,43.5609767 18.8768333,47.1748217 C19.7778333,47.7153023 20.7472917,47.3619535 20.4889167,46.5396744 C20.3597292,46.130186 18.5665625,45.0965581 17.8996458,44.5637829 C16.7778125,43.6666512 16.5371042,43.3870543 18.0431875,42.8025426 C18.6648333,42.5603721 20.7704792,41.1315659 19.4775,39.7677054 C11.9956667,31.8564341 15.0895417,17.9129147 15.0895417,17.9129147 C15.1624167,17.5584651 14.9371667,17.5177364 14.833375,17.892 C14.833375,17.892 12.7674792,24.9391628 10.3637083,27.0636589 C10.865,28.1523256 12.262875,30.6686977 13.7170625,33.8444341 C12.1557708,31.8817519 8.28125,28.2403876 3.4416875,18.9003101" id="Fill-59" sketch:type="MSShapeGroup"></path>
            <path d="M6.58635417,57.387814 C5.5815625,57.0895039 4.9521875,56.2154884 4.9521875,55.1191163 C4.9521875,53.7805736 6.04310417,52.6941085 7.386875,52.6941085 C7.598875,52.6941085 7.80314583,52.7293333 8.003,52.7832713 C8.003,52.7832713 7.99747917,52.7755659 7.99416667,52.7755659 C9.294875,53.0903876 9.7420625,54.0887907 9.84695833,54.3727907 C10.4906875,56.134031 9.20875,58.6680155 8.54845833,59.7093488 C8.0063125,60.570155 7.4233125,62.1409612 8.57164583,62.6715349 C11.83225,63.7513953 12.527875,59.737969 12.9331042,58.1440465 C13.508375,55.7025271 14.3685208,54.2462016 16.489625,52.4695504 C16.6718125,52.3143411 16.8252917,52.1888527 16.9787708,52.0677674 C16.7601458,51.9213643 16.4841042,51.7584496 16.1340833,51.5812248 C13.8893125,50.4507287 13.2389583,50.5575039 13.084375,50.5729147 C13.0236458,50.5773178 13.0225417,50.542093 13.0633958,50.4705426 C13.3184583,50.0302326 14.4447083,50.0302326 15.9795,50.4287132 C18.795125,51.3280465 18.8900833,51.0726667 20.1742292,49.8364961 C20.385125,49.6372558 20.6158958,49.4171008 20.8930417,49.1430078 C22.4929792,47.3685581 21.4075833,44.313907 21.4075833,44.313907 C21.00125,43.1845116 20.0240625,41.3803411 20.0163333,41.3847442 L19.451,40.2663566 C18.00675,37.4560775 16.6464167,34.7933023 16.9765625,33.2147907 C17.225,32.3099535 17.6478958,31.9279845 18.2286875,31.3941085 C18.1955625,30.9339845 17.8190417,30.5696279 17.6523125,30.4287287 C17.589375,30.378093 17.5849583,30.3494729 17.6390625,30.3021395 C18.0387708,29.8255039 17.9813542,29.2916279 17.5065625,28.7434419 C17.4535625,28.6828992 17.4381042,28.6487752 17.52975,28.5893333 C18.0277292,28.1071938 18.1017083,27.7252248 17.7980625,27.0427442 C17.7759792,26.9910078 17.7837083,26.9678915 17.8488542,26.9392713 C18.24525,26.7290233 17.9327708,25.8594109 19.2102917,24.4845426 C19.3361667,24.3546512 19.38475,24.4482171 19.3549375,24.5825116 C19.2169167,25.638155 20.014125,26.2226667 20.2879583,26.9513798 C20.4436458,26.6838915 20.1985208,26.3327442 20.6258333,25.8660155 C20.7472917,25.7526357 20.7848333,25.7757519 20.7616458,25.9430698 C20.6346667,27.3102326 22.1230833,27.6184496 21.7123333,29.4501395 C21.7123333,29.4501395 22.5746875,28.9713023 25.1076458,28.7214264 C25.5669792,28.6762946 26.1345208,28.7929767 25.9931875,29.2927287 C25.9688958,29.3785891 25.7613125,29.5106822 25.4698125,29.570124 C24.9276667,29.6515814 23.8190833,29.927876 23.8190833,29.927876 C23.5607083,29.9906202 23.2382917,30.1006977 23.0097292,30.1711473 C22.3693125,30.368186 22.7690208,30.5377054 22.7690208,30.5377054 C23.618125,30.8646357 23.7870625,30.9174729 24.095125,31.1233178 C24.115,31.1398295 24.2508125,31.2234884 24.4186458,31.2366977 C24.7465833,31.2642171 25.0634792,31.1640465 25.075625,30.8173023 C25.0877708,30.618062 25.075625,30.5685271 25.0336667,30.4463411 C24.9265625,30.2052713 26.1146458,29.9069612 26.5618333,29.8244031 C27.4661458,29.6548837 28.8297917,29.5954419 29.9670833,29.7165271 C30.2199375,29.7242326 31.6133958,29.8695349 31.7900625,30.4287287 C31.3450833,29.9851163 30.4076458,30.0544651 30.2000625,30.1304186 C30.0079375,31.788186 29.6292083,31.969814 28.0325833,32.2835349 L23.8246042,32.9495039 C22.8275417,33.0782946 22.8982083,34.0348682 23.4977708,33.9853333 L24.956375,33.849938 L25.5426875,33.7971008 L25.7094167,33.7827907 C26.5651458,33.2951473 27.6969167,32.8174109 29.1511042,33.3292713 C29.5232083,33.4305426 30.1547917,33.3182636 30.8073542,32.8713488 C30.5379375,32.6269767 30.2320833,32.331969 30.1658333,32.0622791 C30.1658333,32.0622791 31.7193958,32.7876899 32.3266875,31.5812403 C32.3852083,32.7722791 31.8276042,33.5417209 30.3778333,34.0590853 C30.40875,33.7574729 30.481625,33.5042946 30.7046667,33.3094574 C30.4716875,33.4657674 30.1945417,33.5956589 29.8478333,33.6760155 C29.2272917,33.8169147 28.65975,33.6473953 28.4819792,33.6011628 C28.4819792,33.619876 28.4841875,33.6352868 28.4841875,33.6562016 C28.5228333,33.9886357 28.65975,34.9000775 29.1875417,35.2864496 C29.2416458,35.313969 29.2350208,35.3491938 29.1720833,35.3524961 C28.0358958,35.446062 27.4650417,35.0057519 27.4650417,35.0057519 C27.4661458,35.0057519 27.4551042,35.8610543 27.8724792,36.2331163 C27.9199583,36.2694419 27.8989792,36.3024651 27.8614375,36.3024651 C25.3229583,36.3156744 24.9994375,35.392124 21.1547292,35.2567287 C21.1050417,35.2523256 21.0818542,35.2325116 21.0675,35.2027907 C20.8201667,34.6711163 20.3332292,33.9534109 19.7458125,33.7013333 C19.7182083,33.688124 19.7104792,33.6716124 19.7413958,33.644093 C20.3674583,32.9704186 20.2879583,31.7705736 20.2758125,31.3610853 C20.265875,31.2697209 20.2239167,31.2818295 20.1974167,31.3412713 C19.7480208,32.2648217 19.2445208,33.2268992 17.867625,33.5075969 C17.8135208,33.512 17.8135208,33.5362171 17.8488542,33.5494264 C19.470875,34.2264031 20.0384167,35.8258295 20.1366875,36.3343876 C20.6920833,36.1505581 21.1282292,36.1571628 21.590875,36.2661395 C21.6394583,36.2848527 21.6317292,36.3035659 21.5930833,36.3233798 C21.1282292,36.5567442 20.8234792,36.7350698 20.703125,37.3327907 C20.60375,37.8655659 20.7351458,38.3532093 21.3468542,38.8573643 L36.4463333,49.6405581 C37.1110417,50.1557209 37.2744583,51.2443876 37.5847292,52.2780155 C37.7923125,53.2103721 38.3686875,57.3503876 35.3786042,57.9117829 C35.01975,57.9679225 34.2214375,58.1495504 33.648375,57.4230388 C33.648375,57.4230388 33.9277292,57.5066977 34.1585,57.3944186 C34.1585,57.3944186 33.9884583,56.9530078 34.734875,56.9331938 C35.2869583,56.9199845 35.1908958,56.3233643 35.1908958,56.3233643 C35.1908958,56.3233643 34.1408333,56.6855194 33.6914375,55.8819535 C33.6914375,55.8830543 33.966375,55.9898295 34.231375,55.8742481 C34.1430417,54.6611938 36.4783542,56.452155 35.9638125,53.0012248 C35.52325,51.7133178 34.6708333,51.9488837 34.1618125,52.1217054 C33.6759792,52.2857209 33.5169792,51.9874109 33.4849583,51.8277984 C33.2740625,51.8652248 33.0046458,52.1360155 33.0046458,52.1360155 C33.1459792,51.2289767 33.9453958,50.8976434 35.1555625,50.5575039 L34.3782292,50.0984806 L31.5990417,48.813876 C31.5990417,48.813876 29.7782708,52.4288217 27.14925,54.9396899 C28.9545625,54.9396899 29.8224375,55.1048062 30.4959792,55.4097209 C30.4959792,55.4097209 30.812875,55.5087907 31.1275625,55.9535039 C31.4853125,56.462062 31.7911667,57.3030543 31.2258333,58.6493023 C30.8073542,59.6510078 29.911875,60.9202016 28.2070417,62.5097209 C26.6545833,63.9385271 25.7204583,65.9232248 28.6177917,67.087845 C29.4602708,67.4235814 30.2928125,67.5105426 30.6792708,67.6470388 C30.6792708,67.6470388 32.0903958,67.2397519 32.9925,66.7928372 C33.7875,66.3987597 34.8717917,66.4890233 35.6314583,67.0427132 C35.7937708,67.1990233 35.8567083,67.2650698 35.9030833,67.3740465 C36.139375,67.8110543 36.199,68.1192713 35.9317917,68.6223256 C35.9317917,68.6223256 35.6833542,67.8914109 35.3476875,67.998186 C34.6056875,68.5926047 34.9214792,67.5193488 33.9520208,67.8947132 C33.9520208,67.8947132 34.7116875,68.2810853 34.2368958,69.2585736 C34.2368958,69.2596744 34.03925,68.5837984 33.7753542,68.6971783 C32.8246667,69.1121705 33.5545208,68.1787132 31.382625,68.8094574 L28.6321458,69.9575659 C28.3638333,70.0665426 27.8283125,70.3131163 27.1404167,70.7193023 C26.9350417,70.0357209 28.0193333,69.2882946 28.1418958,69.2046357 C28.1418958,69.2046357 26.4127708,67.2518605 24.7532083,66.4350853 C24.3833125,66.2534574 24.0310833,66.1070543 23.7815417,65.9100155 C23.4017083,65.5291473 23.3641667,65.0238915 24.0112083,64.2225271 C24.15475,64.0882326 27.5809792,60.7055504 28.7028125,59.2426202 C29.8224375,57.7730853 29.8378958,56.9210853 28.8408333,56.6568992 L24.9133125,56.3486822 C24.8835,56.3607907 23.3707917,56.2606202 22.5559167,56.2000775 C22.3704167,56.1582481 22.4167917,56.0294574 22.5459792,55.9986357 C23.8522083,55.4768682 27.4727708,53.6451783 30.2442292,48.4814419 C28.9810625,48.0543411 27.6814583,48.4297054 27.089625,48.6509612 C26.9262083,48.7236124 26.7153125,48.7445271 26.5474792,48.6476589 L24.8912292,47.5523876 C24.97625,47.8517984 25.2754792,48.5320775 25.4753333,48.9437674 C25.5934792,49.2090543 25.4841667,49.3477519 25.4289583,49.4369147 C24.5213333,50.9020465 23.5010833,52.4024031 21.9276458,53.8345116 C21.7752708,53.9688062 21.6273125,54.1306202 21.4915,54.307845 C20.7859375,55.2005736 20.6346667,56.6051628 21.9453125,58.5458295 L22.0115625,58.6493023 C22.2180417,58.9949457 22.5857292,59.7996124 22.425625,60.981845 C22.3847708,61.2581395 22.3152083,61.5630543 22.2147292,61.8811783 C22.1705625,62.0374884 22.1230833,62.1982016 22.0700833,62.3633178 C21.3821875,64.5164341 18.56325,67.4852248 14.4955,69.8067597 C14.2956458,69.9201395 14.098,70.0269147 13.89925,70.1413953 L15.668125,74.4256124 C15.668125,74.4256124 16.7104583,74.1944496 17.6125625,73.6902946 C18.2573958,73.3281395 19.444375,73.1178915 20.2448958,73.6110388 C20.4204583,73.751938 20.4226667,73.7640465 20.5430208,73.9203566 C20.8124375,74.4168062 20.7837292,74.8846357 20.5397083,75.2027597 C20.5397083,75.2027597 20.2239167,74.3320465 20.040625,74.5863256 C19.3494167,75.2368837 19.6320833,74.3353488 18.8646875,74.6754884 C18.8646875,74.6754884 19.4322292,75.3117364 18.9154792,75.9986202 C18.9154792,75.9986202 18.7564792,75.3799845 18.4671875,75.5087752 C17.5529375,75.9986202 18.2430417,75.0255349 16.1296667,75.8291008 C16.1296667,75.8291008 13.7214792,77.0157364 11.9757917,77.0806822 C12.1557708,76.5049767 13.3471667,75.7619535 13.3471667,75.7619535 C13.2235,73.2235659 12.4240833,70.7093953 11.7538542,69.2717829 C10.9732083,67.6096124 14.3519583,68.0102946 14.7063958,66.2094264 L15.058625,63.8108372 C15.5477708,60.8277364 15.6449375,59.9162946 16.118625,58.4896899 C16.5117083,57.3030543 17.7053125,54.7470543 17.6467917,54.3485736 C17.6202917,54.2704186 17.5253333,54.3177519 17.4392083,54.3804961 C16.8959583,54.9044651 14.681,57.4197364 14.3861875,63.2582481 C14.3861875,63.2582481 14.3895,63.3584186 14.1344375,63.5917829 C11.3044583,66.191814 7.74683333,65.7283876 6.55764583,64.4272713 C4.25766667,61.9097984 6.04972917,59.1666667 7.1583125,58.0614884 C8.268,56.9541085 8.56170833,56.0536744 8.38172917,55.1389302 C8.30775,54.7646667 8.23377083,54.6666977 8.23377083,54.6666977 C8.06814583,54.3948062 7.77995833,54.2087752 7.44097917,54.2087752 C6.92422917,54.2087752 6.5090625,54.625969 6.5090625,55.1378295 C6.5090625,55.6496899 6.92422917,56.0613798 7.44097917,56.0613798 C7.44097917,56.0613798 7.40785417,56.6943256 6.625,57.3889147" id="Fill-60" sketch:type="MSShapeGroup"></path>
            <path d="M101.907958,23.4762326 C100.576333,25.8825271 100.940708,29.0824806 102.153083,31.2102791 C102.348521,31.5383101 102.702958,31.4348372 102.566042,31.0649767 C101.610937,27.3443566 102.042667,24.5186667 102.274542,23.4189922 C102.335271,23.1162791 102.148667,23.0733488 101.907958,23.4762326" id="Fill-61" sketch:type="MSShapeGroup"></path>
            <path d="M102.036042,33.9027752 C100.535479,35.6464031 100.278208,39.3207907 100.907583,41.2713643 C101.013583,41.5762791 101.438688,41.5905891 101.383479,41.2691628 C101.232208,38.0515969 102.082417,34.824124 102.463354,33.957814 C102.579292,33.707938 102.299938,33.6143721 102.036042,33.9027752" id="Fill-62" sketch:type="MSShapeGroup"></path>
            <path d="M100.478063,43.275876 C100.696688,43.1448837 100.550938,42.9192248 100.182146,42.9962791 C98.043375,43.5070388 95.5634167,46.6321395 94.9583333,48.4902481 C94.87,48.7819535 95.128375,49.0450388 95.3315417,48.7533333 C97.0153958,46.1885271 99.6985208,43.7337984 100.478063,43.275876" id="Fill-63" sketch:type="MSShapeGroup"></path>
            <path d="M100.013208,33.9908372 C100.326792,33.8015039 100.818146,33.1586512 104.771063,32.4002171 C105.044896,32.3550853 105.070292,32.1349302 104.773271,32.1250233 C102.221542,32.0457674 100.610563,32.6214729 99.5792708,33.4294419 C99.1906042,33.717845 99.2701042,34.4443566 100.013208,33.9908372" id="Fill-64" sketch:type="MSShapeGroup"></path>
            <path d="M93.5483125,39.539845 C94.028625,39.6268062 94.9936667,39.7974264 95.5347083,39.9383256 C96.7724792,37.115938 97.8898958,34.5621395 98.4552292,29.2145736 C98.4960833,28.8513178 98.7202292,28.914062 98.7202292,29.2387907 C98.7147083,34.8109147 97.9119792,37.3603101 96.864125,40.3445116 C98.3834583,40.8497674 100.073938,41.5388527 102.468875,42.7651163 C102.632292,42.8432713 102.566042,43.0744341 102.351833,43.0083876 C99.94475,42.2609612 98.0621458,41.8349612 96.4224583,41.4959225 C94.4713958,46.2171473 92.0002708,47.8396899 91.0782917,48.5221705 C90.5825208,48.8876279 90.0503125,49.1165891 89.6307292,49.3191318 C88.8909375,49.6493643 88.0948333,49.4985581 87.8508125,49.1870388 C87.5383333,48.7225116 87.827625,48.2612868 88.4735625,47.8793178 C89.53025,47.251876 92.4573958,46.0234109 94.9329375,41.2130233 C94.0242083,41.0622171 92.8239792,40.9708527 92.266375,40.9345271 C91.54425,40.8849922 91.2925,40.3885426 91.550875,39.8953953 C91.75625,39.5079225 92.1846667,39.2866667 93.5483125,39.539845" id="Fill-65" sketch:type="MSShapeGroup"></path>
            <path d="M92.6495208,48.7291163 C92.1990208,48.6883876 91.9726667,49.2002481 92.4176458,49.3092248 C92.63075,49.3752713 93.3738542,49.337845 95.3436875,50.8690233 C95.4761875,50.9702946 95.559,50.9152558 95.46625,50.7600465 C94.6800833,49.4578295 93.4246458,48.8546047 92.6495208,48.7291163" id="Fill-66" sketch:type="MSShapeGroup"></path>
            <path d="M103.218604,45.9760775 C101.716937,47.5347752 100.71325,47.3025116 99.9966458,46.7290078 C100.188771,48.0455349 101.489479,48.0136124 101.489479,48.0136124 C101.489479,48.0136124 101.591063,48.0114109 101.708104,48.0224186 C100.276,48.5265736 98.202375,49.5888217 96.837625,51.8090853 C96.6090625,52.192155 96.5704167,52.2273798 96.4213542,52.6016434 C96.8166458,52.2582016 97.3632083,51.9587907 98.1129375,51.8487132 C98.944375,50.0874729 100.706625,49.0659535 102.002917,48.3009147 C101.280792,49.3400465 101.621979,49.9036434 101.704792,50.6708837 C101.692646,50.2019535 102.416979,49.4754419 102.416979,49.4754419 C102.416979,49.4754419 103.123646,48.7632403 103.411833,47.8517984 C104.021333,45.4565116 105.278979,45.0756434 105.278979,45.0756434 C105.278979,45.0756434 104.716958,44.4074729 103.218604,45.9760775" id="Fill-67" sketch:type="MSShapeGroup"></path>
            <path d="M102.299938,18.9003101 C102.547271,18.3664341 102.855333,18.5700775 102.702958,18.9729612 C99.050375,28.3746822 91.3421875,36.7350698 91.3421875,36.7350698 C89.8007708,38.589876 87.125375,40.9433333 90.0613542,41.640124 C90.9159792,41.8371628 92.8813958,43.5609767 86.8647917,47.1748217 C85.9637917,47.7153023 84.9943333,47.3619535 85.2527083,46.5396744 C85.383,46.130186 87.1761667,45.0965581 87.8430833,44.5637829 C88.9638125,43.6666512 89.2045208,43.3870543 87.6984375,42.8025426 C87.0767917,42.5603721 84.97225,41.1315659 86.264125,39.7677054 C93.7448542,31.8564341 90.6520833,17.9129147 90.6520833,17.9129147 C90.5803125,17.5584651 90.8055625,17.5177364 90.9093542,17.892 C90.9093542,17.892 92.9741458,24.9391628 95.3790208,27.0636589 C94.8777292,28.1523256 93.4798542,30.6686977 92.0245625,33.8444341 C93.5858542,31.8817519 97.460375,28.2403876 102.299938,18.9003101" id="Fill-68" sketch:type="MSShapeGroup"></path>
            <path d="M99.1552708,57.387814 C100.161167,57.0895039 100.789438,56.2154884 100.789438,55.1191163 C100.789438,53.7805736 99.6985208,52.6941085 98.3569583,52.6941085 C98.14275,52.6941085 97.9384792,52.7293333 97.7397292,52.7832713 L97.7463542,52.7755659 C96.44675,53.0903876 95.9995625,54.0887907 95.8946667,54.3727907 C95.2509375,56.134031 96.532875,58.6680155 97.1920625,59.7093488 C97.7353125,60.570155 98.3194167,62.1409612 97.1710833,62.6715349 C93.909375,63.7513953 93.21375,59.737969 92.8085208,58.1440465 C92.2321458,55.7025271 91.3742083,54.2462016 89.252,52.4695504 C89.0698125,52.3143411 88.9163333,52.1888527 88.7628542,52.0677674 C88.9825833,51.9213643 89.2575208,51.7584496 89.6075417,51.5812248 C91.8523125,50.4507287 92.5026667,50.5575039 92.6583542,50.5729147 C92.7190833,50.5773178 92.7201875,50.542093 92.6782292,50.4705426 C92.4242708,50.0302326 91.2980208,50.0302326 89.7632292,50.4287132 C86.9465,51.3280465 86.8515417,51.0726667 85.5673958,49.8364961 C85.3576042,49.6372558 85.1268333,49.4171008 84.8496875,49.1430078 C83.2486458,47.3685581 84.3340417,44.313907 84.3340417,44.313907 C84.7392708,43.1845116 85.7175625,41.3803411 85.7241875,41.3847442 L86.290625,40.2663566 C87.734875,37.4560775 89.0963125,34.7933023 88.7650625,33.2147907 C88.5177292,32.3099535 88.0948333,31.9279845 87.5140417,31.3941085 C87.5460625,30.9339845 87.9225833,30.5696279 88.0904167,30.4287287 C88.1533542,30.378093 88.1566667,30.3494729 88.1036667,30.3021395 C87.7028542,29.8255039 87.761375,29.2916279 88.2350625,28.7434419 C88.2891667,28.6828992 88.3035208,28.6487752 88.2107708,28.5893333 C87.715,28.1071938 87.6399167,27.7252248 87.9435625,27.0427442 C87.9656458,26.9910078 87.9590208,26.9678915 87.8927708,26.9392713 C87.4952708,26.7290233 87.80775,25.8594109 86.5324375,24.4845426 C86.4065625,24.3546512 86.356875,24.4482171 86.3877917,24.5825116 C86.5247083,25.638155 85.7297083,26.2226667 85.4536667,26.9513798 C85.2979792,26.6838915 85.5431042,26.3327442 85.1157917,25.8660155 C84.9943333,25.7526357 84.9567917,25.7757519 84.9799792,25.9430698 C85.1069583,27.3102326 83.6185417,27.6184496 84.0292917,29.4501395 C84.0292917,29.4501395 83.1680417,28.9713023 80.6350833,28.7214264 C80.17575,28.6762946 79.6082083,28.7929767 79.7484375,29.2927287 C79.7738333,29.3785891 79.9803125,29.5106822 80.2729167,29.570124 C80.8150625,29.6515814 81.9225417,29.927876 81.9225417,29.927876 C82.1809167,29.9906202 82.5044375,30.1006977 82.7318958,30.1711473 C83.3734167,30.368186 82.9737083,30.5377054 82.9737083,30.5377054 C82.1235,30.8646357 81.9545625,30.9174729 81.6465,31.1233178 C81.6277292,31.1398295 81.4908125,31.2234884 81.3229792,31.2366977 C80.9950417,31.2642171 80.6781458,31.1640465 80.666,30.8173023 C80.65275,30.618062 80.666,30.5685271 80.7090625,30.4463411 C80.8150625,30.2052713 79.6269792,29.9069612 79.1797917,29.8244031 C78.2754792,29.6548837 76.9118333,29.5954419 75.7745417,29.7165271 C75.5216875,29.7242326 74.1282292,29.8695349 73.9515625,30.4287287 C74.3965417,29.9851163 75.3339792,30.0544651 75.5404583,30.1304186 C75.7347917,31.788186 76.1124167,31.969814 77.7101458,32.2835349 L81.918125,32.9495039 C82.9151875,33.0782946 82.8445208,34.0348682 82.2460625,33.9853333 L80.7863542,33.849938 L80.2000417,33.7971008 L80.0333125,33.7827907 C79.1775833,33.2951473 78.0447083,32.8174109 76.5905208,33.3292713 C76.2195208,33.4305426 75.5868333,33.3182636 74.935375,32.8713488 C75.2036875,32.6269767 75.5084375,32.331969 75.5757917,32.0622791 C75.5757917,32.0622791 74.0222292,32.7876899 73.4149375,31.5812403 C73.3575208,32.7722791 73.9140208,33.5417209 75.3637917,34.0590853 C75.3339792,33.7574729 75.26,33.5042946 75.0380625,33.3094574 C75.2710417,33.4657674 75.5470833,33.5956589 75.8937917,33.6760155 C76.5154375,33.8169147 77.081875,33.6473953 77.2596458,33.6011628 C77.2596458,33.619876 77.2574375,33.6352868 77.2574375,33.6562016 C77.2198958,33.9886357 77.081875,34.9000775 76.5540833,35.2864496 C76.4999792,35.313969 76.5077083,35.3491938 76.5695417,35.3524961 C77.7068333,35.446062 78.2765833,35.0057519 78.2765833,35.0057519 C78.2765833,35.0057519 78.2865208,35.8610543 77.87025,36.2331163 C77.8216667,36.2694419 77.8426458,36.3024651 77.8801875,36.3024651 C80.4197708,36.3156744 80.7432917,35.392124 84.588,35.2567287 C84.6376875,35.2523256 84.6597708,35.2325116 84.6752292,35.2027907 C84.9214583,34.6711163 85.4095,33.9534109 85.9958125,33.7013333 C86.0234167,33.688124 86.0311458,33.6716124 86.0013333,33.644093 C85.3752708,32.9704186 85.4536667,31.7705736 85.4658125,31.3610853 C85.47575,31.2697209 85.5166042,31.2818295 85.5453125,31.3412713 C85.9936042,32.2648217 86.4971042,33.2268992 87.874,33.5075969 C87.9292083,33.512 87.9292083,33.5362171 87.8927708,33.5494264 C86.2718542,34.2264031 85.7032083,35.8258295 85.6049375,36.3343876 C85.0506458,36.1505581 84.6133958,36.1571628 84.15075,36.2661395 C84.1032708,36.2848527 84.1098958,36.3035659 84.1485417,36.3233798 C84.6133958,36.5567442 84.9181458,36.7350698 85.0396042,37.3327907 C85.1367708,37.8655659 85.0064792,38.3532093 84.3947708,38.8573643 L69.2963958,49.6405581 C68.6305833,50.1557209 68.4682708,51.2443876 68.1568958,52.2780155 C67.9493125,53.2103721 67.3729375,57.3503876 70.364125,57.9117829 C70.721875,57.9679225 71.5201875,58.1495504 72.0943542,57.4230388 C72.0943542,57.4230388 71.8138958,57.5066977 71.583125,57.3944186 C71.583125,57.3944186 71.7542708,56.9530078 71.00675,56.9331938 C70.4546667,56.9199845 70.5518333,56.3233643 70.5518333,56.3233643 C70.5518333,56.3233643 71.6018958,56.6855194 72.0501875,55.8819535 C72.0501875,55.8830543 71.7763542,55.9898295 71.51025,55.8742481 C71.5985833,54.6611938 69.264375,56.452155 69.7789167,53.0012248 C70.2172708,51.7133178 71.0707917,51.9488837 71.5798125,52.1217054 C72.0645417,52.2857209 72.2246458,51.9874109 72.2555625,51.8277984 C72.4675625,51.8652248 72.7380833,52.1360155 72.7380833,52.1360155 C72.5945417,51.2289767 71.7962292,50.8976434 70.5849583,50.5575039 L71.3633958,50.0984806 L74.1414792,48.813876 C74.1414792,48.813876 75.9633542,52.4288217 78.592375,54.9396899 C76.7870625,54.9396899 75.9180833,55.1048062 75.24675,55.4097209 C75.24675,55.4097209 74.92875,55.5087907 74.6140625,55.9535039 C74.2574167,56.462062 73.9515625,57.3030543 74.5157917,58.6493023 C74.935375,59.6510078 75.8308542,60.9202016 77.5356875,62.5097209 C79.0881458,63.9385271 80.0211667,65.9232248 77.1238333,67.087845 C76.2824583,67.4235814 75.4488125,67.5105426 75.0623542,67.6470388 C75.0623542,67.6470388 73.6512292,67.2397519 72.749125,66.7928372 C71.954125,66.3987597 70.8687292,66.4890233 70.1101667,67.0427132 C69.9478542,67.1990233 69.8849167,67.2650698 69.8396458,67.3740465 C69.6033542,67.8110543 69.542625,68.1192713 69.8098333,68.6223256 C69.8098333,68.6223256 70.0582708,67.8914109 70.3928333,67.998186 C71.1370417,68.5926047 70.8201458,67.5193488 71.7918125,67.8947132 C71.7918125,67.8947132 71.0288333,68.2810853 71.5047292,69.2585736 C71.5047292,69.2596744 71.7034792,68.5837984 71.9651667,68.6971783 C72.9180625,69.1121705 72.1882083,68.1787132 74.359,68.8094574 L77.1105833,69.9575659 C77.3766875,70.0665426 77.9144167,70.3131163 78.6012083,70.7193023 C78.8065833,70.0357209 77.7233958,69.2882946 77.5997292,69.2046357 C77.5997292,69.2046357 79.3288542,67.2518605 80.9873125,66.4350853 C81.3594167,66.2534574 81.7105417,66.1070543 81.9600833,65.9100155 C82.3388125,65.5291473 82.3774583,65.0238915 81.7304167,64.2225271 C81.5879792,64.0882326 78.1606458,60.7055504 77.0399167,59.2426202 C75.9191875,57.7730853 75.9048333,56.9210853 76.9007917,56.6568992 L80.8283125,56.3486822 C80.858125,56.3607907 82.3719375,56.2606202 83.1857083,56.2000775 C83.3712083,56.1582481 83.3259375,56.0294574 83.1956458,55.9986357 C81.8894167,55.4768682 78.2699583,53.6451783 75.4973958,48.4814419 C76.7605625,48.0543411 78.0601667,48.4297054 78.652,48.6509612 C78.8165208,48.7236124 79.0263125,48.7445271 79.1941458,48.6476589 L80.8526042,47.5523876 C80.7664792,47.8517984 80.4650417,48.5320775 80.2662917,48.9437674 C80.1481458,49.2090543 80.2574583,49.3477519 80.3126667,49.4369147 C81.2202917,50.9020465 82.2405417,52.4024031 83.8139792,53.8345116 C83.9663542,53.9688062 84.1154167,54.1306202 84.250125,54.307845 C84.9545833,55.2005736 85.1069583,56.6051628 83.7963125,58.5458295 L83.7300625,58.6493023 C83.5235833,58.9949457 83.1558958,59.7996124 83.316,60.981845 C83.35575,61.2581395 83.4264167,61.5630543 83.5268958,61.8811783 C83.5721667,62.0374884 83.6185417,62.1982016 83.6726458,62.3633178 C84.3583333,64.5164341 87.178375,67.4852248 91.2472292,69.8067597 C91.4459792,69.9201395 91.643625,70.0269147 91.842375,70.1413953 L90.0746042,74.4256124 C90.0746042,74.4256124 89.0322708,74.1944496 88.1301667,73.6902946 C87.4842292,73.3281395 86.2983542,73.1178915 85.4967292,73.6110388 C85.3211667,73.751938 85.3189583,73.7640465 85.1986042,73.9192558 C84.9302917,74.4168062 84.959,74.8846357 85.2019167,75.2027597 C85.2019167,75.2027597 85.5188125,74.3320465 85.701,74.5863256 C86.3933125,75.2368837 86.1106458,74.3353488 86.8780417,74.6754884 C86.8780417,74.6754884 86.3093958,75.3117364 86.8261458,75.9986202 C86.8261458,75.9986202 86.9851458,75.3799845 87.2744375,75.5087752 C88.1875833,75.9986202 87.4985833,75.0255349 89.6119583,75.8291008 C89.6119583,75.8291008 92.02125,77.0157364 93.7658333,77.0806822 C93.5869583,76.5049767 92.3944583,75.7619535 92.3944583,75.7619535 C92.5192292,73.2235659 93.3175417,70.7093953 93.9877708,69.2717829 C94.7684167,67.6096124 91.3896667,68.0102946 91.034125,66.2094264 L90.6841042,63.8108372 C90.1938542,60.8277364 90.0977917,59.9162946 89.6241042,58.4896899 C89.2299167,57.3030543 88.0363125,54.7470543 88.0959375,54.3485736 C88.1213333,54.2704186 88.2162917,54.3177519 88.3024167,54.3804961 C88.8456667,54.9044651 91.060625,57.4197364 91.3565417,63.2582481 C91.3565417,63.2582481 91.352125,63.3584186 91.6071875,63.5917829 C94.4382708,66.191814 97.9958958,65.7283876 99.1839792,64.4272713 C101.483958,61.9097984 99.693,59.1666667 98.5844167,58.0614884 C97.473625,56.9541085 97.1810208,56.0536744 97.3598958,55.1389302 C97.433875,54.7646667 97.5089583,54.6666977 97.5089583,54.6666977 C97.6734792,54.3948062 97.9627708,54.2087752 98.3006458,54.2087752 C98.8173958,54.2087752 99.2325625,54.625969 99.2325625,55.1378295 C99.2325625,55.6496899 98.8173958,56.0613798 98.3006458,56.0613798 C98.3006458,56.0613798 98.3337708,56.6943256 99.116625,57.3889147" id="Fill-69" sketch:type="MSShapeGroup"></path>
            <path d="M58.3265,4.98100775 C57.73025,7.19246512 58.4137292,9.30265116 59.8215417,10.7864961 C60.0478958,11.0099535 60.3128958,10.8492403 60.1296042,10.5817519 C58.6069583,7.76706977 58.6478125,5.79888372 58.6102708,4.85992248 C58.6102708,4.59573643 58.439125,4.60894574 58.3265,4.98100775" id="Fill-70" sketch:type="MSShapeGroup"></path>
            <path d="M59.3390208,13.367814 C58.4037917,14.395938 58.2580417,16.0063721 58.558375,17.2106202 C58.6235208,17.4737054 58.929375,17.4241705 58.9006667,17.2249302 C58.8675417,15.282062 59.4074792,13.9325116 59.6492917,13.4217519 C59.7387292,13.2379225 59.5046458,13.1916899 59.3390208,13.367814" id="Fill-71" sketch:type="MSShapeGroup"></path>
            <path d="M61.6169167,11.6924341 C60.0225,11.5955659 58.2988958,12.0909147 57.6452292,12.5785581 C57.3747083,12.735969 57.5845,13.2610388 57.9974583,13.010062 C58.187375,12.8966822 59.0342708,12.2197054 61.6091875,11.8652558 C61.7825417,11.8377364 61.804625,11.7034419 61.6169167,11.6924341" id="Fill-72" sketch:type="MSShapeGroup"></path>
            <path d="M51.1405833,22.7266047 C51.429875,22.7144961 51.7401458,22.7893488 51.9830625,22.2246512 C52.4059583,21.0831473 52.4534375,19.1975194 51.1461042,18.3356124 C49.0658542,16.9563411 50.2992083,16.2463411 51.3205625,14.9309147 C56.8314583,8.37469767 59.0033542,0.855302326 59.1203958,0.506356589 C59.2263958,0.157410853 59.1314375,-0.00550387597 58.9150208,0.487643411 C56.2429375,7.77697674 50.4283958,13.6176899 49.495375,14.7415814 C48.56125,15.8676744 46.5858958,17.3184961 49.1166458,18.8232558 C51.0875833,19.9966822 50.46925,21.407876 50.1766458,22.1894264 C50.078375,22.4525116 50.138,22.7420155 50.4725625,22.7321085 L51.1405833,22.7266047" id="Fill-73" sketch:type="MSShapeGroup"></path>
            <path d="M60.0975833,18.7869302 C58.796875,18.0020775 57.4398542,17.4648992 56.2296875,17.0862326 C57.1030833,13.0761085 56.8469167,9.82772093 56.8215208,9.64829457 C56.7861875,9.3852093 56.6470625,9.14964341 56.5940625,9.656 C56.3577708,12.0931163 55.7924375,14.6193953 55.15975,16.7824186 C54.6573542,16.6514264 54.1980208,16.5490543 53.8060417,16.4664961 C52.8840625,16.2705581 52.2955417,16.2540465 52.0747083,16.5919845 C51.8196458,16.898 51.999625,17.3184961 52.5241042,17.3999535 C53.2926042,17.4516899 54.0942292,17.5661705 54.8770833,17.7114729 C54.1693125,19.9537519 53.4251042,21.6786667 52.9911667,22.2917984 C52.841,22.4866357 52.9083542,22.685876 53.2915,22.7420155 C54.2333542,22.8730078 54.3360417,22.5669922 54.4365208,22.3611473 C55.1553333,20.8817054 55.6654583,19.3780465 56.027625,17.945938 C58.0228542,18.3928527 59.6835208,18.9520465 59.9816458,19.072031 C60.4498125,19.2602636 60.4696875,18.9729612 60.0975833,18.7869302" id="Fill-74" sketch:type="MSShapeGroup"></path>
            <path d="M58.1796458,19.1997209 C56.8966042,19.7313953 56.0530208,21.3 55.809,22.5119535 C55.7548958,22.7816434 56.0033333,22.8675039 56.1159583,22.675969 C56.9109583,20.9015194 58.0029792,19.7468062 58.4446458,19.3813488 C58.5837708,19.2448527 58.4082083,19.1127597 58.1796458,19.1997209" id="Fill-75" sketch:type="MSShapeGroup"></path>
            <path d="M32.1853542,16.0063721 C32.3752708,16.9871628 32.4514583,17.6465271 33.7179375,18.078031 C33.80075,18.1143566 33.8780417,18.078031 33.8294583,17.9514419 C33.0708958,16.1560775 34.006125,15.717969 34.1176458,15.6530233 C34.1805833,15.6177984 35.3532083,14.9914574 37.1165625,16.1560775 C37.2888125,16.2705581 37.292125,16.1802946 37.2247708,16.0812248 C36.3425417,14.7272713 35.1765417,13.6815349 33.4308542,13.6353023 C32.118,13.6033798 29.4415,14.5764651 28.056875,13.4988062 C27.9828958,13.4371628 27.8945625,13.4426667 27.9530833,13.5648527 C28.865125,15.4273643 30.6052917,16.5820775 32.1853542,16.0063721" id="Fill-76" sketch:type="MSShapeGroup"></path>
            <path d="M32.1411875,23.5764031 C31.7260208,23.2670853 30.9288125,22.2334574 31.316375,21.309907 C31.316375,21.3110078 31.5372083,20.0913488 33.3414167,19.7842326 C33.4087708,19.7809302 33.423125,19.738 33.3546667,19.7093798 C32.2162708,19.2558605 31.0767708,19.3780465 29.8798542,20.4424961 C28.9898958,21.2471628 27.5820833,23.7073953 26.2173333,23.6281395 C26.1698542,23.6248372 26.1599167,23.660062 26.1985625,23.6820775 C27.7278333,24.5087597 29.2074167,24.3106202 30.0256042,22.8983256 C30.5556042,23.493845 30.9288125,23.9528682 32.1168958,23.6402481 C32.1743125,23.6226357 32.1743125,23.5995194 32.1411875,23.5764031" id="Fill-77" sketch:type="MSShapeGroup"></path>
            <path d="M39.5457292,31.763969 C39.5081875,31.9213798 39.5876875,31.9312868 39.6892708,31.827814 C40.5162917,31.0022326 41.121375,30.4496434 42.5799792,30.0126357 C42.5799792,30.652186 42.4187708,31.7562636 43.2325417,32.890062 C43.2965833,32.9858295 43.3263958,32.9274884 43.3263958,32.8647442 C43.2369583,29.3752868 46.481,27.0614574 47.8247708,26.0784651 C47.9539583,25.9716899 47.8843958,25.9034419 47.627125,25.9496744 C46.3959792,26.2666977 45.4971875,26.5584031 44.7816875,26.8490078 C44.1512083,27.1087907 40.2722708,28.8028837 39.5457292,31.763969" id="Fill-78" sketch:type="MSShapeGroup"></path>
            <path d="M66.2709792,31.763969 C66.3085208,31.9213798 66.230125,31.9312868 66.1263333,31.827814 C65.2993125,31.0022326 64.6953333,30.4496434 63.2367292,30.0126357 C63.2367292,30.652186 63.3968333,31.7562636 62.5852708,32.890062 C62.5212292,32.9858295 62.4892083,32.9274884 62.4892083,32.8647442 C62.57975,29.3752868 59.3346042,27.0614574 57.9919375,26.0784651 C57.86275,25.9716899 57.9323125,25.9034419 58.1895833,25.9496744 C59.4207292,26.2666977 60.3173125,26.5584031 61.0350208,26.8490078 C61.6666042,27.1087907 65.5444375,28.8028837 66.2709792,31.763969" id="Fill-79" sketch:type="MSShapeGroup"></path>
            <path d="M37.0878542,26.1973488 C36.7411458,26.9678915 36.4121042,27.503969 36.5291458,28.6553798 C36.536875,28.7170233 36.57,28.6994109 36.5965,28.6586822 C38.166625,26.0432403 44.1236042,25.4157984 46.3297292,25.2044496 C46.4390417,25.187938 46.6190208,25.0976744 46.3871458,25.0206202 C44.5310417,24.3623566 42.5810833,23.1757209 42.5810833,23.1757209 C41.5972708,22.5526822 39.1703125,20.5448682 41.3609792,18.5326512 C41.399625,18.4985271 41.3885833,18.4787132 41.3344792,18.4831163 C40.5019375,18.5898915 39.0665208,18.9817674 39.186875,20.448 C38.4404583,18.0989457 37.8563542,17.2315349 35.8158542,16.7471938 C35.7120625,16.7240775 35.6513333,16.7571008 35.7253125,16.8484651 C36.5181042,17.7720155 37.384875,19.2085271 37.4621667,20.732 C36.8383125,20.3907597 35.0583958,19.9207287 33.3844792,21.0171008 C33.3358958,21.0424186 33.303875,21.0952558 33.3977292,21.1007597 C34.8762083,21.104062 36.0377917,20.9983876 38.2041667,22.4371008 C39.4640208,23.3881705 42.3315417,24.5417829 43.3186667,24.5891163 C40.9524375,24.8334884 35.7970833,25.2892093 34.4709792,23.1548062 C34.4555208,23.1217829 34.4201875,23.1140775 34.3914792,23.1437984 C33.8095833,23.5841085 33.9487083,24.2963101 34.8397708,24.8334884 C33.48275,25.2044496 32.1798333,25.4135969 31.4025,27.6977054 C31.3616458,27.8154884 31.4234792,27.7758605 31.4808958,27.7296279 C32.535375,26.8269922 34.4135625,25.790062 37.0878542,26.1973488" id="Fill-80" sketch:type="MSShapeGroup"></path>
            <path d="M71.6328125,15.6530233 C71.7531667,15.7190698 72.6861875,16.1582791 71.927625,17.9514419 C71.874625,18.078031 71.9552292,18.1143566 72.0413542,18.078031 C73.299,17.6465271 73.3829167,16.9871628 73.570625,16.0063721 C75.1517917,16.5820775 76.8930625,15.4273643 77.8073125,13.5648527 C77.8603125,13.4426667 77.7719792,13.4382636 77.7035208,13.499907 C76.3155833,14.5753643 73.6401875,13.6033798 72.3273333,13.6353023 C70.5783333,13.6837364 69.4123333,14.7272713 68.535625,16.0812248 C68.4649583,16.1802946 68.4726875,16.2705581 68.6372083,16.1582791 C70.403875,14.9936589 71.5731875,15.6188992 71.6328125,15.6530233" id="Fill-81" sketch:type="MSShapeGroup"></path>
            <path d="M79.5408542,23.6281395 C78.1705833,23.7073953 76.7671875,21.246062 75.8728125,20.4424961 C74.6781042,19.3780465 73.5419167,19.2536589 72.4013125,19.7115814 C72.3372708,19.738 72.3494167,19.7809302 72.4156667,19.7842326 C74.2165625,20.0913488 74.4407083,21.3121085 74.4407083,21.3121085 C74.8238542,22.2334574 74.02775,23.2670853 73.6147917,23.5753023 C73.5816667,23.5995194 73.5816667,23.6226357 73.6423958,23.6402481 C74.8238542,23.9528682 75.1992708,23.493845 75.7314792,22.8983256 C76.5485625,24.3106202 78.0215208,24.5087597 79.5563125,23.6820775 C79.6004792,23.660062 79.5850208,23.6248372 79.5408542,23.6281395" id="Fill-82" sketch:type="MSShapeGroup"></path>
            <path d="M70.9151042,24.8334884 C71.8094792,24.2963101 71.9463958,23.5841085 71.3689167,23.1437984 C71.3346875,23.1162791 71.2993542,23.1217829 71.2872083,23.1537054 C69.96,25.2892093 64.8013333,24.8334884 62.4384167,24.5891163 C63.4255417,24.5417829 66.2930625,23.385969 67.5496042,22.4371008 C69.7181875,20.9972868 70.8775625,21.104062 72.3604583,21.0985581 C72.4498958,21.0952558 72.4200833,21.0424186 72.3748125,21.0171008 C70.6975833,19.9218295 68.919875,20.3929612 68.297125,20.732 C68.3688958,19.2085271 69.2367708,17.7720155 70.0284583,16.8484651 C70.099125,16.7593023 70.0428125,16.7240775 69.9357083,16.7471938 C67.8985208,17.2315349 67.3155208,18.0989457 66.5668958,20.448 C66.6894583,18.9817674 65.2584583,18.5898915 64.4203958,18.4820155 C64.3662917,18.4787132 64.35525,18.5007287 64.3927917,18.5326512 C66.5823542,20.5448682 64.1598125,22.5526822 63.1782083,23.1757209 C63.1793125,23.1757209 61.2271458,24.3612558 59.3677292,25.0206202 C59.1402708,25.0976744 59.3169375,25.187938 59.4284583,25.2044496 C61.6334792,25.4157984 67.5926667,26.0443411 69.1605833,28.6608837 C69.1837708,28.7016124 69.2213125,28.7170233 69.2290417,28.6564806 C69.3449792,27.503969 69.0148333,26.9678915 68.6692292,26.1973488 C71.3457292,25.7911628 73.2272292,26.8269922 74.2750833,27.7296279 C74.3269792,27.7758605 74.392125,27.8154884 74.3512708,27.6977054 C73.570625,25.4135969 72.2754375,25.2044496 70.9151042,24.8334884" id="Fill-83" sketch:type="MSShapeGroup"></path>
            <path d="M50.8479792,24.6551628 C50.9318958,24.8334884 51.1615625,24.982093 51.3603125,24.982093 L51.9753333,24.9886977 C52.1751875,24.9886977 52.2690417,24.8433953 52.1829167,24.6606667 L51.8384167,23.9121395 C51.7533958,23.7305116 51.522625,23.581907 51.3205625,23.581907 L50.7132708,23.5786047 C50.5101042,23.5786047 50.4173542,23.7217054 50.5034792,23.9011318 L50.8479792,24.6551628" id="Fill-84" sketch:type="MSShapeGroup"></path>
            <path d="M53.5211667,24.663969 C53.6017708,24.8455969 53.8358542,24.992 54.0357083,24.9964031 L54.6518333,24.9986047 C54.8538958,25.0008062 54.941125,24.8522016 54.8649375,24.6727752 L54.5138125,23.9055349 C54.4298958,23.723907 54.1980208,23.5808062 54.0014792,23.5808062 L53.38425,23.581907 C53.1877083,23.5841085 53.0938542,23.7316124 53.1777708,23.9143411 L53.5211667,24.663969" id="Fill-85" sketch:type="MSShapeGroup"></path>
            <path d="M55.9094792,24.1928372 L56.1214792,24.6584651 C56.2009792,24.8334884 56.3875833,24.9942016 56.6150417,24.9831938 C56.7066875,24.982093 56.769625,24.9534729 56.769625,24.9534729 C57.0688542,24.8764186 57.299625,24.6144341 57.299625,24.291907 C57.3051458,23.9011318 56.9904583,23.5885116 56.5984792,23.581907 L56.5940625,23.581907 L55.9867708,23.5808062 C55.7858125,23.5808062 55.6941667,23.7250078 55.7791875,23.9066357 L55.9094792,24.1928372" id="Fill-86" sketch:type="MSShapeGroup"></path>
            <path d="M49.1751667,24.9182481 C49.25025,24.9490698 49.3573542,24.957876 49.3573542,24.957876 C49.51525,24.9391628 49.5815,24.8048682 49.508625,24.6342481 L49.1232708,23.7932558 C49.0956667,23.7250078 49.0735833,23.6820775 49.0459792,23.6765736 C48.9896667,23.6688682 48.7346042,23.8141705 48.7047917,24.2610853 C48.6838125,24.5648992 48.9024375,24.8235814 49.1751667,24.9182481" id="Fill-87" sketch:type="MSShapeGroup"></path>
            <path d="M53.3135833,31.0968992 C53.2627917,31.1464341 53.14575,31.2113798 52.9282292,31.0770853 C52.781375,30.9890233 52.1575208,30.2437984 52.0360625,29.3642791 C52.0195,29.2542016 52.0106667,29.1353178 52.0106667,28.9867132 C52.0106667,28.3438605 52.2469583,27.3751783 52.6146458,27.3168372 C52.6212708,27.3168372 52.7780625,27.2882171 52.8774375,27.3784806 C52.9381667,27.4335194 52.9657708,27.5160775 52.9580417,27.6228527 L52.9447917,27.7087132 L52.940375,27.7406357 C52.9171875,27.8430078 52.8498333,28.150124 52.8498333,28.5750233 C52.8498333,28.7643566 52.8663958,28.958093 52.8962083,29.1694419 L52.8973125,29.1694419 C53.0077292,29.981814 53.2396042,30.4474419 53.33125,30.6312713 C53.41075,30.7644651 53.424,30.9868217 53.3135833,31.0968992 L53.3135833,31.0968992 Z M51.7644375,31.7067287 C51.6485,31.7947907 51.4519583,31.7595659 51.3481667,31.6693023 C51.1681875,31.5118915 50.4648333,30.7171318 50.3190833,29.6802016 C50.3003125,29.5348992 50.2892708,29.3917984 50.2892708,29.242093 C50.2892708,28.3372558 50.6315625,27.3663721 50.9617083,27.317938 L51.0014583,27.3124341 C51.2013125,27.3124341 51.3073125,27.4071008 51.3073125,27.5854264 L51.2929583,27.7527442 C51.2763958,27.8353023 51.1935833,28.2723101 51.1935833,28.7610543 C51.1935833,29.0109302 51.2090417,29.2475969 51.23775,29.4633488 C51.376875,30.4463411 51.6562292,31.0022326 51.761125,31.2113798 L51.7666458,31.2234884 C51.8284792,31.3456744 51.8494583,31.4392403 51.8494583,31.5118915 C51.8494583,31.6186667 51.8041875,31.675907 51.7644375,31.7067287 L51.7644375,31.7067287 Z M50.1523542,32.2494109 C50.0816875,32.3022481 49.9547083,32.3275659 49.7460208,32.1536434 C49.5583125,31.9962326 48.7633125,31.1057054 48.5976875,29.9377829 C48.5767083,29.7594574 48.5667708,29.5932403 48.5667708,29.4292248 C48.5667708,28.4528372 48.9399792,27.3674729 49.2955208,27.3168372 C49.3772292,27.3047287 49.4578333,27.3267442 49.5229792,27.3729767 C49.6102083,27.4379225 49.641125,27.538093 49.641125,27.6393643 C49.641125,27.6866977 49.6356042,27.7296279 49.6256667,27.7725581 C49.5936458,27.9288682 49.5097292,28.3438605 49.5097292,28.9019535 C49.5097292,29.1584341 49.5285,29.4292248 49.5660417,29.7022171 C49.7261458,30.833814 50.051875,31.4733643 50.1600833,31.6847132 L50.2009375,31.773876 L50.2274375,31.842124 C50.2826458,31.9654109 50.2627708,32.1635504 50.1523542,32.2494109 L50.1523542,32.2494109 Z M50.1600833,31.6847132 L50.157875,31.6825116 L50.1600833,31.6847132 L50.1600833,31.6847132 Z M56.5797083,25.8417984 L49.5759792,25.8528062 L49.3982083,26.456031 L49.1530833,26.4747442 C48.6065208,26.5275814 48.4110833,26.5892248 48.2079167,26.9855039 C48.2079167,26.9855039 46.6841667,29.8508217 48.7092083,32.3605891 C49.0172708,32.7370543 49.5472708,33.2599225 49.8763125,33.3182636 C50.2141875,33.8015039 51.0301667,33.6264806 51.0301667,33.6264806 C51.8052917,33.4415504 54.384625,32.4035194 55.3275833,31.6230698 C56.3080833,30.8117984 56.9308333,30.4826667 56.5797083,25.8417984 L56.5797083,25.8417984 Z" id="Fill-88" sketch:type="MSShapeGroup"></path>
        </g>
    </g>
</svg>