<?xml version="1.0" encoding="UTF-8" standalone="no"?>
<svg width="250px" height="150px" viewBox="0 0 250 150" version="1.1" xmlns="http://www.w3.org/2000/svg" xmlns:xlink="http://www.w3.org/1999/xlink" xmlns:sketch="http://www.bohemiancoding.com/sketch/ns">
    <!-- Generator: Sketch 3.2.2 (9983) - http://www.bohemiancoding.com/sketch -->
    <title>cityuni</title>
    <desc>Created with Sketch.</desc>
    <defs></defs>
    <g id="Page-1" stroke="none" stroke-width="1" fill="none" fill-rule="evenodd" sketch:type="MSPage">
        <g id="Group" sketch:type="MSLayerGroup" transform="translate(29.000000, 48.000000)" fill="#888C85">
            <path d="M47.2580225,49.7706 C47.5487191,49.5671 48.3029888,48.8202 48.3899775,47.6905 C46.3881348,49.4296 43.529618,48.6244 43.529618,48.6244 C43.529618,48.6244 46.8660225,47.5167 44.1231236,43.7756 C44.2982022,47.212 40.6556854,47.6487 37.8984719,47.6465 C35.9076404,47.6454 34.0665618,47.8698 32.7606292,48.4297 C35.0773933,45.1396 36.5484944,41.525 36.9482022,38.8047 C37.0880449,37.8488 37.1959551,36.9413 37.2807416,36.0591 C37.2862472,36.0877 37.2906517,36.1185 37.2950562,36.146 C37.5560225,37.5661 38.0944719,38.1898 40.4883146,39.1908 C42.8832584,40.1907 42.7434157,41.7626 41.4958427,42.7262 C43.3534382,43.2531 44.6582697,40.447 42.6608315,37.9192 C42.8568315,37.7553 43.716809,36.5607 42.5639326,35.1032 C41.9682247,36.1856 40.6479775,36.5607 39.7913034,36.3781 C41.5619101,37.2185 42.4328989,36.0448 42.5771461,35.8556 C43.0561348,36.9875 42.4549213,37.9071 41.8801348,37.9148 C42.8678427,38.6683 43.5428315,39.5571 43.3137978,40.975 C43.1365169,39.9421 40.7845169,39.0698 39.5589663,38.3647 C38.6009888,37.8136 38.0361124,36.2989 39.3937978,35.5311 C40.7514831,34.7644 42.0904494,34.1594 43.1299101,33.1012 C43.3027865,33.8261 44.028427,35.4805 46.7437978,36.2758 C43.6804719,31.7405 47.9175955,31.5359 45.828764,27.39 C45.4797079,31.3324 39.9950112,32.2608 39.9950112,32.2608 C44.5657753,30.4337 46.0181573,27.7453 45.1757978,25.0855 C44.616427,23.32 42.9184944,21.5699 39.2396404,20.3742 C39.966382,20.2279 40.4728989,20.0332 40.8505843,19.6911 C38.674764,20.1993 38.0570337,20.1278 37.1210787,19.9969 C41.6224719,21.2421 43.9469438,22.7832 44.4061124,24.8688 C44.6329438,25.894 44.4633708,26.7685 44.0691685,27.4538 C43.2554382,24.7225 38.9852809,23.5752 37.4260899,23.2716 C37.4216854,24.156 37.0572135,24.7115 36.5385843,25.0448 L33.7857753,24.6257 C34.0709663,24.2913 34.2328315,23.7743 34.0962921,23.2078 C33.8782697,22.3069 32.9742472,21.1981 30.4361573,19.437 C30.4526742,19.2192 30.4735955,19.008 30.4945169,18.8056 C31.6209663,19.7054 33.7978876,20.856 35.7424719,21.3785 C34.1986966,20.7174 31.7619101,19.4788 30.5517753,18.2512 C30.5561798,18.2061 30.5616854,18.1588 30.5649888,18.1137 C30.5782022,17.9652 30.5870112,17.8134 30.5969213,17.6638 C32.8222921,19.3424 34.7382472,19.7252 35.4374607,19.7252 C34.3528539,19.4304 30.1014157,17.4735 28.0588315,14.2813 C28.5036854,14.2945 28.9474382,14.311 29.3834831,14.3275 C29.6114157,14.6894 30.5737978,16.1128 32.3212809,17.391 C30.7642921,15.8983 30.1762921,14.3033 30.1762921,14.3033 L30.1586742,14.3022 C30.7202472,14.1713 30.8336629,13.7192 30.8314607,13.5047 C30.8248539,13.1626 30.6640899,12.4047 28.7624494,12.5092 C28.7349213,12.5103 28.6996854,12.5103 28.6688539,12.5103 C28.3550337,12.408 27.5974607,12.199 26.629573,12.166 C26.5425843,11.6226 26.1065393,11.3608 25.8885169,12.166 C25.1430562,12.2331 24.4042022,12.4091 24.1102022,12.485 C23.6829663,12.4465 23.1555281,12.4476 22.798764,12.5642 C21.9674157,12.617 21.640382,13.046 21.6271685,13.4717 C21.6161573,13.8798 21.8980449,14.2813 22.4221798,14.3275 C22.1424944,14.7642 21.0633933,16.412 20.1417528,17.4064 C20.7815056,17.0159 21.6084494,16.2019 21.6084494,16.2019 L21.6877303,16.0798 C21.5919326,16.3999 21.5104494,16.6859 21.4344719,16.8696 C21.2880225,17.017 21.0149438,17.1083 20.980809,17.1248 C20.945573,17.1424 20.713236,17.2436 20.6978202,17.413 C20.695618,17.4372 20.695618,17.4581 20.695618,17.4812 C19.3533483,18.9981 14.3035955,21.3708 12.2191685,22.3575 C14.5073034,21.3961 17.4770337,20.5018 20.704427,18.1093 C20.7275506,18.2875 20.7693933,18.4382 20.8200449,18.568 C19.6594607,19.7318 17.9362022,20.68 16.8769213,21.4357 C18.5076854,20.7812 20.0305393,19.6625 21.0545843,18.9728 C21.1228539,19.052 21.1933258,19.1092 21.2593933,19.1455 C21.3397753,19.1774 21.5500899,19.1928 21.6381798,19.2038 C21.7273708,19.2819 21.8165618,19.3941 21.9057528,19.5217 C19.4711685,21.2256 18.5913708,22.3146 18.3799551,23.1979 C18.2401124,23.7765 18.4096854,24.3023 18.7069888,24.6356 L15.9607865,25.0536 C15.4300449,24.7214 15.0534607,24.1615 15.0490562,23.2628 C13.488764,23.5664 9.21860674,24.7126 8.4048764,27.4439 C8.01067416,26.7586 7.84220225,25.8841 8.06793258,24.8567 C8.52820225,22.7744 10.8537753,21.2322 15.3529663,19.987 C14.4181124,20.1168 13.800382,20.1894 11.6234607,19.6812 C12.0011461,20.0222 12.5098652,20.218 13.2344045,20.3643 C9.55555056,21.56 7.8587191,23.3101 7.29934831,25.0756 C6.45698876,27.7354 7.90826966,30.4238 12.4801348,32.2509 C12.4801348,32.2509 6.99433708,31.3225 6.64638202,27.3801 C4.55644944,31.526 8.79357303,31.7295 5.73244944,36.267 C8.44561798,35.4695 9.17125843,33.8162 9.34633708,33.0913 C10.3835955,34.1495 11.7225618,34.7545 13.0813483,35.5212 C14.4401348,36.289 13.8741573,37.8026 12.9161798,38.3537 C11.6895281,39.0588 9.19988764,40.0213 9.17125843,41.008 C8.91029213,39.5857 9.60620225,38.6584 10.5939101,37.9049 C10.0213258,37.8983 9.41791011,36.9765 9.89689888,35.8468 C10.0422472,36.0338 10.913236,37.2086 12.6827416,36.3682 C11.8271685,36.5497 10.5069213,36.1757 9.91231461,35.0922 C8.75833708,36.5497 9.61721348,37.7454 9.81321348,37.9071 C9.47847191,38.357 8.17364045,40.1643 9.18777528,41.9661 C9.41460674,42.3676 10.0708764,43.0078 10.9715955,42.7174 C9.75265169,41.7615 9.59298876,40.1819 11.9868315,39.1798 C14.3806742,38.1799 14.9191236,37.5573 15.1789888,36.1361 C15.1844944,36.1086 15.1877978,36.08 15.1933034,36.0514 C15.279191,36.938 15.3871011,37.8466 15.5280449,38.8047 C15.9277528,41.5338 17.408764,45.166 19.7398427,48.4638 C18.4361124,47.9215 16.6203596,47.7037 14.6570562,47.7048 C11.8998427,47.707 8.25732584,47.2703 8.43130337,43.8339 C5.68840449,47.575 9.02701124,48.6838 9.02701124,48.6838 C9.02701124,48.6838 6.16739326,49.4879 4.16555056,47.7488 C4.25253933,48.8785 5.00680899,49.6254 5.29640449,49.8289 C5.0354382,49.8575 2.20665169,50.2271 0.697011236,47.85 C1.65388764,53.7361 10.5939101,50.633 11.9868315,49.9301 C11.4208539,50.4669 10.2745843,51.9607 11.4065393,53.0035 C11.4351685,51.5317 13.0031685,50.7793 13.408382,50.6979 C13.5977753,51.6186 14.4115056,52.1917 15.1503596,52.3655 C14.9752809,51.3799 15.1030112,49.7662 18.3865618,49.9455 C19.9633708,50.0302 21.5159551,51.0807 22.8196854,52.0971 C22.8582247,52.1268 22.8934607,52.1543 22.9308989,52.1829 C23.9483371,53.152 25.0516629,54.0254 26.237573,54.7503 C27.4146742,54.0309 28.509191,53.1652 29.5189213,52.2082 C29.5915955,52.151 29.6609663,52.0971 29.7347416,52.0399 L34.1678652,49.8872 C37.4525169,49.709 37.5791461,51.3216 37.4040674,52.3072 C38.1451236,52.1334 38.9566517,51.5603 39.1460449,50.6407 C39.5523596,50.7199 41.1192584,51.4745 41.1478876,52.9452 C42.2798427,51.9024 41.1346742,50.4086 40.5686966,49.8718 C41.961618,50.5758 50.9005393,53.6778 51.8585169,47.7917 C50.3488764,50.1688 47.5189888,49.7992 47.2580225,49.7706 M37.4833483,33.2728 C37.551618,31.9187 37.5769438,30.5734 37.5857528,29.1566 C37.8599326,30.1268 38.9643596,30.7824 39.4576629,30.8264 C38.3939775,31.5898 37.7971685,32.4368 37.4833483,33.2728 M37.7740449,23.8381 C40.474,24.497 43.1959775,25.7169 43.7498427,27.9114 C42.2974607,29.6461 39.2121124,29.6428 38.6307191,26.84 C38.0306067,27.3361 37.7156854,27.8135 37.5912584,28.2568 C37.5934607,27.3724 37.5934607,26.4561 37.5945618,25.4859 C37.4260899,25.4606 37.257618,25.4353 37.0891461,25.4111 C37.4525169,25.0668 37.7057753,24.5597 37.7740449,23.8381 M13.0174831,30.8154 C13.5096854,30.7725 14.6152135,30.1169 14.8882921,29.1456 C14.8982022,30.5624 14.9235281,31.9077 14.9906966,33.2618 C14.6779775,32.4269 14.0800674,31.5788 13.0174831,30.8154 M14.8805843,25.4859 C14.8816854,26.4528 14.8816854,27.3669 14.8849888,28.248 C14.7583596,27.8036 14.4434382,27.3251 13.844427,26.829 C13.2619326,29.6329 10.1776854,29.6351 8.72530337,27.9004 C9.27806742,25.7059 12.0011461,24.4871 14.7,23.8282 C14.7693708,24.5564 15.0259326,25.0657 15.3937079,25.41 C15.2230337,25.4353 15.0512584,25.4595 14.8805843,25.4859 M35.3581798,26.5243 C35.4253483,27.6232 35.4594831,28.7188 35.4638876,29.8056 C33.186764,29.5724 29.7512584,29.2347 26.237573,29.2204 C25.4601798,29.2237 24.6882921,29.2435 23.9307191,29.2732 C23.9395281,29.0004 23.9483371,28.7287 23.9571461,28.4592 C25.880809,27.8234 27.3607191,26.4671 28.2691461,25.8984 C30.8534831,25.9875 33.7175056,26.268 35.3581798,26.5243 M28.936427,23.0164 C28.2008764,22.4334 27.6084719,20.3566 28.3275056,18.8265 C28.4794607,18.4129 28.9804719,18.1533 28.9221124,18.4932 C28.5157978,19.7978 28.5587416,21.857 28.936427,23.0164 M30.1972135,24.6928 C30.8975281,24.3188 31.4921348,24.2682 31.8665169,24.3067 C31.8566067,24.4695 31.8951461,24.6422 32.0019551,24.8248 C31.377618,24.772 30.7764045,24.7291 30.1972135,24.6928 M33.2715506,22.9636 C33.6844719,23.4322 33.7901798,24.3386 33.2902697,24.4761 C33.0579326,24.4332 32.7242921,24.0702 32.8112809,23.3739 C32.5800449,23.4388 32.3686292,23.5477 32.2034607,23.6885 C32.010764,23.4949 31.7288764,23.3332 31.3754157,23.3178 C30.7312584,22.6292 30.486809,21.7613 30.4196404,20.8835 C31.3027416,21.5798 32.6362022,22.2409 33.2715506,22.9636 M30.7940225,23.2628 C30.2423596,23.2331 30.1762921,23.342 29.872382,23.4146 C29.1104045,22.2629 29.0245169,20.218 29.7193258,18.9717 C29.6620674,20.5084 29.8944045,22.6974 30.7940225,23.2628 M22.798764,12.8348 C23.2337079,12.738 23.7776629,12.7061 24.1806742,12.8139 C24.4306292,12.727 25.1386517,12.6511 25.551573,12.7919 C26.183618,12.6401 26.9753258,12.7006 27.2891461,12.8172 C27.6745393,12.6434 28.4100899,12.727 28.7294157,12.8348 C29.8613708,12.5642 30.4460674,13.1153 30.4460674,13.4706 C30.4460674,13.7236 30.3678876,13.7918 30.2368539,13.8644 C29.774382,14.1185 29.9054157,13.4112 28.9221124,13.1879 C29.3504494,13.4024 29.382382,13.8798 29.8613708,13.9777 C28.2614382,14.2274 28.5774607,12.9767 27.4234831,12.9767 C27.9167865,13.1219 27.992764,13.7236 28.4717528,13.9557 C26.8354831,14.1185 26.9775281,12.9118 25.7728989,12.9415 C26.3675056,13.1153 26.4148539,13.7203 27.0535056,13.9238 C25.3115281,14.1625 25.6000225,12.8546 24.3073034,12.9481 C24.9162247,13.2165 25.0296404,13.7379 25.6066292,13.8798 C23.9879775,14.311 24.0353258,12.9657 22.9716404,13.0746 C23.4506292,13.1945 23.6576404,13.7412 24.0496404,13.9007 C23.1357079,14.2384 23.1676404,13.4772 22.3836404,13.4882 C22.6897528,13.6081 22.8053708,13.8501 23.0883596,13.992 C21.5677079,14.2164 21.7637079,12.727 22.798764,12.8348 M21.782427,18.7979 C21.3243596,18.6604 20.998427,17.8992 21.1867191,17.4207 C21.2902247,17.3195 21.453191,17.303 21.6084494,17.16 C21.8848315,16.9026 21.8473933,15.6882 23.1753483,14.5354 C24.1476404,14.3176 25.5405618,14.245 26.3025393,14.3693 C26.3873258,14.4221 27.2913483,14.773 27.4851461,17.7254 C28.5157978,17.5945 29.0531461,17.4636 29.4440449,17.347 C28.0808539,18.4789 22.0819326,18.8881 21.782427,18.7979 M19.2035955,22.9526 C19.9380449,22.1177 21.6073483,21.3642 22.4287865,20.5425 C22.6710337,21.1816 22.851618,21.9494 22.8857528,22.6974 C22.5807416,23.089 21.5357753,23.3508 21.1867191,23.9294 C21.141573,24.1406 21.1096404,24.4332 21.1041348,24.7742 C20.8938202,24.7896 20.6813034,24.8061 20.464382,24.8248 C20.8762022,24.1406 20.3542697,23.5554 19.6638652,23.364 C19.7508539,24.0603 19.4172135,24.4222 19.1848764,24.4662 C18.6838652,24.3287 18.789573,23.4223 19.2035955,22.9526 M17.1169663,26.5243 C18.2224944,26.3527 19.8829888,26.1679 21.640382,26.0392 C21.6139551,27.0446 21.5743146,28.171 21.5500899,29.403 C19.8114157,29.5229 18.2423146,29.6791 17.0101573,29.8056 C17.0145618,28.7188 17.0497978,27.6232 17.1169663,26.5243 M14.7869888,51.8903 C13.0901573,51.1258 13.6054831,49.4439 14.3806742,49.0963 C11.261191,48.532 8.12629213,50.1611 6.86440449,50.1193 C8.14831461,49.8575 9.10629213,48.9445 11.0002247,48.7124 C9.19988764,48.3714 8.36523596,47.1394 8.50397753,46.255 C10.7932135,49.6331 16.7194607,47.0767 20.3685843,49.3273 C20.4808989,49.4747 20.6020225,49.6155 20.7176404,49.7607 C17.2457978,47.7158 13.9259101,49.7123 14.7869888,51.8903 M26.237573,52.899 C20.1120225,49.1106 17.4054607,41.0652 17.0508989,32.0914 C17.8172809,32.0155 19.5438427,31.8571 21.5313708,31.7416 C21.5577978,36.5211 22.0312809,42.4402 24.3656629,48.6189 C24.134427,45.166 23.805191,38.2085 23.8833708,31.636 C24.6684719,31.6129 25.4502697,31.603 26.1946292,31.6129 C26.2100449,31.603 26.2221573,31.5898 26.237573,31.5788 C26.2540899,31.5898 26.2651011,31.603 26.281618,31.6129 C29.7523596,31.5645 34.077573,31.9583 35.4231461,32.0914 C35.0696854,41.0652 32.3620225,49.1106 26.237573,52.899 M38.1737528,49.038 C38.9500449,49.3867 39.4653708,51.0686 37.7674382,51.832 C38.6329213,49.643 35.2700899,47.6333 31.7751236,49.7376 C31.8896404,49.5946 32.0085618,49.4549 32.1197753,49.3086 C35.7633933,46.9832 41.748,49.5957 44.0515506,46.1967 C44.189191,47.0811 43.3545393,48.3142 41.5553034,48.6541 C43.449236,48.8862 44.4061124,49.7992 45.6911236,50.0599 C44.4281348,50.1039 41.2943371,48.4737 38.1737528,49.038 M11.1158427,19.349 C14.1846742,19.9144 17.4340899,19.459 19.573573,17.7848 C18.8369213,18.2182 18.2489213,18.4129 17.1522022,18.5372 C13.9468315,18.898 13.1088764,17.2469 12.8137753,16.1447 C12.5968539,15.334 13.0615281,14.2065 13.6550337,14.1581 C14.6229213,14.0811 14.8530562,16.7827 14.8750787,17.457 C15.0699775,17.1083 16.2735056,15.8356 16.4562921,14.4782 C17.2623146,14.9028 17.6168764,16.0435 17.5089663,17.0005 C18.4008764,16.5 19.7948989,13.7819 17.9009663,11.6941 C18.3138876,11.0275 18.6365169,10.1717 18.3359101,9.3676 C16.9749213,10.6282 15.0633708,9.9539 13.292764,11.0275 C15.1217303,10.593 16.7899326,10.7811 17.9009663,10.1068 C18.0529213,10.5358 17.8789438,11.1716 17.3856404,11.7524 C19.0967865,12.9558 18.2048764,15.4055 17.8789438,15.8389 C17.8139775,14.5794 17.0002472,13.8105 16.1083371,13.7236 C16.1292584,14.1361 15.7890112,15.5221 15.1140225,16.3911 C14.9620674,13.7819 13.2057753,11.3751 10.7095281,12.5928 C12.276427,11.1144 14.7440449,11.4114 15.9409663,12.7589 C15.0424494,11.5159 14.0283146,11.2299 12.5935506,11.3828 C11.3911236,11.5104 10.5652809,12.2375 10.1358427,12.7358 C9.19988764,12.1 7.95231461,12.3321 7.58233708,12.694 C9.67226966,13.9986 8.73631461,15.4572 10.0114157,17.5032 C8.95323596,17.6528 6.89413483,19.052 6.50103371,19.8132 C7.73539326,19.1961 9.77907865,19.1026 11.1158427,19.349 M35.3218427,18.5471 C34.2262247,18.4228 33.6382247,18.2281 32.9004719,17.7947 C35.0410562,19.47 38.2893708,19.9243 41.3593034,19.3589 C42.6971685,19.1125 44.7397528,19.206 45.9730112,19.822 C45.5821124,19.0619 43.520809,17.6627 42.4648315,17.5142 C43.7377303,15.466 42.8028764,14.0085 44.892809,12.705 C44.5217303,12.342 43.2741573,12.111 42.3382022,12.7446 C41.9109663,12.2474 41.0829213,11.5203 39.8815955,11.3927 C38.4468315,11.2387 37.4326966,11.5258 36.5330787,12.7688 C37.7311011,11.4224 40.197618,11.1243 41.7645169,12.6027 C39.2693708,11.3861 37.5141798,13.7918 37.3611236,16.401 C36.6861348,15.532 36.3447865,14.1471 36.366809,13.7335 C35.4737978,13.8204 34.6622697,14.5893 34.5962022,15.851 C34.2702697,15.4154 33.3772584,12.9657 35.0895056,11.7623 C34.5962022,11.1815 34.4222247,10.5446 34.5741798,10.1167 C35.6841124,10.791 37.3534157,10.6029 39.1812809,11.0374 C37.4117753,9.9649 35.4991236,10.6381 34.139236,9.3775 C33.8397303,10.1827 34.1612584,11.0374 34.5741798,11.704 C32.6802472,13.7918 34.0742697,16.5099 34.9661798,17.0093 C34.8571685,16.0534 35.2117303,14.9127 36.0177528,14.4881 C36.2016404,15.8455 37.4040674,17.1193 37.6000674,17.4669 C37.6220899,16.7926 37.8522247,14.091 38.8190112,14.168 C39.413618,14.2164 39.877191,15.3428 39.6613708,16.1546 C39.3673708,17.2557 38.5272135,18.9068 35.3218427,18.5471 M24.0749663,17.2403 C24.2676629,16.7387 24.7565618,15.5727 24.9393483,15.2823 C24.9393483,15.2823 24.687191,15.2273 24.437236,15.2317 C24.1542472,15.7168 23.618,16.9279 23.4869663,17.2535 C23.6763596,17.2612 23.8580449,17.2403 24.0749663,17.2403 M23.110382,15.268 L22.8417079,15.3043 C22.3373933,16.0721 22.1711236,16.5913 22.0301798,17.0137 C22.1050562,17.0654 22.174427,17.105 22.281236,17.1523 C22.5322921,16.3911 22.9364045,15.5738 23.110382,15.268 M22.9881573,17.2612 C23.2359101,16.6034 23.5739551,15.8389 23.9373258,15.2174 C23.9373258,15.2174 23.6323146,15.2174 23.5155955,15.2317 C23.1522247,15.8103 22.6402022,16.9785 22.5565169,17.2447 C22.5565169,17.2447 22.6600225,17.2997 22.9881573,17.2612 M25.2851011,17.1083 C25.4106292,16.8366 25.6594831,16.038 25.8664944,15.4132 L25.399618,15.3307 C25.1265393,15.983 24.6838876,17.0225 24.6321348,17.1908 C24.7951011,17.1842 25.1716854,17.1303 25.2851011,17.1083 M27.1955506,17.7683 C26.3223596,17.8519 24.0177079,18.1093 22.3197753,17.9344 C22.0577079,17.7903 21.8551011,17.6605 21.666809,17.3701 C21.6954382,17.7903 21.8407865,18.0587 22.014764,18.304 C22.8119775,18.4206 26.6141573,18.073 27.1955506,17.7683 M23.7556404,9.4765 C24.018809,10.5402 25.0021124,11.2992 26.237573,11.4037 C26.8398876,11.4554 27.8925618,11.0847 28.036809,9.9836 C26.9918427,10.3598 27.5148764,9.4028 28.2394157,9.0266 C28.9661573,8.6504 29.6114157,7.5625 28.8714607,6.2579 C28.6974831,7.6923 27.2329888,8.3149 27.3981573,7.4899 C27.5148764,6.9102 29.2260225,4.939 27.9784494,2.6488 C27.8044719,3.344 27.8485169,3.9963 27.2814382,3.8654 C26.7286742,3.7378 26.0481798,1.4157 27.137191,0.4158 C25.9545843,0.5379 25.1265393,1.9525 25.2795955,2.9095 C25.4315506,3.8654 25.9116404,5.0611 25.2795955,5.4318 C24.9261348,5.6386 24.6761798,5.4813 24.6046067,5.192 C24.4702697,4.6431 24.6365393,3.5541 23.5387191,3.1691 C24.277573,4.6486 23.2215955,7.3161 23.7556404,9.4765 M24.5539551,6.9102 C24.669573,8.041 25.221236,8.6504 25.4822022,8.5349 C25.7442697,8.4172 25.1926067,6.2722 26.4412809,5.17 C25.8598876,6.3591 26.4357753,7.2996 26.6427865,8.4172 C26.7815281,9.163 26.5568989,10.274 26.1792135,10.4764 C25.8015281,10.6788 24.1476404,9.4908 24.5539551,6.9102" id="Fill-258" sketch:type="MSShapeGroup"></path>
            <path d="M28.820809,25.0899 C27.6668315,24.915 26.8035506,27.0908 23.2193933,28.1699 C22.7690337,27.8883 22.2779326,26.4451 22.1006517,25.9369 C21.925573,25.4298 21.756,25.3132 21.5137528,25.3066 C21.4190562,24.7709 21.5071461,24.2341 21.6018427,24.024 C21.6018427,24.024 21.8694157,23.7413 22.5950562,23.4806 C22.5510112,24.0306 22.7106742,25.0459 22.8417079,25.4155 C23.5166966,24.1329 23.6686517,22.3938 22.7547191,19.9364 C23.4506292,20.5887 23.8646517,22.2838 23.929618,23.111 C24.1553483,22.792 24.2489438,21.7767 24.1630562,21.1035 C24.6993034,23.2342 24.2929888,26.191 23.7699551,26.6552 C23.4297079,26.4803 23.1610337,26.0898 22.9441124,25.7576 C23.1037753,26.3362 23.4374157,26.8048 23.6257079,27.0248 C27.0204719,25.872 29.4880899,23.1187 31.4326742,23.8425 C30.3590787,23.9008 29.560764,24.3936 28.820809,25.0899" id="Fill-259" sketch:type="MSShapeGroup"></path>
            <path d="M29.328427,16.5319 C29.328427,16.7299 29.1632584,16.8916 28.9584494,16.8916 C28.7547416,16.8916 28.5884719,16.7299 28.5884719,16.5319 C28.5884719,16.335 28.7547416,16.1744 28.9584494,16.1744 C29.1632584,16.1744 29.328427,16.335 29.328427,16.5319" id="Fill-260" sketch:type="MSShapeGroup"></path>
            <path d="M68.0714607,21.6018 L67.9018876,21.6018 C67.6981798,21.197 67.1057753,20.0123 64.6678876,20.0123 C61.8391011,20.0123 60.3316629,21.8724 60.3316629,25.0701 C60.3316629,25.6619 60.3316629,27.2349 61.3645169,28.6066 C61.9745393,29.4008 62.889573,30.1455 64.4311461,30.1455 C66.5133708,30.1455 67.5792584,29.1137 68.3423371,28.2161 L68.528427,28.336 L68.3423371,30.0102 C67.0551236,30.7208 65.5994382,31.0761 64.0578652,31.0761 C60.7555955,31.0761 58.0115955,29.029 58.0115955,25.2219 C58.0115955,21.8218 60.0949213,19.0982 64.617236,19.0982 C66.0046517,19.0982 67.2246966,19.3347 68.5790787,19.9452 L68.0714607,21.6018" id="Fill-261" sketch:type="MSShapeGroup"></path>
            <path d="M70.5445843,19.2346 C70.8672135,19.2676 71.4937528,19.3347 71.7470112,19.3347 C72.1202921,19.3347 72.5431236,19.2852 72.9494382,19.2346 C72.7633483,20.4853 72.7633483,23.4124 72.7633483,25.1218 C72.7633483,27.6419 72.796382,29.469 72.9329213,30.8396 C72.5431236,30.822 72.136809,30.7373 71.7470112,30.7373 C71.3748315,30.7373 70.9002472,30.822 70.5280674,30.8396 C70.7141573,28.8255 70.7141573,26.0337 70.7141573,23.1418 C70.7141573,22.0759 70.7141573,20.8747 70.5445843,19.2346" id="Fill-262" sketch:type="MSShapeGroup"></path>
            <path d="M80.181618,28.5219 C80.181618,29.8078 80.2487865,30.3655 80.3005393,30.8396 C79.8083371,30.7879 79.2665843,30.7373 79.0639775,30.7373 C78.7754831,30.7373 78.5222247,30.7714 77.9122022,30.8396 C77.9804719,29.5537 78.0817753,28.2513 78.0817753,26.9654 L78.0652584,22.2453 C78.0652584,21.6194 78.0465393,21.0276 78.0300225,20.3676 L77.1832584,20.3676 C77.0313034,20.3676 75.4060449,20.4006 74.542764,20.4853 C74.5934157,20.2829 74.6264494,20.0629 74.6264494,19.8594 C74.6264494,19.657 74.5934157,19.437 74.542764,19.2346 C75.8806292,19.3182 77.7591461,19.3347 79.0639775,19.3347 C80.4690112,19.3347 81.9588315,19.3182 83.5862921,19.2346 C83.5345393,19.5217 83.5004045,19.7406 83.5004045,19.8759 C83.5004045,20.0629 83.5345393,20.2158 83.5862921,20.4853 C82.5864719,20.3841 81.3829438,20.3676 80.2157528,20.3676 C80.1981348,20.977 80.181618,21.6194 80.181618,22.2618 L80.181618,28.5219" id="Fill-263" sketch:type="MSShapeGroup"></path>
            <path d="M90.970427,26.9313 C90.970427,28.3525 91.0210787,29.2666 91.0893483,30.8396 C90.6995506,30.8044 90.3097528,30.7373 89.9199551,30.7373 C89.5819101,30.7373 89.1073258,30.8044 88.7857978,30.8396 C88.8353483,29.5196 88.8871011,27.3042 88.8871011,26.2548 L87.888382,24.5289 C87.024,23.0395 85.5859326,20.7053 84.7050337,19.2346 C85.331573,19.3017 85.7202697,19.3358 86.0924494,19.3358 C86.4998652,19.3358 86.9898652,19.3182 87.4820674,19.2346 C88.3618652,21.0947 89.0060225,22.4312 90.4462921,24.9524 C91.8843596,22.4829 92.155236,21.9076 93.3752809,19.2346 C93.6450562,19.2852 93.9853034,19.3358 94.3574831,19.3358 C94.6955281,19.3358 94.881618,19.3017 95.068809,19.2346 C94.8155506,19.69 93.5778876,21.6524 93.3246292,22.0583 C92.5626517,23.2782 91.9019775,24.5465 91.1906517,25.7642 C91.0717303,25.9677 90.970427,26.1525 90.970427,26.3054 L90.970427,26.9313" id="Fill-264" sketch:type="MSShapeGroup"></path>
            <path d="M102.893393,20.5194 C102.842742,21.8053 102.842742,23.43 102.842742,24.8842 C102.842742,27.5748 102.876876,28.1842 103.367978,28.8431 C103.859079,29.502 104.774112,29.8749 105.958921,29.8749 C107.330921,29.8749 108.414427,29.1654 108.787708,28.1325 C108.922045,27.7596 109.007933,27.236 109.007933,25.8489 C109.007933,23.65 108.990315,21.4324 108.854876,19.2335 C109.091618,19.2676 109.345978,19.3358 109.616854,19.3358 C109.888831,19.3358 110.158607,19.2676 110.412966,19.2335 L110.362315,20.0453 C110.277528,21.5017 110.226876,24.9854 110.19164,26.6948 C110.158607,28.6913 109.58382,29.6043 108.465079,30.3149 C107.668966,30.8231 106.53591,31.042 105.620876,31.042 C103.589303,31.042 101.149213,30.3996 100.777034,27.7772 C100.742899,27.5407 100.742899,27.0336 100.742899,26.8807 L100.742899,22.2794 C100.742899,21.417 100.709865,20.097 100.658112,19.2335 C101.046809,19.2852 101.471843,19.3358 101.842921,19.3358 C102.216202,19.3358 102.607101,19.2852 102.944045,19.2335 L102.893393,20.5194" id="Fill-265" sketch:type="MSShapeGroup"></path>
            <path d="M112.784787,23.9877 C112.784787,22.3971 112.767169,20.8076 112.750652,19.2346 C112.88609,19.2511 113.021528,19.2676 113.156966,19.2676 C113.293506,19.2676 113.411326,19.2511 113.545663,19.2346 C115.155506,21.01 116.661843,22.583 118.712135,24.5795 L120.710674,26.543 C121.031101,26.8466 121.185258,26.9654 121.556337,27.269 L121.556337,23.5147 C121.556337,22.0759 121.472652,20.6217 121.35373,19.2346 C121.556337,19.2852 121.776562,19.3347 122.081573,19.3347 C122.386584,19.3347 122.590292,19.2852 122.794,19.2346 C122.640944,21.2806 122.605708,22.4818 122.605708,24.9524 C122.605708,25.9336 122.624427,28.369 122.624427,29.249 C122.624427,29.6208 122.640944,30.5008 122.640944,30.9243 C122.522022,30.9067 122.403101,30.8902 122.301798,30.8902 C122.182876,30.8902 122.065056,30.9067 121.946135,30.9243 C119.79564,28.589 115.628989,24.4442 113.835258,22.8041 C113.835258,25.1042 113.851775,26.3395 113.88591,28.1325 C113.901326,29.1137 113.920045,29.2831 114.037865,30.8396 C113.851775,30.822 113.512629,30.7373 113.274787,30.7373 C113.021528,30.7373 112.801303,30.7879 112.598697,30.8396 L112.734135,28.4889 C112.767169,28.0302 112.784787,26.7619 112.784787,26.2889 L112.784787,23.9877" id="Fill-266" sketch:type="MSShapeGroup"></path>
            <path d="M125.250607,19.2346 C125.572135,19.2676 126.198674,19.3347 126.453034,19.3347 C126.825213,19.3347 127.248045,19.2852 127.655461,19.2346 C127.46827,20.4853 127.46827,23.4124 127.46827,25.1218 C127.46827,27.6419 127.502404,29.469 127.636742,30.8396 C127.248045,30.822 126.84173,30.7373 126.453034,30.7373 C126.079753,30.7373 125.60627,30.822 125.231888,30.8396 C125.42018,28.8255 125.42018,26.0337 125.42018,23.1418 C125.42018,22.0759 125.42018,20.8747 125.250607,19.2346" id="Fill-267" sketch:type="MSShapeGroup"></path>
            <path d="M136.00418,26.4913 C136.157236,26.1019 138.053371,21.3818 138.714045,19.2335 C139.086225,19.3017 139.307551,19.3358 139.49364,19.3358 C139.696247,19.3358 139.93409,19.3017 140.305169,19.2335 C139.559708,20.7064 138.544472,23.0571 137.884899,24.6147 C137.020517,26.6607 136.207888,28.7408 135.462427,30.8396 C135.258719,30.789 135.140899,30.7384 134.834787,30.7384 C134.429573,30.7384 134.294135,30.789 134.056292,30.8396 C133.294315,28.6737 133.210629,28.369 132.041236,25.5783 C131.787978,24.9689 130.704472,22.2959 130.483146,21.7712 C130.313573,21.3653 129.535079,19.5888 129.382022,19.2335 C129.788337,19.3182 130.331191,19.3358 130.754022,19.3358 C131.144921,19.3358 131.58427,19.2852 132.008202,19.2335 C132.498202,20.9088 132.804315,21.8053 134.192831,25.3924 C134.547393,26.3054 134.971326,27.1865 135.361124,28.0819 L136.00418,26.4913" id="Fill-268" sketch:type="MSShapeGroup"></path>
            <path d="M143.931169,24.2583 C144.794449,24.2583 146.691685,24.2418 147.589101,24.1395 C147.538449,24.3265 147.504315,24.4948 147.504315,24.7478 C147.504315,24.9865 147.538449,25.2065 147.589101,25.3242 C147.148652,25.2901 146.709303,25.2571 146.28427,25.2395 C145.506876,25.223 144.710764,25.2065 143.931169,25.2065 L143.931169,29.7902 C144.371618,29.7902 146.53973,29.7396 147.978899,29.6725 C147.910629,29.8243 147.894112,29.9937 147.894112,30.2302 C147.894112,30.4843 147.910629,30.6537 147.978899,30.8396 C146.963663,30.7714 145.947326,30.7373 144.862719,30.7373 C143.846382,30.7373 142.779393,30.7714 141.695888,30.8396 C141.730022,30.129 141.764157,29.4349 141.780674,28.7254 C141.814809,27.7442 141.848944,25.6795 141.848944,24.9007 C141.848944,24.1912 141.814809,20.9253 141.695888,19.2346 C142.526135,19.2852 143.846382,19.3358 144.761416,19.3358 C145.538809,19.3358 146.658652,19.2676 147.877596,19.2346 C147.825843,19.437 147.792809,19.5723 147.792809,19.7747 C147.792809,20.0288 147.825843,20.2664 147.877596,20.4017 L146.28427,20.317 C145.65773,20.2829 145.489258,20.2829 143.931169,20.2829 L143.931169,24.2583" id="Fill-269" sketch:type="MSShapeGroup"></path>
            <path d="M155.70218,25.7642 C155.956539,26.1195 156.328719,26.6783 156.583079,27.0336 C157.920944,28.9102 158.376809,29.5031 159.444899,30.8396 C158.970315,30.7879 158.547483,30.7373 157.937461,30.7373 C157.276787,30.7373 157.07418,30.7725 156.565461,30.8396 C156.312202,30.4502 155.938921,29.8243 155.684562,29.4349 C154.822382,28.0984 153.770809,26.6101 152.856876,25.3242 L152.450562,25.3242 L152.450562,27.7255 C152.450562,28.2183 152.518831,30.3996 152.518831,30.8396 C152.180787,30.8055 151.807506,30.7373 151.383573,30.7373 C150.993775,30.7373 150.588562,30.7879 150.215281,30.8396 C150.35182,27.5066 150.367236,27.1348 150.367236,23.87 C150.367236,21.6524 150.367236,21.4159 150.249416,19.2335 C150.639213,19.2676 151.078562,19.3182 151.942944,19.3182 C152.382292,19.3182 154.346697,19.2335 154.736494,19.2335 C155.837618,19.2335 156.667865,19.3688 157.394607,20.0618 C157.903326,20.5535 158.175303,21.2476 158.175303,21.9582 C158.175303,23.8348 156.768067,24.7995 155.227596,25.0877 L155.70218,25.7642 L155.70218,25.7642 Z M152.450562,24.5289 C152.77209,24.5465 153.178404,24.5795 153.618854,24.5795 C155.313483,24.5795 155.938921,23.3453 155.938921,22.2453 C155.938921,21.5347 155.82,20.9264 155.227596,20.4853 C154.77173,20.1476 154.21236,20.0618 153.651888,20.0618 C153.331461,20.0618 152.704921,20.1311 152.450562,20.1476 L152.450562,24.5289 L152.450562,24.5289 Z" id="Fill-270" sketch:type="MSShapeGroup"></path>
            <path d="M161.088876,28.3019 C161.867371,29.9937 162.715236,30.2478 163.713955,30.2478 C165.05182,30.2478 165.932719,29.3502 165.932719,28.1325 C165.932719,26.7949 164.864629,26.323 164.543101,26.1866 C164.068517,25.9842 163.273506,25.6795 162.798921,25.4771 C161.156045,24.7489 160.666045,23.8865 160.666045,22.4829 C160.666045,20.9935 161.546944,19.0993 164.611371,19.0993 C165.846831,19.0993 166.592292,19.4194 167.422539,19.7923 C167.084494,20.6206 167.05036,20.757 166.897303,21.3994 L166.660562,21.3994 C166.406202,20.4347 165.508787,19.9276 164.441798,19.9276 C163.103933,19.9276 162.443258,20.757 162.443258,21.7547 C162.443258,22.99 163.30764,23.3288 164.798562,23.9041 C166.102292,24.4101 166.60991,24.5971 167.101011,25.1383 C167.811236,25.8995 167.930157,26.8983 167.930157,27.3713 C167.930157,29.0972 166.72773,31.0761 163.629169,31.0761 C162.172382,31.0761 161.071258,30.5173 160.463438,30.2137 C160.750831,29.3337 160.766247,29.1137 160.851034,28.3019 L161.088876,28.3019" id="Fill-271" sketch:type="MSShapeGroup"></path>
            <path d="M169.913281,19.2346 C170.234809,19.2676 170.861348,19.3347 171.115708,19.3347 C171.487888,19.3347 171.910719,19.2852 172.317034,19.2346 C172.130944,20.4853 172.130944,23.4124 172.130944,25.1218 C172.130944,27.6419 172.165079,29.469 172.300517,30.8396 C171.910719,30.822 171.505506,30.7373 171.115708,30.7373 C170.742427,30.7373 170.267843,30.822 169.895663,30.8396 C170.081753,28.8255 170.081753,26.0337 170.081753,23.1418 C170.081753,22.0759 170.081753,20.8747 169.913281,19.2346" id="Fill-272" sketch:type="MSShapeGroup"></path>
            <path d="M179.88836,28.5219 C179.88836,29.8078 179.955528,30.3655 180.007281,30.8396 C179.515079,30.7879 178.974427,30.7373 178.769618,30.7373 C178.482225,30.7373 178.228966,30.7714 177.618944,30.8396 C177.686112,29.5537 177.787416,28.2513 177.787416,26.9654 L177.770899,22.2453 C177.770899,21.6194 177.754382,21.0276 177.736764,20.3676 L176.891101,20.3676 C176.738045,20.3676 175.112787,20.4006 174.249506,20.4853 C174.299056,20.2829 174.333191,20.0629 174.333191,19.8594 C174.333191,19.657 174.299056,19.437 174.249506,19.2346 C175.58627,19.3182 177.465888,19.3347 178.769618,19.3347 C180.175753,19.3347 181.666674,19.3182 183.291933,19.2346 C183.241281,19.5217 183.207146,19.7406 183.207146,19.8759 C183.207146,20.0629 183.241281,20.2158 183.291933,20.4853 C182.293213,20.3841 181.090787,20.3676 179.922494,20.3676 C179.904876,20.977 179.88836,21.6194 179.88836,22.2618 L179.88836,28.5219" id="Fill-273" sketch:type="MSShapeGroup"></path>
            <path d="M190.84564,26.9313 C190.84564,28.3525 190.896292,29.2666 190.964562,30.8396 C190.574764,30.8044 190.186067,30.7373 189.79627,30.7373 C189.457124,30.7373 188.98364,30.8044 188.661011,30.8396 C188.711663,29.5196 188.762315,27.3042 188.762315,26.2548 L187.764697,24.5289 C186.900315,23.0395 185.462247,20.7053 184.580247,19.2346 C185.206787,19.3017 185.596584,19.3358 185.968764,19.3358 C186.37618,19.3358 186.86618,19.3182 187.358382,19.2346 C188.23818,21.0947 188.881236,22.4312 190.321506,24.9524 C191.759573,22.4829 192.031551,21.9076 193.250494,19.2346 C193.522472,19.2852 193.861618,19.3358 194.232697,19.3358 C194.571843,19.3358 194.757933,19.3017 194.944022,19.2346 C194.690764,19.69 193.453101,21.6524 193.199843,22.0583 C192.438966,23.2782 191.777191,24.5465 191.066966,25.7642 C190.948045,25.9677 190.84564,26.1525 190.84564,26.3054 L190.84564,26.9313" id="Fill-274" sketch:type="MSShapeGroup"></path>
            <path d="M60.1345618,40.7715 C60.1345618,40.0279 60.1345618,39.8596 60.0839101,38.3526 C60.0662921,37.9973 60.0332584,36.4749 60.0156404,36.1537 C60.439573,36.2384 60.7611011,36.2549 61.1839326,36.2549 C61.6078652,36.2549 61.9459101,36.2208 62.3698427,36.1537 C62.2509213,38.7079 62.2002697,40.8408 62.2002697,43.4456 C62.2002697,44.6303 62.2344045,45.7292 62.2509213,46.6598 L62.5570337,46.6598 C63.0470337,46.6598 65.4849213,46.6598 66.4847416,46.5069 C66.4340899,46.6939 66.3999551,46.7951 66.3999551,47.1845 C66.3999551,47.4386 66.417573,47.5387 66.4847416,47.7587 C65.6214607,47.7257 64.1646742,47.6575 63.2507416,47.6575 C62.167236,47.6575 61.2522022,47.6916 60.0156404,47.7587 C60.0156404,47.4892 60.1345618,43.5633 60.1345618,43.1409 L60.1345618,40.7715" id="Fill-275" sketch:type="MSShapeGroup"></path>
            <path d="M80.0516854,41.8044 C80.0516854,45.5763 77.4937753,47.9952 73.7345393,47.9952 C70.2120449,47.9952 67.4173933,45.9151 67.4173933,42.2103 C67.4173933,37.9137 70.364,36.0184 73.785191,36.0184 C76.9520225,36.0184 80.0516854,37.7443 80.0516854,41.8044 M73.7345393,47.1328 C76.6128764,47.1328 77.7305169,44.4268 77.7305169,42.0068 C77.7305169,39.2491 76.6976629,36.8808 73.7345393,36.8808 C70.8209663,36.8808 69.7374607,39.6891 69.7374607,42.0068 C69.7374607,44.528 70.8209663,47.1328 73.7345393,47.1328" id="Fill-276" sketch:type="MSShapeGroup"></path>
            <path d="M82.1361124,40.9079 C82.1361124,39.3173 82.1184944,37.7267 82.1008764,36.1537 C82.2374157,36.1713 82.3728539,36.1878 82.507191,36.1878 C82.6437303,36.1878 82.7626517,36.1713 82.8969888,36.1537 C84.5068315,37.9302 86.0131685,39.5032 88.0623596,41.4997 L90.062,43.4621 C90.382427,43.7668 90.5354831,43.8856 90.9065618,44.1903 L90.9065618,40.4338 C90.9065618,38.9961 90.8228764,37.5408 90.7050562,36.1537 C90.9065618,36.2043 91.1278876,36.256 91.4328989,36.256 C91.7390112,36.256 91.9405169,36.2043 92.1442247,36.1537 C91.9922697,38.2008 91.9581348,39.4009 91.9581348,41.8726 C91.9581348,42.8538 91.9757528,45.2892 91.9757528,46.1681 C91.9757528,46.541 91.9922697,47.421 91.9922697,47.8434 C91.8733483,47.8269 91.754427,47.8104 91.6520225,47.8104 C91.5342022,47.8104 91.4152809,47.8269 91.2974607,47.8434 C89.1469663,45.5092 84.9803146,41.3633 83.1854831,39.7232 C83.1854831,42.0244 83.2031011,43.2597 83.2361348,45.0527 C83.2537528,46.0339 83.2713708,46.2033 83.389191,47.7587 C83.2031011,47.7411 82.8639551,47.6575 82.6272135,47.6575 C82.3728539,47.6575 82.1526292,47.7081 81.9500225,47.7587 L82.0854607,45.408 C82.1184944,44.9504 82.1361124,43.6821 82.1361124,43.2091 L82.1361124,40.9079" id="Fill-277" sketch:type="MSShapeGroup"></path>
            <path d="M102.917618,46.7951 C101.730607,47.5574 100.630584,47.7587 99.2409663,47.7587 C98.2081124,47.7587 97.1587416,47.6751 96.1247865,47.6751 C95.6006517,47.6751 95.0577978,47.7246 94.5336629,47.7587 L94.6349663,44.6633 C94.6514831,43.9186 94.6514831,43.5468 94.6514831,41.5338 C94.6514831,40.4679 94.6691011,39.4174 94.6184494,38.3526 C94.5843146,37.6255 94.5677978,36.8984 94.5336629,36.1537 C94.9906292,36.1878 95.4652135,36.2395 95.9210787,36.2395 C96.8361124,36.2395 97.8370337,36.1537 98.8511685,36.1537 C100.290337,36.1537 102.08627,36.2208 103.492404,37.3208 C104.796135,38.3361 105.440292,39.8596 105.440292,41.6185 C105.440292,44.0033 104.50764,45.7787 102.917618,46.7951 M96.7359101,44.4268 C96.7359101,45.2045 96.7854607,45.9998 96.8195955,46.7775 C97.1917753,46.7951 98.7003146,46.8622 99.1220449,46.8622 C100.240787,46.8622 103.119124,46.0339 103.119124,41.6856 C103.119124,39.5032 102.08627,37.0513 98.5637753,37.0513 C97.9878876,37.0513 97.3954831,37.0843 96.8195955,37.1349 C96.7854607,37.8125 96.7359101,38.5055 96.7359101,39.182 L96.7359101,44.4268" id="Fill-278" sketch:type="MSShapeGroup"></path>
            <path d="M119.836382,41.8044 C119.836382,45.5763 117.278472,47.9952 113.519236,47.9952 C109.996742,47.9952 107.20209,45.9151 107.20209,42.2103 C107.20209,37.9137 110.149798,36.0184 113.570989,36.0184 C116.73782,36.0184 119.836382,37.7443 119.836382,41.8044 M113.519236,47.1328 C116.397573,47.1328 117.516315,44.4268 117.516315,42.0068 C117.516315,39.2491 116.48236,36.8808 113.519236,36.8808 C110.605663,36.8808 109.523258,39.6891 109.523258,42.0068 C109.523258,44.528 110.605663,47.1328 113.519236,47.1328" id="Fill-279" sketch:type="MSShapeGroup"></path>
            <path d="M121.920809,40.9079 C121.920809,39.3173 121.90209,37.7267 121.886674,36.1537 C122.022112,36.1713 122.157551,36.1878 122.291888,36.1878 C122.428427,36.1878 122.546247,36.1713 122.681685,36.1537 C124.291528,37.9302 125.797865,39.5032 127.848157,41.4997 L129.845596,43.4621 C130.167124,43.7668 130.321281,43.8856 130.69236,44.1903 L130.69236,40.4338 C130.69236,38.9961 130.608674,37.5408 130.488652,36.1537 C130.69236,36.2043 130.912584,36.256 131.217596,36.256 C131.522607,36.256 131.726315,36.2043 131.928921,36.1537 C131.776966,38.2008 131.74173,39.4009 131.74173,41.8726 C131.74173,42.8538 131.759348,45.2892 131.759348,46.1681 C131.759348,46.541 131.776966,47.421 131.776966,47.8434 C131.658045,47.8269 131.539124,47.8104 131.43782,47.8104 C131.318899,47.8104 131.201079,47.8269 131.082157,47.8434 C128.930562,45.5092 124.765011,41.3633 122.971281,39.7232 C122.971281,42.0244 122.987798,43.2597 123.021933,45.0527 C123.037348,46.0339 123.054966,46.2033 123.172787,47.7587 C122.987798,47.7411 122.647551,47.6575 122.410809,47.6575 C122.157551,47.6575 121.937326,47.7081 121.733618,47.7587 L121.870157,45.408 C121.90209,44.9504 121.920809,43.6821 121.920809,43.2091 L121.920809,40.9079" id="Fill-280" sketch:type="MSShapeGroup"></path>
        </g>
    </g>
</svg>