<?xml version="1.0" encoding="UTF-8" standalone="no"?>
<svg width="250px" height="150px" viewBox="0 0 250 150" version="1.1" xmlns="http://www.w3.org/2000/svg" xmlns:xlink="http://www.w3.org/1999/xlink" xmlns:sketch="http://www.bohemiancoding.com/sketch/ns">
    <!-- Generator: Sketch 3.2.2 (9983) - http://www.bohemiancoding.com/sketch -->
    <title>eurosport</title>
    <desc>Created with Sketch.</desc>
    <defs></defs>
    <g id="Page-1" stroke="none" stroke-width="1" fill="none" fill-rule="evenodd" sketch:type="MSPage">
        <g id="Group" sketch:type="MSLayerGroup" transform="translate(70.000000, 38.000000)" fill="#888C85">
            <path d="M40.0392115,23.9922794 L36.7463654,21.6220588 L31.6043077,23.9856618 L34.8028846,20.2113971 L31.6065,17.9161765 L36.7463654,17.9161765 L40.0392115,14.0338235 L40.0392115,17.9161765 L44.7669231,17.9161765 L40.0392115,20.1011029 L40.0392115,23.9922794" id="Fill-179" sketch:type="MSShapeGroup"></path>
            <path d="M55.3250769,14.85 L52.0333269,12.4797794 L46.8923654,14.8411765 L50.0876538,11.0680147 L46.8923654,8.77279412 L52.0333269,8.77279412 L55.3250769,4.89154412 L55.3250769,8.77279412 L60.0527885,8.77279412 L55.3250769,10.9588235 L55.3250769,14.85" id="Fill-180" sketch:type="MSShapeGroup"></path>
            <path d="M72.3088846,10.6246324 L69.0160385,8.25330882 L63.8772692,10.6180147 L67.0725577,6.84154412 L63.8772692,4.54963235 L69.0160385,4.54963235 L72.3088846,0.666176471 L72.3088846,4.54963235 L77.0365962,4.54963235 L72.3088846,6.73455882 L72.3088846,10.6246324" id="Fill-181" sketch:type="MSShapeGroup"></path>
            <path d="M87.8249423,14.8588235 L84.5320962,12.4875 L79.3922308,14.8511029 L82.5897115,11.0768382 L79.3944231,8.78161765 L84.5320962,8.78161765 L87.8249423,4.89926471 L87.8249423,8.78161765 L92.5515577,8.78161765 L87.8249423,10.9676471 L87.8249423,14.8588235" id="Fill-182" sketch:type="MSShapeGroup"></path>
            <path d="M98.4675,23.9856618 L95.1735577,21.6143382 L90.0347885,23.9790441 L93.2322692,20.2047794 L90.0347885,17.9095588 L95.1735577,17.9095588 L98.4675,14.0272059 L98.4675,17.9095588 L103.194115,17.9095588 L98.4675,20.0955882 L98.4675,23.9856618" id="Fill-183" sketch:type="MSShapeGroup"></path>
            <path d="M84.5288077,61.18125 L81.2370577,58.8110294 L76.0960962,61.1757353 L79.2935769,57.4003676 L76.0971923,55.10625 L81.2370577,55.10625 L84.5288077,51.2238971 L84.5288077,55.10625 L89.2554231,55.10625 L84.5288077,57.2922794 L84.5288077,61.18125" id="Fill-184" sketch:type="MSShapeGroup"></path>
            <path d="M52.0289423,74.5466912 L48.7371923,72.1753676 L43.5973269,74.5389706 L46.7937115,70.7647059 L43.5973269,68.4705882 L48.7371923,68.4705882 L52.0289423,64.5893382 L52.0289423,68.4705882 L56.75775,68.4705882 L52.0289423,70.6577206 L52.0289423,74.5466912" id="Fill-185" sketch:type="MSShapeGroup"></path>
            <path d="M25.9021154,61.1944853 L22.6092692,58.8231618 L17.4683077,61.1878676 L20.6646923,57.4136029 L17.4694038,55.1205882 L22.6092692,55.1205882 L25.9021154,51.2360294 L25.9021154,55.1205882 L30.6287308,55.1205882 L25.9021154,57.3033088 L25.9021154,61.1944853" id="Fill-186" sketch:type="MSShapeGroup"></path>
            <path d="M69.0335769,71.0051471 L65.7407308,68.6338235 L60.5997692,70.9985294 L63.7961538,67.2242647 L60.5997692,64.9290441 L65.7407308,64.9290441 L69.0335769,61.0455882 L69.0335769,64.9290441 L73.7601923,64.9290441 L69.0335769,67.1139706 L69.0335769,71.0051471" id="Fill-187" sketch:type="MSShapeGroup"></path>
            <path d="M36.3605192,71.0051471 L33.0676731,68.6338235 L27.9267115,70.9985294 L31.1241923,67.2231618 L27.9267115,64.9290441 L33.0676731,64.9290441 L36.3605192,61.0455882 L36.3605192,64.9290441 L41.0860385,64.9290441 L36.3605192,67.1139706 L36.3605192,71.0051471" id="Fill-188" sketch:type="MSShapeGroup"></path>
            <path d="M47.5566346,33.6452206 C46.1108077,33.6452206 45.2821154,34.2772059 44.9850577,35.2908088 L43.6104808,40.1536765 C43.5754038,40.3069853 43.5414231,40.4602941 43.5260769,40.59375 C43.4438654,41.3602941 43.8921923,41.8014706 45.2612885,41.8014706 C46.7071154,41.8014706 47.5259423,41.2455882 47.8339615,40.1536765 L49.2074423,35.2908088 C49.2414231,35.1584559 49.2754038,35.0216912 49.2863654,34.9091912 C49.3707692,34.1227941 48.9070962,33.6452206 47.5566346,33.6452206" id="Fill-189" sketch:type="MSShapeGroup"></path>
            <path d="M6.39715385,27.8261029 L0.800192308,47.6514706 L51.9598846,47.6547794 L57.49875,27.8272059 L6.39715385,27.8261029 L6.39715385,27.8261029 Z M15.20475,36.2691176 L14.5032115,38.7363971 L9.72836538,38.7363971 L8.90844231,41.6084559 L14.0844808,41.6084559 L13.3993846,44.0955882 L5.43034615,44.0955882 L9.01367308,31.3488971 L16.9849038,31.3488971 L16.2822692,33.8382353 L11.1073269,33.8382353 L10.4288077,36.2691176 L15.20475,36.2691176 L15.20475,36.2691176 Z M20.6449615,44.2875 C17.5834038,44.2875 16.5113654,42.7378676 16.6911346,41.0536765 C16.7141538,40.8430147 16.7569038,40.6125 16.8171923,40.4029412 L19.3624615,31.3488971 L22.15875,31.3488971 L19.7121346,40.0191176 C19.6518462,40.2286765 19.6123846,40.4216912 19.5926538,40.6125 C19.5104423,41.3779412 19.8634038,41.8014706 21.1974231,41.8014706 C22.7188846,41.8014706 23.3349231,41.1871324 23.6374615,40.1338235 L26.1158654,31.3488971 L28.9121538,31.3488971 L26.3679808,40.4029412 C25.7574231,42.5459559 24.5078077,44.2875 20.6449615,44.2875 L20.6449615,44.2875 Z M39.9975577,34.2595588 C39.9701538,34.5066176 39.9054808,34.7547794 39.8375192,35.04375 L39.4078269,36.5746324 C38.9715577,38.1639706 38.2908462,39.1775735 36.6564808,39.7334559 L38.5857115,44.0955882 L35.4485192,44.0955882 L33.6464423,40.1150735 L31.7248846,40.1150735 L30.6144808,44.0955882 L27.8203846,44.0955882 L31.4048077,31.3488971 L36.2541923,31.3488971 C38.9770385,31.3488971 40.1970577,32.3823529 39.9975577,34.2595588 L39.9975577,34.2595588 Z M52.0344231,35.1959559 L50.5644808,40.4029412 C49.8881538,42.8327206 48.3053077,44.2875 44.5586538,44.2875 C41.5716346,44.2875 40.4743846,42.6231618 40.6585385,40.9003676 C40.6782692,40.7095588 40.7210192,40.4977941 40.7791154,40.3069853 L42.2534423,35.04375 C42.9231923,32.6691176 44.5323462,31.1569853 48.108,31.1569853 C51.1136538,31.1569853 52.3380577,32.8797794 52.1528077,34.6213235 C52.1341731,34.7944853 52.0914231,35.0051471 52.0344231,35.1959559 L52.0344231,35.1959559 Z" id="Fill-190" sketch:type="MSShapeGroup"></path>
            <path d="M35.8190192,33.8382353 L33.4973654,33.8382353 L32.4220385,37.6841912 L34.8182308,37.6841912 C36.0546923,37.6841912 36.4273846,37.2253676 36.7014231,36.2481618 L36.9754615,35.2908088 C37.0368462,35.08125 37.0806923,34.8507353 37.0894615,34.7547794 C37.1596154,34.1040441 36.7891154,33.8382353 35.8190192,33.8382353" id="Fill-191" sketch:type="MSShapeGroup"></path>
            <path d="M55.9959231,43.4470588 L56.8344808,41.2830882 C58.0128462,41.6470588 58.9939038,41.9139706 60.2106346,41.9139706 C61.6948269,41.9139706 62.0675192,41.6272059 62.3766346,40.5165441 C62.4621346,40.2496324 62.5048846,40.0191176 62.5235192,39.8481618 C62.5849038,39.2735294 62.2209808,39.1202206 60.7225385,38.71875 C58.6683462,38.1827206 57.9679038,37.4349265 58.1279423,35.9415441 C58.1695962,35.5400735 58.2748269,35.08125 58.425,34.5639706 C59.28,31.7316176 60.1032115,31.1569853 63.5462308,31.1569853 C64.5152308,31.1569853 66.0915,31.3676471 67.1821731,31.6555147 L66.4367885,34.0091912 C65.3439231,33.7411765 63.9156346,33.5680147 63.0617308,33.5680147 C61.6904423,33.5680147 61.40325,33.7599265 61.1237308,34.7746324 C61.0546731,35.0613971 60.9932885,35.2908088 60.9746538,35.4639706 C60.9099808,36.0761029 61.2793846,36.1720588 62.7219231,36.5547794 C65.0183654,37.1492647 65.5872692,37.8761029 65.4480577,39.1775735 C65.4075,39.5801471 65.3011731,40.0191176 65.151,40.5363971 C64.4154808,43.1591912 63.3818077,44.2875 59.7853269,44.2875 C58.7406923,44.2875 56.9331346,43.9235294 55.9959231,43.4470588" id="Fill-192" sketch:type="MSShapeGroup"></path>
            <path d="M70.1900192,40.2110294 L69.0894808,44.0955882 L66.2942885,44.0955882 L69.8787115,31.3488971 L74.7105577,31.3488971 C77.4301154,31.3488971 78.6315,32.4 78.4363846,34.21875 C78.4089808,34.4878676 78.3081346,34.8893382 78.2193462,35.1959559 L77.81925,36.6319853 C77.1473077,39.0055147 76.0478654,40.2110294 72.7013077,40.2110294 L70.1900192,40.2110294 L70.1900192,40.2110294 Z M75.36825,35.3481618 C75.4318269,35.11875 75.4690962,34.9279412 75.4844423,34.7944853 C75.5524038,34.1426471 75.2060192,33.8382353 74.3499231,33.8382353 L71.9920962,33.8382353 L70.8860769,37.7801471 L73.188,37.7801471 C74.4803654,37.7801471 74.8157885,37.3202206 75.0876346,36.3639706 L75.36825,35.3481618 L75.36825,35.3481618 Z" id="Fill-193" sketch:type="MSShapeGroup"></path>
            <path d="M78.5043462,40.9003676 C78.5251731,40.7095588 78.5679231,40.4977941 78.6249231,40.3069853 L80.1003462,35.04375 C80.7711923,32.6691176 82.3781538,31.1569853 85.9549038,31.1569853 C88.9583654,31.1569853 90.1849615,32.8797794 89.9975192,34.6213235 C89.9810769,34.7944853 89.9383269,35.0051471 89.8802308,35.1959559 L88.4113846,40.4029412 C87.7350577,42.8327206 86.1511154,44.2875 82.4044615,44.2875 C79.4185385,44.2875 78.3212885,42.6231618 78.5043462,40.9003676 L78.5043462,40.9003676 Z M87.1343654,34.9091912 C87.2165769,34.1227941 86.754,33.6452206 85.4035385,33.6452206 C83.9588077,33.6452206 83.1290192,34.2772059 82.8308654,35.2908088 L81.4573846,40.1536765 C81.4212115,40.3069853 81.3850385,40.4602941 81.3718846,40.59375 C81.2907692,41.3602941 81.738,41.8014706 83.106,41.8014706 C84.5529231,41.8014706 85.3739423,41.2455882 85.6808654,40.1536765 L87.05325,35.2908088 C87.0883269,35.1584559 87.1212115,35.0216912 87.1343654,34.9091912 L87.1343654,34.9091912 Z" id="Fill-194" sketch:type="MSShapeGroup"></path>
            <path d="M95.3873077,40.1150735 L93.4635577,40.1150735 L92.3553462,44.0955882 L89.5590577,44.0955882 L93.1434808,31.3488971 L97.9939615,31.3488971 C100.715712,31.3488971 101.936827,32.3823529 101.736231,34.2595588 C101.708827,34.5066176 101.64525,34.7547794 101.576192,35.04375 L101.147596,36.5746324 C100.711327,38.1639706 100.031712,39.1775735 98.3951538,39.7334559 L100.326577,44.0955882 L97.1871923,44.0955882 L95.3873077,40.1150735 L95.3873077,40.1150735 Z M98.7141346,35.2908088 C98.7755192,35.08125 98.8193654,34.8507353 98.8303269,34.7547794 C98.8993846,34.1040441 98.5299808,33.8382353 97.5576923,33.8382353 L95.2382308,33.8382353 L94.1596154,37.6841912 L96.558,37.6841912 C97.7944615,37.6841912 98.1671538,37.2253676 98.4422885,36.2481618 L98.7141346,35.2908088 L98.7141346,35.2908088 Z" id="Fill-195" sketch:type="MSShapeGroup"></path>
            <path d="M106.299519,44.0955882 L103.485692,44.0955882 L106.366385,33.8382353 L102.942,33.8382353 L103.645731,31.3488971 L113.307231,31.3488971 L112.605692,33.8382353 L109.179115,33.8382353 L106.299519,44.0955882" id="Fill-196" sketch:type="MSShapeGroup"></path>
        </g>
    </g>
</svg>