<?xml version="1.0" encoding="UTF-8" standalone="no"?>
<svg width="250px" height="150px" viewBox="0 0 250 150" version="1.1" xmlns="http://www.w3.org/2000/svg" xmlns:xlink="http://www.w3.org/1999/xlink" xmlns:sketch="http://www.bohemiancoding.com/sketch/ns">
    <!-- Generator: Sketch 3.2.2 (9983) - http://www.bohemiancoding.com/sketch -->
    <title>global</title>
    <desc>Created with Sketch.</desc>
    <defs></defs>
    <g id="Page-1" stroke="none" stroke-width="1" fill="none" fill-rule="evenodd" sketch:type="MSPage">
        <g id="Group" sketch:type="MSLayerGroup" transform="translate(69.000000, 13.000000)" fill="#888C85">
            <path d="M104.535085,53.2666875 L104.370623,53.1250179 L104.198434,52.98225 L103.869509,52.7011071 L103.624472,52.49025 C103.46884,52.3397946 99.3539717,48.8507679 91.8251321,44.7280714 C95.2909811,41.6739375 98.6133396,38.3441518 101.707217,34.8210804 L101.952255,34.5421339 L102.27566,34.1665446 L102.447849,33.9842411 L102.604585,33.7920536 L102.679642,33.7063929 L102.563745,33.6932143 L102.318708,33.6767411 L102.068151,33.6635625 L101.572557,33.6229286 L101.198377,33.594375 C101.198377,33.594375 100.71934,33.5592321 99.7954811,33.4351339 C97.7601226,33.1682679 93.6209717,32.4599196 88.6639245,30.7697679 C89.4884434,26.7777589 90.7942075,22.6869107 92.547,18.6015536 L92.698217,18.2479286 L92.9002075,17.7735 L92.9995472,17.5406786 L93.1066132,17.3045625 L93.1551792,17.1925446 L93.0315566,17.2221964 L92.7765849,17.2946786 L92.5304434,17.358375 L92.0326415,17.4978482 L91.6341792,17.6076696 C91.5502925,17.6318304 91.3107736,17.6933304 90.9211415,17.7921696 C89.0414151,18.2720893 83.9364623,19.4987946 76.9451604,20.541 C77.2475943,17.3298214 77.4495849,13.8726429 77.5599623,10.2715982 L77.5268491,6.63650893 L77.522434,6.21040179 L77.522434,5.67447321 L77.419783,5.72499107 L77.0566415,5.94573214 L76.6846698,6.165375 L76.4120377,6.32022321 C76.3778208,6.349875 71.4660283,9.26453571 65.5023396,14.8643304 C62.7097925,11.1984911 60.5530189,7.0494375 59.085,2.5291875 L58.9746226,2.16238393 L58.8134717,1.67148214 L58.6567358,1.18497321 L58.6136887,1.06416964 L58.5551887,1.17069643 L58.4017642,1.38375 L58.2671038,1.59680357 L57.9757075,2.02840179 L57.7571604,2.35786607 C57.4503113,2.83558929 54.614717,7.21307143 50.8806509,14.836875 C47.6068585,11.8288661 44.0957547,8.98888393 40.457717,6.39490179 L40.1828774,6.20051786 L39.8086981,5.93475 L39.6254717,5.80296429 L39.4400377,5.67227679 L39.3506321,5.60199107 L39.3484245,5.71730357 L39.3285566,5.94024107 L39.3186226,6.165375 L39.2921321,6.61783929 L39.277783,6.96048214 C39.277783,6.96048214 39.2457736,7.56669643 39.1596792,8.72860714 C38.9896981,10.8481607 38.5647453,15.2179554 37.6784151,20.7419732 C32.9476415,19.9007411 28.5446887,18.6872143 24.5711038,17.1255536 L24.0136981,16.9059107 L23.2620283,16.6115893 L22.8933679,16.4633304 L22.5136698,16.3183661 L22.3359623,16.2436875 L22.4485472,16.4073214 L22.6670943,16.7389821 L22.8988868,17.0739375 L23.3459151,17.7361607 L23.6925,18.23475 C23.6958113,18.2534196 23.7631415,18.3412768 23.8569623,18.4994196 C24.5170189,19.5383304 27.7908113,25.0634464 27.9607925,31.6944643 C23.5876415,32.0535804 19.1504717,32.6586964 14.7585566,33.4922411 L14.4219057,33.54825 L13.9969528,33.6306161 L13.7761981,33.6745446 L13.5653774,33.7118839 L13.4527925,33.7305536 L13.5311604,33.8140179 L13.679066,33.9820446 L14.1260943,34.4674554 L14.3435377,34.7189464 C14.5057925,34.8924643 18.3667925,39.0667768 24.0622642,43.7792143 C21.5710472,47.0354196 17.8447075,49.8852857 13.0168019,52.2398571 L12.6470377,52.4177679 L12.1492358,52.6560804 L11.9075094,52.7735893 L11.6646792,52.8889018 L11.5410566,52.9525982 L11.6646792,53.0064107 L11.9152358,53.1063482 L12.1757264,53.2161696 L12.6691132,53.4215357 L13.0620566,53.5851696 C13.1238679,53.6093304 13.8490472,53.9146339 14.9958679,54.4264018 C17.3513208,55.4740982 21.1052547,57.2048839 25.6241038,59.5221161 C23.4607075,63.6085714 21.0710377,67.2755089 18.520217,70.4229911 L18.2917358,70.69425 L17.9948208,71.0610536 L17.8447075,71.24775 L17.7045283,71.4333482 L17.6316792,71.5245 L17.749783,71.5299911 L17.983783,71.5453661 L18.2111604,71.5651339 L18.7056509,71.5914911 L18.9484811,71.6079643 C19.0721038,71.6343214 20.265283,71.6881339 21.8536132,71.6914286 C24.2178962,71.6914286 28.0468868,71.5695268 32.9068019,70.9775893 C32.1584434,75.3012589 31.5392264,79.7171786 31.0546698,84.1034464 L31.0226604,84.4570714 L30.9630566,84.9282054 L30.9420849,85.1687143 L30.9144906,85.3993393 L30.9012453,85.5234375 L30.9983774,85.4619375 L31.2136132,85.3400357 L31.4266415,85.2335089 L31.8328302,85.0061786 L32.1805189,84.8183839 C32.5513868,84.6174107 32.9873774,84.4021607 33.2898113,84.2506071 C35.0911698,83.3500714 38.9069151,81.5435089 44.2569057,79.5535446 C45.1344057,83.6905179 46.3783585,87.945 47.9964906,92.1961875 L48.1587453,92.6113125 L48.3629434,93.1659107 L48.4655943,93.4426607 L48.5704528,93.7292946 L48.6267453,93.8577857 L48.6841415,93.7292946 L48.8044528,93.4558393 L48.9236604,93.1823839 L49.1819434,92.6409643 L49.3673774,92.2335268 C49.3993868,92.1830089 49.4832736,91.9897232 49.6344906,91.7173661 C50.2691604,90.5203125 52.0793491,87.4387232 55.1643962,84.6811071 C56.3608868,83.6070536 57.6423679,82.6801607 58.9591698,81.9300804 C63.145783,85.8902411 66.0376698,90.6422143 67.1635189,93.0593839 C67.8202642,94.4958482 68.2728113,95.5830804 68.2728113,95.5830804 L68.3666321,94.0719375 C68.469283,92.7398036 68.5498585,92.2983214 68.6282264,91.5449464 C68.8567075,89.4045268 69.605066,85.0457143 71.9561038,79.8720268 C75.933,80.5935536 80.1847358,82.4363571 84.5711321,85.362 L84.8779811,85.5662679 L85.2742358,85.8331339 L85.4872642,85.9627232 L85.6892547,86.0934107 L85.7908019,86.1658929 L85.7863868,86.0395982 L85.7643113,85.5662679 L85.7422358,85.0775625 L85.7323019,84.700875 C85.6947736,84.1352946 85.3846132,78.9297589 83.5755283,71.1950357 C85.5645283,71.0961964 87.5380755,71.0401875 89.4509151,71.0401875 C92.1076981,71.0401875 94.7523396,71.1335357 97.3296509,71.3290179 L97.8164151,71.3630625 L98.4875094,71.4146786 L98.8241604,71.4355446 L99.1519811,71.4608036 L99.3164434,71.4739821 L99.2005472,71.3531786 L98.9665472,71.1170625 L98.7270283,70.8952232 L98.255717,70.4229911 L97.9168585,70.0671696 C97.9168585,70.0682679 97.7711604,69.9200089 97.4885943,69.6092143 C96.373783,68.341875 93.5083868,64.7968393 91.1275472,59.2036339 C94.8163585,57.0544286 98.9367453,55.2193125 103.379434,53.7488036 L103.684075,53.6466696 L104.109028,53.5071964 L104.3055,53.4380089 L104.513009,53.3677232 L104.618972,53.3325804 L104.535085,53.2666875 L104.535085,53.2666875 Z M99.6453679,34.9067411 C96.7446509,38.1245089 93.6375283,41.1753482 90.431066,43.9834821 C89.5204528,43.5046607 88.5513396,43.0104643 87.5711887,42.5338393 C87.5656698,42.1132232 87.5601509,41.7167679 87.5601509,41.3312946 C87.5601509,38.3518393 87.8349906,35.2944107 88.3846698,32.2380804 C93.5238396,33.9655714 97.8892642,34.6673304 99.6453679,34.9067411 L99.6453679,34.9067411 Z M42.7381132,67.5467679 C41.0394057,66.4694196 39.277783,65.3865804 37.474217,64.3257054 C36.937783,64.0127143 36.4079717,63.698625 35.8792642,63.3988125 C36.572434,60.0822054 37.3693585,56.7227679 38.2413396,53.4083571 C39.9643302,54.3034018 41.6740755,55.0776429 43.314283,55.6959375 C42.8937453,58.6808839 42.6785094,61.7405089 42.6785094,64.805625 C42.6785094,65.6995714 42.7027925,66.6242679 42.7381132,67.5467679 L42.7381132,67.5467679 Z M36.8925283,52.6956161 C36.0227547,55.9693929 35.2258302,59.3134554 34.5282453,62.6190804 C32.2743396,61.3495446 29.9586226,60.0986786 27.6274528,58.8840536 C29.0833302,55.9913571 30.4674623,52.8460714 31.7334906,49.5316607 C33.4884906,50.7078482 35.2203113,51.7687232 36.8925283,52.6956161 L36.8925283,52.6956161 Z M32.2633019,48.1094732 C34.0061604,43.3651875 35.5348868,38.1936964 36.8163679,32.7575357 C37.2048962,32.7520446 37.5978396,32.7520446 37.9885755,32.7520446 C39.711566,32.7520446 41.4566321,32.7926786 43.1718962,32.8629643 C40.95,38.8471339 38.970934,45.0256875 37.2909906,51.2163214 C35.6585094,50.3059018 33.9708396,49.2549107 32.2633019,48.1094732 L32.2633019,48.1094732 Z M35.5646887,64.9176429 C37.3925377,65.9785179 39.204934,67.0745357 40.9775943,68.1837321 C38.8870472,68.6021518 36.7976038,68.9579732 34.724717,69.2522946 C34.9907264,67.773 35.2766038,66.3189643 35.5646887,64.9176429 L35.5646887,64.9176429 Z M38.634283,51.9455357 C40.3661038,45.5023125 42.4235377,39.1183929 44.728217,32.9475268 C46.7690943,33.0694286 48.8364623,33.2374554 50.8674057,33.4702768 C47.2161226,40.0507768 44.7491887,47.0156518 43.548283,54.1990714 C41.9765094,53.5851696 40.3175377,52.8241071 38.634283,51.9455357 L38.634283,51.9455357 Z M58.4492264,24.7427679 C61.1799623,27.8869554 63.7462358,31.2463929 66.0884434,34.7244375 C61.8797547,33.6690536 57.5717264,32.841 53.2636981,32.2754196 C54.8067736,29.6924196 56.5562547,27.1643304 58.4492264,24.7427679 L58.4492264,24.7427679 Z M51.6621226,32.07225 C49.5561226,31.8229554 47.4048679,31.6296696 45.2668585,31.4989821 C46.063783,29.4057857 46.9280377,27.2796429 47.8110566,25.1710714 C48.0538868,24.6 48.2956132,24.0399107 48.5296132,23.4886071 C50.753717,23.6225893 53.093717,23.6829911 55.458,23.6829911 C56.1368208,23.6829911 56.7968774,23.6807946 57.4072642,23.6731071 C55.2802925,26.3736161 53.3442736,29.197125 51.6621226,32.07225 L51.6621226,32.07225 Z M52.4535283,33.6635625 C57.4591415,34.2873482 62.4702736,35.2713482 67.3136321,36.5650446 C68.5178491,38.4265179 69.6701887,40.3341161 70.7419528,42.2340268 C70.0576132,43.8945268 69.3037358,45.4111607 68.5178491,46.7509821 C64.7881981,53.0360625 59.6666887,56.2296696 53.269217,56.2318661 C50.7272264,56.2318661 47.9324717,55.7200982 44.9732547,54.7152321 C46.1631226,47.4121071 48.672,40.328625 52.4535283,33.6635625 L52.4535283,33.6635625 Z M69.4406038,37.1602768 C70.3810189,37.4249464 71.3203302,37.7115804 72.2419811,38.0059018 C71.9859057,38.8449375 71.711066,39.6729911 71.4285,40.4549196 C70.785,39.3457232 70.1227358,38.2365268 69.4406038,37.1602768 L69.4406038,37.1602768 Z M68.245217,35.2867232 C65.5851226,31.2068571 62.6203868,27.2840357 59.4437264,23.6247857 C63.2153208,23.5072768 67.1259906,23.2305268 71.0786038,22.7912411 C72.2850283,23.7983036 73.5532642,24.7504554 74.8612358,25.6345179 C74.3093491,29.6660625 73.568717,33.3549643 72.6614151,36.5892054 C71.2154717,36.1279554 69.7264811,35.6886696 68.245217,35.2867232 L68.245217,35.2867232 Z M73.1382453,22.5507321 C73.8303113,22.4650714 74.5488679,22.370625 75.2784623,22.2717857 C75.2166509,22.8483482 75.1471132,23.4216161 75.0742642,23.9839018 C74.4097925,23.5204554 73.7519434,23.0328482 73.1382453,22.5507321 L73.1382453,22.5507321 Z M73.6548113,38.4649554 C77.736566,39.8146607 81.7311226,41.4114643 85.5347264,43.1982589 C85.7323019,43.2894107 85.9287736,43.3827589 86.1197264,43.4805 C86.1705,44.7467411 86.2841887,46.0349464 86.4265755,47.2945982 C83.6748679,49.4756518 80.7796698,51.5326071 77.8425283,53.4160446 C76.2266038,49.5558214 74.3821981,45.7647857 72.3788491,42.1351875 C72.8313962,40.9798661 73.2618679,39.7421786 73.6548113,38.4649554 L73.6548113,38.4649554 Z M77.8933019,57.6090268 C78.8524811,60.1360179 79.7222547,62.7376875 80.4915849,65.3514375 C78.8767642,66.9141964 77.3579717,68.5933661 76.0036415,70.3428214 C68.5178491,71.2005268 60.8753208,72.7621875 53.2935,74.9937589 C50.7382642,72.9664554 47.8761792,70.9138929 44.776783,68.8723125 C56.3222547,66.1641161 67.2087736,61.7053661 77.1239717,55.6080804 C77.3734245,56.2318661 77.6239811,56.9050714 77.8933019,57.6090268 L77.8933019,57.6090268 Z M80.9606887,66.9680089 C81.2266981,67.9124732 81.4827736,68.8778036 81.714566,69.8233661 C80.5081415,69.9057321 79.2796415,70.0056696 78.0842547,70.1231786 C78.9893491,69.0304554 79.9562547,67.9695804 80.9606887,66.9680089 L80.9606887,66.9680089 Z M81.7112547,64.221375 C80.7531792,61.0464375 79.6328491,57.8879732 78.399934,54.8096786 C81.2377358,53.0119018 84.0247642,51.0504911 86.6826509,48.9913393 C87.2025283,52.2837857 88.0800283,55.5114375 89.280934,58.5897321 C86.5402642,60.2689018 83.9927547,62.1666161 81.7112547,64.221375 L81.7112547,64.221375 Z M87.6440377,44.2163036 C88.1738491,44.4897589 88.7014528,44.7522321 89.2158113,45.0169018 C88.7290472,45.4298304 88.2500094,45.8240893 87.8107075,46.1963839 C87.7323396,45.5484375 87.6870849,44.8895089 87.6440377,44.2163036 L87.6440377,44.2163036 Z M76.800566,22.0554375 C83.4783962,21.0769286 88.6131509,19.8908571 90.6087736,19.3944643 C89.1319245,23.0405357 88.0049717,26.6920982 87.2588208,30.2667857 C84.7057925,29.3311071 82.2830094,28.2383839 80.0390377,27.02925 C78.8039151,26.3604375 77.5974906,25.6476964 76.4606038,24.9162857 C76.5765,23.9762143 76.6957075,23.0130804 76.800566,22.0554375 L76.800566,22.0554375 Z M82.9883208,30.1273125 C84.264283,30.7005804 85.6031604,31.2387054 86.9674245,31.7350982 C86.3669717,34.9649464 86.0656415,38.1936964 86.0656415,41.3312946 C86.0656415,41.4949286 86.0656415,41.6607589 86.0711604,41.8189018 C82.2211981,40.0134375 78.1758679,38.4056518 74.0698302,37.0416696 C74.9506415,33.9073661 75.6912736,30.3733125 76.2486792,26.5317589 C78.3348113,27.8474196 80.6074811,29.05875 82.9883208,30.1273125 L82.9883208,30.1273125 Z M72.0289528,11.2116696 C73.3049151,10.2188839 74.5731509,9.301875 75.7696415,8.49578571 L75.8148962,8.45844643 L76.0544151,8.30579464 L76.0809057,10.2485357 C75.9650094,13.945125 75.747566,17.4780804 75.4296792,20.7606429 C74.0974245,20.9451429 72.7883491,21.1065804 71.5499151,21.2537411 C69.6757075,19.64925 67.9549245,17.8910089 66.4228868,16.0328304 C68.220934,14.3360893 70.1116981,12.7173214 72.0289528,11.2116696 L72.0289528,11.2116696 Z M69.5542925,21.4656964 C66.5443019,21.7731964 63.3665377,21.9906429 60.4393302,22.1059554 L60.4856887,22.0521429 C61.9559151,20.3433214 63.7142264,18.6630536 65.3511226,17.0607589 C66.6226698,18.6048482 68.0388113,20.0885357 69.5542925,21.4656964 L69.5542925,21.4656964 Z M55.6467453,8.86808036 C56.720717,6.92314286 57.5772453,5.47679464 58.100434,4.60591071 C58.1324434,4.55209821 58.1622453,4.50597321 58.1942547,4.45875 C59.694283,8.62427679 61.7914528,12.4746161 64.4250566,15.8933571 C62.7197264,17.5538571 61.4437642,18.9387054 59.6832453,20.9286696 C59.3951604,21.24825 58.490066,22.2904554 58.490066,22.2904554 C56.5672925,20.1687054 54.0981509,17.8437857 52.0252642,15.8878661 C53.2372075,13.3927232 54.4590849,11.0304643 55.6467453,8.86808036 L55.6467453,8.86808036 Z M51.3464434,17.2946786 C53.010934,18.8695179 54.7604151,20.525625 56.3200472,22.2102857 L55.458,22.2102857 C53.327717,22.2102857 51.2062642,22.1542768 49.1631792,22.0411607 C49.8651792,20.4663214 50.5958774,18.8662232 51.3464434,17.2946786 L51.3464434,17.2946786 Z M40.667434,8.37827679 C44.0195943,10.8218036 47.2216415,13.4663036 50.2051415,16.2250179 C49.3110849,18.0974732 48.4324811,20.0270357 47.5925094,21.9500089 C44.6575755,21.7446429 41.8197736,21.4228661 39.1486415,20.9879732 C40.1155472,14.9390089 40.5349811,10.2342589 40.667434,8.37827679 L40.667434,8.37827679 Z M38.892566,22.4518929 C41.4753962,22.8615268 44.1873679,23.1723214 46.9677736,23.3809821 C45.8452358,25.9980268 44.7414623,28.6963393 43.723783,31.4133214 C41.8197736,31.318875 39.897,31.2760446 37.9885755,31.2760446 L37.1585377,31.2760446 C37.8020377,28.4228839 38.3925566,25.4577054 38.892566,22.4518929 L38.892566,22.4518929 Z M25.983934,19.234125 C29.5171132,20.4762054 33.3703868,21.478875 37.4388962,22.2058929 C36.9135,25.2863839 36.2998019,28.3427143 35.6265,31.2947143 C33.5878302,31.3320536 31.5094245,31.4319911 29.4420566,31.5769554 C29.2798019,26.2528125 27.2422358,21.6128571 25.983934,19.234125 L25.983934,19.234125 Z M29.4365377,33.0584464 C31.3891132,32.9189732 33.3626604,32.8300179 35.2898491,32.7795 C34.0602453,37.8883929 32.6242358,42.7479911 30.9983774,47.2363929 C29.9906321,46.5225536 28.967434,45.7757679 27.9718302,45.0070179 C27.3305377,44.5161161 26.6892453,44.018625 26.0755472,43.5068571 C28.162783,40.3670625 29.3040849,36.8461875 29.4365377,33.0584464 L29.4365377,33.0584464 Z M18.9429623,37.2371518 C18.0301415,36.3662679 17.1658868,35.5118571 16.3689623,34.6969821 C20.2299623,34.0084018 24.1284906,33.4977321 27.953066,33.1759554 C27.7886038,36.5837143 26.7676132,39.7421786 24.9232075,42.5689821 C22.8712925,40.8700446 20.8679434,39.0777589 18.9429623,37.2371518 L18.9429623,37.2371518 Z M15.0786509,52.8460714 C19.4065472,50.5573929 22.8172075,47.8217411 25.2090849,44.7115982 C25.8062264,45.2025 26.4342736,45.6868125 27.0722547,46.1744196 C28.2003113,47.0485982 29.3504434,47.8865357 30.4729811,48.67725 C29.1915,52.0608482 27.7963302,55.2621429 26.2996132,58.2042589 C21.2641981,55.62675 17.1548491,53.7619821 15.0786509,52.8460714 L15.0786509,52.8460714 Z M21.8536132,70.2198214 C21.4121038,70.2198214 20.9871509,70.2088393 20.5798585,70.2011518 C22.8580472,67.2458571 24.9993679,63.8809286 26.9398019,60.1942232 C29.4034245,61.4780357 31.8538019,62.8101696 34.2081509,64.1379107 C33.847217,65.8763839 33.4973208,67.6642768 33.179434,69.4565625 C28.1947925,70.0836429 24.2664623,70.2198214 21.8536132,70.2198214 L21.8536132,70.2198214 Z M32.6783208,82.902 C33.1551509,78.8594732 33.7478774,74.7796071 34.4531887,70.7799107 C37.2126226,70.402125 40.0073774,69.9145179 42.7723302,69.3192857 L42.822,69.3544286 L42.8297264,69.3676071 C43.0261981,72.2394375 43.4136226,75.1705714 43.9710283,78.0885268 C38.3704811,80.1564643 34.2854151,82.1046964 32.6783208,82.902 L32.6783208,82.902 Z M44.216066,67.4841696 C44.1807453,66.5814375 44.1652925,65.682 44.1652925,64.805625 C44.1652925,61.9173214 44.367283,59.0235268 44.7414623,56.1912321 C47.7646981,57.1971964 50.6488585,57.7001786 53.3067453,57.7001786 C60.2461698,57.7001786 65.7926321,54.2682589 69.7993302,47.4988661 C70.4450377,46.3885714 71.0653585,45.1695536 71.6415283,43.8846429 C73.4528208,47.216625 75.1007547,50.691375 76.5599434,54.2144464 C66.6568868,60.3336964 55.7814057,64.7968393 44.216066,67.4841696 L44.216066,67.4841696 Z M44.4048113,70.3966339 C46.9732925,72.1054554 49.383934,73.8318482 51.5539528,75.5132143 C49.466717,76.1545714 47.3938302,76.8475446 45.3794434,77.5635804 C44.9302075,75.1738661 44.6034906,72.7621875 44.4048113,70.3966339 L44.4048113,70.3966339 Z M52.859717,84.8425446 C50.8618868,86.9104821 49.4887925,89.005875 48.8265283,90.1315446 C47.4876509,86.4064018 46.4214057,82.6746696 45.6620094,79.0395804 C48.0538868,78.1763839 50.5175094,77.3593125 52.9700943,76.6279018 C54.7394434,78.0533839 56.3818585,79.4821607 57.8542925,80.8670089 C56.0805283,81.9169018 54.3917547,83.2512321 52.859717,84.8425446 L52.859717,84.8425446 Z M67.3136321,90.1172679 C65.6899811,87.2322589 63.3422547,84.2429196 60.3455094,81.2228304 C62.7881604,80.0927679 65.412934,79.5184018 68.1381509,79.5184018 C68.888717,79.5184018 69.6701887,79.5612321 70.4351038,79.6446964 C68.445,84.1484732 67.6315189,88.0658036 67.3136321,90.1172679 L67.3136321,90.1172679 Z M71.8048868,76.8266786 C71.5598491,77.2824375 71.3203302,77.7590625 71.0885377,78.2356875 C70.1116981,78.1071964 69.1238208,78.0456964 68.1326321,78.0456964 C65.0122642,78.0456964 62.0011698,78.7452589 59.2251792,80.119125 C57.8487736,78.8067589 56.3277736,77.4614464 54.6963962,76.121625 C61.3985094,74.2063393 68.162434,72.8050179 74.7939057,71.9747679 C73.6956509,73.5287411 72.6945283,75.1595893 71.8048868,76.8266786 L71.8048868,76.8266786 Z M84.0755377,82.7361696 C84.0943019,82.9459286 84.1163774,83.1359196 84.1373491,83.3127321 C80.1582453,80.8428482 76.284,79.2163929 72.6183679,78.4948661 C73.792783,76.1238214 75.2122358,73.8527143 76.8049811,71.7364554 C78.5688113,71.5453661 80.3514057,71.3905179 82.0755,71.2785 C82.533566,73.2179464 82.9364434,75.1420179 83.2653679,77.0243571 C83.6185755,79.0472679 83.8923113,80.9658482 84.0755377,82.7361696 L84.0755377,82.7361696 Z M95.6541226,69.7322143 C93.6,69.6245893 91.518283,69.5630893 89.4509151,69.5630893 C87.399,69.5630893 85.3007264,69.6201964 83.2278396,69.7300179 C82.8989151,68.4165536 82.5435,67.0932054 82.1638019,65.7962143 C84.4662736,63.6634821 87.0546226,61.7053661 89.8493774,59.9745804 C91.9112264,64.7463214 94.3318019,68.1002679 95.6541226,69.7322143 L95.6541226,69.7322143 Z M90.5712453,57.8154911 C89.353783,54.6592232 88.500566,51.3316339 88.0093868,47.9326607 C88.8879906,47.2330982 89.7577642,46.5016875 90.6297453,45.7647857 C93.3384057,47.2298036 95.9101981,48.7815804 98.28,50.3761875 C99.4533113,51.1712946 100.565915,51.9664018 101.561519,52.7252679 L101.634368,52.7812768 C97.6552642,54.1716161 93.9421698,55.8705536 90.5712453,57.8154911 L90.5712453,57.8154911 Z" id="Fill-7" sketch:type="MSShapeGroup"></path>
            <path d="M6.65575472,122.726545 C2.8455283,122.726545 0.543056604,120.848598 0.543056604,118.938804 L0.543056604,109.18117 C0.543056604,107.265884 2.8455283,105.379152 6.65575472,105.379152 C9.10833962,105.379152 10.8743774,105.834911 11.8953679,106.370839 L11.8953679,107.881982 C11.3191981,107.641473 9.27059434,106.807929 6.65575472,106.807929 C3.8819717,106.807929 2.52764151,108.20925 1.97575472,109.026321 L1.97575472,119.089259 C2.52764151,119.900839 3.8819717,121.315339 6.65575472,121.315339 C8.60281132,121.315339 10.1723774,120.862875 11.0741604,120.516938 L11.0741604,114.753509 L7.63590566,114.753509 C7.23413208,114.753509 6.90631132,114.456991 6.90631132,114.060536 C6.90631132,113.66408 7.23413208,113.323634 7.63590566,113.323634 L12.509066,113.323634 L12.509066,121.451518 C11.4726226,122.191714 9.10833962,122.726545 6.65575472,122.726545" id="Fill-8" sketch:type="MSShapeGroup"></path>
            <path d="M16.3722736,122.562911 L16.3722736,106.097384 C16.3722736,105.680062 16.6846415,105.379152 17.0808962,105.379152 C17.4793585,105.379152 17.8049717,105.680062 17.8049717,106.097384 L17.8049717,122.562911 L16.3722736,122.562911" id="Fill-9" sketch:type="MSShapeGroup"></path>
            <path d="M26.6704811,122.726545 C24.5711038,122.726545 21.7918019,121.852366 21.7918019,119.787723 L21.7918019,113.281902 C21.7918019,111.217259 24.5711038,110.340884 26.6704811,110.340884 C28.7466792,110.340884 31.5469528,111.217259 31.5469528,113.281902 L31.5469528,119.787723 C31.5469528,121.852366 28.7466792,122.726545 26.6704811,122.726545 M30.0822453,113.130348 C29.3846604,112.296804 28.2378396,111.771857 26.6704811,111.771857 C25.0987075,111.771857 23.9430566,112.296804 23.2245,113.130348 L23.2245,119.940375 C23.9430566,120.760741 25.0987075,121.315339 26.6704811,121.315339 C28.2378396,121.315339 29.3846604,120.760741 30.0822453,119.940375 L30.0822453,113.130348" id="Fill-10" sketch:type="MSShapeGroup"></path>
            <path d="M40.0713962,122.726545 C37.9676038,122.726545 35.1860943,121.852366 35.1860943,119.787723 L35.1860943,106.097384 C35.1860943,105.714107 35.5205377,105.379152 35.919,105.379152 C36.3174623,105.379152 36.6221038,105.680062 36.6221038,106.097384 L36.6221038,111.163446 C37.6155,110.614339 39.160783,110.340884 40.2976698,110.340884 C42.3573113,110.340884 44.9445566,111.217259 44.9445566,113.281902 L44.9445566,119.787723 C44.9445566,121.852366 42.144283,122.726545 40.0713962,122.726545 M43.4964057,113.130348 C42.7800566,112.296804 41.8352264,111.771857 40.2976698,111.771857 C38.7192736,111.771857 37.3594245,112.296804 36.6221038,113.130348 L36.6221038,119.940375 C37.3594245,120.760741 38.5073491,121.315339 40.0713962,121.315339 C41.6199906,121.315339 42.7800566,120.760741 43.4964057,119.940375 L43.4964057,113.130348" id="Fill-11" sketch:type="MSShapeGroup"></path>
            <path d="M53.6698868,122.725446 C51.3221604,122.725446 48.2713302,122.232348 48.2713302,120.253366 L48.2713302,118.18433 C48.2713302,116.566661 50.3850566,116.276732 52.3177642,115.81658 L56.5672925,114.830384 L56.5672925,113.12925 C55.8354906,112.296804 54.6908774,111.770759 53.1257264,111.770759 C51.548434,111.770759 49.8353774,112.234205 49.3508208,112.382464 L49.3508208,110.897679 C50.1852736,110.517696 52.0385094,110.340884 53.1257264,110.340884 C55.2151698,110.340884 58.0021981,111.217259 58.0021981,113.281902 L58.0021981,122.093973 C56.9337453,122.382804 55.2648396,122.725446 53.6698868,122.725446 M56.5672925,116.320661 L52.6334434,117.212411 C50.4038208,117.720884 49.9027075,117.807643 49.700717,118.148089 L49.700717,120.298393 C50.4281038,121.128643 51.6963396,121.316437 53.6698868,121.316437 C54.4480472,121.316437 55.5738962,121.113268 56.5672925,120.919982 L56.5672925,116.320661" id="Fill-12" sketch:type="MSShapeGroup"></path>
            <path d="M61.9835094,122.562911 L61.9835094,106.097384 C61.9835094,105.680062 62.2738019,105.379152 62.677783,105.379152 C63.0762453,105.379152 63.4106887,105.680062 63.4106887,106.097384 L63.4106887,122.562911 L61.9835094,122.562911" id="Fill-13" sketch:type="MSShapeGroup"></path>
            <path d="M80.8337547,122.561813 L71.9119528,122.561813 L71.9119528,106.276393 C71.9119528,105.879937 72.2188019,105.554866 72.6205755,105.554866 L80.2355094,105.554866 C82.2035377,105.554866 83.4618396,107.9325 83.4618396,110.030089 C83.4618396,111.261188 83.0225377,112.848107 82.2741792,113.838696 C83.3779528,114.670045 84.0380094,116.403027 84.0380094,117.948214 C84.0380094,120.051295 82.7984717,122.561813 80.8337547,122.561813 M80.637283,106.980348 L73.3501698,106.980348 L73.3501698,113.322536 L80.8337547,113.322536 C81.5225094,112.604304 82.0015472,111.484125 82.0015472,110.030089 C82.0015472,108.457446 81.4342075,107.701875 80.637283,106.980348 M81.232217,114.755705 L73.3501698,114.755705 L73.3501698,121.128643 L81.232217,121.128643 C82.0015472,120.406018 82.6031038,119.527446 82.6031038,117.948214 C82.6031038,116.363491 82.0015472,115.489312 81.232217,114.755705" id="Fill-14" sketch:type="MSShapeGroup"></path>
            <path d="M87.5325566,122.562911 L87.5325566,106.097384 C87.5325566,105.680062 87.8250566,105.379152 88.2356604,105.379152 C88.6363302,105.379152 88.9564245,105.680062 88.9564245,106.097384 L88.9564245,122.562911 L87.5325566,122.562911" id="Fill-15" sketch:type="MSShapeGroup"></path>
            <path d="M97.929,122.726545 C95.8207925,122.726545 93.0470094,121.851268 93.0470094,119.787723 L93.0470094,110.518795 L94.4775,110.518795 L94.4775,119.941473 C95.2148208,120.760741 96.3616415,121.315339 97.929,121.315339 C99.4930472,121.315339 100.63766,120.760741 101.356217,119.941473 L101.356217,110.518795 L102.799953,110.518795 L102.799953,119.787723 C102.799953,121.851268 99.9963679,122.726545 97.929,122.726545" id="Fill-16" sketch:type="MSShapeGroup"></path>
            <path d="M107.896075,117.253045 L107.896075,119.942571 C108.614632,120.759643 109.761453,121.316437 111.324396,121.316437 C113.101472,121.316437 114.042991,121.003446 114.751613,120.759643 C115.133519,120.616875 115.527566,120.818946 115.653396,121.193437 C115.788057,121.57342 115.597104,121.962187 115.219613,122.093973 C114.022019,122.527768 112.982264,122.725446 111.324396,122.725446 C109.23716,122.725446 106.45234,121.852366 106.45234,119.786625 L106.45234,113.281902 C106.45234,111.217259 109.23716,110.340884 111.324396,110.340884 C113.402802,110.340884 116.205283,111.217259 116.205283,113.281902 L116.205283,117.253045 L107.896075,117.253045 L107.896075,117.253045 Z M111.324396,111.770759 C109.761453,111.770759 108.614632,112.296804 107.896075,113.12925 L107.896075,115.81658 L114.751613,115.81658 L114.751613,113.12925 C114.042991,112.296804 112.877406,111.770759 111.324396,111.770759 L111.324396,111.770759 Z" id="Fill-17" sketch:type="MSShapeGroup"></path>
        </g>
    </g>
</svg>