<?xml version="1.0" encoding="UTF-8" standalone="no"?>
<svg width="250px" height="150px" viewBox="0 0 250 150" version="1.1" xmlns="http://www.w3.org/2000/svg" xmlns:xlink="http://www.w3.org/1999/xlink" xmlns:sketch="http://www.bohemiancoding.com/sketch/ns">
    <!-- Generator: Sketch 3.2.2 (9983) - http://www.bohemiancoding.com/sketch -->
    <title>harrods</title>
    <desc>Created with Sketch.</desc>
    <defs></defs>
    <g id="Page-1" stroke="none" stroke-width="1" fill="none" fill-rule="evenodd" sketch:type="MSPage">
        <g id="Fill-320" sketch:type="MSLayerGroup" transform="translate(49.000000, 40.000000)" fill="#888C85">
            <path d="M143.950336,39.3825714 C141.81821,41.3857619 141.04858,42.9979524 141.04858,45.2092381 C141.04858,48.640619 144.065615,49.3831905 147.529497,50.7314286 C150.100783,51.7291905 152.084692,52.5035238 152.084692,54.8265238 C152.084692,59.5645238 143.774671,61.3125238 141.893965,63.2510952 C141.034308,64.1415238 140.599538,65.002381 140.599538,66.313381 C140.599538,66.994619 140.639063,68.5082381 142.480245,68.5082381 C144.704594,68.5082381 149.32786,65.8008095 151.803629,63.9640952 C154.534112,61.9368095 155.996517,59.5294762 155.996517,56.3280952 C155.996517,53.6611905 154.392483,51.4652381 152.646818,50.3940952 C151.080112,49.4324762 148.764636,48.971381 147.107902,48.3 C144.039266,47.0481429 144.946133,45.4644286 146.274594,44.040619 C150.353301,39.6892381 153.754601,41.0002381 155.590294,38.9609048 C156.370902,38.092381 156.529,36.712381 156.529,36.2972857 C156.529,34.8471905 155.469524,33.8483333 154.316727,33.8483333 C153.195769,33.8483333 147.567923,35.9818571 143.950336,39.3825714 M132.180825,40.8731905 C133.247986,40.8731905 132.962531,42.1097143 132.962531,42.5357619 C132.962531,44.3724762 129.243937,54.1847143 126.933951,54.1847143 C126.417937,54.1847143 126.132483,53.8802381 126.132483,52.8594762 C126.132483,50.3820476 129.740189,40.8731905 132.180825,40.8731905 M108.074189,43.562 C109.600273,43.7514762 109.483895,44.5849524 111.152706,45.098619 C112.82042,45.6100952 113.846958,45.3527143 114.743944,45.3527143 C115.644224,45.3527143 115.673867,45.7360476 115.673867,47.403 C115.673867,49.5343333 114.771392,54.7947619 110.749776,54.7947619 C106.858811,54.7947619 106.484427,49.9209524 106.484427,47.7852381 C106.484427,45.098619 107.046552,43.4316667 108.074189,43.562 M109.692497,40.6333333 C109.692497,39.2664762 110.799182,38.7769048 111.82572,38.7769048 C113.022434,38.7769048 114.743944,40.2171429 114.743944,41.4974762 C114.743944,42.223619 114.160958,43.1129524 112.836888,43.1129524 C111.679699,43.1129524 109.692497,42.1688571 109.692497,40.6333333 M21.2191538,68.6166667 L23.5434126,68.6166667 C25.870965,68.6166667 26.173986,67.4962381 26.173986,64.8085238 C26.173986,64.8085238 26.1564196,43.976 26.1564196,42.568619 C26.1564196,41.1612381 26.4363846,40.8720952 27.855972,40.6815238 C29.2843427,40.4898571 33.4047692,40.0725714 34.4356993,40.0725714 C35.2733986,40.0725714 35.9321399,40.2762857 35.830035,41.8983333 L35.830035,65.1929524 C35.830035,67.8850476 36.1462308,68.3954286 37.3067133,68.3954286 L39.4695804,68.3954286 C40.9912727,68.3954286 41.3173497,66.9420476 41.3173497,65.1929524 C41.3173497,63.6574286 41.3008811,43.1775714 41.3008811,41.5117143 C41.3008811,40.0572381 41.5017972,39.6114762 43.2233077,39.4187143 C43.7865315,39.353 46.4302797,39.1624286 47.6193077,39.1624286 C50.3805315,39.1624286 51.1347902,39.9082857 50.0094406,41.6562857 C49.2387133,42.8522857 46.7047552,49.0217619 46.7047552,52.3950952 C46.7047552,54.0576667 47.6335804,57.2557619 49.9457622,57.2557619 C52.2557483,57.2557619 54.5097413,53.8528571 55.9776364,51.4170476 C57.225951,49.3371905 57.866028,49.3777143 58.539042,51.7532857 C58.9430699,53.1606667 59.3141608,56.1911905 60.9884615,57.1035238 C61.5429021,57.4058095 62.4223217,57.5032857 63.1491329,57.0958571 C66.5043217,55.2197143 69.7156853,47.6844762 71.0529301,41.9454286 C71.8357343,38.5808571 74.495951,39.0211429 74.3268741,41.8983333 L74.3268741,52.0270952 C74.3268741,53.6239524 75.0470979,56.1681905 76.93,57.127619 C77.7907552,57.564619 79.149958,57.4211429 80.0469441,57.058619 C83.7809091,55.540619 86.967021,43.4119524 87.5412238,41.4021905 C88.2493706,38.911619 90.746,39.5052381 90.6186434,41.768 L90.6186434,51.9591905 C90.6186434,54.2318095 91.5957762,56.5033333 92.9429021,57.1352857 C94.0364126,57.6478571 95.4164755,57.5700952 96.4331329,57.0454762 C97.7429301,56.3784762 98.8671818,54.5340952 99.729035,53.1606667 C100.794,51.4685238 101.493364,51.4816667 102.811944,53.4180476 C103.532168,54.4804286 105.510587,57.4320952 109.614545,57.4320952 C115.427937,57.4320952 118.031063,51.3272381 118.031063,47.545381 C118.031063,45.7579524 118.237469,44.528 119.137748,44.0581429 C120.085238,43.562 121.53886,42.8730952 122.313979,42.8730952 C123.545825,42.8730952 122.888182,44.5017143 122.764119,44.9858095 C122.521483,45.9277143 121.800161,48.8728095 121.800161,50.8727143 C121.800161,54.1584286 122.99907,57.3696667 125.778958,57.3696667 C128.53579,57.3696667 130.846874,53.7838571 131.616503,52.5539048 C132.535448,51.0797143 133.352287,51.1125714 133.509287,52.6327619 C133.641035,53.8517619 133.607,54.2668571 133.607,54.2668571 C133.607,56.3992857 134.247077,57.3532381 135.386699,57.3532381 L136.766762,57.3532381 C137.888818,57.3532381 139.125056,56.3412381 139.125056,53.7389524 L139.125056,13.4801905 C139.125056,11.4331905 138.71993,11.0487619 137.310224,11.0487619 L136.176091,11.0487619 C134.760895,11.0487619 133.98907,11.6894762 133.98907,13.4801905 L133.98907,34.7289048 C133.98907,35.7529524 133.623469,36.2501905 132.853839,36.2501905 C131.457308,36.2501905 130.944587,36.3870952 130.145315,36.777 C126.998727,38.313619 123.364671,40.1032381 120.951483,40.8841429 C118.584406,41.653 117.983853,41.8402857 117.310839,40.7888571 C115.831965,38.4614762 114.219147,36.0092381 109.870357,36.0092381 C106.954329,36.0092381 104.694846,37.4308571 103.110573,39.5523333 C101.430783,41.8019524 101.06628,44.2848571 100.326294,46.4906667 C98.6915175,51.377619 96.0104406,54.5395714 96.0104406,50.7281429 L95.9961678,46.4391905 L96.105958,42.4569048 C96.105958,39.656381 93.0098741,38.7440476 91.1675944,38.184381 C88.9322657,37.5064286 88.7598951,36.2655238 88.7598951,34.0739524 C88.7598951,31.8539048 88.502986,30.056619 86.5783636,30.056619 C85.5957413,30.056619 83.0991119,30.7882381 83.0991119,34.0739524 C83.0991119,36.5064762 85.5518252,37.513 85.5518252,39.6739048 C85.5518252,41.128381 83.9455944,46.1500476 82.9047832,48.5858571 C82.2174965,50.2024286 81.2118182,52.2505238 80.5761329,52.2505238 C79.9711888,52.2505238 79.8097972,51.5868095 79.8097972,50.2484286 L79.8097972,41.8797143 C79.8097972,39.2412857 76.280042,38.3442857 74.3268741,37.6729048 C72.5834056,37.0738095 72.5460769,35.9873333 72.5460769,33.7694762 C72.5460769,30.3994286 71.3515594,29.720381 70.1537483,29.720381 C68.6155874,29.720381 66.8809021,30.8353333 66.8809021,33.6084762 C66.8809021,36.5064762 69.3061678,37.0015238 69.3061678,39.4658095 C69.3061678,41.0177619 66.9314056,48.3602381 65.4876643,50.7139048 C64.4468531,52.4027619 63.933035,52.325 63.417021,50.8102857 C62.8098811,49.0261429 62.3202168,43.2969524 61.8459231,42.0429048 C61.3815105,40.8085714 59.5238601,40.8107619 58.795951,42.0242857 C57.8023497,43.6890476 54.6755245,49.9132857 52.5917063,52.458619 C52.4259231,52.6579524 50.9086224,54.5121905 50.9086224,52.5856667 C50.9086224,50.1969524 54.244049,45.1292857 56.9218322,42.3791429 C59.0330979,40.2105714 61.6197552,39.721 61.6197552,37.7528571 C61.6197552,35.6609524 58.9902797,35.7529524 57.0667552,35.7529524 C51.3708392,35.7529524 45.1007203,36.1702381 43.0169021,36.2655238 C41.3887133,36.3410952 41.3458951,36.1165714 41.3458951,34.2809524 L41.3458951,2.85528571 C41.3458951,1.59247619 40.7091119,0.676857143 39.3597902,0.676857143 C39.3422238,0.676857143 38.6703077,0.680142857 38.6703077,0.680142857 C36.5535524,0.680142857 35.830035,1.38328571 35.830035,4.51895238 L35.830035,34.6018571 C35.830035,36.3509524 35.4721189,36.8865238 34.0503357,37.0661429 L27.8746364,37.6729048 C26.5911888,37.784619 26.3342797,37.4965714 26.3342797,35.240381 L26.3342797,4.51895238 C26.3342797,0.647285714 24.3997762,0.680142857 23.4182517,0.680142857 L21.6363566,0.680142857 C20.6932587,0.680142857 18.6368881,1.6187619 18.6368881,4.51895238 L18.6368881,36.2655238 C18.6368881,38.3782381 18.4656154,38.6838095 16.5805175,38.9532381 C14.7843497,39.2084286 5.1304965,40.360619 1.88839161,40.7450476 C0.686188811,40.8874286 0.21958042,41.009 0.0614825175,41.5500476 C0.0131748252,41.722 0.0439160839,42.3594286 0.0581888112,42.5215238 C0.105398601,43.1512857 0.804762238,43.511619 1.61611189,43.4163333 C3.28711888,43.2246667 15.3651399,41.768 15.3651399,41.768 C17.8562797,41.450381 18.5051399,41.5259524 18.5051399,43.4809524 L18.5051399,65.3221905 C18.5051399,67.2837619 19.4625105,68.6166667 21.2191538,68.6166667" id="Fill-144" sketch:type="MSShapeGroup"></path>
        </g>
    </g>
</svg>