<?xml version="1.0" encoding="UTF-8" standalone="no"?>
<svg width="250px" height="150px" viewBox="0 0 250 150" version="1.1" xmlns="http://www.w3.org/2000/svg" xmlns:xlink="http://www.w3.org/1999/xlink" xmlns:sketch="http://www.bohemiancoding.com/sketch/ns">
    <!-- Generator: Sketch 3.2.2 (9983) - http://www.bohemiancoding.com/sketch -->
    <title>nationaltrust</title>
    <desc>Created with Sketch.</desc>
    <defs></defs>
    <g id="Page-1" stroke="none" stroke-width="1" fill="none" fill-rule="evenodd" sketch:type="MSPage">
        <g id="Group-4" sketch:type="MSLayerGroup" transform="translate(84.000000, 11.000000)" fill="#888C85">
            <path d="M58.9309487,30.0788966 C59.7556667,28.6355862 60.8361795,27.1988966 62.0710513,25.9950345 C63.9773846,24.1412414 66.3556154,23.0841379 67.9444103,23.0841379 C69.5607692,23.0841379 70.1969487,23.6435862 70.4979487,23.6435862 C70.7614615,23.6435862 70.993,23.264 71.4042564,23.1426207 C71.5497949,23.113931 71.5255385,23.0565517 71.6655641,23.0565517 C71.8463846,23.0565517 72.1981026,23.3776552 72.1981026,23.5553103 C72.1981026,23.702069 72.1374615,23.702069 72.1121026,23.8212414 C72.0205897,24.2328276 71.6655641,24.4667586 71.6655641,24.7304828 C71.6655641,24.9986207 72.4880769,25.4962759 72.4880769,27.4913103 C72.4880769,29.398069 71.2565128,32.3111724 69.5243846,34.3977931 C68.4692308,35.6634483 67.5618205,36.2184828 67.2067949,36.5693793 C67.0028205,36.7724138 66.9168205,37.1608276 66.6786667,37.3671724 C66.4151538,37.5955862 66.2971795,37.3947586 66.2089744,37.5668966 C66.1218718,37.7467586 65.8572564,37.8052414 65.6819487,37.7467586 C65.5022308,37.6871724 65.6510769,37.8350345 65.4768718,37.9222069 C65.3037692,38.0137931 65.2662821,37.9806897 65.0656154,38.038069 C64.8605385,38.0965517 64.9741026,38.2124138 64.4195128,38.3315862 C64.5915128,38.4187586 65.5022308,38.3051034 65.7106154,38.3051034 C65.9167949,38.3051034 66.5298205,38.1241379 66.7348974,38.1241379 C66.9421795,38.1241379 66.9421795,38.0689655 67.148359,38.0689655 C67.3545385,38.0689655 67.320359,38.0965517 67.4438462,38.0965517 C67.5618205,38.0965517 67.9444103,37.9222069 68.2068205,38.0965517 C68.2950256,38.0137931 68.7051795,38.038069 68.817641,38.038069 C68.9378205,38.038069 68.9653846,38.1572414 69.1142308,38.1870345 C69.2619744,38.2124138 69.5243846,38.1870345 69.7316667,38.2433103 C69.7878974,38.2731034 69.8485385,38.2731034 69.9643077,38.390069 C70.3788718,38.3657931 70.7283846,38.5997241 70.8187949,38.7155862 C70.993,38.9208276 71.1142821,38.7718621 71.2024872,38.8634483 C71.2851795,38.9495172 71.5784615,39.0422069 71.6413077,39.2132414 C71.6655641,39.3048276 71.6137436,39.3633103 71.6655641,39.4195862 C71.7284103,39.4758621 71.9334872,39.4758621 71.9930256,39.5111724 C72.0492564,39.5365517 72.1121026,39.625931 72.1683333,39.6833103 C72.2256667,39.7737931 72.4329487,39.830069 72.3701026,40.0651034 C72.6931538,40.0651034 72.9621795,40.448 72.9621795,40.6532414 L72.9621795,40.8595862 C72.9621795,40.8595862 73.0470769,40.9489655 73.1672564,40.9776552 C73.2830256,41.0085517 73.4903077,41.4753103 73.4329744,41.6816552 C73.3712308,41.8571034 73.4572308,41.8306207 73.4572308,41.9464828 C73.4572308,43.7704828 70.0227436,45.2391724 65.4140256,45.2391724 C63.6532308,45.2391724 62.952,44.5307586 62.8648974,44.2681379 C62.8064615,44.1224828 62.8064615,44.0595862 62.8064615,43.9470345 C62.7458205,43.8576552 62.565,43.5928276 62.711641,43.3291034 C62.711641,43.3291034 62.6245385,43.1801379 62.6245385,42.9748966 C62.6543077,42.5622069 62.8064615,42.5953103 62.8064615,42.4452414 C62.8064615,42.3624828 62.7733846,42.2962759 62.7733846,42.2113103 C62.7733846,42.0049655 62.8648974,41.9762759 62.9189231,41.6816552 C62.9806667,41.4488276 63.0093333,41.6264828 63.124,41.417931 C63.2408718,41.2148966 63.2408718,41.3594483 63.2408718,41.0935172 C63.2408718,40.8275862 63.3048205,40.8022069 63.5639231,40.7128276 C63.5639231,40.7128276 63.6289744,40.3310345 63.9167436,40.2990345 C64.0391282,40.2990345 63.9773846,40.1522759 64.0391282,40.0077241 C64.095359,39.8631724 64.267359,39.9757241 64.3291026,39.830069 C64.3588718,39.7417931 64.6554615,39.4758621 64.9741026,39.4195862 C63.829641,39.3875862 63.1548718,39.6833103 62.6543077,39.6535172 C62.3047949,39.625931 62.1868205,39.5674483 60.6884359,39.8918621 C58.8427436,40.2990345 55.4644872,42.0347586 53.793,43.0642759 C51.7058462,44.3508966 46.2790256,48.1423448 44.5116154,51.4350345 C44.2205385,51.9393103 43.6053077,55.049931 42.8665897,57.8372414 C42.0187179,61.0449655 40.9911282,64.1324138 40.9326923,64.6852414 C41.4012821,64.0397241 41.899641,63.5431724 42.4277692,63.5431724 C43.3726667,63.5431724 43.1334103,64.6852414 43.2524872,64.7768276 C43.4002308,64.8651034 43.4002308,64.5384828 43.4002308,64.2471724 C43.4002308,63.9536552 43.4608718,63.2761379 43.8974872,62.5710345 C44.3980513,61.7743448 45.2812051,60.9544828 46.3617179,60.1070345 C47.4157692,59.2805517 48.1269231,57.1387586 48.6837179,55.5497931 C49.2405128,53.961931 50.2692051,52.2052414 51.6782821,52.2052414 C52.6772051,52.2052414 53.2648718,53.0824828 53.4677436,53.4377931 C53.7025897,53.8736552 53.9925641,54.8148966 54.3464872,54.7553103 C55.169,54.6074483 57.1370769,50.2311724 58.8129744,48.4987586 C59.6068205,47.6777931 60.4568974,46.6791724 61.9574872,46.6791724 C64.5915128,46.6791724 64.2122308,50.377931 65.2662821,50.377931 C65.9697179,50.377931 66.4438205,49.3208276 66.7646667,48.8838621 C67.4438462,47.9084138 69.5839231,46.1771034 70.8507692,46.1771034 C72.0790256,46.1771034 72.2863077,47.1768276 72.2863077,48.0606897 C72.2863077,48.7657931 72.1121026,49.4102069 72.8155385,49.4102069 C73.2532564,49.4102069 74.5454615,47.1194483 76.1629231,47.1194483 C76.8068205,47.1194483 77.4826923,47.5288276 77.4826923,48.3497931 C77.4826923,49.1166897 77.3658205,49.5227586 77.3658205,49.7622069 C77.3658205,49.9983448 77.5686923,50.1462069 77.8641795,50.1462069 C78.2192051,50.1462069 78.5687179,50.0524138 78.8664103,50.0524138 C79.5643333,50.0524138 80.1817692,50.4937931 80.1817692,51.4350345 C80.1817692,52.5230345 79.5974103,53.2855172 78.8917692,54.1142069 C78.6006923,54.4331034 78.5124872,54.697931 78.7451282,55.0808276 C79.1277179,55.6965517 79.7418462,55.8433103 79.7418462,56.3718621 C79.7418462,57.6651034 78.8917692,58.1064828 78.1276923,58.2830345 C77.3933846,58.4628966 75.955641,58.5136552 75.955641,59.5122759 C75.955641,60.3718621 77.1045128,60.9544828 77.1045128,62.4551724 C77.1045128,63.1028966 76.8630513,63.657931 75.9843077,64.1324138 C75.0162564,64.6576552 73.1066154,64.7404138 72.8155385,64.7404138 C71.9334872,64.7404138 70.7283846,64.5693793 70.0227436,64.5693793 C69.3193077,64.5693793 68.6754103,64.6013793 68.6754103,65.0085517 C68.6754103,65.801931 70.2917692,66.3911724 70.2917692,68.0342069 C70.2917692,69.7390345 67.6775897,70.0347586 66.1472308,70.0347586 C64.3291026,70.0347586 62.9189231,69.7114483 61.3973846,69.1806897 C60.6035385,68.9158621 59.0158462,68.0948966 57.8405128,68.0948966 C57.1370769,68.0948966 56.785359,68.3277241 56.785359,68.6245517 C56.785359,69.1222069 58.0169231,70.0347586 58.0169231,71.2684138 C58.0169231,72.3233103 57.1370769,72.736 56.3156667,72.736 C53.3497692,72.736 51.3827949,69.238069 47.0971282,69.238069 C46.0133077,69.238069 45.5722821,69.6805517 44.2756667,69.6805517 C42.6350513,69.6805517 42.1344872,69.1222069 42.1675641,68.1533793 C41.1113077,68.6245517 39.8168974,69.6805517 39.8168974,71.0896552 C39.8168974,72.2085517 39.9271538,72.7878621 40.3406154,73.2281379 C40.7496667,73.6695172 41.2777949,73.8151724 41.3759231,74.185931 C41.6714103,74.4761379 41.2414103,75.2628966 41.4475897,76.6686897 C41.6074615,77.7511724 41.9382308,79.1966897 42.1003077,79.5575172 C42.2502564,79.8885517 41.0616923,80.0176552 40.7276154,80.0187586 C40.1862564,80.0231724 38.3449744,80.0628966 38.2854359,79.5542069 C38.1178462,78.1462069 36.9105385,72.9456552 36.4739231,71.766069 C35.8851538,70.2113103 35.6238462,70.3558621 34.6524872,69.5944828 C33.8244615,68.8904828 29.8695641,66.2113103 27.7515385,66.2113103 C27.1925385,66.2113103 27.4891282,66.1285517 27.0458974,66.1285517 C26.7526154,66.1285517 26.9896667,66.0678621 26.8121538,66.0678621 C26.6390513,66.0678621 26.6688205,66.2113103 26.376641,66.2113103 C26.1980256,66.2113103 26.3148974,66.7133793 26.1980256,66.7133793 C26.0194103,66.7133793 26.0822564,66.8932414 26.0524872,67.0929655 C26.0194103,67.3026207 25.8418974,67.4228966 25.8132308,67.5972414 C25.7889744,67.7715862 25.5761795,67.5972414 25.5761795,67.8013793 C25.5761795,68.0077241 25.671,68.0077241 25.5761795,68.1268966 C25.4074872,68.361931 25.430641,68.4766897 25.2884103,68.4766897 C25.1417692,68.4766897 25.1417692,68.5351724 25.1417692,68.5947586 C25.1417692,68.8628966 25.2597436,68.8297931 25.0833333,68.9787586 C24.9058205,69.1222069 24.6698718,69.1222069 24.6698718,69.3583448 C24.6698718,69.4455172 24.6125385,69.5028966 24.5827692,69.5944828 C24.4658974,69.5944828 24.3490256,69.7114483 24.2883846,69.801931 C24.2277436,69.8902069 24.2586154,69.7390345 24.1417436,69.9486897 C24.0281795,70.153931 24.0557436,70.1208276 23.9091026,70.1208276 C23.4978462,70.1208276 23.6433846,70.3282759 23.0546154,70.3282759 C21.0887436,70.3282759 18.7380769,66.8932414 18.7380769,64.1886897 C18.7380769,62.304 19.0071026,62.3326897 19.0677436,61.9531034 C19.1206667,61.5691034 19.4172564,61.1928276 19.6487949,61.1586207 C19.8847436,61.1310345 19.7954359,61.0449655 20.0611538,61.0791724 C20.0335897,60.9291034 20.270641,60.8971034 20.3831026,60.8375172 C20.5562051,60.7470345 20.6763846,60.7470345 20.9123333,60.8971034 C20.9994359,60.8375172 21.0633846,60.7470345 21.2386923,60.7470345 C21.4117949,60.7470345 21.4735385,60.9291034 21.5837949,60.9291034 C21.7943846,60.9291034 21.7359487,60.8684138 21.9112564,60.8684138 C22.084359,60.8684138 22.1769744,60.8971034 22.3809487,61.0195862 C22.4691538,60.9864828 22.5275897,60.9291034 22.6466667,60.9544828 C22.7359744,60.9864828 22.9079744,61.0449655 22.9355385,61.1586207 C23.0546154,61.1586207 23.2001538,61.1310345 23.4361026,61.3086897 C23.5243077,61.366069 23.6136154,61.4863448 23.6433846,61.5691034 C23.8208974,61.6022069 23.7304872,61.4609655 23.9962051,61.6022069 C24.2586154,61.750069 24.2586154,61.7743448 24.4052564,61.9817931 C24.5518974,62.185931 24.5210256,62.0115862 24.7327179,62.134069 C25.0546667,62.3326897 24.9058205,62.4551724 25.0546667,62.5710345 C25.1417692,62.5710345 25.1693333,62.5710345 25.2884103,62.6548966 C25.430641,62.7773793 25.3159744,62.8656552 25.430641,62.9241379 C25.4934872,62.9550345 25.5530256,62.9241379 25.5761795,63.1304828 C25.6114615,63.2761379 25.8132308,63.3666207 25.9940513,63.6016552 C26.1076154,63.7462069 26.4031026,64.0397241 26.4924103,64.0397241 C26.6081795,64.0397241 26.5806154,63.9238621 26.4031026,63.6877241 C26.1682564,63.3666207 26.1682564,63.5111724 25.9940513,63.04 C25.9334103,62.8954483 25.7889744,62.9550345 25.7889744,62.7155862 C25.7889744,62.5434483 25.5265641,62.3326897 25.5265641,62.185931 C25.5265641,62.0457931 25.5265641,61.9817931 25.430641,61.9233103 C25.3424359,61.865931 25.3159744,61.8394483 25.2884103,61.750069 C25.1957949,61.513931 25.3159744,61.513931 25.3159744,61.366069 C25.3159744,61.2193103 25.1693333,61.3969655 25.1417692,61.2788966 C25.1086923,61.1586207 25.1417692,61.0195862 25.1417692,60.8971034 C25.1417692,60.7768276 25.0248974,60.8375172 25.0248974,60.6322759 C25.0248974,60.4557241 25.0546667,60.5153103 25.0546667,60.3111724 C25.0546667,60.1070345 24.9333846,60.1622069 24.9058205,59.9867586 C24.8727436,59.8124138 24.9642564,59.8377931 24.9642564,59.6347586 C24.9642564,59.4306207 24.9058205,59.6038621 24.9058205,59.4306207 C24.9058205,59.222069 24.9929231,59.2805517 24.9929231,59.0146207 C24.9929231,58.9296552 25.0546667,58.8126897 25.0833333,58.7266207 C25.1086923,58.6041379 24.9929231,58.6041379 25.0833333,58.4827586 C25.3777179,58.048 25.8738718,57.3108966 28.2807692,57.3108966 C31.2775385,57.3108966 33.9744103,58.048 35.1232821,59.5751724 C35.2081795,59.6954483 35.3272564,59.6954483 35.3581282,59.9536552 C35.3867949,60.1622069 35.4716923,60.1931034 35.4716923,60.5153103 C35.4716923,60.6907586 35.3581282,60.8684138 35.3272564,61.0791724 C35.2666154,61.4278621 35.3867949,61.8074483 35.1806154,61.8074483 C35.0031026,61.8074483 35.1232821,62.4242759 34.9446667,62.4242759 C34.8244872,62.4242759 34.9193077,62.6328276 34.6524872,62.6328276 C34.4452051,62.6328276 34.6524872,63.2198621 34.357,63.305931 C34.271,63.3357241 34.0626154,63.2507586 34.0074872,63.5431724 C33.9744103,63.657931 33.8575385,63.9536552 33.6524615,63.9834483 C33.3613846,64.0397241 33.4815641,64.0397241 33.3294103,64.1611034 C32.9501282,64.5108966 33.2158462,64.5693793 33.0934615,64.6852414 C32.8034872,64.9787586 32.7395385,64.3608276 32.5344615,64.6013793 C32.4484615,64.7183448 32.3944359,64.7183448 32.3944359,64.8353103 C32.3944359,65.097931 32.3326923,65.0085517 32.1276154,64.950069 C31.8949744,64.8651034 31.6876923,65.1597241 31.7736923,65.2491034 C31.8949744,65.3991724 31.7461282,65.4234483 31.6016923,65.3031724 C31.5410513,65.2491034 31.4164615,65.2777931 31.3326667,65.2491034 C31.1893333,65.1873103 31.0085128,65.2491034 31.0085128,65.3991724 C31.0085128,65.6242759 31.0437949,65.6242759 30.9533846,65.6242759 C30.8651795,65.6242759 30.8971538,65.3991724 30.7516154,65.3991724 C30.6005641,65.3991724 30.4539231,65.4234483 30.4539231,65.4234483 C30.5167692,65.6022069 32.7395385,66.6857931 33.3040513,66.9484138 C34.6216154,67.6855172 35.6238462,68.4766897 36.266641,68.4766897 C37.1486923,68.4766897 39.5236154,62.5434483 39.3780769,59.7793103 C39.3251538,58.9296552 39.2920769,58.7266207 39.3251538,58.6041379 C39.3780769,58.3393103 38.7650513,58.3713103 38.7650513,57.1950345 C38.7650513,56.928 38.8201795,56.3718621 39.0296667,56.1081379 C39.1443333,55.9569655 39.4684872,55.7848276 39.6735641,55.7848276 C39.878641,55.7848276 40.4067692,56.1953103 40.463,56.4325517 C40.7000513,56.0783448 41.3428462,53.1387586 41.3428462,52.2295172 C41.3428462,51.9095172 41.2270769,51.4935172 41.1113077,51.3787586 C40.9911282,51.2595862 39.9392821,51.0565517 39.0296667,49.8758621 C38.9679231,49.7897931 38.8477436,49.7313103 38.7871026,49.7897931 C38.7385897,49.8471724 38.7871026,49.8758621 38.7871026,50.0855172 C38.7871026,50.377931 38.3196154,51.1735172 37.5312821,51.1735172 C36.2082051,51.1735172 35.8575897,50.5853793 34.3900769,50.5853793 C33.6778205,50.5853793 33.1849744,50.848 32.8034872,51.1735172 C32.0945385,51.7594483 30.8651795,52.3211034 30.3094872,52.3211034 C28.9588462,52.3211034 29.6314103,50.4397241 28.8088974,50.4397241 C28.1914615,50.4397241 28.1914615,51.4350345 27.9588205,52.0805517 C27.5773333,53.1387586 25.1417692,56.0198621 23.7911282,56.0198621 C22.4691538,56.0198621 22.9686154,53.7004138 22.2100513,53.7004138 C21.7359487,53.7004138 21.4404615,54.377931 21.2938205,54.8457931 C20.7072564,56.7856552 19.9145128,58.1914483 19.1206667,59.1028966 C18.3290256,60.0154483 17.2749744,61.6606897 16.0676667,61.6606897 C14.8934359,61.6606897 15.1878205,59.8124138 14.6310256,59.369931 C14.3675128,59.1635862 13.8404872,58.9296552 13.5427949,59.4891034 C12.9286667,60.6907586 12.2527949,63.0124138 10.5195641,63.0124138 C9.4324359,63.0124138 9.19979487,62.2201379 9.17223077,61.6606897 C9.13915385,61.1045517 9.13915385,60.9864828 9.04984615,60.662069 C8.96494872,60.3409655 8.87674359,60.0154483 8.52502564,60.0154483 C8.28687179,60.0154483 8.02335897,60.1622069 7.79071795,60.7470345 C7.5525641,61.3406897 6.73335897,62.6030345 5.23607692,62.6030345 C3.913,62.6030345 3.44551282,62.0744828 3.42125641,61.6606897 C3.38707692,61.1310345 3.53041026,60.3718621 2.50392308,60.6322759 C1.35835897,60.9291034 0.685794872,59.222069 0.685794872,58.5489655 C0.685794872,57.3108966 1.54028205,56.4325517 1.54028205,55.9922759 C1.54028205,55.465931 0.334076923,55.1702069 0.334076923,53.8736552 C0.334076923,50.9671724 3.42125641,51.734069 3.42125641,50.377931 C3.42125641,49.1442759 1.24369231,48.5881379 1.24369231,47.296 C1.24369231,44.681931 4.67707692,44.2129655 5.32758974,44.2129655 C5.97258974,44.2129655 6.70910256,44.4171034 7.05420513,44.4171034 C7.40923077,44.4171034 8.34971795,44.2438621 8.34971795,43.8278621 C8.34971795,43.4173793 7.96602564,42.8281379 7.61651282,42.3624828 C7.26258974,41.8891034 6.794,41.4488276 6.794,40.8893793 C6.794,39.0653793 8.7014359,38.390069 10.0465641,38.390069 C12.6938205,38.390069 14.5152564,38.9208276 15.2153846,39.2430345 C15.9541026,39.5674483 16.5924872,40.1246897 17.2463077,40.1246897 C17.5660513,40.1246897 17.8008974,40.0077241 17.8008974,39.7108966 C17.8008974,39.0995862 16.7744103,38.3315862 16.7744103,37.1608276 C16.7744103,36.2482759 17.5958205,35.2783448 19.0071026,35.2783448 C20.4161795,35.2783448 22.4393846,36.1015172 23.4978462,36.7481379 C24.5518974,37.3947586 26.376641,39.1558621 27.2267179,39.1558621 C28.1363333,39.1558621 27.1043333,36.3652414 29.1308462,36.3652414 C30.8651795,36.3652414 33.0361282,38.2433103 34.4771795,40.9489655 C34.7384872,41.4488276 35.5025641,42.5324138 36.1464615,42.8866207 C37.2082308,43.4725517 38.4640513,45.4124138 38.6470769,46.8535172 C38.7022051,47.296 38.9943846,47.5586207 39.0836923,47.5586207 C38.9943846,47.1194483 38.9381538,46.2377931 39.5236154,46.1208276 C40.0859231,45.9994483 40.9911282,46.7067586 41.2270769,47.0311724 C41.4012821,46.6791724 40.9326923,45.4124138 40.7871538,45.0626207 C40.6702821,44.7702069 39.8477692,42.0049655 39.6437949,41.5073103 C39.4343077,41.0085517 38.528,38.8027586 38.2314103,38.2433103 C37.7385641,37.2733793 36.7098718,36.8937931 36.2082051,36.6333793 C35.4716923,36.2184828 34.683359,35.2507586 34.4771795,35.072 C34.271,34.8965517 34.271,34.9263448 34.1585385,34.9263448 C34.0626154,34.9263448 33.8906154,35.6005517 32.8916923,35.6005517 C31.8641026,35.6005517 30.6314359,34.016 29.3965641,33.3373793 C27.6379744,32.3663448 25.3159744,32.0706207 24.4405385,31.9569655 C23.8208974,31.8708966 21.7646154,31.4262069 20.7976667,30.8082759 C20.1504615,30.3988966 19.9398718,29.8118621 19.9398718,29.3417931 C19.9398718,28.342069 21.1780513,27.7594483 21.4735385,27.6413793 C21.7646154,27.5266207 22.084359,27.3445517 22.084359,27.1382069 C22.084359,26.8457931 21.5584359,26.6107586 21.1780513,26.3724138 C20.6763846,26.0811034 19.9145128,25.9950345 18.8858205,25.9641379 C17.8615385,25.9343448 16.2121026,25.6717241 15.2782308,25.257931 C14.336641,24.8485517 12.3090256,23.4085517 12.3090256,22.2035862 C12.3090256,21.3517241 12.7511538,20.7337931 13.4567949,20.3806897 C14.1624359,20.0286897 15.3057949,19.6744828 15.3057949,19.1194483 C15.3057949,18.7365517 14.8934359,18.6482759 14.6034615,18.441931 C14.276,18.2113103 12.5185128,17.8835862 11.9297436,17.7677241 C11.0521026,17.5911724 7.43679487,16.8871724 7.43679487,14.6548966 C7.43679487,12.5395862 10.6110769,12.4524138 10.6110769,12.0110345 C10.6110769,11.5387586 9.66728205,11.2441379 8.67166667,10.6295172 C7.49523077,9.89241379 6.235,8.86068966 6.235,7.86317241 C6.235,5.86924138 9.07851282,6.45627586 9.07851282,5.72027586 C9.07851282,5.57351724 8.901,5.2822069 8.79074359,5.16413793 L7.90979487,4.31227586 C7.61651282,4.01324138 7.29235897,3.40193103 7.29235897,3.14041379 C7.29235897,2.31503448 8.14794872,2.34041379 8.14794872,1.95862069 C8.14794872,1.728 8.05423077,1.66731034 8.05423077,1.43448276 C8.05423077,0.901517241 8.64079487,0.316689655 9.78746154,0.606896552 C10.1689487,0.69737931 10.4015897,0.727172414 10.7555128,0.669793103 C11.1072308,0.606896552 11.309,0.109241379 12.0488205,0.109241379 C13.0455385,0.109241379 13.4854615,1.16855172 13.7225128,1.46206897 C13.9275897,1.728 14.0135897,1.95862069 14.2186667,1.95862069 C14.5152564,1.95862069 14.5703846,1.19393103 14.8658718,0.814344828 C15.0764615,0.548413793 15.6608205,0.109241379 16.1536667,0.109241379 C17.7391538,0.109241379 19.0071026,1.43448276 19.6487949,2.87227586 C19.7711795,3.16358621 19.9751538,3.54537931 20.1835385,3.54537931 C20.7976667,3.54537931 21.3544615,0.933517241 23.2354359,0.933517241 C24.4052564,0.933517241 24.9333846,1.34841379 25.3777179,1.728 C26.0822564,2.37351724 26.1980256,3.72524138 26.5199744,4.66427586 C26.8121538,5.51724138 26.6390513,7.92496552 26.6390513,8.42593103 C26.6390513,8.92468966 26.7526154,10.2742069 27.1682821,10.2742069 C27.9257436,10.2742069 28.6313846,8.36744828 30.4252564,8.36744828 C31.2168974,8.36744828 32.4208974,9.45434483 32.4208974,11.9536552 C32.4208974,14.6758621 31.2168974,15.5928276 31.2168974,17.5635862 C31.2168974,17.942069 31.2775385,18.3547586 31.6270513,18.3547586 C31.9842821,18.3547586 32.1860513,17.7677241 32.4208974,17.5051034 C32.7395385,17.1508966 33.3294103,16.9136552 34.1585385,16.9136552 C35.1232821,16.9136552 35.561,17.824 35.561,19.030069 C35.561,19.8841379 35.062641,23.2331034 35.062641,24.9335172 C35.062641,26.6405517 35.6492051,27.5266207 35.6492051,29.5503448 C35.6492051,31.1371034 34.8873333,32.1346207 34.8873333,32.8353103 C34.8873333,33.1354483 35.2666154,33.6573793 35.561,33.5437241 C35.2412564,33.1354483 35.561,32.0706207 35.8256154,31.9271724 C36.0306923,31.8124138 36.3846154,31.8984828 36.5632308,31.9569655 C36.3570513,30.6085517 36.8840769,29.3417931 37.3548718,29.2568276 C38.0274359,29.1067586 39.2920769,30.3702069 39.405641,30.5798621 C39.5798462,30.3988966 39.7595641,30.2267586 40.0252821,30.2267586 C40.4067692,30.2267586 40.8147179,30.5169655 41.1653333,30.9285517 C41.2568462,30.7806897 41.2811026,30.6637241 41.2811026,30.4595862 C41.2811026,30.1351724 40.6394103,28.4601379 40.6394103,27.0488276 C40.6394103,25.3473103 41.4365641,23.7572414 41.4365641,22.4353103 C41.4365641,19.9062069 40.6394103,18.3856552 40.6394103,17.1828966 C40.6394103,14.6758621 41.4012821,13.3329655 42.5777179,13.3329655 C43.7210769,13.3329655 44.3649744,14.473931 45.1014872,14.473931 C45.6307179,14.473931 45.9537692,13.4510345 46.0375641,12.832 C46.4499231,9.95310345 46.6583077,3.75393103 49.8292821,2.25544828 C50.5018462,1.92993103 51.2934872,2.16275862 51.8524872,2.75531034 C52.9715897,3.89627586 53.1766667,5.25131034 54.0234359,5.25131034 C54.6133077,5.25131034 55.4038462,3.78262069 55.7015385,3.14041379 C56.140359,2.13517241 57.6960769,0.492137931 59.2804615,0.492137931 C61.980641,0.492137931 61.0147949,3.42951724 62.332359,3.42951724 C63.7149744,3.42951724 64.7712308,0.901517241 67.0248718,0.901517241 C67.6775897,0.901517241 68.4085897,1.57793103 68.4085897,2.39889655 C68.4085897,2.93186207 68.3512564,3.33793103 68.3512564,3.60606897 C68.3512564,3.86868966 68.3512564,4.19641379 68.6467436,4.19641379 C68.9378205,4.19641379 69.8231795,3.25406897 70.4626667,3.25406897 C71.6137436,3.25406897 71.3458205,4.37075862 71.8750513,4.72275862 C72.1683333,4.9302069 73.3105897,5.01627586 73.3105897,6.19255172 C73.3105897,7.68882759 71.8750513,7.65572414 71.8750513,8.36744828 C71.8750513,8.86068966 73.1066154,9.21931034 73.1066154,10.0391724 C73.1066154,10.9208276 72.2256667,11.8918621 71.4924615,11.9768276 C70.9367692,12.0397241 69.0282308,11.9768276 69.0282308,12.8011034 C69.0282308,12.9754483 69.4979231,13.2413793 69.9058718,13.5955862 C70.4097436,14.0336552 70.9632308,14.5357241 70.9632308,15.2993103 C70.9632308,16.3553103 69.7878974,17.3826207 66.1472308,17.3826207 C65.5606667,17.3826207 65.3897692,17.3252414 64.7712308,17.3252414 C64.5088205,17.3252414 64.0071538,17.3572414 63.5429744,17.4742069 C62.8924615,17.6507586 62.2739231,17.8835862 62.2739231,18.2113103 C62.2739231,19.264 64.3291026,19.2364138 64.3291026,20.5318621 C64.3291026,21.4973793 63.6532308,22.1417931 62.7733846,22.6438621 C62.1868205,22.9958621 59.8978974,23.8786207 58.5494615,23.8786207 C55.8195128,23.8786207 55.4644872,23.5553103 54.6761538,23.5553103 C53.9925641,23.5553103 53.4677436,23.7881379 53.4677436,24.1997241 C53.4677436,24.6135172 53.879,24.8485517 54.4942308,25.1994483 C54.8790256,25.4057931 56.4369487,25.9343448 56.4369487,27.232 C56.4369487,28.5804138 54.1998462,29.312 53.2362051,29.4885517 C50.7366923,29.9928276 49.3287179,30.6957241 47.626359,32.3398621 C46.7454103,33.1928276 44.8942051,35.4537931 43.0441026,34.5743448 C42.2524615,35.7186207 41.0793333,36.864 40.9326923,37.8350345 C40.6702821,39.5111724 43.1642821,47.3511724 44.2492051,47.3511724 C44.9239744,47.3511724 45.8953333,46.4706207 47.3044103,45.5282759 C48.2415897,44.9136552 49.209641,44.2438621 50.3287436,43.4725517 C55.2020769,40.1522759 59.2253333,38.4485517 59.2253333,37.8052414 C59.2253333,37.3042759 58.8129744,36.864 58.6619231,36.6002759 C58.5494615,36.3652414 58.3973077,36.2769655 58.2837436,36.0695172 C58.161359,35.8642759 58.1944359,35.8046897 58.1084359,35.6281379 C58.0169231,35.4537931 57.9022564,35.3346207 57.8405128,35.1017931 C57.7875897,34.8965517 57.7875897,34.8656552 57.809641,34.6935172 C57.6354359,34.633931 57.6354359,34.4871724 57.6354359,34.3051034 C57.6354359,34.134069 57.663,34.134069 57.663,33.9586207 C57.663,33.7776552 57.5472308,33.8957241 57.5472308,33.6331034 C57.5472308,33.2755862 57.663,33.3064828 57.663,33.1045517 C57.663,33.046069 57.4579231,32.928 57.4579231,32.7823448 C57.4579231,32.5186207 57.663,32.4590345 57.663,32.2813793 C57.663,32.1048276 57.5185641,32.1633103 57.5185641,31.9878621 C57.5185641,31.3975172 57.6960769,31.4857931 57.7567179,31.3368276 C57.7258462,31.2231724 57.7875897,30.8402759 57.9904615,30.6957241 C58.1944359,30.5478621 58.4292821,30.2554483 58.6067949,30.2830345 C58.6067949,30.2830345 58.6916923,30.0502069 58.9309487,30.0788966" id="Fill-93" sketch:type="MSShapeGroup"></path>
            <path d="M6.04425641,127.034483 L6.04425641,112.03531 L0.335179487,112.03531 L0.335179487,110.342621 L14.9651026,110.342621 L14.9651026,112.03531 L9.21633333,112.03531 L9.21633333,127.034483 L6.04425641,127.034483" id="Fill-94" sketch:type="MSShapeGroup"></path>
            <path d="M29.5994359,124.807724 C29.3623846,125.929931 28.440641,127.270621 26.5100513,127.270621 C24.3049231,127.270621 23.2001538,125.534897 23.2001538,123.326897 L23.2001538,116.236138 L26.3104872,116 L26.3104872,123.742897 C26.3104872,125.202759 26.9621026,125.911172 27.9665385,125.911172 C28.7317179,125.911172 29.2631538,125.360552 29.5994359,124.807724" id="Fill-95" sketch:type="MSShapeGroup"></path>
            <path d="M33.0647949,124.907034 C33.0647949,126.01269 33.2235641,126.661517 33.9920513,126.661517 C33.5565385,126.955034 32.8299487,127.13269 32.2191282,127.13269 C30.9379487,127.13269 29.953359,126.482759 29.953359,124.827586 L29.953359,116.235034 L33.0647949,116.001103 L33.0647949,124.907034" id="Fill-96" sketch:type="MSShapeGroup"></path>
            <path d="M44.1973846,117.025103 C45.6935641,116.275862 47.2680256,114.676966 48.0949487,113.27669 L48.4896667,113.27669 L48.4896667,116.116966 L51.1666923,116.116966 L51.1666923,117.320828 L48.4896667,117.320828 L48.4896667,124.198621 C48.4896667,125.241379 49.0982821,126.128552 50.3596154,126.128552 C50.9494872,126.128552 51.6,125.853793 51.9759744,125.260138 C51.6782821,126.187034 50.7719744,127.272828 48.8623333,127.272828 C46.5976667,127.272828 45.4168205,125.556966 45.4168205,123.347862 L45.4168205,117.320828 L44.1973846,117.320828 L44.1973846,117.025103" id="Fill-97" sketch:type="MSShapeGroup"></path>
            <path d="M17.3146667,118.375724 C17.8064103,116.977655 18.8097436,115.757241 20.425,115.757241 C20.7789231,115.757241 21.113,115.835586 21.388641,115.933793 L21.1339487,118.062345 C19.6554103,117.08469 17.9585641,118.050207 17.5506154,119.830069 L17.5506154,127.03669 L14.5196667,127.03669 L14.5196667,116.204138 L17.3345128,115.968 L17.3146667,118.375724" id="Fill-98" sketch:type="MSShapeGroup"></path>
            <path d="M38.743,126.247724 C37.4022821,126.247724 36.3813077,125.342897 35.7892308,124.357517 L35.5146923,126.348138 C36.3206667,126.857931 37.5434103,127.330207 38.8995641,127.330207 C41.5754872,127.330207 43.1510513,125.676138 43.1510513,123.942621 C43.1510513,121.876966 41.6537692,121.048276 40.334,120.322207 C39.1167692,119.65131 37.8973333,119.277241 37.8973333,118.173793 C37.8973333,117.623172 38.3681282,116.912552 39.4872308,116.912552 C40.394641,116.912552 41.1587179,117.504 41.8312821,118.37131 L42.183,116.539586 C41.5346923,116.204138 40.592,115.851034 39.3924103,115.851034 C36.8344615,115.851034 35.5323333,117.445517 35.5323333,119.159172 C35.5323333,120.911448 36.7749231,121.91669 38.0527949,122.624 C39.3317692,123.332414 40.6294872,123.748414 40.6294872,124.811034 C40.6294872,125.598897 39.8444615,126.247724 38.743,126.247724" id="Fill-99" sketch:type="MSShapeGroup"></path>
            <path d="M82.1024359,105.505103 L82.1024359,88.6951724 L85.1741795,88.4568276 L85.1741795,105.505103 L82.1024359,105.505103" id="Fill-100" sketch:type="MSShapeGroup"></path>
            <path d="M29.8177436,95.3953103 C31.3117179,94.646069 32.8883846,93.0493793 33.7142051,91.6491034 L34.1089231,91.6491034 L34.1089231,94.4882759 L36.7881538,94.4882759 L36.7881538,95.6888276 L34.1089231,95.6888276 L34.1089231,102.568828 C34.1089231,103.611586 34.7197436,104.500966 35.9777692,104.500966 C36.5709487,104.500966 37.2192564,104.222897 37.5919231,103.632552 C37.2964359,104.559448 36.3934359,105.641931 34.4815897,105.641931 C32.2191282,105.641931 31.0393846,103.927172 31.0393846,101.720276 L31.0393846,95.6888276 L29.8177436,95.6888276 L29.8177436,95.3953103" id="Fill-101" sketch:type="MSShapeGroup"></path>
            <path d="M39.7529487,89.6397241 C39.7529487,90.3282759 40.3064359,90.8413793 40.9734872,90.8413793 C41.6482564,90.8413793 42.1962308,90.3282759 42.1962308,89.6397241 C42.1962308,88.9721379 41.6482564,88.438069 40.9734872,88.438069 C40.3064359,88.438069 39.7529487,88.9721379 39.7529487,89.6397241" id="Fill-102" sketch:type="MSShapeGroup"></path>
            <path d="M42.5325128,105.505103 L42.5325128,94.4275862 L39.4387179,94.6846897 L39.4387179,105.505103 L42.5325128,105.505103" id="Fill-103" sketch:type="MSShapeGroup"></path>
            <path d="M68.2740769,103.454897 C68.2740769,104.559448 68.4328462,105.209379 69.1991282,105.209379 C68.7625128,105.504 68.0381282,105.682759 67.4273077,105.682759 C66.1439231,105.682759 65.1604359,105.029517 65.1604359,103.377655 L65.1604359,97.5249655 C65.1604359,96.2813793 64.474641,95.6115862 63.5672308,95.6115862 C62.934359,95.6115862 62.2860513,95.9073103 61.8935385,96.4391724 C62.246359,95.3964138 63.2320513,94.2532414 65.0623077,94.2532414 C67.1119744,94.2532414 68.2740769,95.7892414 68.2740769,97.7191724 L68.2740769,103.454897" id="Fill-104" sketch:type="MSShapeGroup"></path>
            <path d="M61.4988205,105.505103 L58.3884872,105.505103 L58.3884872,94.665931 L61.4988205,94.4275862 L61.4988205,105.505103" id="Fill-105" sketch:type="MSShapeGroup"></path>
            <path d="M50.4356923,94.2532414 C47.5613077,94.2532414 44.7652051,96.5186207 44.7652051,100.025379 C44.7652051,103.552 47.5613077,105.799724 50.4356923,105.799724 C53.2913333,105.799724 56.0874359,103.552 56.0874359,100.025379 C56.0874359,96.5186207 53.2913333,94.2532414 50.4356923,94.2532414 M50.4356923,104.737103 C48.9207692,104.737103 47.9968205,103.318069 47.9968205,100.025379 C47.9968205,96.7547586 48.9207692,95.3158621 50.4356923,95.3158621 C51.9340769,95.3158621 52.8591282,96.7547586 52.8591282,100.025379 C52.8591282,103.297103 51.9340769,104.737103 50.4356923,104.737103" id="Fill-106" sketch:type="MSShapeGroup"></path>
            <path d="M79.2214359,103.454897 C79.2214359,104.559448 79.3824103,105.209379 80.0891538,105.209379 C79.6955385,105.504 79.0075385,105.682759 78.4540513,105.682759 C77.2555641,105.682759 76.3481538,105.029517 76.3481538,103.377655 L76.3481538,99.5531034 C74.261,100.617931 73.5333077,101.506207 73.5333077,102.882207 C73.5333077,104.656552 75.2974103,104.891586 75.9765897,103.968 C75.6215641,104.955586 74.6898974,105.682759 73.5520513,105.682759 C71.956641,105.682759 70.6732564,104.600276 70.6732564,103.001379 C70.6732564,100.399448 73.9456667,99.6711724 76.3481538,98.4893793 L76.3481538,97.385931 C76.3481538,96.2604138 75.7373333,95.670069 74.4407179,95.670069 C73.6733333,95.670069 72.6677949,95.9073103 71.9963333,96.1831724 L71.9963333,94.8601379 C72.5101282,94.6449655 73.7516154,94.3889655 74.9137179,94.3889655 C76.9600769,94.3889655 79.2214359,95.1382069 79.2214359,98.3713103 L79.2214359,103.454897" id="Fill-107" sketch:type="MSShapeGroup"></path>
            <path d="M27.9577179,103.454897 C27.9577179,104.559448 28.1142821,105.209379 28.8232308,105.209379 C28.4318205,105.504 27.7405128,105.682759 27.1881282,105.682759 C25.9874359,105.682759 25.0800256,105.029517 25.0800256,103.377655 L25.0800256,99.5531034 C22.9972821,100.617931 22.2651795,101.506207 22.2651795,102.882207 C22.2651795,104.656552 24.0303846,104.891586 24.7095641,103.968 C24.355641,104.955586 23.4206667,105.682759 22.2861282,105.682759 C20.6907179,105.682759 19.410641,104.600276 19.410641,103.001379 C19.410641,100.399448 22.6775385,99.6711724 25.0800256,98.4893793 L25.0800256,97.385931 C25.0800256,96.2604138 24.4714103,95.670069 23.1714872,95.670069 C22.4052051,95.670069 21.3996667,95.9073103 20.7293077,96.1831724 L20.7293077,94.8601379 C21.2386923,94.6449655 22.4845897,94.3889655 23.6433846,94.3889655 C25.6908462,94.3889655 27.9577179,95.1382069 27.9577179,98.3713103 L27.9577179,103.454897" id="Fill-108" sketch:type="MSShapeGroup"></path>
            <path d="M4.15335897,93.9950345 L4.15335897,105.505103 L2.16323077,105.505103 L2.16323077,88.5285517 L2.93061538,88.5285517 L15.2782308,100.292414 L15.2782308,88.7051034 L17.1327436,88.7051034 L17.1327436,105.700414 L16.4447436,105.700414 L4.15335897,93.9950345" id="Fill-109" sketch:type="MSShapeGroup"></path>
        </g>
    </g>
</svg>