<?xml version="1.0" encoding="UTF-8" standalone="no"?>
<svg width="250px" height="150px" viewBox="0 0 250 150" version="1.1" xmlns="http://www.w3.org/2000/svg" xmlns:xlink="http://www.w3.org/1999/xlink" xmlns:sketch="http://www.bohemiancoding.com/sketch/ns">
    <!-- Generator: Sketch 3.2.2 (9983) - http://www.bohemiancoding.com/sketch -->
    <title>national</title>
    <desc>Created with Sketch.</desc>
    <defs></defs>
    <g id="Page-1" stroke="none" stroke-width="1" fill="none" fill-rule="evenodd" sketch:type="MSPage">
        <g id="Group-3" sketch:type="MSLayerGroup" transform="translate(61.000000, 28.000000)" fill="#888C85">
            <path d="M65.3829,0.234186047 C63.3435,0.652848837 61.5241,1.65697674 60.1139,3.06430233 C59.224,3.95354651 58.4947,4.99965116 57.9788,6.15953488 C57.4156,7.42325581 57.1043,8.81843023 57.1043,10.2876163 C57.1043,13.1055814 58.2527,15.6573256 60.1139,17.5109302 C61.5241,18.9160465 63.3435,19.9212791 65.3829,20.3410465 C66.066,20.4802326 66.7788,20.5553488 67.507,20.5553488 C70.3989,20.5553488 73.0147,19.3910465 74.9012,17.5109302 C76.7624,15.6573256 77.9119,13.1055814 77.9119,10.2876163 C77.9119,8.81843023 77.5984,7.42325581 77.0363,6.15953488 C76.5193,4.99965116 75.7922,3.95354651 74.9012,3.06430233 C73.0147,1.18418605 70.3989,0.0198837209 67.507,0.0198837209 C66.7788,0.0198837209 66.066,0.0938953488 65.3829,0.234186047" id="Fill-110" sketch:type="MSShapeGroup"></path>
            <path d="M105.1281,5.7927907 C103.037,6.19267442 101.1692,7.21116279 99.7304,8.6472093 C98.7943,9.57953488 98.0375,10.6897093 97.5183,11.919186 C97.0035,13.1365116 96.7208,14.4709302 96.7208,15.8716279 C96.7208,18.6884884 97.8703,21.2391279 99.7304,23.0949419 C101.1692,24.5287791 103.037,25.5494767 105.127,25.9504651 C105.7738,26.0730814 106.4415,26.1382558 107.1235,26.1382558 C110.0154,26.1382558 112.6312,24.9739535 114.5166,23.0960465 C116.3789,21.2402326 117.5295,18.689593 117.5295,15.8716279 C117.5295,14.4709302 117.2424,13.1365116 116.7276,11.9213953 C116.2106,10.690814 115.4538,9.57953488 114.5177,8.6472093 C112.6323,6.76819767 110.0154,5.6027907 107.1235,5.6027907 C106.4415,5.6027907 105.7738,5.66796512 105.1281,5.7927907" id="Fill-111" sketch:type="MSShapeGroup"></path>
            <path d="M51.2468,19.7776744 C48.1591,21.7925581 44.8525,25.2545349 43.6337,29.4599419 C43.4137,30.2177326 43.2619,30.9998256 43.1893,31.802907 C42.8769,35.3377907 44.1474,39.2626163 48.1602,43.2161628 C51.6472,46.6538372 56.6874,48.4135465 62.1775,49.0884884 C69.806,50.0274419 78.3013,48.874186 84.7044,47.2304651 C90.2968,45.793314 94.2931,43.981686 94.7188,42.8626744 C94.7507,42.7731977 94.7628,42.6892442 94.7507,42.6086047 C94.4614,40.704186 91.0195,40.7848256 86.1047,40.8676744 C78.8711,40.9880814 68.4486,41.109593 60.1997,34.8881977 C51.6791,28.4635465 55.8481,23.841686 57.3122,20.805 C57.7555,19.8837209 57.9491,19.1082558 57.4618,18.4708721 C57.3914,18.3802907 57.3045,18.2897093 57.2044,18.2024419 C56.9448,17.9815116 56.5664,17.8754651 56.0967,17.8754651 C54.8977,17.8754651 53.1124,18.5625581 51.2468,19.7776744" id="Fill-112" sketch:type="MSShapeGroup"></path>
            <path d="M80.4375,33.82 C79.9667,34.0530814 79.5542,34.2817442 79.2055,34.4993605 C78.2936,35.0693605 77.8162,35.5786047 77.8833,35.960814 C78.0527,36.9395349 79.0482,37.3725581 80.6432,37.5382558 C82.1898,37.6995349 84.3073,37.6078488 86.7856,37.5150581 C94.0049,37.2499419 104.2965,36.9837209 112.5839,42.9698256 C120.2102,48.4798256 119.3511,55.1618605 118.1928,59.5097674 C117.5812,61.8096512 116.8849,63.4533721 117.3183,63.9228488 C118.3303,65.0164535 121.5412,63.1506977 124.4606,59.6699419 C128.7671,54.5366279 132.4422,45.8861047 127.4988,38.0552326 C126.6419,36.6976163 125.5947,35.479186 124.432,34.3767442 C121.4972,31.612907 117.5361,30.0056395 113.1559,29.2125 C110.7392,28.7750581 108.1938,28.5850581 105.6242,28.5850581 C95.5713,28.5850581 85.1345,31.4880814 80.4375,33.82" id="Fill-113" sketch:type="MSShapeGroup"></path>
            <path d="M6.0588,58.9 C5.9565,57.6804651 5.9774,57.6406977 5.2162,57.6406977 L4.3505,57.6406977 C3.5288,57.6406977 2.2539,57.9290116 1.4916,58.6525581 C1.4916,58.1974419 1.4916,57.4551163 1.3684,56.5868605 C3.9193,56.6476163 4.9071,56.6476163 7.0675,56.6476163 C8.7329,56.6476163 10.3367,56.6476163 12.7237,56.5868605 C12.6005,57.4551163 12.6005,58.1974419 12.6005,58.6525581 C11.8195,57.9091279 10.5435,57.6406977 9.7405,57.6406977 L8.877,57.6406977 C8.0949,57.6406977 8.0949,57.7235465 8.0344,58.8580233 C7.9937,59.5605814 7.9706,60.5536628 7.9706,61.6693605 L7.9706,66.1719186 C7.9706,68.1978488 8.0344,70.2425581 8.3215,71.1726744 C7.8276,71.1097093 7.7253,71.1097093 7.1082,71.1097093 C6.4911,71.1097093 6.3679,71.1097093 5.7706,71.1726744 C6.0379,70.2624419 6.1204,68.279593 6.1204,66.1719186 L6.1204,61.6483721 C6.1204,60.4089535 6.1204,59.7075 6.0588,58.9" id="Fill-114" sketch:type="MSShapeGroup"></path>
            <path d="M20.5623,71.1097093 L20.5623,63.9195349 C20.5623,62.3288372 19.9859,61.6892442 18.8342,61.6892442 C17.3536,61.6892442 15.7069,63.320814 15.5628,63.795814 C15.3978,64.3138953 15.3373,65.0153488 15.3373,65.6969186 L15.3373,68.0520349 C15.3373,69.1478488 15.4396,70.0558721 15.5628,71.1097093 L13.464,71.1097093 C13.6301,70.3452907 13.6917,68.919186 13.6917,68.0730233 L13.6917,58.5277326 C13.6917,57.7423256 13.6301,56.4642442 13.3606,55.9682558 L15.5221,55.552907 C15.4187,56.689593 15.3373,57.8273837 15.3373,58.8591279 L15.3373,62.535407 C16.6111,61.1115116 18.0928,60.1394186 19.5118,60.1394186 C21.241,60.1394186 22.2486,61.2761047 22.2486,63.1772093 L22.2486,68.1348837 C22.2486,69.251686 22.3729,70.2425581 22.5764,71.1097093 L20.5623,71.1097093" id="Fill-115" sketch:type="MSShapeGroup"></path>
            <path d="M28.6253,71.3593605 C25.5398,71.3593605 23.9558,68.9622674 23.9558,65.9454651 C23.9558,63.1142442 25.4595,60.1394186 28.6462,60.1394186 C30.9914,60.1394186 32.3488,61.6063953 32.4522,64.0863372 C32.4731,64.5602326 32.4731,65.0363372 32.4731,65.5102326 L25.8896,65.5102326 C25.8698,65.6759302 25.8698,65.7388953 25.8698,65.8626163 C25.8698,67.8874419 26.631,70.1166279 29.018,70.1166279 C30.1884,70.1166279 31.5062,69.4151744 32.3081,68.59 L32.5347,69.5598837 C31.5062,70.6556977 30.1488,71.3593605 28.6253,71.3593605 M30.6823,63.7538372 C30.6405,62.3509302 30.107,61.0695349 28.5835,61.0695349 C26.8147,61.0695349 26.136,63.0523837 25.9512,64.5392442 L30.7043,64.5392442 C30.7043,64.2719186 30.6823,64.0244767 30.6823,63.7538372" id="Fill-116" sketch:type="MSShapeGroup"></path>
            <path d="M47.8808,61.0894186 L47.8192,68.919186 C47.8192,69.4770349 47.8192,70.6556977 47.839,71.1097093 L46.0086,71.1097093 C45.9063,70.8202907 45.3508,69.8493023 44.198,68.0520349 L39.9201,61.297093 C39.776,61.0684302 39.3635,60.3658721 38.9323,59.6445349 C38.6452,59.1485465 38.4175,58.7552907 38.1909,58.3642442 L38.1909,64.0443605 C38.1909,67.2246512 38.2327,68.5491279 38.2327,68.5491279 C38.2327,68.9401744 38.3559,70.7385465 38.5407,71.1715698 C38.1084,71.1318023 37.9027,71.1097093 37.6156,71.1097093 C37.389,71.1097093 37.0997,71.1097093 36.7103,71.1715698 C36.8753,70.7584302 37.0601,68.6109884 37.0601,67.1440116 L37.0601,63.9416279 C37.0601,62.2481977 37.0403,60.5326744 37.0403,58.8182558 C37.0403,58.1565698 36.9369,57.0198837 36.7917,56.5868605 C37.3692,56.6476163 37.5551,56.6476163 37.9665,56.6476163 C38.3559,56.6476163 38.8696,56.6067442 39.1787,56.5868605 C39.303,56.8762791 39.5692,57.3512791 39.6726,57.5379651 C41.3798,60.635407 43.5402,63.694186 45.3508,66.6071512 C45.3915,66.667907 45.7006,67.1837791 46.0504,67.7217442 C46.2968,68.1138953 46.4618,68.3823256 46.6884,68.7347093 L46.6884,60.6972674 C46.6884,59.6036628 46.5223,56.9580233 46.3177,56.5868605 C46.6884,56.6277326 47.0789,56.6476163 47.3869,56.6476163 C47.696,56.6476163 47.9435,56.6067442 48.2306,56.5868605 C48.0238,57 47.9017,59.2534884 47.8808,61.0894186" id="Fill-117" sketch:type="MSShapeGroup"></path>
            <path d="M57.1582,71.3582558 C56.87,71.0478488 56.5411,70.4690116 56.4575,69.4991279 C55.7799,70.5529651 54.483,71.3582558 53.1872,71.3582558 C51.2127,71.3582558 49.9994,70.160814 49.9994,68.3613372 C49.9994,66.3983721 51.5229,65.242907 53.9902,64.7668023 L56.4388,64.2918023 L56.4388,63.4036628 C56.4388,61.772093 55.6776,61.1302907 54.4027,61.1302907 C53.1663,61.1302907 51.7473,61.9786628 50.9245,63.2379651 C50.7408,62.6182558 50.6165,61.895814 50.5351,61.3799419 C51.5427,60.6563953 53.1872,60.1394186 54.505,60.1394186 C57.3023,60.1394186 58.0833,61.420814 58.0833,63.3848837 L58.0833,68.2376163 C58.0833,69.5598837 58.3517,70.49 58.8038,70.7385465 C58.2285,71.0478488 57.7555,71.2334302 57.1582,71.3582558 M56.4388,65.2638953 L54.5259,65.6549419 C52.5294,66.0702907 51.8914,67.0401744 51.8914,68.1978488 C51.8914,69.2086047 52.3457,70.0558721 53.6195,70.0558721 C54.9571,70.0558721 56.4388,68.4452907 56.4388,66.9374419 L56.4388,65.2638953" id="Fill-118" sketch:type="MSShapeGroup"></path>
            <path d="M66.7238,70.4491279 C65.8812,71.0047674 64.9748,71.3593605 64.0695,71.3593605 C62.7132,71.3593605 61.8277,70.6755814 61.8277,69.1069767 C61.8277,68.9622674 61.8497,68.5060465 61.8497,67.8255814 L61.8497,61.3589535 L59.8334,61.3589535 L60.0787,60.3879651 C60.8399,60.347093 61.4581,60.3261047 61.6011,60.1813953 C61.7254,60.0786628 61.8497,59.9328488 61.8497,59.6445349 L61.8497,57.3313953 C62.3205,57.2087791 63.2269,56.9790116 63.6801,56.8144186 C63.5767,57.9709884 63.4942,59.2523837 63.4942,60.3879651 L66.6435,60.3879651 L66.4147,61.3589535 L63.4942,61.3589535 L63.4942,67.2047674 C63.4942,69.8912791 63.6801,70.1376163 64.6657,70.1376163 C65.1607,70.1376163 66.5588,69.6029651 67.012,69.1268605 C66.8888,70.1376163 66.7238,70.4491279 66.7238,70.4491279" id="Fill-119" sketch:type="MSShapeGroup"></path>
            <path d="M68.3892,71.1097093 C68.5762,70.4491279 68.6169,68.4861628 68.6169,67.9073256 L68.6169,63.2799419 C68.6169,63.0943605 68.6378,61.0695349 68.2869,60.5536628 L70.4473,60.1394186 C70.3648,61.0474419 70.2625,62.2669767 70.2625,63.2180814 L70.2625,67.9923837 C70.2625,69.1898256 70.3868,70.3055233 70.5914,71.1097093 L68.3892,71.1097093 M69.5002,58.6934302 C68.8446,58.6934302 68.3496,58.1974419 68.3496,57.5379651 C68.3496,56.8762791 68.8446,56.3813953 69.5002,56.3813953 C70.1591,56.3813953 70.653,56.8762791 70.653,57.5379651 C70.653,58.1974419 70.1591,58.6934302 69.5002,58.6934302" id="Fill-120" sketch:type="MSShapeGroup"></path>
            <path d="M76.7833,71.3593605 C73.7385,71.3593605 72.2788,68.9799419 72.2788,66.2359884 C72.2788,63.1772093 73.8419,60.1394186 77.4213,60.1394186 C80.5277,60.1394186 81.9269,62.5575 81.9269,65.3047674 C81.9269,68.3005814 80.3418,71.3593605 76.7833,71.3593605 M77.2365,61.1512791 C74.8088,61.1512791 74.2115,63.9825 74.2115,65.8626163 C74.2115,67.6190116 74.6438,70.3463953 76.9692,70.3463953 C79.3958,70.3463953 79.9931,67.5140698 79.9931,65.6560465 C79.9931,63.9206395 79.5608,61.1512791 77.2365,61.1512791" id="Fill-121" sketch:type="MSShapeGroup"></path>
            <path d="M90.5861,71.1097093 L90.5861,63.9195349 C90.5861,62.3100581 89.991,61.6892442 88.8602,61.6892442 C87.6447,61.6892442 86.0222,62.9076744 85.5877,63.795814 C85.4854,64.0863372 85.3622,64.9115116 85.3622,65.5102326 L85.3622,67.928314 C85.3622,68.8794186 85.5063,70.49 85.5877,71.1097093 L83.4911,71.1097093 C83.6737,70.4491279 83.7144,68.4861628 83.7144,67.9073256 L83.7144,63.4865116 C83.7144,62.2261047 83.6539,60.9877907 83.3855,60.5536628 L85.5459,60.1394186 C85.4436,61.1733721 85.4227,61.4826744 85.3831,62.4945349 C86.823,60.9877907 88.1606,60.1394186 89.5378,60.1394186 C91.3484,60.1394186 92.2746,61.3799419 92.2746,63.1772093 L92.2746,67.9923837 C92.2746,69.1887209 92.3967,70.3243023 92.6035,71.1097093 L90.5861,71.1097093" id="Fill-122" sketch:type="MSShapeGroup"></path>
            <path d="M101.4486,71.3582558 C101.1615,71.0478488 100.8315,70.4690116 100.749,69.4991279 C100.0703,70.5529651 98.7745,71.3582558 97.4787,71.3582558 C95.5031,71.3582558 94.2898,70.160814 94.2898,68.3613372 C94.2898,66.3983721 95.8111,65.242907 98.2806,64.7668023 L100.7281,64.2918023 L100.7281,63.4036628 C100.7281,61.772093 99.9669,61.1302907 98.692,61.1302907 C97.4578,61.1302907 96.0388,61.9786628 95.216,63.2379651 C95.0301,62.6182558 94.908,61.895814 94.8255,61.3799419 C95.8331,60.6563953 97.4787,60.1394186 98.7943,60.1394186 C101.5927,60.1394186 102.3737,61.420814 102.3737,63.3848837 L102.3737,68.2376163 C102.3737,69.5598837 102.6421,70.49 103.0942,70.7385465 C102.5189,71.0478488 102.0448,71.2334302 101.4486,71.3582558 M100.7281,65.2638953 L98.8152,65.6549419 C96.8209,66.0702907 96.1829,67.0401744 96.1829,68.1978488 C96.1829,69.2086047 96.635,70.0558721 97.911,70.0558721 C99.2475,70.0558721 100.7281,68.4452907 100.7281,66.9374419 L100.7281,65.2638953" id="Fill-123" sketch:type="MSShapeGroup"></path>
            <path d="M105.0291,71.1097093 C105.1919,70.4082558 105.2546,68.8374419 105.2546,67.9923837 L105.2546,58.9011047 C105.2546,57.6406977 105.1919,56.4421512 104.9257,55.9682558 L107.085,55.552907 C106.8991,57.5777326 106.8991,58.5277326 106.8991,60.0786628 L106.8991,67.9923837 C106.8991,69.0020349 107.0025,70.2226744 107.2291,71.1097093 L105.0291,71.1097093" id="Fill-124" sketch:type="MSShapeGroup"></path>
            <path d="M12.5796,90.0401163 C12.4157,89.6888372 12.1891,89.1740698 12.0659,88.8227907 L10.318,83.9866279 L5.0094,83.9866279 L4.2075,85.9915698 C3.5695,87.5811628 3.2824,89.0702326 3.2604,89.8324419 C3.0151,89.7926744 2.8292,89.7926744 2.6444,89.7727907 L2.0053,89.7727907 C1.7589,89.7727907 1.5741,89.7727907 0.8547,89.8545349 C1.1847,89.5032558 2.1703,87.973314 3.6927,84.2981395 L5.1953,80.6616279 C5.5649,79.7734884 5.9972,78.7627326 6.3679,77.8116279 C6.4713,77.5619767 7.2105,75.7238372 7.1093,75.2488372 C7.6219,75.3106977 7.7462,75.3106977 7.9717,75.3106977 C8.3831,75.3106977 8.6306,75.3106977 9.1443,75.2698256 C11.1397,81.51 12.6632,85.1851744 13.4442,87.1481395 C14.3297,89.3784302 14.4529,89.4413953 14.8841,89.6490698 C14.1229,89.8545349 13.2594,89.9992442 12.5796,90.0401163 M7.7869,76.9842442 L5.4219,82.9548837 L9.9473,82.9548837 L7.7869,76.9842442" id="Fill-125" sketch:type="MSShapeGroup"></path>
            <path d="M21.8779,90.0191279 C21.9802,88.9873837 22.0022,88.6769767 22.0429,87.6651163 C20.5216,89.2768023 19.1829,90.0191279 17.8871,90.0191279 C15.994,90.0191279 15.1514,88.6769767 15.1514,86.9824419 L15.1514,82.1694767 C15.1514,80.9709302 15.0271,79.8364535 14.8225,79.0499419 L16.8377,79.0499419 L16.8377,86.1572674 C16.8377,87.6231395 17.2293,88.470407 18.6065,88.470407 C19.6152,88.470407 21.2817,87.4386628 21.8361,86.3837209 C21.9395,86.0943023 22.0638,85.2669186 22.0638,84.6693023 L22.0638,82.2313372 C22.0638,81.2802326 21.9197,79.6696512 21.8361,79.0499419 L23.9371,79.0499419 C23.7512,79.7116279 23.7094,81.6734884 23.7094,82.2534302 L23.7094,86.6742442 C23.7094,87.9335465 23.7721,89.1740698 24.0372,89.6059884 L21.8779,90.0191279" id="Fill-126" sketch:type="MSShapeGroup"></path>
            <path d="M32.0199,89.1111047 C31.1762,89.6689535 30.272,90.0191279 29.3667,90.0191279 C28.0082,90.0191279 27.1249,89.3386628 27.1249,87.7700581 C27.1249,87.6231395 27.1447,87.1702326 27.1447,86.4875581 L27.1447,80.0209302 L25.1284,80.0209302 L25.3748,79.0499419 C26.136,79.0090698 26.7542,78.989186 26.8972,78.8433721 C27.0204,78.7417442 27.1447,78.5959302 27.1447,78.3065116 L27.1447,75.9933721 C27.6177,75.8696512 28.523,75.6409884 28.974,75.4763953 C28.8728,76.6329651 28.7903,77.9143605 28.7903,79.0499419 L31.9385,79.0499419 L31.7108,80.0209302 L28.7903,80.0209302 L28.7903,85.8667442 C28.7903,88.5521512 28.974,88.8006977 29.9629,88.8006977 C30.4579,88.8006977 31.8549,88.2638372 32.3081,87.7888372 C32.1838,88.8006977 32.0199,89.1111047 32.0199,89.1111047" id="Fill-127" sketch:type="MSShapeGroup"></path>
            <path d="M33.6864,89.771686 C33.8712,89.1111047 33.9141,87.1481395 33.9141,86.570407 L33.9141,81.9419186 C33.9141,81.7552326 33.9328,79.7326163 33.5841,79.2156395 L35.7434,78.8025 C35.6609,79.7116279 35.5586,80.9300581 35.5586,81.8800581 L35.5586,86.6521512 C35.5586,87.8506977 35.6818,88.9663953 35.8875,89.771686 L33.6864,89.771686 M34.7974,77.355407 C34.1385,77.355407 33.6446,76.8605233 33.6446,76.1999419 C33.6446,75.5393605 34.1385,75.0433721 34.7974,75.0433721 C35.4552,75.0433721 35.9491,75.5393605 35.9491,76.1999419 C35.9491,76.8605233 35.4552,77.355407 34.7974,77.355407" id="Fill-128" sketch:type="MSShapeGroup"></path>
            <path d="M40.6604,90.0191279 C39.7551,90.0191279 38.3768,89.771686 37.6959,89.3596512 C37.8609,88.0163953 37.9247,87.2718605 37.9247,87.2718605 C38.4395,88.16 39.7342,88.9873837 41.0916,88.9873837 C42.2851,88.9873837 43.2729,88.3676744 43.2729,87.4563372 C43.2729,86.4455814 42.8615,85.8888372 41.03,85.0205814 C38.643,83.885 37.8609,83.1194767 37.8609,81.5917442 C37.8609,80.1866279 39.0764,78.8025 41.8528,78.8025 C42.8615,78.8025 44.0946,79.1118023 44.649,79.4211047 C44.5478,80.1059884 44.4037,80.6826163 44.198,81.323314 C43.7052,80.4970349 42.6767,79.8364535 41.5239,79.8364535 C39.9388,79.8364535 39.4042,80.6196512 39.4042,81.2802326 C39.4042,82.0866279 39.8156,82.4588953 42.2433,83.6375581 C44.0737,84.524593 44.9592,85.3718605 44.9592,86.921686 C44.9592,89.0072674 43.2927,90.0191279 40.6604,90.0191279" id="Fill-129" sketch:type="MSShapeGroup"></path>
            <path d="M52.6746,89.1111047 C51.832,89.6689535 50.9256,90.0191279 50.0203,90.0191279 C48.6629,90.0191279 47.7774,89.3386628 47.7774,87.7700581 C47.7774,87.6231395 47.7983,87.1702326 47.7983,86.4875581 L47.7983,80.0209302 L45.782,80.0209302 L46.0295,79.0499419 C46.7907,79.0090698 47.4078,78.989186 47.5519,78.8433721 C47.6751,78.7417442 47.7983,78.5959302 47.7983,78.3065116 L47.7983,75.9933721 C48.2702,75.8696512 49.1766,75.6409884 49.6287,75.4763953 C49.5264,76.6329651 49.4439,77.9143605 49.4439,79.0499419 L52.5932,79.0499419 L52.3644,80.0209302 L49.4439,80.0209302 L49.4439,85.8667442 C49.4439,88.5521512 49.6287,88.8006977 50.6154,88.8006977 C51.1104,88.8006977 52.5096,88.2638372 52.9617,87.7888372 C52.8385,88.8006977 52.6746,89.1111047 52.6746,89.1111047" id="Fill-130" sketch:type="MSShapeGroup"></path>
            <path d="M54.3411,89.771686 C54.5248,89.1111047 54.5655,87.1481395 54.5655,86.570407 L54.5655,81.9419186 C54.5655,81.7552326 54.5864,79.7326163 54.2377,79.2156395 L56.397,78.8025 C56.3145,79.7116279 56.2122,80.9300581 56.2122,81.8800581 L56.2122,86.6521512 C56.2122,87.8506977 56.3354,88.9663953 56.5411,89.771686 L54.3411,89.771686 M55.451,77.355407 C54.7921,77.355407 54.2982,76.8605233 54.2982,76.1999419 C54.2982,75.5393605 54.7921,75.0433721 55.451,75.0433721 C56.1077,75.0433721 56.6027,75.5393605 56.6027,76.1999419 C56.6027,76.8605233 56.1077,77.355407 55.451,77.355407" id="Fill-131" sketch:type="MSShapeGroup"></path>
            <path d="M62.7946,90.0191279 C59.7916,90.0191279 58.2285,87.5811628 58.2285,84.8968605 C58.2285,81.3023256 60.1414,78.8025 63.371,78.8025 C64.8098,78.8025 65.7767,79.1118023 66.374,79.5050581 C66.2915,80.1457558 66.1067,80.7864535 65.8592,81.3443023 C65.2432,80.3081395 64.4193,79.8364535 63.2269,79.8364535 C61.4581,79.8364535 60.1216,81.7762209 60.1216,84.5875581 C60.1216,86.4875581 60.8388,88.780814 63.2269,88.780814 C64.3368,88.780814 65.6744,87.9965116 66.3949,87.2088953 L66.6402,88.2030814 C65.6744,89.3596512 64.317,90.0191279 62.7946,90.0191279" id="Fill-132" sketch:type="MSShapeGroup"></path>
            <path d="M73.7385,90.0401163 C72.2986,90.0401163 71.148,89.8545349 70.1382,89.5253488 C70.1382,89.3176744 70.202,88.2207558 70.2405,87.2917442 C70.8994,88.2207558 72.4625,88.9465116 73.9442,88.9465116 C75.735,88.9465116 76.8878,87.9114535 76.8878,86.2809884 C76.8878,85.1443023 76.2476,84.524593 74.0267,83.2431977 L72.1952,82.1904651 C70.7146,81.3431977 69.9138,80.3512209 69.9138,78.6997674 C69.9138,76.3866279 71.8465,75.0422674 74.7043,75.0422674 C75.8571,75.0422674 77.0715,75.2289535 78.0384,75.4973837 C78.0186,76.0541279 77.9152,76.9632558 77.8129,77.7685465 C77.2365,76.880407 75.9407,76.0961047 74.5404,76.0961047 C72.6473,76.0961047 71.7838,77.231686 71.7838,78.3275 C71.7838,79.4851744 72.2161,79.939186 74.5404,81.3023256 L76.3521,82.3561628 C77.9152,83.264186 78.7787,84.5444767 78.7787,85.9109302 C78.7787,88.5952326 76.5369,90.0401163 73.7385,90.0401163" id="Fill-133" sketch:type="MSShapeGroup"></path>
            <path d="M84.3953,90.0180233 C81.3494,90.0180233 79.8886,87.6441279 79.8886,84.8968605 C79.8886,81.839186 81.4528,78.8025 85.0322,78.8025 C88.1397,78.8025 89.5378,81.2194767 89.5378,83.9667442 C89.5378,86.9625581 87.9527,90.0180233 84.3953,90.0180233 M84.8474,79.8154651 C82.4197,79.8154651 81.8235,82.6444767 81.8235,84.524593 C81.8235,86.2809884 82.2547,89.0083721 84.579,89.0083721 C87.0067,89.0083721 87.604,86.1771512 87.604,84.3202326 C87.604,82.5837209 87.1717,79.8154651 84.8474,79.8154651" id="Fill-134" sketch:type="MSShapeGroup"></path>
            <path d="M95.2754,90.0191279 C92.2746,90.0191279 90.7104,87.5811628 90.7104,84.8968605 C90.7104,81.3023256 92.6244,78.8025 95.854,78.8025 C97.2917,78.8025 98.2597,79.1118023 98.857,79.5050581 C98.7745,80.1457558 98.5897,80.7864535 98.3422,81.3443023 C97.7251,80.3081395 96.9023,79.8364535 95.7088,79.8364535 C93.94,79.8364535 92.6013,81.7762209 92.6013,84.5875581 C92.6013,86.4875581 93.3229,88.780814 95.7088,88.780814 C96.822,88.780814 98.1563,87.9965116 98.8768,87.2088953 L99.1232,88.2030814 C98.1563,89.3596512 96.7989,90.0191279 95.2754,90.0191279" id="Fill-135" sketch:type="MSShapeGroup"></path>
            <path d="M100.5015,89.771686 C100.6885,89.1111047 100.7281,87.1481395 100.7281,86.570407 L100.7281,81.9419186 C100.7281,81.7552326 100.749,79.7326163 100.3992,79.2156395 L102.5596,78.8025 C102.4771,79.7116279 102.3737,80.9300581 102.3737,81.8800581 L102.3737,86.6521512 C102.3737,87.8506977 102.498,88.9663953 102.7026,89.771686 L100.5015,89.771686 M101.6125,77.355407 C100.9547,77.355407 100.4608,76.8605233 100.4608,76.1999419 C100.4608,75.5393605 100.9547,75.0433721 101.6125,75.0433721 C102.2714,75.0433721 102.7653,75.5393605 102.7653,76.1999419 C102.7653,76.8605233 102.2714,77.355407 101.6125,77.355407" id="Fill-136" sketch:type="MSShapeGroup"></path>
            <path d="M109.0595,90.0191279 C105.9751,90.0191279 104.3911,87.6231395 104.3911,84.6074419 C104.3911,81.7762209 105.8915,78.8025 109.0804,78.8025 C111.4256,78.8025 112.7841,80.2694767 112.8864,82.748314 C112.9084,83.223314 112.9084,83.698314 112.9084,84.1744186 L106.3227,84.1744186 C106.304,84.337907 106.304,84.4008721 106.304,84.524593 C106.304,86.548314 107.0641,88.7797093 109.4522,88.7797093 C110.6226,88.7797093 111.9404,88.0782558 112.7434,87.2519767 L112.9678,88.2218605 C111.9404,89.3187791 110.583,90.0191279 109.0595,90.0191279 M111.1176,82.4180233 C111.0769,81.0118023 110.5412,79.7326163 109.0188,79.7326163 C107.2489,79.7326163 106.5702,81.7154651 106.3865,83.2012209 L111.1385,83.2012209 C111.1385,82.9338953 111.1176,82.6853488 111.1176,82.4180233" id="Fill-137" sketch:type="MSShapeGroup"></path>
            <path d="M120.5391,89.1111047 C119.6965,89.6689535 118.7901,90.0191279 117.8848,90.0191279 C116.5263,90.0191279 115.643,89.3386628 115.643,87.7700581 C115.643,87.6231395 115.6639,87.1702326 115.6639,86.4875581 L115.6639,80.0209302 L113.6476,80.0209302 L113.894,79.0499419 C114.6563,79.0090698 115.2723,78.989186 115.4164,78.8433721 C115.5396,78.7417442 115.6639,78.5959302 115.6639,78.3065116 L115.6639,75.9933721 C116.1358,75.8696512 117.0422,75.6409884 117.4943,75.4763953 C117.3909,76.6329651 117.3073,77.9143605 117.3073,79.0499419 L120.4577,79.0499419 L120.23,80.0209302 L117.3073,80.0209302 L117.3073,85.8667442 C117.3073,88.5521512 117.4943,88.8006977 118.4821,88.8006977 C118.9749,88.8006977 120.3741,88.2638372 120.8262,87.7888372 C120.7041,88.8006977 120.5391,89.1111047 120.5391,89.1111047" id="Fill-138" sketch:type="MSShapeGroup"></path>
            <path d="M128.315,85.8888372 C127.6352,87.0244186 127.1006,87.9744186 126.6067,88.9873837 C125.8246,90.5769767 124.7972,93.0359302 124.4056,94.3372093 C123.7071,94.1726163 122.8007,93.9019767 122.1231,93.5738953 C122.782,93.5319186 124.036,91.8992442 125.5793,88.7189535 C125.5375,88.4505233 125.1063,87.4386628 124.6531,86.3218605 C124.1801,85.164186 123.7071,83.9667442 123.5828,83.6585465 C123.3177,82.9957558 122.9657,82.1694767 122.5543,81.199593 C122.0813,80.062907 121.6501,79.5260465 121.3003,79.4012209 C122.0813,79.090814 122.782,78.8853488 123.2946,78.8025 C123.5432,79.2565116 123.7896,79.7933721 124.201,80.7853488 C124.7972,82.2523256 125.4561,83.7402907 126.0534,85.2260465 C126.3603,85.9915698 126.5253,86.3627326 126.6694,86.6742442 C126.731,86.5715116 126.8751,86.3218605 126.9158,86.2180233 C127.9245,84.3588953 129.0146,81.9209302 129.1389,80.3722093 C129.1994,79.6298837 129.1587,79.2366279 129.0971,79.0499419 L131.0716,78.8025 C131.175,80.8461047 129.6515,83.6364535 128.315,85.8888372" id="Fill-139" sketch:type="MSShapeGroup"></path>
        </g>
    </g>
</svg>