<?xml version="1.0" encoding="UTF-8" standalone="no"?>
<svg width="250px" height="150px" viewBox="0 0 250 150" version="1.1" xmlns="http://www.w3.org/2000/svg" xmlns:xlink="http://www.w3.org/1999/xlink" xmlns:sketch="http://www.bohemiancoding.com/sketch/ns">
    <!-- Generator: Sketch 3.2.2 (9983) - http://www.bohemiancoding.com/sketch -->
    <title>nhs</title>
    <desc>Created with Sketch.</desc>
    <defs></defs>
    <g id="Page-1" stroke="none" stroke-width="1" fill="none" fill-rule="evenodd" sketch:type="MSPage">
        <g id="Fill-319" sketch:type="MSLayerGroup" transform="translate(71.000000, 52.000000)" fill="#888C85">
            <path d="M0.440313725,44.8814634 L111.140235,44.8814634 L111.140235,0.0976829268 L0.440313725,0.0976829268 L0.440313725,44.8814634 Z M25.3174902,40.4670732 L17.7739608,15.5239024 L17.6696471,15.5239024 L12.6581961,40.4670732 L3.56533333,40.4670732 L11.2647843,4.41878049 L23.3014902,4.41878049 L30.6912941,29.4157317 L30.7923137,29.4157317 L35.8575686,4.41878049 L44.9504314,4.41878049 L37.3036863,40.4670732 L25.3174902,40.4670732 L25.3174902,40.4670732 Z M62.0974118,40.4670732 L65.3014902,25.0254878 L53.8840784,25.0254878 L50.678902,40.4670732 L41.0183529,40.4670732 L48.5091765,4.41878049 L58.1719216,4.41878049 L55.329098,18.2085366 L66.7487059,18.2085366 L69.5904314,4.41878049 L79.2520784,4.41878049 L71.7601569,40.4670732 L62.0974118,40.4670732 L62.0974118,40.4670732 Z M104.670588,12.5791463 C102.809412,11.7 100.278431,10.9273171 96.7141961,10.9273171 C92.8897255,10.9273171 89.7899608,11.4936585 89.7899608,14.3857317 C89.7899608,19.5003659 103.793255,17.5884146 103.793255,28.5365854 C103.793255,38.5035366 94.5444706,41.0871951 86.1741176,41.0871951 C82.4539608,41.0871951 78.1639216,40.2091463 75.012549,39.2279268 L77.2865882,31.8929268 C79.1993725,33.1331707 83.0216471,33.9607317 86.1741176,33.9607317 C89.1706667,33.9607317 93.8713725,33.3921951 93.8713725,29.6736585 C93.8713725,23.8895122 79.8702745,26.0582927 79.8702745,15.885 C79.8702745,6.5897561 88.033098,3.79865854 95.9389804,3.79865854 C100.382745,3.79865854 104.567373,4.26512195 106.996235,5.4 L104.670588,12.5791463 L104.670588,12.5791463 Z" id="Fill-89" sketch:type="MSShapeGroup"></path>
        </g>
    </g>
</svg>