<?xml version="1.0" encoding="UTF-8" standalone="no"?>
<svg width="250px" height="150px" viewBox="0 0 250 150" version="1.1" xmlns="http://www.w3.org/2000/svg" xmlns:xlink="http://www.w3.org/1999/xlink" xmlns:sketch="http://www.bohemiancoding.com/sketch/ns">
    <!-- Generator: Sketch 3.2.2 (9983) - http://www.bohemiancoding.com/sketch -->
    <title>park</title>
    <desc>Created with Sketch.</desc>
    <defs></defs>
    <g id="Page-1" stroke="none" stroke-width="1" fill="none" fill-rule="evenodd" sketch:type="MSPage">
        <g id="Group" sketch:type="MSLayerGroup" transform="translate(65.000000, 29.000000)" fill="#888C85">
            <path d="M9.66651327,58.9733882 C10.0648496,59.0353176 10.5213451,59.1271059 10.9789381,59.1271059 C13.7881416,59.1271059 15.744708,56.9717412 15.744708,53.956 C15.744708,51.8924235 14.8284248,49.3389412 11.1643894,49.3389412 C10.5827965,49.3389412 10.1241062,49.3688 9.66651327,49.4296235 L9.66651327,58.9733882 L9.66651327,58.9733882 Z M3.70902655,67.0363765 C5.81483186,66.9468 6.27461947,66.5132941 6.27461947,63.7762353 L6.27461947,52.8158353 C6.27461947,49.8321647 5.75776991,49.5534824 3.34251327,49.5534824 L3.34251327,48.7218588 C4.23026549,48.7218588 5.75557522,48.6610353 6.48750442,48.6311765 C7.95465487,48.5681412 9.97047788,48.4774588 10.5509735,48.4774588 C16.3241062,48.4774588 19.439469,49.7978824 19.439469,54.0179294 C19.439469,57.6186824 16.4766372,60.1113412 12.1695575,60.1113412 C11.344354,60.1113412 10.5213451,60.0516235 9.66651327,59.8945882 L9.66651327,64.1146353 C9.66651327,66.4856471 10.2766372,67.0065176 13.1165664,67.0363765 L13.1165664,67.868 L3.70902655,67.868 L3.70902655,67.0363765 L3.70902655,67.0363765 Z" id="Fill-230" sketch:type="MSShapeGroup"></path>
            <path d="M25.916,61.2791529 C22.6470088,63.2210824 22.1883186,63.4035529 22.1883186,64.9451529 C22.1883186,66.0222824 22.7688142,66.7599059 23.623646,66.7599059 C24.0812389,66.7599059 24.3884956,66.5763294 24.7231858,66.3308235 C25.0282478,66.0831059 25.2751504,65.8995294 25.916,65.4693412 L25.916,61.2791529 L25.916,61.2791529 Z M31.2304425,66.2976471 C29.795115,67.5937412 28.6319292,68.2064 27.6256637,68.2064 C26.4657699,68.2064 25.884177,67.5616706 25.916,66.2976471 C24.4488496,67.4378118 24.1130619,68.2064 22.3101239,68.2064 C20.4479292,68.2064 19.1344071,66.9766588 19.1344071,65.2525882 C19.1344071,64.3911059 19.4098407,63.6512706 19.9277876,63.1281882 C20.5379115,62.5111059 21.455292,62.2058824 22.5252035,61.8962353 C23.591823,61.5578353 24.7857345,61.1906824 25.916,60.3878118 L25.916,59.4046824 C25.916,57.2471059 25.2740531,56.2949412 23.8376283,56.2949412 C22.8928142,56.2949412 22.1268673,56.8788471 22.1268673,57.5866118 C22.1268673,57.8652941 22.2793982,58.2335529 22.4385133,58.5122353 L19.6567434,59.6512941 C19.3813097,59.2819294 19.2869381,58.9733882 19.2869381,58.6947059 C19.2869381,57.1873882 22.1279646,55.1558824 24.8164602,55.1558824 C27.3216991,55.1558824 28.8184779,56.3878353 28.8184779,58.6029176 L28.8184779,65.5003059 C28.8184779,66.1450353 29.0006372,66.5464706 29.4593274,66.5464706 C29.8291327,66.5464706 30.3141593,66.2976471 30.9572035,65.7458118 L31.2326372,66.2976471 L31.2304425,66.2976471 L31.2304425,66.2976471 Z" id="Fill-231" sketch:type="MSShapeGroup"></path>
            <path d="M31.2907965,57.1254588 L31.2907965,56.5105882 L35.4738761,55.1558824 L36.2387257,55.1558824 L36.2387257,58.2335529 L36.303469,58.2335529 C37.4940885,55.9576471 38.1974867,55.1558824 39.0204956,55.1558824 C39.4780885,55.1558824 40.0607788,55.5562118 41.8933451,55.9255765 L40.8859823,58.4503059 C39.5110088,58.1727294 38.6232566,57.5866118 38.227115,57.5866118 C37.5248142,57.5866118 36.8839646,58.2335529 36.2420177,59.5561882 L36.2420177,64.6686824 C36.2420177,66.8826588 36.7939823,67.1303765 39.2970265,67.1016235 L39.2970265,67.868 L31.2929912,67.868 L31.2929912,67.1016235 C32.6975929,67.1016235 33.3406372,66.6072941 33.3406372,64.7903294 L33.3406372,57.8951529 L31.2929912,57.1254588 L31.2907965,57.1254588" id="Fill-232" sketch:type="MSShapeGroup"></path>
            <path d="M50.0455221,67.1016235 C50.9618053,67.1016235 51.2668673,66.9468 51.2668673,66.4845412 C51.2668673,66.2379294 51.1143363,65.8984235 50.7741593,65.5600235 L46.468177,61.0358588 L46.468177,64.8522588 C46.468177,66.5132941 47.0201416,67.1016235 48.6979823,67.1016235 L48.6979823,67.868 L41.5795044,67.868 L41.5795044,67.1016235 C42.8633982,67.1016235 43.5656991,66.6072941 43.5656991,65.0059765 L43.5656991,51.2167294 C43.5656991,49.9217412 43.3846372,49.5833412 41.5795044,49.2748 L41.5795044,48.5073176 L45.7055221,47.2123294 L46.468177,47.2123294 L46.468177,60.6034588 L50.0422301,57.8652941 C50.8674336,57.2482118 51.1417699,56.9418824 51.1417699,56.7251294 C51.1417699,56.3878353 50.747823,56.2639765 49.5539115,56.2639765 L49.5539115,55.4942824 L56.2136991,55.4942824 L56.2136991,56.2639765 C54.3800354,56.2639765 53.2804956,56.7892706 51.2635752,58.3275529 L49.0633982,60.0184471 L54.4722124,65.8066353 C55.1119646,66.4856471 56.3344071,67.1016235 57.4043186,67.1016235 L57.4043186,67.868 L50.0422301,67.868 L50.0422301,67.1016235 L50.0455221,67.1016235" id="Fill-233" sketch:type="MSShapeGroup"></path>
            <path d="M67.2123894,58.9733882 C67.6107257,59.0353176 68.0672212,59.1271059 68.5248142,59.1271059 C71.3362124,59.1271059 73.2905841,56.9717412 73.2905841,53.956 C73.2905841,51.8924235 72.3732035,49.3389412 68.7091681,49.3389412 C68.1286726,49.3389412 67.668885,49.3688 67.2123894,49.4296235 L67.2123894,58.9733882 L67.2123894,58.9733882 Z M61.2549027,67.0363765 C63.3629027,66.9468 63.8204956,66.5132941 63.8204956,63.7762353 L63.8204956,52.8158353 C63.8204956,49.8321647 63.2981593,49.5534824 60.8894867,49.5534824 L60.8894867,48.7218588 C61.7717522,48.7218588 63.3014513,48.6610353 64.0344779,48.6311765 C65.5027257,48.5681412 67.516354,48.4774588 68.0968496,48.4774588 C73.8710796,48.4774588 76.9864425,49.7978824 76.9864425,54.0179294 C76.9864425,57.6186824 74.0236106,60.1113412 69.7154336,60.1113412 C68.8924248,60.1113412 68.0672212,60.0516235 67.211292,59.8945882 L67.211292,64.1146353 C67.211292,66.4856471 67.8214159,67.0065176 70.6613451,67.0363765 L70.6613451,67.868 L61.2538053,67.868 L61.2538053,67.0363765 L61.2549027,67.0363765 L61.2549027,67.0363765 Z" id="Fill-234" sketch:type="MSShapeGroup"></path>
            <path d="M76.8339115,48.5073176 L81.2013451,47.2123294 L82.0869027,47.2123294 L82.0869027,64.8212941 C82.0869027,66.5752235 82.5444956,67.1016235 84.408885,67.1016235 L84.408885,67.868 L76.8339115,67.868 L76.8339115,67.1016235 C78.7586549,67.1016235 79.1844248,66.4845412 79.1844248,64.6078588 L79.1844248,51.2167294 C79.1844248,49.7978824 79.0604248,49.4594824 76.8339115,49.2748 L76.8339115,48.5073176" id="Fill-235" sketch:type="MSShapeGroup"></path>
            <path d="M91.9838584,61.2791529 C88.7159646,63.2210824 88.256177,63.4035529 88.256177,64.9451529 C88.256177,66.0222824 88.8377699,66.7599059 89.6936991,66.7599059 C90.151292,66.7599059 90.4574513,66.5763294 90.7921416,66.3308235 C91.0972035,66.0831059 91.3441062,65.8995294 91.9838584,65.4693412 L91.9838584,61.2802588 L91.9838584,61.2791529 L91.9838584,61.2791529 Z M97.2993982,66.2976471 C95.8629735,67.5937412 94.700885,68.2064 93.6946195,68.2064 C92.5336283,68.2064 91.9531327,67.5616706 91.9838584,66.2976471 C90.5189027,67.4378118 90.1809204,68.2064 88.380177,68.2064 C86.516885,68.2064 85.2022655,66.9766588 85.2022655,65.2525882 C85.2022655,64.3911059 85.4787965,63.6512706 85.9978407,63.1281882 C86.6090619,62.5111059 87.5253451,62.2058824 88.5941593,61.8962353 C89.6629735,61.5578353 90.8535929,61.1906824 91.9849558,60.3878118 L91.9849558,59.4046824 C91.9849558,57.2471059 91.3430088,56.2949412 89.9076814,56.2949412 C88.9617699,56.2949412 88.1980177,56.8788471 88.1980177,57.5866118 C88.1980177,57.8652941 88.3505487,58.2335529 88.5030796,58.5122353 L85.7235044,59.6512941 C85.4480708,59.2819294 85.3536991,58.9733882 85.3536991,58.6947059 C85.3547965,57.1873882 88.1969204,55.1558824 90.8832212,55.1558824 C93.3895575,55.1558824 94.8874336,56.3878353 94.8874336,58.6029176 L94.8874336,65.5003059 C94.8874336,66.1450353 95.0684956,66.5464706 95.5271858,66.5464706 C95.8915044,66.5464706 96.383115,66.2976471 97.0228673,65.7458118 L97.2983009,66.2976471 L97.2993982,66.2976471 L97.2993982,66.2976471 Z" id="Fill-236" sketch:type="MSShapeGroup"></path>
            <path d="M97.6351858,66.8826588 L105.454867,56.8788471 L100.932708,56.8788471 C99.4359292,56.8788471 99.2526726,57.1254588 98.6732743,59.9266588 L97.7547965,59.9266588 L98.6732743,54.8174824 L99.4359292,54.8174824 C99.4951858,55.0939529 99.5895575,55.2487765 99.7706195,55.3726353 C99.9878938,55.4644235 100.322584,55.4942824 100.809805,55.4942824 L109.395434,55.4942824 L109.395434,56.5105882 L101.483575,66.4845412 L106.217522,66.4845412 C107.957912,66.4845412 108.265168,66.2688941 109.149628,64.2053176 L110.00446,64.2053176 L108.629487,67.868 L97.6351858,67.868 L97.6351858,66.8826588" id="Fill-237" sketch:type="MSShapeGroup"></path>
            <path d="M118.037027,61.2791529 C114.77023,63.2210824 114.31154,63.4035529 114.31154,64.9451529 C114.31154,66.0222824 114.892035,66.7599059 115.746867,66.7599059 C116.20446,66.7599059 116.512814,66.5763294 116.846407,66.3308235 C117.151469,66.0831059 117.398372,65.8995294 118.037027,65.4693412 L118.037027,61.2791529 L118.037027,61.2791529 Z M123.352566,66.2976471 C121.918336,67.5937412 120.756248,68.2064 119.747788,68.2064 C118.587894,68.2064 118.007398,67.5616706 118.037027,66.2976471 C116.574265,67.4378118 116.236283,68.2064 114.434442,68.2064 C112.568956,68.2064 111.257628,66.9766588 111.257628,65.2525882 C111.257628,64.3911059 111.533062,63.6512706 112.051009,63.1281882 C112.663327,62.5111059 113.578513,62.2058824 114.647327,61.8962353 C115.719434,61.5578353 116.907858,61.1906824 118.038124,60.3878118 L118.038124,59.4046824 C118.038124,57.2471059 117.397274,56.2949412 115.961947,56.2949412 C115.013841,56.2949412 114.250088,56.8788471 114.250088,57.5866118 C114.250088,57.8652941 114.402619,58.2335529 114.55515,58.5122353 L111.77777,59.6512941 C111.502336,59.2819294 111.407965,58.9733882 111.407965,58.6947059 C111.407965,57.1873882 114.247894,55.1558824 116.937487,55.1558824 C119.442726,55.1558824 120.93731,56.3878353 120.93731,58.6029176 L120.93731,65.5003059 C120.93731,66.1450353 121.124956,66.5464706 121.579257,66.5464706 C121.942478,66.5464706 122.434088,66.2976471 123.076035,65.7458118 L123.352566,66.2976471 L123.352566,66.2976471 Z" id="Fill-238" sketch:type="MSShapeGroup"></path>
            <path d="M31.403823,42.8319294 C62.6101239,31.0520706 86.6661239,38.1739529 86.6661239,38.1739529 L89.156,33.9649647 C52.5068673,29.0736471 31.403823,42.8319294 31.403823,42.8319294" id="Fill-239" sketch:type="MSShapeGroup"></path>
            <path d="M75.3129912,11.5907529 C75.3129912,16.2387765 72.8176283,20.2896235 69.1118938,22.4881176 C69.7692035,22.7092941 70.4539469,22.8696471 71.1551504,22.9691765 C71.0607788,24.9641882 70.7798584,28.9144 70.2630088,32.0993412 C71.5973805,32.0573176 72.975646,32.0462588 74.3725664,32.0573176 C74.1849204,29.3346353 74.155292,25.4087529 74.0488496,23.0067765 C79.7330973,22.3520941 84.1488142,17.4928471 84.1488142,11.5896471 C84.1488142,5.23967059 79.0417699,0.0895764706 72.7386195,0.0895764706 C71.4700885,0.0895764706 70.2531327,0.306329412 69.1140885,0.691176471 C72.819823,2.89077647 75.3151858,6.94383529 75.3151858,11.5896471" id="Fill-240" sketch:type="MSShapeGroup"></path>
            <path d="M65.3392212,12.4113176 C65.3392212,16.6822353 63.2345133,20.4510824 60.016,22.7413647 C60.6546549,22.8984 61.3185487,22.9890824 61.9934159,23.0377412 C61.8880708,25.2085882 61.5709381,29.5580235 60.9827611,32.806 C62.3566372,32.6401176 63.7722124,32.4941412 65.2338761,32.3791294 C65.0231858,29.6044706 64.9990442,25.3667294 64.8816283,22.8829176 C70.1708319,21.8809882 74.1761416,17.2108471 74.1761416,11.5907529 C74.1761416,5.24077647 69.0658053,0.0906823529 62.7648496,0.0906823529 C61.1572389,0.0906823529 59.6319292,0.427976471 58.248177,1.03068235 C62.4411327,3.07767059 65.3414159,7.39835294 65.3414159,12.4102118" id="Fill-241" sketch:type="MSShapeGroup"></path>
            <path d="M52.0174513,23.8693647 C51.9055221,26.2658118 51.5302301,31.2953647 50.8235398,34.5886824 C52.2424071,34.2569176 53.7326018,33.9483765 55.2963186,33.6630588 C55.0505133,30.9204706 55.0318584,26.3299529 54.903469,23.7034824 C60.1926726,22.7048706 64.1946903,18.0325176 64.1946903,12.4113176 C64.1946903,6.06023529 59.0898407,0.912352941 52.7877876,0.912352941 C46.4857345,0.912352941 41.3764956,6.06023529 41.3764956,12.4113176 C41.3764956,18.4980941 46.0731327,23.4668235 52.0152566,23.8693647" id="Fill-242" sketch:type="MSShapeGroup"></path>
            <path d="M21.4015221,88.0359765 L21.4015221,84.5955765 L23.2582301,84.5955765 L23.2582301,93.1197176 L21.4015221,93.1197176 L21.4015221,89.1263765 L17.3325664,89.1263765 L17.3325664,93.1197176 L15.4780531,93.1197176 L15.4780531,84.5955765 L17.3325664,84.5955765 L17.3325664,88.0359765 L21.4015221,88.0359765" id="Fill-243" sketch:type="MSShapeGroup"></path>
            <path d="M26.8860531,88.7227294 C26.6863363,88.9394824 26.475646,89.2856235 26.475646,90.0121882 C26.475646,91.1711529 27.0089558,92.2715059 28.0909381,92.2715059 C28.7449558,92.2715059 29.4253097,91.8556941 29.4253097,90.5496471 C29.4253097,90.1880235 29.3188673,88.3190824 27.836354,88.3190824 C27.7310088,88.3190824 27.248177,88.3478353 26.8871504,88.7227294 L26.8860531,88.7227294 L26.8860531,88.7227294 Z M30.6367788,88.3721647 C31.1053451,88.9527529 31.2644602,89.6384 31.2644602,90.2665412 C31.2644602,92.2449647 29.6491681,93.2955529 27.8736637,93.2955529 C25.4726726,93.2955529 24.6452743,91.7329412 24.6452743,90.2952941 C24.6452743,87.984 26.7916814,87.2972471 28.0470442,87.2972471 C28.6736283,87.2972471 29.795115,87.326 30.6367788,88.3732706 L30.6367788,88.3721647 Z" id="Fill-244" sketch:type="MSShapeGroup"></path>
            <path d="M36.4011327,87.4432235 L36.4011327,88.4119765 L34.1987611,88.4119765 L34.1987611,90.8460235 C34.1987611,91.3713176 34.1987611,92.1797176 34.9745841,92.1797176 C35.1216283,92.1797176 35.5495929,92.1675529 36.2134867,91.8955059 L36.3188319,91.9375294 L36.4658761,92.5402353 C36.4658761,92.6099059 36.4658761,92.6475059 36.3309027,92.7160706 C35.3312212,93.1882824 34.5575929,93.2966588 34.0769558,93.2966588 C32.5538407,93.2966588 32.5681062,91.9109882 32.5790796,91.2120706 L32.6383363,88.454 L31.836177,88.454 L31.836177,88.0094353 L33.7850619,86.0321176 L34.2415575,86.0321176 L34.2415575,87.4443294 L36.4439292,87.4443294 L36.4011327,87.4432235" id="Fill-245" sketch:type="MSShapeGroup"></path>
            <path d="M40.2440354,89.6085412 C40.2440354,89.1518118 40.1847788,88.2405647 39.3903009,88.2405647 C38.8679646,88.2405647 38.4421947,88.6829176 38.3774513,89.7567294 L40.2440354,89.6085412 L40.2440354,89.6085412 Z M38.3895221,90.6724 C38.5233982,91.7329412 39.0556106,92.0569647 39.8446018,92.0569647 C40.5227611,92.0569647 41.1789735,91.8556941 41.7517876,91.5073412 L41.8461593,91.5305647 L42.0744071,92.2051529 C42.1336637,92.3002588 42.0744071,92.3522353 41.9811327,92.4064235 C41.5937699,92.6895294 40.4865487,93.2811765 39.247646,93.2811765 C38.6452035,93.2811765 37.8715752,93.1462588 37.3777699,92.6220706 C36.8082478,92.0149412 36.6315752,91.1147529 36.6315752,90.4844 C36.6315752,89.1263765 37.3777699,87.2961412 39.6207434,87.2961412 C41.9811327,87.2961412 42.1018407,89.4216471 42.1150088,90.4158353 L38.3928142,90.6724 L38.3895221,90.6724 L38.3895221,90.6724 Z" id="Fill-246" sketch:type="MSShapeGroup"></path>
            <path d="M43.0850619,83.8402588 L44.8067965,83.8402588 L44.8067965,93.1186118 L43.0850619,93.1186118 L43.0850619,83.8402588 Z" id="Fill-247" sketch:type="MSShapeGroup"></path>
            <path d="M49.972,88.7758118 C49.7437522,88.642 49.2258053,88.3190824 48.4225487,88.3190824 C48.1997876,88.3190824 47.5962478,88.3190824 47.5962478,88.8432706 C47.5962478,89.2071059 47.8244956,89.2723529 48.7824779,89.5687294 C49.8238584,89.8794824 50.7993982,90.2278353 50.7993982,91.3038588 C50.7993982,92.2051529 50.0652743,93.2535294 48.1032212,93.2535294 C47.2637522,93.2535294 46.2629735,93.0124471 46.1170265,92.9704235 C46.0226549,92.9405647 46.0226549,92.8896941 46.0116814,92.7945882 L45.876708,91.8424235 L46.3167434,91.6411529 C46.8632212,92.0569647 47.5446726,92.2316941 48.2381947,92.2316941 C49.0513274,92.2316941 49.1456991,91.7893412 49.1456991,91.6267765 C49.1456991,91.2507765 48.8812389,91.1711529 48.0099469,90.9156941 C46.9970973,90.6182118 46.0226549,90.3373176 46.0226549,89.1916235 C46.0226549,88.078 46.9839292,87.3370588 48.6793274,87.3370588 C49.2258053,87.3370588 49.9467611,87.4310588 50.2002478,87.5128941 C50.2946195,87.5416471 50.2946195,87.5936235 50.3055929,87.7152706 L50.3999646,88.5745412 L49.9709027,88.7769176 L49.972,88.7758118" id="Fill-248" sketch:type="MSShapeGroup"></path>
            <path d="M59.2193274,86.6923294 C59.2193274,86.2908941 59.0613097,85.8032 58.3908319,85.8032 C57.7785133,85.8032 57.5787965,86.2477647 57.5787965,86.6923294 C57.5787965,87.3790824 58.0418761,87.6887294 58.4698407,87.9441882 C58.804531,87.7937882 59.2171327,87.5549176 59.2182301,86.6923294 L59.2193274,86.6923294 L59.2193274,86.6923294 Z M56.8688142,90.6038353 C56.8688142,91.3337176 57.3790796,91.8424235 58.2306195,91.8424235 C58.4303363,91.8424235 59.0986195,91.8302588 59.764708,91.2762118 C58.9790088,89.9336706 58.3633982,89.5034824 57.7916814,89.2071059 C57.2166726,89.5034824 56.8677168,89.9602118 56.8677168,90.6027294 L56.8688142,90.6038353 L56.8688142,90.6038353 Z M62.9404248,88.1985412 C62.8636106,88.6132471 62.6342655,89.6771059 61.5522832,91.0229647 C62.0449912,91.6942353 62.527823,92.3268 63.5000708,92.3146353 L63.3650973,93.1208235 C63.1544071,93.1495765 62.9777345,93.1728 62.5629381,93.1728 C61.4710796,93.1728 61.0299469,92.8233412 60.4307965,92.1797176 C59.6692389,92.8366118 58.7222301,93.2535294 57.7225487,93.2535294 C56.359646,93.2535294 55.1053805,92.5689882 55.1053805,90.9400235 C55.1053805,89.9336706 55.7198938,89.1385412 56.8940531,88.642 C56.5824071,88.4119765 55.959115,87.9685176 55.959115,86.9754353 C55.959115,86.4634118 56.2115044,84.8222824 58.5620177,84.8222824 C59.8294513,84.8222824 60.7501239,85.3873882 60.7501239,86.5430353 C60.7501239,87.7937882 59.6944779,88.2527294 59.2555398,88.4263529 C59.6253451,88.6552706 60.1893805,89.018 60.8960708,90.052 C61.3887788,89.2856235 61.5500885,88.4396235 61.5895929,88.1985412 L62.9404248,88.1985412 L62.9404248,88.1985412 Z" id="Fill-249" sketch:type="MSShapeGroup"></path>
            <path d="M69.7988319,88.5601647 C70.7743717,88.5900235 71.0816283,88.6021882 71.5622655,88.5247765 C72.4401416,88.3754824 72.8033628,87.7838353 72.8033628,86.9931294 C72.8033628,86.104 72.3457699,85.5643294 70.8939823,85.5643294 L69.7988319,85.5643294 L69.7988319,88.5634824 L69.7988319,88.5601647 L69.7988319,88.5601647 Z M69.7988319,93.1197176 L67.9454159,93.1197176 L67.9454159,84.5955765 C68.3338761,84.5955765 70.800708,84.5248 71.0816283,84.5248 C72.5345133,84.5248 73.3092389,84.6199059 73.9906903,85.1993882 C74.6030088,85.7257882 74.7511504,86.3539294 74.7511504,86.8936 C74.7511504,87.9021647 74.1618761,88.7769176 72.7627611,89.1794588 C73.5363894,90.8471294 74.3506195,91.8966118 74.8685664,92.1918824 C75.2438584,92.4064235 75.5906195,92.4064235 75.8166726,92.4064235 L75.8166726,92.4749882 L75.6937699,93.0124471 C75.6937699,93.0655294 75.6937699,93.1075529 75.6290265,93.1318824 C75.4940531,93.2137176 75.0287788,93.2811765 74.6567788,93.2811765 C72.8538407,93.2811765 72.0538761,91.9508 70.8939823,89.5156471 C70.4890619,89.5576706 70.1444956,89.5576706 69.7703009,89.5278118 L69.7703009,93.1186118 L69.7988319,93.1197176 L69.7988319,93.1197176 Z" id="Fill-250" sketch:type="MSShapeGroup"></path>
            <path d="M79.4861947,89.6085412 C79.4861947,89.1518118 79.4269381,88.2405647 78.6313628,88.2405647 C78.1145133,88.2405647 77.684354,88.6829176 77.6196106,89.7567294 L79.4861947,89.6085412 L79.4861947,89.6085412 Z M77.6316814,90.6724 C77.7666549,91.7329412 78.2999646,92.0569647 79.0845664,92.0569647 C79.767115,92.0569647 80.4200354,91.8556941 80.9928496,91.5073412 L81.0872212,91.5305647 L81.315469,92.2051529 C81.3747257,92.3002588 81.315469,92.3522353 81.2221947,92.4064235 C80.8348319,92.6895294 79.7265133,93.2811765 78.4854159,93.2811765 C77.8851681,93.2811765 77.1115398,93.1462588 76.6188319,92.6220706 C76.043823,92.0149412 75.8704425,91.1147529 75.8704425,90.4844 C75.8704425,89.1263765 76.6188319,87.2961412 78.8596106,87.2961412 C81.2221947,87.2961412 81.3418053,89.4216471 81.3549735,90.4158353 L77.6316814,90.6724 L77.6316814,90.6724 Z" id="Fill-251" sketch:type="MSShapeGroup"></path>
            <path d="M86.0647788,88.7758118 C85.8354336,88.642 85.3196814,88.3190824 84.5175221,88.3190824 C84.2947611,88.3190824 83.6912212,88.3190824 83.6912212,88.8432706 C83.6912212,89.2071059 83.9139823,89.2723529 84.8774513,89.5687294 C85.9188319,89.8794824 86.8932743,90.2278353 86.8932743,91.3038588 C86.8932743,92.2051529 86.1591504,93.2535294 84.1981947,93.2535294 C83.3554336,93.2535294 82.3568496,93.0124471 82.2098053,92.9704235 C82.116531,92.9405647 82.116531,92.8896941 82.0989735,92.7945882 L81.9694867,91.8424235 L82.4095221,91.6411529 C82.9549027,92.0569647 83.6352566,92.2316941 84.3298761,92.2316941 C85.1452035,92.2316941 85.2395752,91.7893412 85.2395752,91.6267765 C85.2395752,91.2507765 84.9696283,91.1711529 84.103823,90.9156941 C83.0898761,90.6182118 82.1176283,90.3373176 82.1176283,89.1916235 C82.1176283,88.078 83.0756106,87.3370588 84.7721062,87.3370588 C85.3185841,87.3370588 86.0384425,87.4310588 86.2930265,87.5128941 C86.3873982,87.5416471 86.3873982,87.5936235 86.3983717,87.7152706 L86.491646,88.5745412 L86.0636814,88.7769176 L86.0647788,88.7758118" id="Fill-252" sketch:type="MSShapeGroup"></path>
            <path d="M89.8418407,88.7227294 C89.6421239,88.9394824 89.4248496,89.2856235 89.4248496,90.0121882 C89.4248496,91.1711529 89.9581593,92.2715059 91.0401416,92.2715059 C91.6919646,92.2715059 92.3745133,91.8556941 92.3745133,90.5496471 C92.3745133,90.1880235 92.2691681,88.3190824 90.7855575,88.3190824 C90.6802124,88.3190824 90.1984779,88.3478353 89.8385487,88.7227294 L89.8418407,88.7227294 L89.8418407,88.7227294 Z M93.591469,88.3721647 C94.0545487,88.9527529 94.2180531,89.6384 94.2180531,90.2665412 C94.2180531,92.2449647 92.6016637,93.2955529 90.8305487,93.2955529 C88.4273628,93.2955529 87.5999646,91.7329412 87.5999646,90.2952941 C87.5999646,87.984 89.7463717,87.2972471 91.0017345,87.2972471 C91.6283186,87.2972471 92.752,87.326 93.591469,88.3732706 L93.591469,88.3721647 Z" id="Fill-253" sketch:type="MSShapeGroup"></path>
            <path d="M97.0195752,87.4432235 L96.9548319,88.83 C97.3421947,88.1830588 97.9303717,87.2961412 98.9037168,87.2961412 C99.3316814,87.2961412 99.6773451,87.4996235 99.6905133,87.5128941 C99.7837876,87.5803529 99.7837876,87.6599765 99.7837876,87.7263294 C99.7837876,87.8623529 99.7837876,87.8877882 99.7256283,88.0359765 L99.3371681,89.0025176 L99.1089204,89.0025176 C99.0035752,88.9096235 98.856531,88.8045647 98.5635398,88.8045647 C97.924885,88.8045647 97.4705841,89.3276471 97.0162832,90.2433176 L97.0162832,93.1197176 L95.2945487,93.1197176 L95.2945487,87.4432235 L97.0195752,87.4432235" id="Fill-254" sketch:type="MSShapeGroup"></path>
            <path d="M104.477133,87.4432235 L104.477133,88.4119765 L102.274761,88.4119765 L102.274761,90.8460235 C102.274761,91.3713176 102.274761,92.1797176 103.048389,92.1797176 C103.195434,92.1797176 103.623398,92.1675529 104.289487,91.8955059 L104.394832,91.9375294 L104.541876,92.5402353 C104.541876,92.6099059 104.541876,92.6475059 104.406903,92.7160706 C103.406124,93.1882824 102.632496,93.2966588 102.151858,93.2966588 C100.629841,93.2966588 100.644106,91.9109882 100.658372,91.2120706 L100.716531,88.454 L99.9165664,88.454 L99.9165664,88.0094353 L101.865451,86.0321176 L102.31646,86.0321176 L102.31646,87.4443294 L104.518832,87.4443294 L104.477133,87.4432235" id="Fill-255" sketch:type="MSShapeGroup"></path>
            <path d="M108.787504,88.7758118 C108.559257,88.642 108.038018,88.3190824 107.236956,88.3190824 C107.014195,88.3190824 106.410655,88.3190824 106.410655,88.8432706 C106.410655,89.2071059 106.638903,89.2723529 107.597982,89.5687294 C108.638265,89.8794824 109.612708,90.2278353 109.612708,91.3038588 C109.612708,92.2051529 108.878584,93.2535294 106.919823,93.2535294 C106.077062,93.2535294 105.076283,93.0124471 104.929239,92.9704235 C104.835965,92.9405647 104.835965,92.8896941 104.823894,92.7945882 L104.690018,91.8424235 L105.130053,91.6411529 C105.68092,92.0569647 106.35908,92.2316941 107.052602,92.2316941 C107.864637,92.2316941 107.960106,91.7893412 107.960106,91.6267765 C107.960106,91.2507765 107.695646,91.1711529 106.825451,90.9156941 C105.812602,90.6182118 104.839257,90.3373176 104.839257,89.1916235 C104.839257,88.078 105.798336,87.3370588 107.493735,87.3370588 C108.039115,87.3370588 108.760071,87.4310588 109.014655,87.5128941 C109.107929,87.5416471 109.107929,87.5936235 109.118903,87.7152706 L109.213274,88.5745412 L108.78531,88.7769176 L108.787504,88.7758118" id="Fill-256" sketch:type="MSShapeGroup"></path>
            <path d="M0.780212389,76.6487059 L122.86315,76.6487059" id="Fill-257" sketch:type="MSShapeGroup"></path>
        </g>
    </g>
</svg>