<?xml version="1.0" encoding="UTF-8" standalone="no"?>
<svg width="250px" height="150px" viewBox="0 0 250 150" version="1.1" xmlns="http://www.w3.org/2000/svg" xmlns:xlink="http://www.w3.org/1999/xlink" xmlns:sketch="http://www.bohemiancoding.com/sketch/ns">
    <!-- Generator: Sketch 3.2.2 (9983) - http://www.bohemiancoding.com/sketch -->
    <title>rspca</title>
    <desc>Created with Sketch.</desc>
    <defs></defs>
    <g id="Page-1" stroke="none" stroke-width="1" fill="none" fill-rule="evenodd" sketch:type="MSPage">
        <g id="Group-2" sketch:type="MSLayerGroup" transform="translate(72.000000, 45.000000)" fill="#888C85">
            <path d="M50.3877,21.9130566 L49.5407,21.9130566 L49.5407,28.1190566 L50.5186,28.1190566 C53.3511,28.1190566 54.8823,27.6025283 54.8823,24.9345283 C54.8823,22.2938868 53.0585,21.9130566 50.3877,21.9130566" id="Fill-1" sketch:type="MSShapeGroup"></path>
            <path d="M22.8261,21.8583396 L22.1749,21.8583396 L22.1749,28.0369811 L22.7931,28.0369811 C25.4309,28.0369811 27.2877,27.3847547 27.2877,24.8798113 C27.2877,22.3486038 25.366,21.8583396 22.8261,21.8583396" id="Fill-2" sketch:type="MSShapeGroup"></path>
            <path d="M35.9821,29.8076226 C34.0791,29.1510189 32.4951,28.3981132 31.5271,27.2118491 C30.7857,28.8347547 29.2919,30.1457736 27.06,30.4598491 L30.569,34.8393962 L32.6612,33.1278491 C33.3124,34.7069811 35.0394,36.1219623 37.0909,36.1219623 C39.0445,36.1219623 40.2501,34.7343396 40.2501,33.1563019 C40.2501,31.0321887 37.9049,30.4335849 35.9821,29.8076226" id="Fill-3" sketch:type="MSShapeGroup"></path>
            <path d="M83.6297,24.063434 L80.9259,31.5224528 L86.7559,31.5224528 L83.6935,24.063434 L83.6297,24.063434" id="Fill-4" sketch:type="MSShapeGroup"></path>
            <path d="M91.0008,8.35637736 L18.5713,8.35637736 L7.9937,18.6913208 L7.9937,39.4531321 L18.9486,50.350566 L90.3397,50.350566 L101.2935,39.4531321 L101.2935,18.5961132 L91.0008,8.35637736 L91.0008,8.35637736 Z M89.9811,39.1160755 L88.0902,34.7890566 L79.5575,34.7890566 L77.5379,39.1160755 L73.3887,39.1160755 C72.2491,39.4421887 71.0831,39.6599623 69.8379,39.6599623 C63.2104,39.6599623 58.2483,35.0703019 57.8578,29.696 C56.5224,30.8549057 54.5215,31.4403774 51.9189,31.4403774 L49.5407,31.4403774 L49.5407,39.1160755 L44.7535,39.1160755 L44.7535,35.1129811 C43.7536,37.8608679 41.0509,39.6610566 37.1228,39.6610566 C35.97,39.6610566 34.9316,39.4596981 33.9845,39.1160755 L28.1996,39.1160755 L22.2398,30.8406792 L22.1749,30.8406792 L22.1749,39.1160755 L17.3866,39.1160755 L17.3866,18.5917358 L23.8678,18.5917358 C27.2778,18.5917358 29.9167,19.5044151 31.2037,21.5519245 C32.3158,19.484717 34.6984,18.0467547 37.6772,18.0467547 C39.8585,18.0467547 42.8879,18.9463019 44.3861,20.3339245 L42.1388,23.1113585 C41.2269,22.0772075 40.0543,21.4227925 38.4582,21.4227925 C36.9281,21.4227925 35.4629,22.4033208 35.4629,23.7362264 C35.4629,26.7489434 42.8494,26.045283 44.7535,30.3679245 L44.7535,18.5928302 L51.2677,18.5928302 C55.7249,18.5928302 58.8302,19.887434 59.5826,23.2590943 C61.6231,20.1850943 65.3015,18.0478491 69.9369,18.0478491 C71.8575,18.0478491 73.7462,18.4833962 75.4072,19.2461509 L75.4072,24.0360755 C74.0729,22.674717 72.0533,21.859434 70.0007,21.859434 C65.4093,21.859434 62.7704,25.397434 62.7704,28.935434 C62.7704,32.3935472 65.5061,35.850566 69.9688,35.850566 C71.7068,35.850566 73.4173,35.1852075 74.7197,34.2101509 L82.0655,18.0478491 L85.778,18.0478491 L95.0939,39.1160755 L89.9811,39.1160755 L89.9811,39.1160755 Z" id="Fill-5" sketch:type="MSShapeGroup"></path>
            <path d="M94.0093,0.180566038 L15.7399,0.180566038 L0.638,15.2047547 L0.638,42.3804906 L16.0017,57.7975472 L93.7464,57.7975472 L109.1112,42.5118113 L109.1112,15.2047547 L94.0093,0.180566038 L94.0093,0.180566038 Z M104.7772,40.6820755 L92.433,52.9627547 L17.4471,52.9627547 L4.9709,40.5518491 L4.9709,16.642717 L17.0522,4.62358491 L92.1712,4.62358491 L104.7772,17.1658113 L104.7772,40.6820755 L104.7772,40.6820755 Z" id="Fill-6" sketch:type="MSShapeGroup"></path>
        </g>
    </g>
</svg>