<?xml version="1.0" encoding="UTF-8" standalone="no"?>
<svg width="250px" height="150px" viewBox="0 0 250 150" version="1.1" xmlns="http://www.w3.org/2000/svg" xmlns:xlink="http://www.w3.org/1999/xlink" xmlns:sketch="http://www.bohemiancoding.com/sketch/ns">
    <!-- Generator: Sketch 3.2.2 (9983) - http://www.bohemiancoding.com/sketch -->
    <title>virgin</title>
    <desc>Created with Sketch.</desc>
    <defs></defs>
    <g id="Page-1" stroke="none" stroke-width="1" fill="none" fill-rule="evenodd" sketch:type="MSPage">
        <g id="Group" sketch:type="MSLayerGroup" transform="translate(56.000000, 32.000000)" fill="#888C85">
            <path d="M28.1028,54.4843077 C27.9356,54.4843077 27.7717,54.4170513 27.6639,54.3056923 C27.5715,54.2086667 27.5264,54.0917949 27.5308,53.9539744 C27.478,52.5415897 27.5924,51.1258974 27.7013,49.7565128 C27.7717,48.8766667 27.8531,47.8788462 27.8784,46.9218205 L27.8982,46.6318462 C27.9686,45.5204615 28.0401,44.3715897 28.7958,43.5711282 C29.1401,43.2546923 29.6714,42.8257949 30.2423,42.8257949 C30.2885,42.8257949 30.3369,42.8291026 30.3853,42.8346154 C30.5921,42.8919487 30.6581,43.1157692 30.7395,43.4774103 C30.7637,43.5810513 30.789,43.6846923 30.8176,43.7795128 L30.7164,43.8147949 C30.6625,43.8765385 30.6482,43.9603333 30.679,44.0353077 C30.8979,44.5921026 30.7791,45.1786667 30.6526,45.7994103 C30.5877,46.1147436 30.5261,46.4256667 30.5052,46.7332821 C30.4788,47.4642821 30.3666,48.1963846 30.2588,48.9042308 C30.118,49.8237692 29.975,50.7642564 30.0047,51.7179744 C29.9937,52.2361795 29.8716,52.7643077 29.7407,53.2538462 C29.7209,53.3310256 29.7451,53.4082051 29.7979,53.4611282 C29.6637,53.5559487 29.5328,53.6562821 29.4008,53.7555128 C29.051,54.0223333 28.6957,54.2924615 28.2997,54.4523333 C28.2425,54.4732821 28.1721,54.4843077 28.1028,54.4843077" id="Fill-145" sketch:type="MSShapeGroup"></path>
            <path d="M30.1741,38.9546923 C29.8331,38.8907436 29.4943,38.7044103 29.4954,38.3582051 C29.5152,37.1189231 30.7802,36.4298205 31.1674,36.249 C31.2752,36.1960769 31.3962,36.1718205 31.5513,36.1718205 C31.6668,36.1718205 31.7845,36.1850513 31.8978,36.1971795 C31.8648,36.1982821 31.9,36.2897949 31.9253,36.3504359 C32.0606,36.6977436 32.1684,36.9766923 32.0573,37.2479231 C31.735,38.055 30.943,38.5136667 30.1741,38.9546923" id="Fill-146" sketch:type="MSShapeGroup"></path>
            <path d="M20.9836,64.4812564 C20.5623,64.4812564 20.2158,64.2541282 20.1014,63.9035128 C19.7813,62.7259744 19.5767,61.4866923 19.3809,60.2871026 C19.2049,59.2143077 19.0256,58.1194615 18.7627,57.0543846 C18.7363,56.4490769 18.6296,55.8095897 18.5284,55.1910513 C18.4646,54.8084615 18.4008,54.4236667 18.3546,54.0388718 C18.2413,53.3188974 18.1368,52.6055385 18.0345,51.8943846 L18.007,51.7091538 C17.8266,50.4500256 17.6407,49.149 17.4086,47.8777436 L17.3844,47.6649487 C17.2711,46.6858718 17.1556,45.6726154 16.9103,44.6913333 C16.753,44.2877949 16.7123,43.8644103 16.6705,43.4542564 L16.6584,43.3241538 L16.4802,43.086 L16.1821,42.8004359 C16.1623,42.7805897 16.0622,42.742 16.0347,42.742 C15.9412,42.7530256 15.8851,42.7894103 15.8532,42.8423333 C15.301,43.7673846 14.9215,44.6395128 14.6938,45.5138462 C14.5387,46.1334872 14.2835,46.7299744 14.0371,47.3088205 C13.8644,47.7101538 13.6939,48.1103846 13.5509,48.5227436 C13.3067,48.7586923 12.9206,48.9306923 12.5686,48.9306923 C12.4179,48.9306923 12.2738,48.8998205 12.1396,48.8402821 C11.8008,48.6572564 11.5093,48.2426923 11.6512,47.841359 C12.0219,46.6395641 12.4509,45.4267436 12.8304,44.3561538 C13.3155,42.9856667 13.8171,41.5688718 14.2307,40.1278205 C14.3792,39.6934103 14.5244,39.2479744 14.6707,38.8025385 C14.9457,37.9634872 15.1998,37.1883846 15.4748,36.4221026 C15.6519,35.8807436 16.1678,35.4904359 16.7057,35.4904359 C16.7728,35.4904359 16.8399,35.4959487 16.907,35.5102821 C17.5285,35.5400513 17.919,36.1332308 18.0268,36.6734872 C18.1643,37.3372308 18.2666,38.0064872 18.3711,38.6779487 C18.4811,39.3979231 18.5845,40.0627692 18.7187,40.7198974 C18.8793,41.3538718 18.9574,42.0043846 19.0333,42.6328462 C19.1312,43.4311026 19.2302,44.2558205 19.492,45.0529744 C19.6273,45.4344615 19.7362,45.8402051 19.8242,46.2955641 C19.8682,47.0651538 20.0695,47.8457692 20.2554,48.5150256 C20.1168,49.0563846 20.1696,49.639641 20.4105,50.1490256 L20.4182,50.499641 C20.4666,51.3056154 20.5161,52.1347436 20.8593,52.8988205 C20.8912,52.9748974 20.9671,53.0234103 21.0518,53.0234103 C21.1442,53.0223077 21.2223,52.9660769 21.2509,52.8844872 C21.4467,52.348641 21.5094,51.7841282 21.5699,51.2405641 C21.6007,50.9572051 21.6304,50.6760513 21.6821,50.3982051 C22.2057,47.0397949 22.6952,44.0110513 23.3882,40.9547436 C23.9877,38.442 24.6708,35.905 25.3341,33.4517949 L26.0216,30.891641 C27.3405,27.1418205 28.5791,23.7348974 29.8034,20.4845385 C29.9046,20.2364615 30.0025,19.977359 30.1004,19.7138462 L30.1422,19.6035897 C30.5833,18.4150256 31.0398,17.1878718 32.0595,16.4171795 C32.373,16.1470513 32.7668,16.0070256 33.2024,16.0070256 C34.0791,16.0070256 35.0801,16.598 35.2341,17.5892051 C35.4882,18.4888974 34.9778,19.3025897 34.3871,20.1273077 C33.165,21.1107949 32.1299,22.5805128 31.3302,24.4758205 C31.2202,24.7404359 31.1047,24.9995385 30.9892,25.2597436 C30.679,25.9653846 30.3567,26.6919744 30.1521,27.4582564 C29.5592,28.7372308 29.1071,30.0547949 28.6209,31.5212051 C28.3151,32.7549744 28.0049,33.952359 27.566,35.1023333 C27.4175,35.4827179 27.3768,35.8917692 27.3405,36.2523077 C27.3119,36.5312564 27.2855,36.7859487 27.2228,37.0351282 C26.1019,39.0803846 25.6443,41.4453846 25.201,43.7321026 L25.0701,44.4068718 C24.9326,44.677 24.9161,45.0055641 24.8996,45.3253077 C24.8842,45.6207949 24.871,45.9008462 24.7434,46.1500256 C24.5916,46.7851026 24.4717,47.3374872 24.4332,47.9141282 C24.255,48.6164615 24.1296,49.3529744 24.0306,49.9781282 C24.3419,50.525 24.1439,50.9748462 23.9327,51.4511538 L23.8458,51.6518205 L23.8007,51.8513846 C23.7017,52.3287949 23.5917,52.8668462 23.7974,53.3751282 C23.518,53.7444872 23.4179,54.2671026 23.3552,54.7345897 C23.2727,55.3806923 23.0725,57.0080769 23.0725,57.0080769 C22.8283,59.0059231 22.583,61.0026667 22.2563,62.9486923 C22.1463,63.5043846 22.033,64.0821282 21.5688,64.3136667 C21.3917,64.4228205 21.1871,64.4812564 20.9836,64.4812564" id="Fill-147" sketch:type="MSShapeGroup"></path>
            <path d="M33.6776,51.3662564 C33.1826,51.1799231 33.1474,50.5194872 33.1826,49.8303846 C33.2409,49.2724872 33.2486,48.6969487 33.2574,48.1390513 C33.2651,47.5800513 33.275,47.0199487 33.33,46.4752821 C33.5071,45.5513333 33.5467,44.5854872 33.5852,43.6505128 C33.5984,43.3087179 33.6127,42.9724359 33.6325,42.6361538 C33.6985,41.9768205 33.825,41.3075641 34.3057,40.9007179 C34.7545,40.4773333 35.4035,40.3373077 35.9183,40.2623333 C36.4166,40.1939744 36.861,39.9844872 37.2889,39.7805128 C37.5386,39.6614359 37.7894,39.542359 38.0501,39.4530513 C38.1502,39.4111538 38.236,39.3924103 38.3196,39.3924103 C38.5715,39.3924103 38.8036,39.5798462 38.9389,39.8951795 C39.1138,40.2976154 39.0764,40.7496667 38.8465,40.9955385 C38.5902,41.2777949 38.2778,41.5214615 37.9742,41.7596154 C37.4385,42.1807949 36.894,42.6074872 36.5728,43.2613077 C36.0052,44.6395128 35.9656,46.1048205 35.9271,47.5205128 C35.9095,48.1677179 35.8908,48.8325641 35.8215,49.4808718 C35.7379,50.5657949 34.65,51.3265641 33.6776,51.3662564" id="Fill-148" sketch:type="MSShapeGroup"></path>
            <path d="M51.6461,42.7916154 C51.4767,42.7916154 51.3348,42.7364872 51.2259,42.630641 C51.051,42.3737436 51.0917,41.9900513 51.1313,41.6184872 C51.1445,41.4861795 51.1577,41.3571795 51.1621,41.2325897 C51.2556,40.402359 51.3337,39.5555897 51.4129,38.7077179 L51.425,38.5698974 C51.568,37.0218974 51.7165,35.4209744 51.9508,33.8520256 C52.0927,33.0636923 52.7824,32.2169231 53.5821,32.2169231 C53.7427,32.2169231 53.9033,32.2511026 54.0595,32.3205641 C54.1937,32.8608205 54.0892,33.5388974 53.9781,34.2555641 C53.9,34.761641 53.8197,35.2842564 53.8681,35.8134872 C53.911,36.7484615 53.8747,37.7385641 53.7581,38.7518205 C53.6151,39.3218462 53.6217,39.9304615 53.6283,40.5192308 C53.6316,40.7728205 53.6349,41.0153846 53.6261,41.2590513 C53.5216,41.7585128 53.0772,42.2116667 52.305,42.5865385 C52.074,42.7199487 51.8419,42.7916154 51.6461,42.7916154" id="Fill-149" sketch:type="MSShapeGroup"></path>
            <path d="M53.625,29.1319487 C53.2587,29.1319487 52.8781,28.9665641 52.8583,28.5983077 C52.8286,28.1683077 52.9925,27.7394103 53.3192,27.3887949 C53.7086,26.9709231 54.2652,26.7217436 54.8108,26.7217436 C54.9648,26.7217436 55.1122,26.7415897 55.2519,26.7801795 C55.2959,26.9499744 55.3784,27.1605641 55.4642,27.3744615 C55.0374,28.233359 54.4907,28.835359 53.8582,29.1098974 C53.8054,29.1209231 53.7108,29.1319487 53.625,29.1319487" id="Fill-150" sketch:type="MSShapeGroup"></path>
            <path d="M47.2747,69.8948462 C46.6257,69.8948462 46.1032,69.6280256 45.8766,69.1814872 C45.4564,68.2387949 45.5059,67.1726154 45.5532,66.1395128 C45.5708,65.7767692 45.5873,65.4217436 45.5851,65.0689231 C45.716,62.1206667 45.7358,59.1294103 45.7556,56.2340769 C45.7655,54.9209231 45.7743,53.6088718 45.793,52.2957179 C45.7941,52.2593333 45.7259,52.133641 45.6951,52.1126923 C45.6577,52.0917436 45.6203,52.0818205 45.5818,52.0818205 C44.7238,52.5041026 44.0594,53.0388462 43.4159,53.5559487 L42.9242,53.9484615 C41.239,55.2340513 39.5791,56.6078462 37.9731,57.9375385 L37.8213,58.0643333 C37.0733,58.6828718 36.3253,59.3014103 35.5718,59.9122308 C35.2055,60.1878718 34.8898,60.5208462 34.5851,60.8416923 C34.364,61.0765385 34.1418,61.3091795 33.9009,61.5219744 C33.1837,62.0875897 32.5633,62.7700769 31.9627,63.4316154 C31.6261,63.8020769 31.3214,64.1361538 31.0046,64.4547949 C30.5107,64.93 30.041,65.4360769 29.5691,65.9421538 C28.996,66.5606923 28.3745,67.2310513 27.7255,67.8176154 C27.4846,68.1142051 27.1183,68.2784872 26.7091,68.2784872 C26.1063,68.2784872 25.4078,67.9157436 25.2978,67.2442821 C25.1834,66.8672051 25.2461,66.5000513 25.4694,66.2211026 C26.1877,65.2298974 27.0985,64.3897436 27.9763,63.5771538 C28.3294,63.2518974 28.6253,62.9784615 28.9113,62.6995128 C29.986,61.6498718 31.163,60.6707949 32.2993,59.7236923 L33.2046,58.9662308 C34.6841,57.6949744 36.2274,56.4468718 37.7201,55.2428718 L38.3427,54.739 L40.1874,53.3993846 C40.8595,52.9087436 41.5316,52.4192051 42.2092,51.9340769 L43.0529,51.2912821 C43.9032,50.6407692 44.7722,49.9737179 45.6676,49.3794359 C45.7886,48.6396154 45.7765,48.056359 45.7567,47.5161026 C45.7545,47.4389231 45.7094,47.3672564 45.639,47.3319744 C45.5928,47.325359 45.5576,47.3220513 45.5301,47.3220513 C45.4707,47.3220513 45.4432,47.3352821 45.4168,47.3540256 C44.4609,48.0960513 43.3158,48.5028974 42.1927,48.5028974 C42.0893,48.5028974 41.9859,48.4995897 41.8803,48.4929744 C41.294,48.4080769 40.6153,48.0111538 40.4415,47.3154359 C40.2534,46.6638205 40.2677,45.9758205 40.2798,45.3109744 C40.2886,44.8831795 40.2974,44.4410513 40.2556,44.0022308 L40.2974,43.5049744 C40.4107,42.0528974 40.5273,40.5589231 41.1312,39.2347436 C41.8517,37.779359 42.6954,36.8609231 43.7085,36.4309231 C43.9472,36.3438205 44.2398,36.2368718 44.5005,36.2368718 C44.6633,36.2368718 44.7997,36.2776667 44.9163,36.360359 C45.1033,36.8388718 44.7634,37.5356923 44.3509,37.9623846 C43.681,38.639359 43.3499,39.5456667 43.0584,40.3461282 C42.8637,40.9293846 42.6877,41.5490256 42.8384,42.1807949 L42.7889,42.4542308 C42.68,43.2480769 42.5678,44.0683846 42.6712,44.8953077 C42.823,45.7067949 43.2157,45.941641 43.5204,45.9967692 L43.5237,45.9967692 C44.6094,45.9967692 45.5587,45.1819744 45.7083,44.1422564 C46.0295,42.3097949 46.1736,40.4343333 46.3144,38.6206154 C46.3925,37.6040513 46.4629,36.6911282 46.5575,35.7848205 C46.6268,35.131 47.3297,34.7252564 47.9402,34.7252564 C48.1778,34.7252564 48.6101,34.7914103 48.8411,35.2247179 C48.9126,36.1641026 48.8048,37.2104359 48.7003,38.2214872 C48.6365,38.8444359 48.5727,39.456359 48.5518,40.0693846 C48.5188,40.5897949 48.4704,41.1113077 48.422,41.6350256 C48.3164,42.7431026 48.2163,43.8004615 48.2438,44.8556154 C48.2361,45.15 48.2218,45.4554103 48.2064,45.7619231 C48.1756,46.3628205 48.1514,46.8567692 48.1547,47.3518205 C48.1547,47.429 48.1965,47.5006667 48.2647,47.5370513 C48.3241,47.5480769 48.3648,47.5524872 48.3945,47.5524872 C48.4374,47.5524872 48.4572,47.5436667 48.4781,47.5315385 L49.9202,46.6131026 C51.7759,45.4267436 53.6767,44.2117179 55.6358,43.1841282 C56.9547,42.3869744 58.3132,41.6273077 59.6277,40.8907949 L59.7476,40.824641 C60.9994,40.1234103 62.2523,39.4221795 63.4821,38.6867692 C63.5118,38.6691282 63.5822,38.5555641 63.5844,38.5213846 C63.591,38.4552308 63.5646,38.3868718 63.5129,38.3416667 L63.3996,38.2490513 C63.1235,38.0241282 62.8386,37.7925897 62.8034,37.4684359 C62.7341,36.9524359 62.766,36.4187949 62.7968,35.9027949 C62.8133,35.6260513 62.8298,35.3493077 62.832,35.0736667 C62.821,34.4694615 62.8683,33.8553333 62.909,33.3139744 C62.9695,32.4947692 63.0322,31.6513077 62.9431,30.8111538 C62.8804,30.5244872 62.6725,30.1970256 62.0147,30.1970256 C61.9487,30.1970256 61.8805,30.2014359 61.8178,30.2058462 C61.1028,30.4153333 60.6903,30.934641 60.291,31.4352051 C60.1458,31.6182308 60.005,31.7968462 59.851,31.9556154 C59.7157,32.3282821 59.6486,32.6226667 59.5815,32.9159487 C59.5232,33.1739487 59.4649,33.4242308 59.3945,33.6712051 C59.2471,33.9512564 59.3098,34.271 59.3725,34.5234872 C59.2922,34.5874359 59.2141,34.6910769 59.1327,34.8002308 C59.0876,34.8608718 59.0777,34.9435641 59.1085,35.0119231 L59.3021,35.4727949 L59.1877,35.5687179 C59.1877,35.5698205 59.0788,35.6635385 59.0733,35.7495385 C59.0403,36.1596923 59.0161,36.6470256 59.0799,37.1497949 C59.0953,37.3625897 59.1107,37.5908205 59.1327,37.8157436 C59.1063,38.0748462 59.092,38.381359 59.0909,38.6856667 C59.0502,38.7 58.9919,38.8278974 58.9237,38.9888718 C58.7796,39.3207436 58.6553,39.6085128 58.3737,39.7518462 C58.014,39.9679487 57.5773,40.230359 57.1582,40.230359 C57.0405,40.230359 56.9305,40.2094103 56.8249,40.1697179 C56.4773,40.0318974 56.4927,39.5577949 56.5048,39.1388205 C56.5653,38.0638205 56.6093,37.0505641 56.6544,36.0406154 L56.6632,35.8300256 C56.7182,34.5587692 56.7732,33.2897179 56.8535,32.0206667 C56.8909,31.1772051 57.332,30.4208462 57.9788,30.0900769 C58.3594,29.8993333 58.8071,29.8056154 59.3461,29.8056154 C59.6629,29.8056154 59.9808,29.8386923 60.2877,29.8827949 C60.9653,29.7273333 61.3481,29.300641 61.7166,28.8871795 C61.9399,28.638 62.1698,28.38 62.436,28.2057949 C63.0366,27.7967436 63.5833,27.5894615 64.0618,27.5894615 C64.2873,27.5894615 64.4996,27.6368718 64.6943,27.7327949 C65.0122,27.8673077 65.1255,28.2046923 65.2454,28.5619231 L65.2894,28.6931282 C65.3004,28.8496923 65.3345,29.0514615 65.3686,29.2521282 C65.2421,29.5773846 65.2388,29.9676923 65.3642,30.3899744 C65.3587,30.5630769 65.362,30.7846923 65.3697,31.0096154 C65.3488,31.028359 65.3301,31.0504103 65.3279,31.0669487 C65.1805,31.931359 65.2124,32.7163846 65.2432,33.4760513 C65.2696,34.0824615 65.2982,34.7550256 65.2542,35.3967179 C65.3378,35.9722564 65.4643,36.808 66.1881,37.0781282 C67.111,36.8973077 67.826,36.5014872 68.5168,36.1188974 C68.8897,35.9127179 69.2604,35.707641 69.641,35.5345385 C69.9017,35.4099487 70.1943,35.3482051 70.5386,35.3482051 C70.8279,35.3482051 71.1447,35.3901026 71.533,35.4794103 C71.9235,35.7495385 71.9741,36.3901282 71.9796,36.5797692 L71.8256,36.7661026 C71.5781,37.1795641 71.3306,37.5952308 70.9566,37.8565385 C70.3252,38.3593077 69.5376,38.5908462 68.7775,38.8157692 C68.5399,38.8852308 68.3067,38.9535897 68.0768,39.0307692 C66.4983,39.5544872 64.8329,40.2921026 62.9838,41.2888205 C57.9227,43.9052051 53.5425,46.4686667 49.5913,49.123641 C49.3064,49.3143846 49.0402,49.5304872 48.7729,49.7476923 C48.5485,49.9296154 48.3714,50.0740513 48.1855,50.2107692 C48.0249,51.8436667 47.9633,53.5074359 47.9457,55.5229231 C47.9226,55.9815897 47.927,56.4512821 47.9325,56.9220769 C47.9402,57.6828462 47.949,58.4689744 47.8258,59.2330513 C47.9094,59.8240256 47.96,60.2848974 47.8071,60.7104872 C47.7785,60.7865641 47.8478,60.9552564 47.85,60.9607692 L47.982,61.2783077 L47.8456,61.4117179 C47.8335,61.7843846 47.8467,61.9696154 47.8368,62.1416154 C47.8522,62.5286154 47.9303,62.883641 48.0051,63.227641 C48.1283,63.7855385 48.2394,64.2949231 48.1228,64.8098205 L48.2372,65.0733333 L48.3824,65.2453333 C48.4143,65.4151282 48.4946,65.6676154 48.5771,65.919 C48.4748,65.9939744 48.3615,66.245359 48.2493,66.5011538 C48.2119,66.5871538 48.2141,66.7404103 48.3142,66.8032564 C48.4187,66.8705128 48.6244,66.9951026 48.73,67.0557436 L48.7817,67.3115385 L48.6123,67.4581795 C48.6046,67.4703077 48.488,67.6831026 48.5606,67.7878462 L48.8587,68.2288718 C48.7872,68.3964615 48.7322,68.6687949 48.719,68.9367179 C48.4319,69.427359 48.0458,69.7647436 47.6157,69.8672821 C47.5156,69.8849231 47.3957,69.8948462 47.2747,69.8948462" id="Fill-151" sketch:type="MSShapeGroup"></path>
            <path d="M33.418,85.8423333 C32.7591,85.8423333 32.098,85.8213846 31.4391,85.7816923 C25.3561,85.4123333 19.6625,83.265641 15.4088,79.7352308 C10.978,76.0614872 7.3425,70.8673077 4.895,64.7161026 C2.4585,58.5891538 1.1649,51.6760769 1.0505,44.1687179 C0.9405,35.6922051 2.3045,27.9411795 5.1062,21.1317436 C7.8441,14.4965128 11.9141,9.09505128 16.8729,5.51061538 C21.2179,2.39917949 26.8191,0.622948718 32.6436,0.506076923 C32.9318,0.499461538 33.2189,0.496153846 33.5049,0.496153846 C39.5241,0.496153846 45.8139,2.06951282 52.2016,5.17323077 C59.092,8.52502564 65.7833,13.3652821 72.6605,19.969641 C78.7105,25.7955897 84.5966,32.7461538 90.6554,41.2149487 C90.6741,41.2425128 90.7907,41.3031538 90.8248,41.3031538 C90.8941,41.3031538 90.9579,41.2722821 90.9975,41.2171538 C92.8631,38.786 94.699,36.4011538 96.6251,33.9997692 C100.3299,29.5178462 104.61,25.7702308 109.3444,22.858359 C112.7093,20.8075897 116.0346,19.4029231 119.2246,18.6840513 C120.7976,18.3290256 122.3629,18.1482051 123.8765,18.1482051 C125.2053,18.1482051 126.5,18.2882308 127.7243,18.5627692 C130.5205,19.1746923 133.0813,20.4999744 135.1317,22.3952821 C136.9159,24.0215641 138.4196,26.1065128 139.6032,28.5916923 C140.9122,31.3536154 141.8109,34.5356154 142.2707,38.0505897 C142.8438,42.5148718 142.6755,46.9526923 141.7713,51.2405641 C140.6405,56.5306667 138.512,60.7193077 135.4441,63.6863077 C133.0186,66.0402821 129.7989,67.5893846 126.3779,68.051359 C125.5628,68.1649231 124.7224,68.2244615 123.8765,68.2244615 C121.165,68.2244615 118.2742,67.6367949 115.2877,66.4802051 C110.9185,64.775641 106.568,62.0269487 102.3594,58.3113077 C100.0032,56.2296667 97.8373,53.9352308 95.9178,51.4930513 C94.2634,49.3904615 92.6288,47.2713333 90.9953,45.15 C90.9755,45.124641 90.86,45.0684103 90.827,45.0684103 C90.7588,45.0684103 90.695,45.1003846 90.6554,45.1566154 C82.4472,56.6387179 74.7274,65.1549231 66.3597,71.9599487 C60.5957,76.6282051 55.0022,80.0538718 49.2591,82.431 C43.7701,84.6934615 38.4406,85.8423333 33.418,85.8423333 L33.418,85.8423333 Z M33.4059,2.58110256 C31.8307,2.58110256 30.2731,2.70238462 28.7749,2.94164103 C23.5466,3.73438462 18.7011,6.13025641 15.1349,9.68492308 C10.5534,14.1414872 7.0609,20.1658974 5.1315,27.6908974 C3.2516,35.019641 2.8556,43.1312051 3.6641,51.3750769 C4.2779,57.6155897 6.2326,63.2221282 8.8198,68.1175128 C11.4279,73.0250256 14.6894,76.8398974 18.5152,79.4584872 C21.4104,81.4232564 24.8798,82.7761026 28.5494,83.3703846 C30.1081,83.6272821 31.7306,83.7573846 33.3707,83.7573846 C38.0226,83.7573846 42.922,82.7397179 47.9358,80.7297436 C53.5062,78.500359 58.9512,75.232359 64.5821,70.735 C73.0598,63.923359 80.9534,55.2064872 89.4234,43.3032051 C89.4762,43.2315385 89.4762,43.1301026 89.4234,43.0562308 C82.4406,33.2864103 76.0562,25.8694615 69.3275,19.7138462 C62.1852,13.1921795 55.2684,8.61323077 48.1833,5.71348718 C43.0815,3.63515385 38.1095,2.58110256 33.4059,2.58110256 L33.4059,2.58110256 Z M123.8457,20.2342564 C122.8106,20.2342564 121.7579,20.3290769 120.7173,20.5165128 C117.4151,21.1041795 114.0458,22.4647436 110.418,24.6797949 C105.8673,27.4902308 101.772,31.0669487 98.2454,35.3096154 C96.7263,37.2049231 95.2424,39.1266923 93.7596,41.0484615 L92.2075,43.0529231 C92.1481,43.1301026 92.1481,43.2392564 92.2075,43.3153333 L93.6254,45.1477949 C94.8178,46.6924872 96.0113,48.2360769 97.2191,49.7708462 C98.956,52.0277949 100.9206,54.1601538 103.0557,56.1083846 C107.2236,59.8945897 111.5235,62.6973077 115.8322,64.4371538 C118.668,65.5650769 121.3729,66.1373077 123.871,66.1373077 C124.4936,66.1373077 125.114,66.1020256 125.7135,66.0314615 C128.6076,65.7150256 131.3752,64.5044103 133.5059,62.6190256 C135.4848,60.8824872 137.0886,58.5307179 138.2744,55.6265641 C139.4943,52.6264872 140.228,49.1798718 140.4546,45.382641 C140.6581,41.684641 140.3545,38.1090256 139.5537,34.7506154 C138.743,31.3977179 137.4769,28.5387692 135.7873,26.2520513 C134.211,24.1075641 132.1925,22.4559231 129.9496,21.4757436 C128.0983,20.6521282 126.0446,20.2342564 123.8457,20.2342564 L123.8457,20.2342564 Z M115.0644,46.3562051 C114.4704,46.3562051 113.8907,46.1952308 113.4364,45.9052564 C112.5564,45.3793333 112.0108,44.3352051 112.0108,43.1797179 C112.0119,42.2193846 112.3815,41.3428462 113.0239,40.7750256 C113.5376,40.2954103 114.2394,40.033 115.0028,40.033 C115.6595,40.033 116.2964,40.2336667 116.798,40.5975128 C117.4668,41.1024872 117.8529,41.9966667 117.8529,43.0452051 C117.8529,43.1345128 117.8496,43.2238205 117.843,43.3120256 C117.843,43.3969231 117.843,43.4277949 117.5449,43.4322051 L116.6616,43.4377179 L114.6585,43.4333077 C114.257,43.4333077 113.8555,43.4344103 113.4551,43.4388205 C113.4243,43.4388205 113.3143,43.490641 113.2945,43.5148974 C113.256,43.5612051 113.2373,43.6229487 113.2483,43.6857949 C113.3902,44.608641 114.1701,45.3054615 115.0611,45.3054615 C115.126,45.3054615 115.1909,45.3021538 115.2569,45.2955385 L115.258,45.2955385 C115.9004,45.2955385 116.358,44.8357692 116.6869,44.4123846 C116.7683,44.4333333 116.8508,44.4498718 116.9344,44.4675128 C117.2919,44.5402821 117.5768,44.5998205 117.7363,44.8192308 C117.3381,45.8446154 116.0753,46.3562051 115.0644,46.3562051 L115.0644,46.3562051 Z M114.9489,40.9977436 C114.1635,40.9977436 113.4496,41.6129744 113.2901,42.4299744 C113.2835,42.4630513 113.3132,42.5832308 113.333,42.6085897 C113.3726,42.656 113.4342,42.6846667 113.4958,42.6846667 C113.9996,42.6890769 114.5067,42.6901795 115.0105,42.6901795 L116.4141,42.6857692 C116.446,42.6857692 116.556,42.6361538 116.5758,42.6107949 C116.6154,42.5655897 116.633,42.5005385 116.622,42.4387949 C116.5109,41.7838718 116.0456,41.0936667 115.2569,41.0308205 C115.1766,41.0098718 115.0611,40.9977436 114.9489,40.9977436 L114.9489,40.9977436 Z M121.8283,46.3176154 C120.9494,46.3176154 120.0782,45.8798974 119.6085,45.2040256 C119.2015,44.6428205 118.9793,43.9261538 118.9793,43.1841282 C118.9793,42.3395641 119.2609,41.5578462 119.7724,40.9778974 C120.2608,40.4089744 121.0308,40.0682821 121.8316,40.0682821 C122.4795,40.0682821 123.0647,40.2976154 123.4794,40.7121795 C123.4992,40.7331282 123.6004,40.7750256 123.629,40.7750256 C123.7907,40.7254103 123.8424,40.6438205 123.8402,40.5567179 L123.8347,40.2954103 C123.8204,39.7485385 123.8083,39.2016667 123.8072,38.6536923 C123.8072,38.2038462 123.8171,37.7562051 123.8424,37.3096667 C124.0316,37.2589487 124.2835,37.2049231 124.5255,37.2049231 C124.7906,37.2049231 124.9908,37.2666667 125.1228,37.3868462 L125.092,38.6106923 L125.0975,40.0285897 L125.081,43.6990256 C125.081,44.5061026 125.0887,45.3120769 125.1129,46.1180513 C124.8687,46.1478205 124.6223,46.1665641 124.377,46.1665641 C124.2021,46.1665641 124.0272,46.156641 123.8534,46.1334872 C123.8765,46.1268718 123.8611,45.9813333 123.8545,45.9262051 C123.8457,45.8435128 123.8358,45.7619231 123.8105,45.6814359 C123.7885,45.6086667 123.7269,45.5535385 123.651,45.5381026 L123.6312,45.5381026 C123.5377,45.5381026 123.4838,45.5656667 123.4464,45.6108718 C123.0614,46.0662308 122.4872,46.3176154 121.8283,46.3176154 L121.8283,46.3176154 Z M122.078,41.1917949 C121.847,41.1917949 121.6237,41.2347949 121.4158,41.3163846 C120.7184,41.5876154 120.2861,42.3009744 120.2872,43.1764103 C120.2872,44.1268205 120.8482,45.124641 121.9229,45.1907949 C121.9801,45.1963077 122.0439,45.2007179 122.1088,45.2007179 C122.6247,45.2007179 123.0878,44.9647692 123.4112,44.5347692 C123.6928,44.1587949 123.8534,43.6483077 123.8534,43.1367179 C123.8534,42.4784872 123.596,41.899641 123.1461,41.5457179 C122.8502,41.3174872 122.4707,41.1917949 122.078,41.1917949 L122.078,41.1917949 Z M132.561,46.3132051 C131.6887,46.3132051 130.8208,45.8787949 130.3522,45.2095385 C129.9441,44.6494359 129.7197,43.9316667 129.7197,43.1863333 C129.7197,42.1510256 130.1344,41.2270769 130.8582,40.6493333 C131.3257,40.2788718 131.9516,40.0649744 132.5742,40.0649744 C133.2243,40.0649744 133.8018,40.2976154 134.2,40.7165897 C134.2187,40.7375385 134.3243,40.781641 134.3529,40.781641 C134.5069,40.7397436 134.5608,40.6658718 134.5641,40.5798718 L134.5795,40.2700513 C134.6906,40.2634359 134.7896,40.2535128 134.8897,40.2435897 C135.036,40.2281538 135.1834,40.2116154 135.3286,40.2116154 C135.5695,40.2116154 135.7433,40.2612308 135.8753,40.3648718 C135.8291,40.8103077 135.8324,41.3770256 135.8346,41.9547692 L135.8368,42.9426667 C135.8368,43.7199744 135.8302,44.4961795 135.8225,45.2723846 L135.8137,46.1345897 C135.6674,46.1577436 135.5123,46.1676667 135.3451,46.1676667 C135.0965,46.1676667 134.849,46.1445128 134.6015,46.1125385 L134.618,45.7332564 C134.6224,45.6428462 134.5696,45.5601538 134.486,45.5270769 C134.4596,45.5237692 134.4354,45.5215641 134.4145,45.5215641 C134.3243,45.5215641 134.2792,45.5469231 134.2473,45.5844103 C133.8392,46.0541026 133.2397,46.3132051 132.561,46.3132051 L132.561,46.3132051 Z M132.8173,41.1895897 C132.6534,41.1895897 132.4928,41.2127436 132.3388,41.254641 C131.5424,41.4586154 131.0287,42.2138718 131.0287,43.1764103 C131.0276,44.1444615 131.5985,45.1477949 132.6919,45.1918974 C132.7359,45.1974103 132.7931,45.1996154 132.8481,45.1996154 C133.3662,45.1996154 133.8282,44.9647692 134.1505,44.5369744 C134.4321,44.1632051 134.5927,43.6560256 134.5927,43.1433333 C134.5927,42.4994359 134.3452,41.925 133.9107,41.5699744 C133.6104,41.3241026 133.221,41.1895897 132.8173,41.1895897 L132.8173,41.1895897 Z M127.6011,46.1709744 C127.3976,46.1709744 127.193,46.1533333 126.9917,46.121359 L126.9928,46.121359 C127.006,46.121359 126.9664,46.0816667 126.9664,45.8776923 L126.9697,45.6847436 C126.9697,45.6285128 126.9675,45.5755897 126.962,45.5259744 C126.9675,45.2040256 126.9697,44.8534103 126.9697,44.5005897 L126.962,42.2954615 C126.962,41.6251026 126.9675,40.9547436 126.9917,40.2854872 L127.028,40.2457949 C127.0643,40.2557179 127.1017,40.2568205 127.1314,40.2568205 C127.1963,40.2568205 127.2744,40.248 127.3536,40.2391795 C127.5054,40.2215385 127.6473,40.205 127.7848,40.205 C128.029,40.205 128.1841,40.2601282 128.2886,40.3825128 L128.2677,41.1532051 L128.2732,42.2535641 L128.2644,44.4730256 C128.2644,44.8346667 128.2666,45.1952051 128.2732,45.5557436 L128.271,45.5535385 C128.2699,45.5535385 128.2611,45.5998462 128.2611,45.7112051 L128.2633,45.8964359 C128.2633,46.1070256 128.2237,46.1191538 128.183,46.1323846 C128.0103,46.1544359 127.8057,46.1709744 127.6011,46.1709744 L127.6011,46.1709744 Z M105.776,46.1654615 C105.6099,46.1654615 105.4383,46.156641 105.3195,46.0629231 L105.3525,45.7564103 C105.3481,45.5513333 105.3404,45.3142821 105.3404,45.0485641 C105.3404,44.8214359 105.3514,44.2547179 105.3514,44.2547179 C105.358,43.9878974 105.3635,43.7232821 105.3635,43.4586667 C105.3635,42.9106923 105.3371,42.4729744 105.2788,42.0815641 C105.1237,41.5291795 104.6507,41.194 104.0424,41.194 C103.499,41.194 102.8445,41.5016154 102.6949,42.1774872 C102.6476,42.5766154 102.6267,42.9933846 102.6267,43.5358462 C102.6267,43.6648462 102.6454,44.952641 102.6454,45.0805385 C102.6454,45.4057949 102.6366,45.7332564 102.6124,46.0574103 C102.6047,46.1026154 102.5948,46.164359 102.2736,46.164359 L102.0987,46.1621538 C102.0415,46.1621538 101.9876,46.1632564 101.9414,46.1676667 C101.8996,46.164359 101.8336,46.1632564 101.7643,46.1632564 C101.3881,46.1632564 101.3584,46.1180513 101.3529,46.0463846 C101.3375,45.1985128 101.332,44.3363077 101.332,43.4752051 C101.332,42.6515897 101.3452,40.402359 101.3452,40.402359 C101.3507,40.3130513 101.3573,40.2149231 101.6972,40.2149231 C101.7841,40.2149231 101.8743,40.2215385 101.9623,40.2281538 C102.0822,40.2347692 102.1537,40.2391795 102.2208,40.2391795 L102.3396,40.2336667 C102.4881,40.2336667 102.5618,40.308641 102.5794,40.7298205 C102.5816,40.8191282 102.6399,40.8985128 102.7279,40.9249744 C102.7433,40.9260769 102.7565,40.9260769 102.7697,40.9260769 C102.8731,40.9260769 102.9259,40.8963077 102.9611,40.8488974 C103.3318,40.3494359 103.961,40.050641 104.6419,40.050641 C105.3635,40.050641 105.9927,40.3825128 106.3271,40.9393077 C106.348,40.9712821 106.4712,41.0407436 106.5086,41.0407436 C106.5801,41.0407436 106.6472,41.0065641 106.6868,40.9470256 C107.0674,40.3814103 107.7483,40.0418205 108.5095,40.0418205 C109.1651,40.0418205 109.758,40.3009231 110.1364,40.7518718 C110.5632,41.2634615 110.6006,41.9646923 110.6006,42.5832308 L110.5918,43.5534872 L110.5995,44.9504359 C110.5995,45.3153846 110.594,45.6814359 110.5764,46.0463846 C110.5698,46.1158462 110.539,46.1610513 110.1628,46.164359 C110.099,46.164359 110.0374,46.1654615 109.9835,46.1676667 C109.9527,46.1654615 109.7382,46.164359 109.7382,46.164359 C109.3785,46.164359 109.3719,46.1015128 109.3653,46.035359 C109.3367,45.6538718 109.3279,45.2635641 109.3279,44.874359 L109.3422,43.3627436 C109.3422,43.0011026 109.3345,42.6427692 109.3114,42.2833333 C109.2696,41.7518974 108.8439,41.2954359 108.3225,41.2215641 C108.2411,41.1984103 108.1333,41.1851795 108.0233,41.1851795 C107.3028,41.1851795 106.6758,41.7717436 106.6571,42.4652564 C106.6373,42.7827949 106.6318,43.1058462 106.6318,43.4311026 L106.6461,44.9581538 C106.6461,45.347359 106.6373,45.7354615 106.6076,46.1235641 C106.5922,46.1456154 106.4822,46.156641 106.2754,46.1588462 C106.1962,46.1588462 106.1192,46.1599487 106.0499,46.1676667 L105.776,46.1654615 L105.776,46.1654615 Z M127.5835,38.786 C127.4031,38.786 127.2381,38.7275641 127.1094,38.6184103 C126.885,38.4662564 126.7662,38.2303077 126.7662,37.9491538 C126.7662,37.6227949 126.9334,37.3251026 127.1963,37.1916923 C127.325,37.1145128 127.4515,37.0792308 127.589,37.0792308 C128.0037,37.0792308 128.469,37.4331538 128.4701,37.9061538 L128.4624,38.0197179 C128.4481,38.4761795 127.996,38.786 127.5835,38.786 L127.5835,38.786 Z" id="Fill-152" sketch:type="MSShapeGroup"></path>
            <path d="M28.1028,54.4843077 C27.9356,54.4843077 27.7717,54.4170513 27.6639,54.3056923 C27.5715,54.2086667 27.5264,54.0917949 27.5308,53.9539744 C27.478,52.5415897 27.5924,51.1258974 27.7013,49.7565128 C27.7717,48.8766667 27.8531,47.8788462 27.8784,46.9218205 L27.8982,46.6318462 C27.9686,45.5204615 28.0401,44.3715897 28.7958,43.5711282 C29.1401,43.2546923 29.6714,42.8257949 30.2423,42.8257949 C30.2885,42.8257949 30.3369,42.8291026 30.3853,42.8346154 C30.5921,42.8919487 30.6581,43.1157692 30.7395,43.4774103 C30.7637,43.5810513 30.789,43.6846923 30.8176,43.7795128 L30.7164,43.8147949 C30.6625,43.8765385 30.6482,43.9603333 30.679,44.0353077 C30.8979,44.5921026 30.7791,45.1786667 30.6526,45.7994103 C30.5877,46.1147436 30.5261,46.4256667 30.5052,46.7332821 C30.4788,47.4642821 30.3666,48.1963846 30.2588,48.9042308 C30.118,49.8237692 29.975,50.7642564 30.0047,51.7179744 C29.9937,52.2361795 29.8716,52.7643077 29.7407,53.2538462 C29.7209,53.3310256 29.7451,53.4082051 29.7979,53.4611282 C29.6637,53.5559487 29.5328,53.6562821 29.4008,53.7555128 C29.051,54.0223333 28.6957,54.2924615 28.2997,54.4523333 C28.2425,54.4732821 28.1721,54.4843077 28.1028,54.4843077" id="Fill-153" sketch:type="MSShapeGroup"></path>
            <path d="M30.1741,38.9546923 C29.8331,38.8907436 29.4943,38.7044103 29.4954,38.3582051 C29.5152,37.1189231 30.7802,36.4298205 31.1674,36.249 C31.2752,36.1960769 31.3962,36.1718205 31.5513,36.1718205 C31.6668,36.1718205 31.7845,36.1850513 31.8978,36.1971795 C31.8648,36.1982821 31.9,36.2897949 31.9253,36.3504359 C32.0606,36.6977436 32.1684,36.9766923 32.0573,37.2479231 C31.735,38.055 30.943,38.5136667 30.1741,38.9546923" id="Fill-154" sketch:type="MSShapeGroup"></path>
            <path d="M20.9836,64.4812564 C20.5623,64.4812564 20.2158,64.2541282 20.1014,63.9035128 C19.7813,62.7259744 19.5767,61.4866923 19.3809,60.2871026 C19.2049,59.2143077 19.0256,58.1194615 18.7627,57.0543846 C18.7363,56.4490769 18.6296,55.8095897 18.5284,55.1910513 C18.4646,54.8084615 18.4008,54.4236667 18.3546,54.0388718 C18.2413,53.3188974 18.1368,52.6055385 18.0345,51.8943846 L18.007,51.7091538 C17.8266,50.4500256 17.6407,49.149 17.4086,47.8777436 L17.3844,47.6649487 C17.2711,46.6858718 17.1556,45.6726154 16.9103,44.6913333 C16.753,44.2877949 16.7123,43.8644103 16.6705,43.4542564 L16.6584,43.3241538 L16.4802,43.086 L16.1821,42.8004359 C16.1623,42.7805897 16.0622,42.742 16.0347,42.742 C15.9412,42.7530256 15.8851,42.7894103 15.8532,42.8423333 C15.301,43.7673846 14.9215,44.6395128 14.6938,45.5138462 C14.5387,46.1334872 14.2835,46.7299744 14.0371,47.3088205 C13.8644,47.7101538 13.6939,48.1103846 13.5509,48.5227436 C13.3067,48.7586923 12.9206,48.9306923 12.5686,48.9306923 C12.4179,48.9306923 12.2738,48.8998205 12.1396,48.8402821 C11.8008,48.6572564 11.5093,48.2426923 11.6512,47.841359 C12.0219,46.6395641 12.4509,45.4267436 12.8304,44.3561538 C13.3155,42.9856667 13.8171,41.5688718 14.2307,40.1278205 C14.3792,39.6934103 14.5244,39.2479744 14.6707,38.8025385 C14.9457,37.9634872 15.1998,37.1883846 15.4748,36.4221026 C15.6519,35.8807436 16.1678,35.4904359 16.7057,35.4904359 C16.7728,35.4904359 16.8399,35.4959487 16.907,35.5102821 C17.5285,35.5400513 17.919,36.1332308 18.0268,36.6734872 C18.1643,37.3372308 18.2666,38.0064872 18.3711,38.6779487 C18.4811,39.3979231 18.5845,40.0627692 18.7187,40.7198974 C18.8793,41.3538718 18.9574,42.0043846 19.0333,42.6328462 C19.1312,43.4311026 19.2302,44.2558205 19.492,45.0529744 C19.6273,45.4344615 19.7362,45.8402051 19.8242,46.2955641 C19.8682,47.0651538 20.0695,47.8457692 20.2554,48.5150256 C20.1168,49.0563846 20.1696,49.639641 20.4105,50.1490256 L20.4182,50.499641 C20.4666,51.3056154 20.5161,52.1347436 20.8593,52.8988205 C20.8912,52.9748974 20.9671,53.0234103 21.0518,53.0234103 C21.1442,53.0223077 21.2223,52.9660769 21.2509,52.8844872 C21.4467,52.348641 21.5094,51.7841282 21.5699,51.2405641 C21.6007,50.9572051 21.6304,50.6760513 21.6821,50.3982051 C22.2057,47.0397949 22.6952,44.0110513 23.3882,40.9547436 C23.9877,38.442 24.6708,35.905 25.3341,33.4517949 L26.0216,30.891641 C27.3405,27.1418205 28.5791,23.7348974 29.8034,20.4845385 C29.9046,20.2364615 30.0025,19.977359 30.1004,19.7138462 L30.1422,19.6035897 C30.5833,18.4150256 31.0398,17.1878718 32.0595,16.4171795 C32.373,16.1470513 32.7668,16.0070256 33.2024,16.0070256 C34.0791,16.0070256 35.0801,16.598 35.2341,17.5892051 C35.4882,18.4888974 34.9778,19.3025897 34.3871,20.1273077 C33.165,21.1107949 32.1299,22.5805128 31.3302,24.4758205 C31.2202,24.7404359 31.1047,24.9995385 30.9892,25.2597436 C30.679,25.9653846 30.3567,26.6919744 30.1521,27.4582564 C29.5592,28.7372308 29.1071,30.0547949 28.6209,31.5212051 C28.3151,32.7549744 28.0049,33.952359 27.566,35.1023333 C27.4175,35.4827179 27.3768,35.8917692 27.3405,36.2523077 C27.3119,36.5312564 27.2855,36.7859487 27.2228,37.0351282 C26.1019,39.0803846 25.6443,41.4453846 25.201,43.7321026 L25.0701,44.4068718 C24.9326,44.677 24.9161,45.0055641 24.8996,45.3253077 C24.8842,45.6207949 24.871,45.9008462 24.7434,46.1500256 C24.5916,46.7851026 24.4717,47.3374872 24.4332,47.9141282 C24.255,48.6164615 24.1296,49.3529744 24.0306,49.9781282 C24.3419,50.525 24.1439,50.9748462 23.9327,51.4511538 L23.8458,51.6518205 L23.8007,51.8513846 C23.7017,52.3287949 23.5917,52.8668462 23.7974,53.3751282 C23.518,53.7444872 23.4179,54.2671026 23.3552,54.7345897 C23.2727,55.3806923 23.0725,57.0080769 23.0725,57.0080769 C22.8283,59.0059231 22.583,61.0026667 22.2563,62.9486923 C22.1463,63.5043846 22.033,64.0821282 21.5688,64.3136667 C21.3917,64.4228205 21.1871,64.4812564 20.9836,64.4812564" id="Fill-155" sketch:type="MSShapeGroup"></path>
            <path d="M33.6776,51.3662564 C33.1826,51.1799231 33.1474,50.5194872 33.1826,49.8303846 C33.2409,49.2724872 33.2486,48.6969487 33.2574,48.1390513 C33.2651,47.5800513 33.275,47.0199487 33.33,46.4752821 C33.5071,45.5513333 33.5467,44.5854872 33.5852,43.6505128 C33.5984,43.3087179 33.6127,42.9724359 33.6325,42.6361538 C33.6985,41.9768205 33.825,41.3075641 34.3057,40.9007179 C34.7545,40.4773333 35.4035,40.3373077 35.9183,40.2623333 C36.4166,40.1939744 36.861,39.9844872 37.2889,39.7805128 C37.5386,39.6614359 37.7894,39.542359 38.0501,39.4530513 C38.1502,39.4111538 38.236,39.3924103 38.3196,39.3924103 C38.5715,39.3924103 38.8036,39.5798462 38.9389,39.8951795 C39.1138,40.2976154 39.0764,40.7496667 38.8465,40.9955385 C38.5902,41.2777949 38.2778,41.5214615 37.9742,41.7596154 C37.4385,42.1807949 36.894,42.6074872 36.5728,43.2613077 C36.0052,44.6395128 35.9656,46.1048205 35.9271,47.5205128 C35.9095,48.1677179 35.8908,48.8325641 35.8215,49.4808718 C35.7379,50.5657949 34.65,51.3265641 33.6776,51.3662564" id="Fill-156" sketch:type="MSShapeGroup"></path>
            <path d="M51.6461,42.7916154 C51.4767,42.7916154 51.3348,42.7364872 51.2259,42.630641 C51.051,42.3737436 51.0917,41.9900513 51.1313,41.6184872 C51.1445,41.4861795 51.1577,41.3571795 51.1621,41.2325897 C51.2556,40.402359 51.3337,39.5555897 51.4129,38.7077179 L51.425,38.5698974 C51.568,37.0218974 51.7165,35.4209744 51.9508,33.8520256 C52.0927,33.0636923 52.7824,32.2169231 53.5821,32.2169231 C53.7427,32.2169231 53.9033,32.2511026 54.0595,32.3205641 C54.1937,32.8608205 54.0892,33.5388974 53.9781,34.2555641 C53.9,34.761641 53.8197,35.2842564 53.8681,35.8134872 C53.911,36.7484615 53.8747,37.7385641 53.7581,38.7518205 C53.6151,39.3218462 53.6217,39.9304615 53.6283,40.5192308 C53.6316,40.7728205 53.6349,41.0153846 53.6261,41.2590513 C53.5216,41.7585128 53.0772,42.2116667 52.305,42.5865385 C52.074,42.7199487 51.8419,42.7916154 51.6461,42.7916154" id="Fill-157" sketch:type="MSShapeGroup"></path>
            <path d="M53.625,29.1319487 C53.2587,29.1319487 52.8781,28.9665641 52.8583,28.5983077 C52.8286,28.1683077 52.9925,27.7394103 53.3192,27.3887949 C53.7086,26.9709231 54.2652,26.7217436 54.8108,26.7217436 C54.9648,26.7217436 55.1122,26.7415897 55.2519,26.7801795 C55.2959,26.9499744 55.3784,27.1605641 55.4642,27.3744615 C55.0374,28.233359 54.4907,28.835359 53.8582,29.1098974 C53.8054,29.1209231 53.7108,29.1319487 53.625,29.1319487" id="Fill-158" sketch:type="MSShapeGroup"></path>
            <path d="M47.2747,69.8948462 C46.6257,69.8948462 46.1032,69.6280256 45.8766,69.1814872 C45.4564,68.2387949 45.5059,67.1726154 45.5532,66.1395128 C45.5708,65.7767692 45.5873,65.4217436 45.5851,65.0689231 C45.716,62.1206667 45.7358,59.1294103 45.7556,56.2340769 C45.7655,54.9209231 45.7743,53.6088718 45.793,52.2957179 C45.7941,52.2593333 45.7259,52.133641 45.6951,52.1126923 C45.6577,52.0917436 45.6203,52.0818205 45.5818,52.0818205 C44.7238,52.5041026 44.0594,53.0388462 43.4159,53.5559487 L42.9242,53.9484615 C41.239,55.2340513 39.5791,56.6078462 37.9731,57.9375385 L37.8213,58.0643333 C37.0733,58.6828718 36.3253,59.3014103 35.5718,59.9122308 C35.2055,60.1878718 34.8898,60.5208462 34.5851,60.8416923 C34.364,61.0765385 34.1418,61.3091795 33.9009,61.5219744 C33.1837,62.0875897 32.5633,62.7700769 31.9627,63.4316154 C31.6261,63.8020769 31.3214,64.1361538 31.0046,64.4547949 C30.5107,64.93 30.041,65.4360769 29.5691,65.9421538 C28.996,66.5606923 28.3745,67.2310513 27.7255,67.8176154 C27.4846,68.1142051 27.1183,68.2784872 26.7091,68.2784872 C26.1063,68.2784872 25.4078,67.9157436 25.2978,67.2442821 C25.1834,66.8672051 25.2461,66.5000513 25.4694,66.2211026 C26.1877,65.2298974 27.0985,64.3897436 27.9763,63.5771538 C28.3294,63.2518974 28.6253,62.9784615 28.9113,62.6995128 C29.986,61.6498718 31.163,60.6707949 32.2993,59.7236923 L33.2046,58.9662308 C34.6841,57.6949744 36.2274,56.4468718 37.7201,55.2428718 L38.3427,54.739 L40.1874,53.3993846 C40.8595,52.9087436 41.5316,52.4192051 42.2092,51.9340769 L43.0529,51.2912821 C43.9032,50.6407692 44.7722,49.9737179 45.6676,49.3794359 C45.7886,48.6396154 45.7765,48.056359 45.7567,47.5161026 C45.7545,47.4389231 45.7094,47.3672564 45.639,47.3319744 C45.5928,47.325359 45.5576,47.3220513 45.5301,47.3220513 C45.4707,47.3220513 45.4432,47.3352821 45.4168,47.3540256 C44.4609,48.0960513 43.3158,48.5028974 42.1927,48.5028974 C42.0893,48.5028974 41.9859,48.4995897 41.8803,48.4929744 C41.294,48.4080769 40.6153,48.0111538 40.4415,47.3154359 C40.2534,46.6638205 40.2677,45.9758205 40.2798,45.3109744 C40.2886,44.8831795 40.2974,44.4410513 40.2556,44.0022308 L40.2974,43.5049744 C40.4107,42.0528974 40.5273,40.5589231 41.1312,39.2347436 C41.8517,37.779359 42.6954,36.8609231 43.7085,36.4309231 C43.9472,36.3438205 44.2398,36.2368718 44.5005,36.2368718 C44.6633,36.2368718 44.7997,36.2776667 44.9163,36.360359 C45.1033,36.8388718 44.7634,37.5356923 44.3509,37.9623846 C43.681,38.639359 43.3499,39.5456667 43.0584,40.3461282 C42.8637,40.9293846 42.6877,41.5490256 42.8384,42.1807949 L42.7889,42.4542308 C42.68,43.2480769 42.5678,44.0683846 42.6712,44.8953077 C42.823,45.7067949 43.2157,45.941641 43.5204,45.9967692 L43.5237,45.9967692 C44.6094,45.9967692 45.5587,45.1819744 45.7083,44.1422564 C46.0295,42.3097949 46.1736,40.4343333 46.3144,38.6206154 C46.3925,37.6040513 46.4629,36.6911282 46.5575,35.7848205 C46.6268,35.131 47.3297,34.7252564 47.9402,34.7252564 C48.1778,34.7252564 48.6101,34.7914103 48.8411,35.2247179 C48.9126,36.1641026 48.8048,37.2104359 48.7003,38.2214872 C48.6365,38.8444359 48.5727,39.456359 48.5518,40.0693846 C48.5188,40.5897949 48.4704,41.1113077 48.422,41.6350256 C48.3164,42.7431026 48.2163,43.8004615 48.2438,44.8556154 C48.2361,45.15 48.2218,45.4554103 48.2064,45.7619231 C48.1756,46.3628205 48.1514,46.8567692 48.1547,47.3518205 C48.1547,47.429 48.1965,47.5006667 48.2647,47.5370513 C48.3241,47.5480769 48.3648,47.5524872 48.3945,47.5524872 C48.4374,47.5524872 48.4572,47.5436667 48.4781,47.5315385 L49.9202,46.6131026 C51.7759,45.4267436 53.6767,44.2117179 55.6358,43.1841282 C56.9547,42.3869744 58.3132,41.6273077 59.6277,40.8907949 L59.7476,40.824641 C60.9994,40.1234103 62.2523,39.4221795 63.4821,38.6867692 C63.5118,38.6691282 63.5822,38.5555641 63.5844,38.5213846 C63.591,38.4552308 63.5646,38.3868718 63.5129,38.3416667 L63.3996,38.2490513 C63.1235,38.0241282 62.8386,37.7925897 62.8034,37.4684359 C62.7341,36.9524359 62.766,36.4187949 62.7968,35.9027949 C62.8133,35.6260513 62.8298,35.3493077 62.832,35.0736667 C62.821,34.4694615 62.8683,33.8553333 62.909,33.3139744 C62.9695,32.4947692 63.0322,31.6513077 62.9431,30.8111538 C62.8804,30.5244872 62.6725,30.1970256 62.0147,30.1970256 C61.9487,30.1970256 61.8805,30.2014359 61.8178,30.2058462 C61.1028,30.4153333 60.6903,30.934641 60.291,31.4352051 C60.1458,31.6182308 60.005,31.7968462 59.851,31.9556154 C59.7157,32.3282821 59.6486,32.6226667 59.5815,32.9159487 C59.5232,33.1739487 59.4649,33.4242308 59.3945,33.6712051 C59.2471,33.9512564 59.3098,34.271 59.3725,34.5234872 C59.2922,34.5874359 59.2141,34.6910769 59.1327,34.8002308 C59.0876,34.8608718 59.0777,34.9435641 59.1085,35.0119231 L59.3021,35.4727949 L59.1877,35.5687179 C59.1877,35.5698205 59.0788,35.6635385 59.0733,35.7495385 C59.0403,36.1596923 59.0161,36.6470256 59.0799,37.1497949 C59.0953,37.3625897 59.1107,37.5908205 59.1327,37.8157436 C59.1063,38.0748462 59.092,38.381359 59.0909,38.6856667 C59.0502,38.7 58.9919,38.8278974 58.9237,38.9888718 C58.7796,39.3207436 58.6553,39.6085128 58.3737,39.7518462 C58.014,39.9679487 57.5773,40.230359 57.1582,40.230359 C57.0405,40.230359 56.9305,40.2094103 56.8249,40.1697179 C56.4773,40.0318974 56.4927,39.5577949 56.5048,39.1388205 C56.5653,38.0638205 56.6093,37.0505641 56.6544,36.0406154 L56.6632,35.8300256 C56.7182,34.5587692 56.7732,33.2897179 56.8535,32.0206667 C56.8909,31.1772051 57.332,30.4208462 57.9788,30.0900769 C58.3594,29.8993333 58.8071,29.8056154 59.3461,29.8056154 C59.6629,29.8056154 59.9808,29.8386923 60.2877,29.8827949 C60.9653,29.7273333 61.3481,29.300641 61.7166,28.8871795 C61.9399,28.638 62.1698,28.38 62.436,28.2057949 C63.0366,27.7967436 63.5833,27.5894615 64.0618,27.5894615 C64.2873,27.5894615 64.4996,27.6368718 64.6943,27.7327949 C65.0122,27.8673077 65.1255,28.2046923 65.2454,28.5619231 L65.2894,28.6931282 C65.3004,28.8496923 65.3345,29.0514615 65.3686,29.2521282 C65.2421,29.5773846 65.2388,29.9676923 65.3642,30.3899744 C65.3587,30.5630769 65.362,30.7846923 65.3697,31.0096154 C65.3488,31.028359 65.3301,31.0504103 65.3279,31.0669487 C65.1805,31.931359 65.2124,32.7163846 65.2432,33.4760513 C65.2696,34.0824615 65.2982,34.7550256 65.2542,35.3967179 C65.3378,35.9722564 65.4643,36.808 66.1881,37.0781282 C67.111,36.8973077 67.826,36.5014872 68.5168,36.1188974 C68.8897,35.9127179 69.2604,35.707641 69.641,35.5345385 C69.9017,35.4099487 70.1943,35.3482051 70.5386,35.3482051 C70.8279,35.3482051 71.1447,35.3901026 71.533,35.4794103 C71.9235,35.7495385 71.9741,36.3901282 71.9796,36.5797692 L71.8256,36.7661026 C71.5781,37.1795641 71.3306,37.5952308 70.9566,37.8565385 C70.3252,38.3593077 69.5376,38.5908462 68.7775,38.8157692 C68.5399,38.8852308 68.3067,38.9535897 68.0768,39.0307692 C66.4983,39.5544872 64.8329,40.2921026 62.9838,41.2888205 C57.9227,43.9052051 53.5425,46.4686667 49.5913,49.123641 C49.3064,49.3143846 49.0402,49.5304872 48.7729,49.7476923 C48.5485,49.9296154 48.3714,50.0740513 48.1855,50.2107692 C48.0249,51.8436667 47.9633,53.5074359 47.9457,55.5229231 C47.9226,55.9815897 47.927,56.4512821 47.9325,56.9220769 C47.9402,57.6828462 47.949,58.4689744 47.8258,59.2330513 C47.9094,59.8240256 47.96,60.2848974 47.8071,60.7104872 C47.7785,60.7865641 47.8478,60.9552564 47.85,60.9607692 L47.982,61.2783077 L47.8456,61.4117179 C47.8335,61.7843846 47.8467,61.9696154 47.8368,62.1416154 C47.8522,62.5286154 47.9303,62.883641 48.0051,63.227641 C48.1283,63.7855385 48.2394,64.2949231 48.1228,64.8098205 L48.2372,65.0733333 L48.3824,65.2453333 C48.4143,65.4151282 48.4946,65.6676154 48.5771,65.919 C48.4748,65.9939744 48.3615,66.245359 48.2493,66.5011538 C48.2119,66.5871538 48.2141,66.7404103 48.3142,66.8032564 C48.4187,66.8705128 48.6244,66.9951026 48.73,67.0557436 L48.7817,67.3115385 L48.6123,67.4581795 C48.6046,67.4703077 48.488,67.6831026 48.5606,67.7878462 L48.8587,68.2288718 C48.7872,68.3964615 48.7322,68.6687949 48.719,68.9367179 C48.4319,69.427359 48.0458,69.7647436 47.6157,69.8672821 C47.5156,69.8849231 47.3957,69.8948462 47.2747,69.8948462" id="Fill-159" sketch:type="MSShapeGroup"></path>
            <path d="M20.9836,64.4812564 C20.5623,64.4812564 20.2158,64.2541282 20.1014,63.9035128 C19.7813,62.7259744 19.5767,61.4866923 19.3809,60.2871026 C19.2049,59.2143077 19.0256,58.1194615 18.7627,57.0543846 C18.7363,56.4490769 18.6296,55.8095897 18.5284,55.1910513 C18.4646,54.8084615 18.4008,54.4236667 18.3546,54.0388718 C18.2413,53.3188974 18.1368,52.6055385 18.0345,51.8943846 L18.007,51.7091538 C17.8266,50.4500256 17.6407,49.149 17.4086,47.8777436 L17.3844,47.6649487 C17.2711,46.6858718 17.1556,45.6726154 16.9103,44.6913333 C16.753,44.2877949 16.7123,43.8644103 16.6705,43.4542564 L16.6584,43.3241538 L16.4802,43.086 L16.1821,42.8004359 C16.1623,42.7805897 16.0622,42.742 16.0347,42.742 C15.9412,42.7530256 15.8851,42.7894103 15.8532,42.8423333 C15.301,43.7673846 14.9215,44.6395128 14.6938,45.5138462 C14.5387,46.1334872 14.2835,46.7299744 14.0371,47.3088205 C13.8644,47.7101538 13.6939,48.1103846 13.5509,48.5227436 C13.3067,48.7586923 12.9206,48.9306923 12.5686,48.9306923 C12.4179,48.9306923 12.2738,48.8998205 12.1396,48.8402821 C11.8008,48.6572564 11.5093,48.2426923 11.6512,47.841359 C12.0219,46.6395641 12.4509,45.4267436 12.8304,44.3561538 C13.3155,42.9856667 13.8171,41.5688718 14.2307,40.1278205 C14.3792,39.6934103 14.5244,39.2479744 14.6707,38.8025385 C14.9457,37.9634872 15.1998,37.1883846 15.4748,36.4221026 C15.6519,35.8807436 16.1678,35.4904359 16.7057,35.4904359 C16.7728,35.4904359 16.8399,35.4959487 16.907,35.5102821 C17.5285,35.5400513 17.919,36.1332308 18.0268,36.6734872 C18.1643,37.3372308 18.2666,38.0064872 18.3711,38.6779487 C18.4811,39.3979231 18.5845,40.0627692 18.7187,40.7198974 C18.8793,41.3538718 18.9574,42.0043846 19.0333,42.6328462 C19.1312,43.4311026 19.2302,44.2558205 19.492,45.0529744 C19.6273,45.4344615 19.7362,45.8402051 19.8242,46.2955641 C19.8682,47.0651538 20.0695,47.8457692 20.2554,48.5150256 C20.1168,49.0563846 20.1696,49.639641 20.4105,50.1490256 L20.4182,50.499641 C20.4666,51.3056154 20.5161,52.1347436 20.8593,52.8988205 C20.8912,52.9748974 20.9671,53.0234103 21.0518,53.0234103 C21.1442,53.0223077 21.2223,52.9660769 21.2509,52.8844872 C21.4467,52.348641 21.5094,51.7841282 21.5699,51.2405641 C21.6007,50.9572051 21.6304,50.6760513 21.6821,50.3982051 C22.2057,47.0397949 22.6952,44.0110513 23.3882,40.9547436 C23.9877,38.442 24.6708,35.905 25.3341,33.4517949 L26.0216,30.891641 C27.3405,27.1418205 28.5791,23.7348974 29.8034,20.4845385 C29.9046,20.2364615 30.0025,19.977359 30.1004,19.7138462 L30.1422,19.6035897 C30.5833,18.4150256 31.0398,17.1878718 32.0595,16.4171795 C32.373,16.1470513 32.7668,16.0070256 33.2024,16.0070256 C34.0791,16.0070256 35.0801,16.598 35.2341,17.5892051 C35.4882,18.4888974 34.9778,19.3025897 34.3871,20.1273077 C33.165,21.1107949 32.1299,22.5805128 31.3302,24.4758205 C31.2202,24.7404359 31.1047,24.9995385 30.9892,25.2597436 C30.679,25.9653846 30.3567,26.6919744 30.1521,27.4582564 C29.5592,28.7372308 29.1071,30.0547949 28.6209,31.5212051 C28.3151,32.7549744 28.0049,33.952359 27.566,35.1023333 C27.4175,35.4827179 27.3768,35.8917692 27.3405,36.2523077 C27.3119,36.5312564 27.2855,36.7859487 27.2228,37.0351282 C26.1019,39.0803846 25.6443,41.4453846 25.201,43.7321026 L25.0701,44.4068718 C24.9326,44.677 24.9161,45.0055641 24.8996,45.3253077 C24.8842,45.6207949 24.871,45.9008462 24.7434,46.1500256 C24.5916,46.7851026 24.4717,47.3374872 24.4332,47.9141282 C24.255,48.6164615 24.1296,49.3529744 24.0306,49.9781282 C24.3419,50.525 24.1439,50.9748462 23.9327,51.4511538 L23.8458,51.6518205 L23.8007,51.8513846 C23.7017,52.3287949 23.5917,52.8668462 23.7974,53.3751282 C23.518,53.7444872 23.4179,54.2671026 23.3552,54.7345897 C23.2727,55.3806923 23.0725,57.0080769 23.0725,57.0080769 C22.8283,59.0059231 22.583,61.0026667 22.2563,62.9486923 C22.1463,63.5043846 22.033,64.0821282 21.5688,64.3136667 C21.3917,64.4228205 21.1871,64.4812564 20.9836,64.4812564" id="Fill-160" sketch:type="MSShapeGroup"></path>
            <path d="M105.776,46.1654615 C105.6099,46.1654615 105.4383,46.156641 105.3195,46.0629231 C105.3228,45.5733846 105.3371,44.9140513 105.3514,44.2767692 C105.3679,43.5435641 105.3855,42.8092564 105.2788,42.0815641 C105.1237,41.5291795 104.6507,41.194 104.0424,41.194 C103.499,41.194 102.8445,41.5016154 102.6949,42.1774872 C102.6102,42.8974615 102.6223,43.6086154 102.6355,44.2977179 C102.6465,44.8997179 102.6564,45.4884872 102.6124,46.0574103 C102.6047,46.1026154 102.5948,46.164359 102.2736,46.164359 L102.0987,46.1621538 C102.0415,46.1621538 101.9876,46.164359 101.9414,46.1676667 C101.8996,46.164359 101.8336,46.1632564 101.7643,46.1632564 C101.3881,46.1632564 101.3584,46.1180513 101.3529,46.0452821 C101.3232,44.4178974 101.332,42.7717692 101.3419,41.1278462 L101.3452,40.402359 C101.3507,40.3130513 101.3573,40.2149231 101.6972,40.2149231 C101.7841,40.2149231 101.8743,40.2215385 101.9623,40.2281538 C102.0833,40.2347692 102.1537,40.2391795 102.2208,40.2391795 L102.3396,40.2336667 C102.4881,40.2336667 102.5618,40.308641 102.5794,40.7298205 C102.5816,40.8191282 102.641,40.8985128 102.7279,40.9249744 C102.7433,40.9260769 102.7565,40.9260769 102.7697,40.9260769 C102.8731,40.9260769 102.9259,40.8963077 102.9611,40.8488974 C103.3318,40.3494359 103.961,40.050641 104.6419,40.050641 C105.3635,40.050641 105.9927,40.3825128 106.3271,40.9393077 C106.348,40.9712821 106.4712,41.0407436 106.5086,41.0407436 C106.5801,41.0407436 106.6472,41.0065641 106.6868,40.9470256 C107.0674,40.3803077 107.7483,40.0407179 108.5095,40.0407179 C109.1651,40.0407179 109.758,40.3009231 110.1364,40.7518718 C110.616,41.3252051 110.605,42.1609487 110.5973,42.8985641 C110.5874,43.3638462 110.5907,43.7673846 110.594,44.1632051 C110.6006,44.8501026 110.605,45.4487949 110.5764,46.0463846 C110.5698,46.1158462 110.539,46.1610513 110.1628,46.164359 C110.099,46.164359 110.0374,46.1654615 109.9835,46.1676667 C109.9527,46.1654615 109.7382,46.164359 109.7382,46.164359 C109.3785,46.164359 109.3719,46.1015128 109.3653,46.035359 C109.318,45.4135128 109.3257,44.7674103 109.3345,44.143359 C109.3433,43.5193077 109.3521,42.8996667 109.3114,42.2833333 C109.2696,41.7518974 108.8439,41.2954359 108.3225,41.2215641 C108.2411,41.1984103 108.1333,41.1851795 108.0233,41.1851795 C107.3028,41.1851795 106.6758,41.7717436 106.6571,42.4652564 C106.623,43.0385897 106.6307,43.619641 106.6384,44.1984872 C106.6483,44.8302564 106.6582,45.4840769 106.6076,46.1235641 C106.5922,46.1456154 106.4822,46.156641 106.2754,46.1588462 C106.1962,46.1588462 106.1192,46.1599487 106.0499,46.1676667 L105.776,46.1654615" id="Fill-161" sketch:type="MSShapeGroup"></path>
            <path d="M115.0644,46.3562051 C114.4704,46.3562051 113.8907,46.1952308 113.4364,45.9052564 C112.6378,45.4278462 112.1252,44.5590256 112.0273,43.5204103 C111.9261,42.4421026 112.299,41.4156154 113.0239,40.7750256 C113.5376,40.2954103 114.2394,40.033 115.0028,40.033 C115.6595,40.033 116.2964,40.2336667 116.798,40.5975128 C117.5284,41.1498974 117.92,42.165359 117.843,43.3120256 C117.8001,43.4277949 117.6296,43.43 117.5482,43.4322051 L116.6616,43.4377179 L114.6574,43.4333077 C114.257,43.4333077 113.8555,43.4344103 113.4551,43.4388205 C113.4243,43.4388205 113.3143,43.490641 113.2945,43.5148974 C113.256,43.5612051 113.2373,43.6229487 113.2483,43.6857949 C113.3902,44.608641 114.1701,45.3054615 115.0611,45.3054615 C115.126,45.3054615 115.1909,45.3021538 115.2569,45.2955385 L115.258,45.2955385 C115.9004,45.2955385 116.358,44.8357692 116.6869,44.4123846 C116.7661,44.4333333 116.8508,44.4498718 116.9344,44.4675128 C117.2919,44.5402821 117.5768,44.5998205 117.7363,44.8192308 C117.3381,45.8446154 116.0753,46.3562051 115.0644,46.3562051 L115.0644,46.3562051 Z M114.9489,40.9977436 C114.1635,40.9977436 113.4496,41.6129744 113.2901,42.4299744 C113.2835,42.4630513 113.3132,42.5832308 113.333,42.6085897 C113.3726,42.656 113.4342,42.6846667 113.4958,42.6846667 C113.9996,42.6890769 114.5067,42.6901795 115.0116,42.6901795 L116.4141,42.6857692 C116.446,42.6857692 116.556,42.6361538 116.5758,42.6107949 C116.6154,42.5655897 116.633,42.5005385 116.622,42.4387949 C116.5109,41.7838718 116.0456,41.0936667 115.2569,41.0308205 C115.1766,41.0098718 115.0611,40.9977436 114.9489,40.9977436 L114.9489,40.9977436 Z" id="Fill-162" sketch:type="MSShapeGroup"></path>
            <path d="M121.8283,46.3176154 C120.9494,46.3176154 120.0782,45.8798974 119.6085,45.2040256 C118.7076,43.9570256 118.7802,42.1025128 119.7724,40.9778974 C120.2608,40.4089744 121.0308,40.0682821 121.8316,40.0682821 C122.4795,40.0682821 123.0647,40.2976154 123.4794,40.7121795 C123.4992,40.7331282 123.6004,40.7750256 123.629,40.7750256 C123.7907,40.7254103 123.8424,40.6438205 123.8402,40.5578205 L123.8347,40.2954103 C123.8105,39.2854615 123.7874,38.2854359 123.8424,37.3096667 C124.0316,37.2589487 124.2835,37.2049231 124.5255,37.2049231 C124.7906,37.2049231 124.9908,37.2666667 125.1228,37.3868462 C125.1096,38.7441026 125.0887,41.9106667 125.0887,41.9106667 C125.0799,43.2888718 125.0711,44.7133846 125.1129,46.1180513 C124.8687,46.1478205 124.6223,46.1665641 124.377,46.1665641 C124.2021,46.1665641 124.0272,46.156641 123.8534,46.1334872 C123.8765,46.1268718 123.8611,45.9813333 123.8545,45.9262051 C123.8457,45.8413077 123.8358,45.7597179 123.8127,45.683641 C123.7874,45.6075641 123.7258,45.5535385 123.651,45.5381026 L123.6312,45.5381026 C123.5377,45.5381026 123.4838,45.5656667 123.4464,45.6108718 C123.0614,46.0662308 122.4872,46.3176154 121.8283,46.3176154 L121.8283,46.3176154 Z M122.078,41.1917949 C121.847,41.1917949 121.6237,41.2347949 121.4158,41.3163846 C120.4753,41.6835385 120.1871,42.7386923 120.3158,43.5623077 C120.4643,44.5016923 121.0946,45.1400769 121.9229,45.1907949 C121.9801,45.1963077 122.0439,45.2007179 122.1088,45.2007179 C122.8458,45.2007179 123.4486,44.7310256 123.7203,43.9448974 C124.0316,43.043 123.7962,42.0573077 123.1461,41.5457179 C122.8502,41.3174872 122.4707,41.1917949 122.078,41.1917949 L122.078,41.1917949 Z" id="Fill-163" sketch:type="MSShapeGroup"></path>
            <path d="M127.6011,46.1709744 C127.3965,46.1709744 127.1897,46.1533333 126.9884,46.1202564 C126.9708,46.1015128 126.9631,45.984641 126.9686,45.7839744 C126.9708,45.6792308 126.9708,45.5987436 126.962,45.5248718 C126.973,44.8357692 126.9697,44.1157949 126.9653,43.3969231 C126.9609,42.3594103 126.9554,41.3207949 126.9917,40.2854872 L127.028,40.2457949 C127.0643,40.2557179 127.1017,40.2568205 127.1314,40.2568205 C127.1963,40.2568205 127.2744,40.248 127.3536,40.2391795 C127.5054,40.2215385 127.6473,40.205 127.7848,40.205 C128.029,40.205 128.1841,40.2601282 128.2886,40.3825128 C128.2809,41.2877179 128.2743,42.3461795 128.2688,43.369359 C128.2644,44.0992564 128.26,44.8269487 128.2732,45.5557436 C128.2567,45.6064615 128.2589,45.709 128.2622,45.8060256 C128.2677,46.0794615 128.2435,46.1125385 128.183,46.1323846 C128.0103,46.1544359 127.8057,46.1709744 127.6011,46.1709744" id="Fill-164" sketch:type="MSShapeGroup"></path>
            <path d="M127.5835,38.786 C127.4031,38.786 127.2381,38.7275641 127.1094,38.6184103 C126.8696,38.4552308 126.7475,38.1917179 126.7673,37.8907179 C126.7871,37.5831026 126.951,37.3162821 127.1963,37.1916923 C127.325,37.1145128 127.4515,37.0792308 127.589,37.0792308 C127.8376,37.0792308 128.0917,37.1983077 128.2666,37.3967692 C128.4217,37.5698718 128.491,37.7826667 128.4624,37.9954615 C128.4481,38.4717692 127.9971,38.786 127.5835,38.786" id="Fill-165" sketch:type="MSShapeGroup"></path>
            <path d="M132.561,46.3132051 C131.6887,46.3132051 130.8208,45.8787949 130.3522,45.2095385 C129.3303,43.8081795 129.5679,41.6780256 130.8582,40.6493333 C131.3257,40.2788718 131.9516,40.0649744 132.5742,40.0649744 C133.2243,40.0649744 133.8018,40.2976154 134.2,40.7165897 C134.2187,40.7375385 134.3243,40.781641 134.3529,40.781641 C134.5069,40.7397436 134.5608,40.6658718 134.5641,40.5798718 L134.5795,40.2689487 C134.6906,40.2634359 134.7896,40.2535128 134.8897,40.2435897 C135.036,40.2281538 135.1834,40.2116154 135.3286,40.2116154 C135.5695,40.2116154 135.7433,40.2612308 135.8753,40.3648718 C135.8544,41.8621538 135.8379,43.5567949 135.8225,45.2007179 L135.8137,46.1345897 C135.6674,46.1577436 135.5123,46.1676667 135.3451,46.1676667 C135.0965,46.1676667 134.849,46.1445128 134.6015,46.1125385 L134.618,45.7332564 C134.6224,45.6428462 134.5696,45.5601538 134.486,45.5270769 C134.4596,45.5237692 134.4354,45.5215641 134.4145,45.5215641 C134.3243,45.5215641 134.2792,45.5469231 134.2473,45.5844103 C133.8392,46.0541026 133.2397,46.3132051 132.561,46.3132051 L132.561,46.3132051 Z M132.8173,41.1895897 C132.6534,41.1895897 132.4928,41.2127436 132.3388,41.254641 C131.3191,41.5159487 130.9506,42.57 131.0408,43.4388205 C131.1288,44.2811795 131.6733,45.15 132.6919,45.1918974 C132.7359,45.1974103 132.7931,45.1996154 132.8481,45.1996154 C133.5785,45.1996154 134.1769,44.7409487 134.4508,43.9702564 C134.7698,43.0804872 134.5476,42.0925897 133.9107,41.5699744 C133.6104,41.3241026 133.221,41.1895897 132.8173,41.1895897 L132.8173,41.1895897 Z" id="Fill-166" sketch:type="MSShapeGroup"></path>
            <path d="M53.625,29.1319487 C53.2587,29.1319487 52.8781,28.9665641 52.8583,28.5983077 C52.8286,28.1683077 52.9925,27.7394103 53.3192,27.3887949 C53.7086,26.9709231 54.2652,26.7217436 54.8108,26.7217436 C54.9648,26.7217436 55.1122,26.7415897 55.2519,26.7801795 C55.2959,26.9499744 55.3784,27.1605641 55.4642,27.3744615 C55.0374,28.233359 54.4907,28.835359 53.8582,29.1098974 C53.8054,29.1209231 53.7108,29.1319487 53.625,29.1319487" id="Fill-167" sketch:type="MSShapeGroup"></path>
            <path d="M47.2747,69.8948462 C46.6257,69.8948462 46.1032,69.6280256 45.8766,69.1814872 C45.4564,68.2387949 45.5059,67.1726154 45.5532,66.1395128 C45.5708,65.7767692 45.5873,65.4217436 45.5851,65.0689231 C45.716,62.1206667 45.7358,59.1294103 45.7556,56.2340769 C45.7655,54.9209231 45.7743,53.6088718 45.793,52.2957179 C45.7941,52.2593333 45.7259,52.133641 45.6951,52.1126923 C45.6577,52.0917436 45.6203,52.0818205 45.5818,52.0818205 C44.7238,52.5041026 44.0594,53.0388462 43.4159,53.5559487 L42.9242,53.9484615 C41.239,55.2340513 39.5791,56.6078462 37.9731,57.9375385 L37.8213,58.0643333 C37.0733,58.6828718 36.3253,59.3014103 35.5718,59.9122308 C35.2055,60.1878718 34.8898,60.5208462 34.5851,60.8416923 C34.364,61.0765385 34.1418,61.3091795 33.9009,61.5219744 C33.1837,62.0875897 32.5633,62.7700769 31.9627,63.4316154 C31.6261,63.8020769 31.3214,64.1361538 31.0046,64.4547949 C30.5107,64.93 30.041,65.4360769 29.5691,65.9421538 C28.996,66.5606923 28.3745,67.2310513 27.7255,67.8176154 C27.4846,68.1142051 27.1183,68.2784872 26.7091,68.2784872 C26.1063,68.2784872 25.4078,67.9157436 25.2978,67.2442821 C25.1834,66.8672051 25.2461,66.5000513 25.4694,66.2211026 C26.1877,65.2298974 27.0985,64.3897436 27.9763,63.5771538 C28.3294,63.2518974 28.6253,62.9784615 28.9113,62.6995128 C29.986,61.6498718 31.163,60.6707949 32.2993,59.7236923 L33.2046,58.9662308 C34.6841,57.6949744 36.2274,56.4468718 37.7201,55.2428718 L38.3427,54.739 L40.1874,53.3993846 C40.8595,52.9087436 41.5316,52.4192051 42.2092,51.9340769 L43.0529,51.2912821 C43.9032,50.6407692 44.7722,49.9737179 45.6676,49.3794359 C45.7886,48.6396154 45.7765,48.056359 45.7567,47.5161026 C45.7545,47.4389231 45.7094,47.3672564 45.639,47.3319744 C45.5928,47.325359 45.5576,47.3220513 45.5301,47.3220513 C45.4707,47.3220513 45.4432,47.3352821 45.4168,47.3540256 C44.4609,48.0960513 43.3158,48.5028974 42.1927,48.5028974 C42.0893,48.5028974 41.9859,48.4995897 41.8803,48.4929744 C41.294,48.4080769 40.6153,48.0111538 40.4415,47.3154359 C40.2534,46.6638205 40.2677,45.9758205 40.2798,45.3109744 C40.2886,44.8831795 40.2974,44.4410513 40.2556,44.0022308 L40.2974,43.5049744 C40.4107,42.0528974 40.5273,40.5589231 41.1312,39.2347436 C41.8517,37.779359 42.6954,36.8609231 43.7085,36.4309231 C43.9472,36.3438205 44.2398,36.2368718 44.5005,36.2368718 C44.6633,36.2368718 44.7997,36.2776667 44.9163,36.360359 C45.1033,36.8388718 44.7634,37.5356923 44.3509,37.9623846 C43.681,38.639359 43.3499,39.5456667 43.0584,40.3461282 C42.8637,40.9293846 42.6877,41.5490256 42.8384,42.1807949 L42.7889,42.4542308 C42.68,43.2480769 42.5678,44.0683846 42.6712,44.8953077 C42.823,45.7067949 43.2157,45.941641 43.5204,45.9967692 L43.5237,45.9967692 C44.6094,45.9967692 45.5587,45.1819744 45.7083,44.1422564 C46.0295,42.3097949 46.1736,40.4343333 46.3144,38.6206154 C46.3925,37.6040513 46.4629,36.6911282 46.5575,35.7848205 C46.6268,35.131 47.3297,34.7252564 47.9402,34.7252564 C48.1778,34.7252564 48.6101,34.7914103 48.8411,35.2247179 C48.9126,36.1641026 48.8048,37.2104359 48.7003,38.2214872 C48.6365,38.8444359 48.5727,39.456359 48.5518,40.0693846 C48.5188,40.5897949 48.4704,41.1113077 48.422,41.6350256 C48.3164,42.7431026 48.2163,43.8004615 48.2438,44.8556154 C48.2361,45.15 48.2218,45.4554103 48.2064,45.7619231 C48.1756,46.3628205 48.1514,46.8567692 48.1547,47.3518205 C48.1547,47.429 48.1965,47.5006667 48.2647,47.5370513 C48.3241,47.5480769 48.3648,47.5524872 48.3945,47.5524872 C48.4374,47.5524872 48.4572,47.5436667 48.4781,47.5315385 L49.9202,46.6131026 C51.7759,45.4267436 53.6767,44.2117179 55.6358,43.1841282 C56.9547,42.3869744 58.3132,41.6273077 59.6277,40.8907949 L59.7476,40.824641 C60.9994,40.1234103 62.2523,39.4221795 63.4821,38.6867692 C63.5118,38.6691282 63.5822,38.5555641 63.5844,38.5213846 C63.591,38.4552308 63.5646,38.3868718 63.5129,38.3416667 L63.3996,38.2490513 C63.1235,38.0241282 62.8386,37.7925897 62.8034,37.4684359 C62.7341,36.9524359 62.766,36.4187949 62.7968,35.9027949 C62.8133,35.6260513 62.8298,35.3493077 62.832,35.0736667 C62.821,34.4694615 62.8683,33.8553333 62.909,33.3139744 C62.9695,32.4947692 63.0322,31.6513077 62.9431,30.8111538 C62.8804,30.5244872 62.6725,30.1970256 62.0147,30.1970256 C61.9487,30.1970256 61.8805,30.2014359 61.8178,30.2058462 C61.1028,30.4153333 60.6903,30.934641 60.291,31.4352051 C60.1458,31.6182308 60.005,31.7968462 59.851,31.9556154 C59.7157,32.3282821 59.6486,32.6226667 59.5815,32.9159487 C59.5232,33.1739487 59.4649,33.4242308 59.3945,33.6712051 C59.2471,33.9512564 59.3098,34.271 59.3725,34.5234872 C59.2922,34.5874359 59.2141,34.6910769 59.1327,34.8002308 C59.0876,34.8608718 59.0777,34.9435641 59.1085,35.0119231 L59.3021,35.4727949 L59.1877,35.5687179 C59.1877,35.5698205 59.0788,35.6635385 59.0733,35.7495385 C59.0403,36.1596923 59.0161,36.6470256 59.0799,37.1497949 C59.0953,37.3625897 59.1107,37.5908205 59.1327,37.8157436 C59.1063,38.0748462 59.092,38.381359 59.0909,38.6856667 C59.0502,38.7 58.9919,38.8278974 58.9237,38.9888718 C58.7796,39.3207436 58.6553,39.6085128 58.3737,39.7518462 C58.014,39.9679487 57.5773,40.230359 57.1582,40.230359 C57.0405,40.230359 56.9305,40.2094103 56.8249,40.1697179 C56.4773,40.0318974 56.4927,39.5577949 56.5048,39.1388205 C56.5653,38.0638205 56.6093,37.0505641 56.6544,36.0406154 L56.6632,35.8300256 C56.7182,34.5587692 56.7732,33.2897179 56.8535,32.0206667 C56.8909,31.1772051 57.332,30.4208462 57.9788,30.0900769 C58.3594,29.8993333 58.8071,29.8056154 59.3461,29.8056154 C59.6629,29.8056154 59.9808,29.8386923 60.2877,29.8827949 C60.9653,29.7273333 61.3481,29.300641 61.7166,28.8871795 C61.9399,28.638 62.1698,28.38 62.436,28.2057949 C63.0366,27.7967436 63.5833,27.5894615 64.0618,27.5894615 C64.2873,27.5894615 64.4996,27.6368718 64.6943,27.7327949 C65.0122,27.8673077 65.1255,28.2046923 65.2454,28.5619231 L65.2894,28.6931282 C65.3004,28.8496923 65.3345,29.0514615 65.3686,29.2521282 C65.2421,29.5773846 65.2388,29.9676923 65.3642,30.3899744 C65.3587,30.5630769 65.362,30.7846923 65.3697,31.0096154 C65.3488,31.028359 65.3301,31.0504103 65.3279,31.0669487 C65.1805,31.931359 65.2124,32.7163846 65.2432,33.4760513 C65.2696,34.0824615 65.2982,34.7550256 65.2542,35.3967179 C65.3378,35.9722564 65.4643,36.808 66.1881,37.0781282 C67.111,36.8973077 67.826,36.5014872 68.5168,36.1188974 C68.8897,35.9127179 69.2604,35.707641 69.641,35.5345385 C69.9017,35.4099487 70.1943,35.3482051 70.5386,35.3482051 C70.8279,35.3482051 71.1447,35.3901026 71.533,35.4794103 C71.9235,35.7495385 71.9741,36.3901282 71.9796,36.5797692 L71.8256,36.7661026 C71.5781,37.1795641 71.3306,37.5952308 70.9566,37.8565385 C70.3252,38.3593077 69.5376,38.5908462 68.7775,38.8157692 C68.5399,38.8852308 68.3067,38.9535897 68.0768,39.0307692 C66.4983,39.5544872 64.8329,40.2921026 62.9838,41.2888205 C57.9227,43.9052051 53.5425,46.4686667 49.5913,49.123641 C49.3064,49.3143846 49.0402,49.5304872 48.7729,49.7476923 C48.5485,49.9296154 48.3714,50.0740513 48.1855,50.2107692 C48.0249,51.8436667 47.9633,53.5074359 47.9457,55.5229231 C47.9226,55.9815897 47.927,56.4512821 47.9325,56.9220769 C47.9402,57.6828462 47.949,58.4689744 47.8258,59.2330513 C47.9094,59.8240256 47.96,60.2848974 47.8071,60.7104872 C47.7785,60.7865641 47.8478,60.9552564 47.85,60.9607692 L47.982,61.2783077 L47.8456,61.4117179 C47.8335,61.7843846 47.8467,61.9696154 47.8368,62.1416154 C47.8522,62.5286154 47.9303,62.883641 48.0051,63.227641 C48.1283,63.7855385 48.2394,64.2949231 48.1228,64.8098205 L48.2372,65.0733333 L48.3824,65.2453333 C48.4143,65.4151282 48.4946,65.6676154 48.5771,65.919 C48.4748,65.9939744 48.3615,66.245359 48.2493,66.5011538 C48.2119,66.5871538 48.2141,66.7404103 48.3142,66.8032564 C48.4187,66.8705128 48.6244,66.9951026 48.73,67.0557436 L48.7817,67.3115385 L48.6123,67.4581795 C48.6046,67.4703077 48.488,67.6831026 48.5606,67.7878462 L48.8587,68.2288718 C48.7872,68.3964615 48.7322,68.6687949 48.719,68.9367179 C48.4319,69.427359 48.0458,69.7647436 47.6157,69.8672821 C47.5156,69.8849231 47.3957,69.8948462 47.2747,69.8948462" id="Fill-168" sketch:type="MSShapeGroup"></path>
            <path d="M51.6461,42.7916154 C51.4767,42.7916154 51.3348,42.7364872 51.2259,42.630641 C51.051,42.3737436 51.0917,41.9900513 51.1313,41.6184872 C51.1445,41.4861795 51.1577,41.3571795 51.1621,41.2325897 C51.2556,40.402359 51.3337,39.5555897 51.4129,38.7077179 L51.425,38.5698974 C51.568,37.0218974 51.7165,35.4209744 51.9508,33.8520256 C52.0927,33.0636923 52.7824,32.2169231 53.5821,32.2169231 C53.7427,32.2169231 53.9033,32.2511026 54.0595,32.3205641 C54.1937,32.8608205 54.0892,33.5388974 53.9781,34.2555641 C53.9,34.761641 53.8197,35.2842564 53.8681,35.8134872 C53.911,36.7484615 53.8747,37.7385641 53.7581,38.7518205 C53.6151,39.3218462 53.6217,39.9304615 53.6283,40.5192308 C53.6316,40.7728205 53.6349,41.0153846 53.6261,41.2590513 C53.5216,41.7585128 53.0772,42.2116667 52.305,42.5865385 C52.074,42.7199487 51.8419,42.7916154 51.6461,42.7916154" id="Fill-169" sketch:type="MSShapeGroup"></path>
            <path d="M30.1741,38.9546923 C29.8331,38.8907436 29.4943,38.7044103 29.4954,38.3582051 C29.5152,37.1189231 30.7802,36.4298205 31.1674,36.249 C31.2752,36.1960769 31.3962,36.1718205 31.5513,36.1718205 C31.6668,36.1718205 31.7845,36.1850513 31.8978,36.1971795 C31.8648,36.1982821 31.9,36.2897949 31.9253,36.3504359 C32.0606,36.6977436 32.1684,36.9766923 32.0573,37.2479231 C31.735,38.055 30.943,38.5136667 30.1741,38.9546923" id="Fill-170" sketch:type="MSShapeGroup"></path>
            <path d="M121.8283,46.3176154 C120.9494,46.3176154 120.0782,45.8798974 119.6085,45.2040256 C118.7076,43.9570256 118.7802,42.1025128 119.7724,40.9778974 C120.2608,40.4089744 121.0308,40.0682821 121.8316,40.0682821 C122.4795,40.0682821 123.0647,40.2976154 123.4794,40.7121795 C123.4992,40.7331282 123.6004,40.7750256 123.629,40.7750256 C123.7907,40.7254103 123.8424,40.6438205 123.8402,40.5578205 L123.8347,40.2954103 C123.8105,39.2854615 123.7874,38.2854359 123.8424,37.3096667 C124.0316,37.2589487 124.2835,37.2049231 124.5255,37.2049231 C124.7906,37.2049231 124.9908,37.2666667 125.1228,37.3868462 C125.1096,38.7441026 125.0887,41.9106667 125.0887,41.9106667 C125.0799,43.2888718 125.0711,44.7133846 125.1129,46.1180513 C124.8687,46.1478205 124.6223,46.1665641 124.377,46.1665641 C124.2021,46.1665641 124.0272,46.156641 123.8534,46.1334872 C123.8765,46.1268718 123.8611,45.9813333 123.8545,45.9262051 C123.8457,45.8413077 123.8358,45.7597179 123.8127,45.683641 C123.7874,45.6075641 123.7258,45.5535385 123.651,45.5381026 L123.6312,45.5381026 C123.5377,45.5381026 123.4838,45.5656667 123.4464,45.6108718 C123.0614,46.0662308 122.4872,46.3176154 121.8283,46.3176154 L121.8283,46.3176154 Z M122.078,41.1917949 C121.847,41.1917949 121.6237,41.2347949 121.4158,41.3163846 C120.4753,41.6835385 120.1871,42.7386923 120.3158,43.5623077 C120.4643,44.5016923 121.0946,45.1400769 121.9229,45.1907949 C121.9801,45.1963077 122.0439,45.2007179 122.1088,45.2007179 C122.8458,45.2007179 123.4486,44.7310256 123.7203,43.9448974 C124.0316,43.043 123.7962,42.0573077 123.1461,41.5457179 C122.8502,41.3174872 122.4707,41.1917949 122.078,41.1917949 L122.078,41.1917949 Z" id="Fill-171" sketch:type="MSShapeGroup"></path>
            <path d="M127.5835,38.786 C127.4031,38.786 127.2381,38.7275641 127.1094,38.6184103 C126.8696,38.4552308 126.7475,38.1917179 126.7673,37.8907179 C126.7871,37.5831026 126.951,37.3162821 127.1963,37.1916923 C127.325,37.1145128 127.4515,37.0792308 127.589,37.0792308 C127.8376,37.0792308 128.0917,37.1983077 128.2666,37.3967692 C128.4217,37.5698718 128.491,37.7826667 128.4624,37.9954615 C128.4481,38.4717692 127.9971,38.786 127.5835,38.786" id="Fill-172" sketch:type="MSShapeGroup"></path>
            <path d="M33.6776,51.3662564 C33.1826,51.1799231 33.1474,50.5194872 33.1826,49.8303846 C33.2409,49.2724872 33.2486,48.6969487 33.2574,48.1390513 C33.2651,47.5800513 33.275,47.0199487 33.33,46.4752821 C33.5071,45.5513333 33.5467,44.5854872 33.5852,43.6505128 C33.5984,43.3087179 33.6127,42.9724359 33.6325,42.6361538 C33.6985,41.9768205 33.825,41.3075641 34.3057,40.9007179 C34.7545,40.4773333 35.4035,40.3373077 35.9183,40.2623333 C36.4166,40.1939744 36.861,39.9844872 37.2889,39.7805128 C37.5386,39.6614359 37.7894,39.542359 38.0501,39.4530513 C38.1502,39.4111538 38.236,39.3924103 38.3196,39.3924103 C38.5715,39.3924103 38.8036,39.5798462 38.9389,39.8951795 C39.1138,40.2976154 39.0764,40.7496667 38.8465,40.9955385 C38.5902,41.2777949 38.2778,41.5214615 37.9742,41.7596154 C37.4385,42.1807949 36.894,42.6074872 36.5728,43.2613077 C36.0052,44.6395128 35.9656,46.1048205 35.9271,47.5205128 C35.9095,48.1677179 35.8908,48.8325641 35.8215,49.4808718 C35.7379,50.5657949 34.65,51.3265641 33.6776,51.3662564" id="Fill-173" sketch:type="MSShapeGroup"></path>
            <path d="M105.776,46.1654615 C105.6099,46.1654615 105.4383,46.156641 105.3195,46.0629231 C105.3228,45.5733846 105.3371,44.9140513 105.3514,44.2767692 C105.3679,43.5435641 105.3855,42.8092564 105.2788,42.0815641 C105.1237,41.5291795 104.6507,41.194 104.0424,41.194 C103.499,41.194 102.8445,41.5016154 102.6949,42.1774872 C102.6102,42.8974615 102.6223,43.6086154 102.6355,44.2977179 C102.6465,44.8997179 102.6564,45.4884872 102.6124,46.0574103 C102.6047,46.1026154 102.5948,46.164359 102.2736,46.164359 L102.0987,46.1621538 C102.0415,46.1621538 101.9876,46.164359 101.9414,46.1676667 C101.8996,46.164359 101.8336,46.1632564 101.7643,46.1632564 C101.3881,46.1632564 101.3584,46.1180513 101.3529,46.0452821 C101.3232,44.4178974 101.332,42.7717692 101.3419,41.1278462 L101.3452,40.402359 C101.3507,40.3130513 101.3573,40.2149231 101.6972,40.2149231 C101.7841,40.2149231 101.8743,40.2215385 101.9623,40.2281538 C102.0833,40.2347692 102.1537,40.2391795 102.2208,40.2391795 L102.3396,40.2336667 C102.4881,40.2336667 102.5618,40.308641 102.5794,40.7298205 C102.5816,40.8191282 102.641,40.8985128 102.7279,40.9249744 C102.7433,40.9260769 102.7565,40.9260769 102.7697,40.9260769 C102.8731,40.9260769 102.9259,40.8963077 102.9611,40.8488974 C103.3318,40.3494359 103.961,40.050641 104.6419,40.050641 C105.3635,40.050641 105.9927,40.3825128 106.3271,40.9393077 C106.348,40.9712821 106.4712,41.0407436 106.5086,41.0407436 C106.5801,41.0407436 106.6472,41.0065641 106.6868,40.9470256 C107.0674,40.3803077 107.7483,40.0407179 108.5095,40.0407179 C109.1651,40.0407179 109.758,40.3009231 110.1364,40.7518718 C110.616,41.3252051 110.605,42.1609487 110.5973,42.8985641 C110.5874,43.3638462 110.5907,43.7673846 110.594,44.1632051 C110.6006,44.8501026 110.605,45.4487949 110.5764,46.0463846 C110.5698,46.1158462 110.539,46.1610513 110.1628,46.164359 C110.099,46.164359 110.0374,46.1654615 109.9835,46.1676667 C109.9527,46.1654615 109.7382,46.164359 109.7382,46.164359 C109.3785,46.164359 109.3719,46.1015128 109.3653,46.035359 C109.318,45.4135128 109.3257,44.7674103 109.3345,44.143359 C109.3433,43.5193077 109.3521,42.8996667 109.3114,42.2833333 C109.2696,41.7518974 108.8439,41.2954359 108.3225,41.2215641 C108.2411,41.1984103 108.1333,41.1851795 108.0233,41.1851795 C107.3028,41.1851795 106.6758,41.7717436 106.6571,42.4652564 C106.623,43.0385897 106.6307,43.619641 106.6384,44.1984872 C106.6483,44.8302564 106.6582,45.4840769 106.6076,46.1235641 C106.5922,46.1456154 106.4822,46.156641 106.2754,46.1588462 C106.1962,46.1588462 106.1192,46.1599487 106.0499,46.1676667 L105.776,46.1654615" id="Fill-174" sketch:type="MSShapeGroup"></path>
            <path d="M115.0644,46.3562051 C114.4704,46.3562051 113.8907,46.1952308 113.4364,45.9052564 C112.6378,45.4278462 112.1252,44.5590256 112.0273,43.5204103 C111.9261,42.4421026 112.299,41.4156154 113.0239,40.7750256 C113.5376,40.2954103 114.2394,40.033 115.0028,40.033 C115.6595,40.033 116.2964,40.2336667 116.798,40.5975128 C117.5284,41.1498974 117.92,42.165359 117.843,43.3120256 C117.8001,43.4277949 117.6296,43.43 117.5482,43.4322051 L116.6616,43.4377179 L114.6574,43.4333077 C114.257,43.4333077 113.8555,43.4344103 113.4551,43.4388205 C113.4243,43.4388205 113.3143,43.490641 113.2945,43.5148974 C113.256,43.5612051 113.2373,43.6229487 113.2483,43.6857949 C113.3902,44.608641 114.1701,45.3054615 115.0611,45.3054615 C115.126,45.3054615 115.1909,45.3021538 115.2569,45.2955385 L115.258,45.2955385 C115.9004,45.2955385 116.358,44.8357692 116.6869,44.4123846 C116.7661,44.4333333 116.8508,44.4498718 116.9344,44.4675128 C117.2919,44.5402821 117.5768,44.5998205 117.7363,44.8192308 C117.3381,45.8446154 116.0753,46.3562051 115.0644,46.3562051 L115.0644,46.3562051 Z M114.9489,40.9977436 C114.1635,40.9977436 113.4496,41.6129744 113.2901,42.4299744 C113.2835,42.4630513 113.3132,42.5832308 113.333,42.6085897 C113.3726,42.656 113.4342,42.6846667 113.4958,42.6846667 C113.9996,42.6890769 114.5067,42.6901795 115.0116,42.6901795 L116.4141,42.6857692 C116.446,42.6857692 116.556,42.6361538 116.5758,42.6107949 C116.6154,42.5655897 116.633,42.5005385 116.622,42.4387949 C116.5109,41.7838718 116.0456,41.0936667 115.2569,41.0308205 C115.1766,41.0098718 115.0611,40.9977436 114.9489,40.9977436 L114.9489,40.9977436 Z" id="Fill-175" sketch:type="MSShapeGroup"></path>
            <path d="M132.561,46.3132051 C131.6887,46.3132051 130.8208,45.8787949 130.3522,45.2095385 C129.3303,43.8081795 129.5679,41.6780256 130.8582,40.6493333 C131.3257,40.2788718 131.9516,40.0649744 132.5742,40.0649744 C133.2243,40.0649744 133.8018,40.2976154 134.2,40.7165897 C134.2187,40.7375385 134.3243,40.781641 134.3529,40.781641 C134.5069,40.7397436 134.5608,40.6658718 134.5641,40.5798718 L134.5795,40.2689487 C134.6906,40.2634359 134.7896,40.2535128 134.8897,40.2435897 C135.036,40.2281538 135.1834,40.2116154 135.3286,40.2116154 C135.5695,40.2116154 135.7433,40.2612308 135.8753,40.3648718 C135.8544,41.8621538 135.8379,43.5567949 135.8225,45.2007179 L135.8137,46.1345897 C135.6674,46.1577436 135.5123,46.1676667 135.3451,46.1676667 C135.0965,46.1676667 134.849,46.1445128 134.6015,46.1125385 L134.618,45.7332564 C134.6224,45.6428462 134.5696,45.5601538 134.486,45.5270769 C134.4596,45.5237692 134.4354,45.5215641 134.4145,45.5215641 C134.3243,45.5215641 134.2792,45.5469231 134.2473,45.5844103 C133.8392,46.0541026 133.2397,46.3132051 132.561,46.3132051 L132.561,46.3132051 Z M132.8173,41.1895897 C132.6534,41.1895897 132.4928,41.2127436 132.3388,41.254641 C131.3191,41.5159487 130.9506,42.57 131.0408,43.4388205 C131.1288,44.2811795 131.6733,45.15 132.6919,45.1918974 C132.7359,45.1974103 132.7931,45.1996154 132.8481,45.1996154 C133.5785,45.1996154 134.1769,44.7409487 134.4508,43.9702564 C134.7698,43.0804872 134.5476,42.0925897 133.9107,41.5699744 C133.6104,41.3241026 133.221,41.1895897 132.8173,41.1895897 L132.8173,41.1895897 Z" id="Fill-176" sketch:type="MSShapeGroup"></path>
            <path d="M127.6011,46.1709744 C127.3965,46.1709744 127.1897,46.1533333 126.9884,46.1202564 C126.9708,46.1015128 126.9631,45.984641 126.9686,45.7839744 C126.9708,45.6792308 126.9708,45.5987436 126.962,45.5248718 C126.973,44.8357692 126.9697,44.1157949 126.9653,43.3969231 C126.9609,42.3594103 126.9554,41.3207949 126.9917,40.2854872 L127.028,40.2457949 C127.0643,40.2557179 127.1017,40.2568205 127.1314,40.2568205 C127.1963,40.2568205 127.2744,40.248 127.3536,40.2391795 C127.5054,40.2215385 127.6473,40.205 127.7848,40.205 C128.029,40.205 128.1841,40.2601282 128.2886,40.3825128 C128.2809,41.2877179 128.2743,42.3461795 128.2688,43.369359 C128.2644,44.0992564 128.26,44.8269487 128.2732,45.5557436 C128.2567,45.6064615 128.2589,45.709 128.2622,45.8060256 C128.2677,46.0794615 128.2435,46.1125385 128.183,46.1323846 C128.0103,46.1544359 127.8057,46.1709744 127.6011,46.1709744" id="Fill-177" sketch:type="MSShapeGroup"></path>
            <path d="M28.1028,54.4843077 C27.9356,54.4843077 27.7717,54.4170513 27.6639,54.3056923 C27.5715,54.2086667 27.5264,54.0917949 27.5308,53.9539744 C27.478,52.5415897 27.5924,51.1258974 27.7013,49.7565128 C27.7717,48.8766667 27.8531,47.8788462 27.8784,46.9218205 L27.8982,46.6318462 C27.9686,45.5204615 28.0401,44.3715897 28.7958,43.5711282 C29.1401,43.2546923 29.6714,42.8257949 30.2423,42.8257949 C30.2885,42.8257949 30.3369,42.8291026 30.3853,42.8346154 C30.5921,42.8919487 30.6581,43.1157692 30.7395,43.4774103 C30.7637,43.5810513 30.789,43.6846923 30.8176,43.7795128 L30.7164,43.8147949 C30.6625,43.8765385 30.6482,43.9603333 30.679,44.0353077 C30.8979,44.5921026 30.7791,45.1786667 30.6526,45.7994103 C30.5877,46.1147436 30.5261,46.4256667 30.5052,46.7332821 C30.4788,47.4642821 30.3666,48.1963846 30.2588,48.9042308 C30.118,49.8237692 29.975,50.7642564 30.0047,51.7179744 C29.9937,52.2361795 29.8716,52.7643077 29.7407,53.2538462 C29.7209,53.3310256 29.7451,53.4082051 29.7979,53.4611282 C29.6637,53.5559487 29.5328,53.6562821 29.4008,53.7555128 C29.051,54.0223333 28.6957,54.2924615 28.2997,54.4523333 C28.2425,54.4732821 28.1721,54.4843077 28.1028,54.4843077" id="Fill-178" sketch:type="MSShapeGroup"></path>
        </g>
    </g>
</svg>